G04 #@! TF.GenerationSoftware,KiCad,Pcbnew,7.0.7*
G04 #@! TF.CreationDate,2024-02-27T11:45:06-06:00*
G04 #@! TF.ProjectId,CapBankBreakout,43617042-616e-46b4-9272-65616b6f7574,rev?*
G04 #@! TF.SameCoordinates,Original*
G04 #@! TF.FileFunction,Legend,Top*
G04 #@! TF.FilePolarity,Positive*
%FSLAX46Y46*%
G04 Gerber Fmt 4.6, Leading zero omitted, Abs format (unit mm)*
G04 Created by KiCad (PCBNEW 7.0.7) date 2024-02-27 11:45:06*
%MOMM*%
%LPD*%
G01*
G04 APERTURE LIST*
%ADD10C,0.500000*%
%ADD11C,0.150000*%
%ADD12C,0.100000*%
%ADD13C,1.270000*%
%ADD14C,0.381000*%
%ADD15C,0.152400*%
%ADD16R,18.288000X18.288000*%
%ADD17C,0.500000*%
%ADD18R,2.082800X2.082800*%
%ADD19C,2.082800*%
G04 APERTURE END LIST*
D10*
X110878761Y-169952382D02*
X110974000Y-170047620D01*
X110974000Y-170047620D02*
X111069238Y-170333334D01*
X111069238Y-170333334D02*
X111069238Y-170523810D01*
X111069238Y-170523810D02*
X110974000Y-170809525D01*
X110974000Y-170809525D02*
X110783523Y-171000001D01*
X110783523Y-171000001D02*
X110593047Y-171095239D01*
X110593047Y-171095239D02*
X110212095Y-171190477D01*
X110212095Y-171190477D02*
X109926380Y-171190477D01*
X109926380Y-171190477D02*
X109545428Y-171095239D01*
X109545428Y-171095239D02*
X109354952Y-171000001D01*
X109354952Y-171000001D02*
X109164476Y-170809525D01*
X109164476Y-170809525D02*
X109069238Y-170523810D01*
X109069238Y-170523810D02*
X109069238Y-170333334D01*
X109069238Y-170333334D02*
X109164476Y-170047620D01*
X109164476Y-170047620D02*
X109259714Y-169952382D01*
X111069238Y-168238096D02*
X110021619Y-168238096D01*
X110021619Y-168238096D02*
X109831142Y-168333334D01*
X109831142Y-168333334D02*
X109735904Y-168523810D01*
X109735904Y-168523810D02*
X109735904Y-168904763D01*
X109735904Y-168904763D02*
X109831142Y-169095239D01*
X110974000Y-168238096D02*
X111069238Y-168428572D01*
X111069238Y-168428572D02*
X111069238Y-168904763D01*
X111069238Y-168904763D02*
X110974000Y-169095239D01*
X110974000Y-169095239D02*
X110783523Y-169190477D01*
X110783523Y-169190477D02*
X110593047Y-169190477D01*
X110593047Y-169190477D02*
X110402571Y-169095239D01*
X110402571Y-169095239D02*
X110307333Y-168904763D01*
X110307333Y-168904763D02*
X110307333Y-168428572D01*
X110307333Y-168428572D02*
X110212095Y-168238096D01*
X109735904Y-167285715D02*
X111735904Y-167285715D01*
X109831142Y-167285715D02*
X109735904Y-167095239D01*
X109735904Y-167095239D02*
X109735904Y-166714286D01*
X109735904Y-166714286D02*
X109831142Y-166523810D01*
X109831142Y-166523810D02*
X109926380Y-166428572D01*
X109926380Y-166428572D02*
X110116857Y-166333334D01*
X110116857Y-166333334D02*
X110688285Y-166333334D01*
X110688285Y-166333334D02*
X110878761Y-166428572D01*
X110878761Y-166428572D02*
X110974000Y-166523810D01*
X110974000Y-166523810D02*
X111069238Y-166714286D01*
X111069238Y-166714286D02*
X111069238Y-167095239D01*
X111069238Y-167095239D02*
X110974000Y-167285715D01*
X111069238Y-164619048D02*
X110021619Y-164619048D01*
X110021619Y-164619048D02*
X109831142Y-164714286D01*
X109831142Y-164714286D02*
X109735904Y-164904762D01*
X109735904Y-164904762D02*
X109735904Y-165285715D01*
X109735904Y-165285715D02*
X109831142Y-165476191D01*
X110974000Y-164619048D02*
X111069238Y-164809524D01*
X111069238Y-164809524D02*
X111069238Y-165285715D01*
X111069238Y-165285715D02*
X110974000Y-165476191D01*
X110974000Y-165476191D02*
X110783523Y-165571429D01*
X110783523Y-165571429D02*
X110593047Y-165571429D01*
X110593047Y-165571429D02*
X110402571Y-165476191D01*
X110402571Y-165476191D02*
X110307333Y-165285715D01*
X110307333Y-165285715D02*
X110307333Y-164809524D01*
X110307333Y-164809524D02*
X110212095Y-164619048D01*
X110974000Y-162809524D02*
X111069238Y-163000000D01*
X111069238Y-163000000D02*
X111069238Y-163380953D01*
X111069238Y-163380953D02*
X110974000Y-163571429D01*
X110974000Y-163571429D02*
X110878761Y-163666667D01*
X110878761Y-163666667D02*
X110688285Y-163761905D01*
X110688285Y-163761905D02*
X110116857Y-163761905D01*
X110116857Y-163761905D02*
X109926380Y-163666667D01*
X109926380Y-163666667D02*
X109831142Y-163571429D01*
X109831142Y-163571429D02*
X109735904Y-163380953D01*
X109735904Y-163380953D02*
X109735904Y-163000000D01*
X109735904Y-163000000D02*
X109831142Y-162809524D01*
X111069238Y-161952381D02*
X109735904Y-161952381D01*
X109069238Y-161952381D02*
X109164476Y-162047619D01*
X109164476Y-162047619D02*
X109259714Y-161952381D01*
X109259714Y-161952381D02*
X109164476Y-161857143D01*
X109164476Y-161857143D02*
X109069238Y-161952381D01*
X109069238Y-161952381D02*
X109259714Y-161952381D01*
X109735904Y-161285714D02*
X109735904Y-160523810D01*
X109069238Y-161000000D02*
X110783523Y-161000000D01*
X110783523Y-161000000D02*
X110974000Y-160904762D01*
X110974000Y-160904762D02*
X111069238Y-160714286D01*
X111069238Y-160714286D02*
X111069238Y-160523810D01*
X111069238Y-159571429D02*
X110974000Y-159761905D01*
X110974000Y-159761905D02*
X110878761Y-159857143D01*
X110878761Y-159857143D02*
X110688285Y-159952381D01*
X110688285Y-159952381D02*
X110116857Y-159952381D01*
X110116857Y-159952381D02*
X109926380Y-159857143D01*
X109926380Y-159857143D02*
X109831142Y-159761905D01*
X109831142Y-159761905D02*
X109735904Y-159571429D01*
X109735904Y-159571429D02*
X109735904Y-159285714D01*
X109735904Y-159285714D02*
X109831142Y-159095238D01*
X109831142Y-159095238D02*
X109926380Y-159000000D01*
X109926380Y-159000000D02*
X110116857Y-158904762D01*
X110116857Y-158904762D02*
X110688285Y-158904762D01*
X110688285Y-158904762D02*
X110878761Y-159000000D01*
X110878761Y-159000000D02*
X110974000Y-159095238D01*
X110974000Y-159095238D02*
X111069238Y-159285714D01*
X111069238Y-159285714D02*
X111069238Y-159571429D01*
X111069238Y-158047619D02*
X109735904Y-158047619D01*
X110116857Y-158047619D02*
X109926380Y-157952381D01*
X109926380Y-157952381D02*
X109831142Y-157857143D01*
X109831142Y-157857143D02*
X109735904Y-157666667D01*
X109735904Y-157666667D02*
X109735904Y-157476190D01*
X110021619Y-154619047D02*
X110116857Y-154333333D01*
X110116857Y-154333333D02*
X110212095Y-154238095D01*
X110212095Y-154238095D02*
X110402571Y-154142857D01*
X110402571Y-154142857D02*
X110688285Y-154142857D01*
X110688285Y-154142857D02*
X110878761Y-154238095D01*
X110878761Y-154238095D02*
X110974000Y-154333333D01*
X110974000Y-154333333D02*
X111069238Y-154523809D01*
X111069238Y-154523809D02*
X111069238Y-155285714D01*
X111069238Y-155285714D02*
X109069238Y-155285714D01*
X109069238Y-155285714D02*
X109069238Y-154619047D01*
X109069238Y-154619047D02*
X109164476Y-154428571D01*
X109164476Y-154428571D02*
X109259714Y-154333333D01*
X109259714Y-154333333D02*
X109450190Y-154238095D01*
X109450190Y-154238095D02*
X109640666Y-154238095D01*
X109640666Y-154238095D02*
X109831142Y-154333333D01*
X109831142Y-154333333D02*
X109926380Y-154428571D01*
X109926380Y-154428571D02*
X110021619Y-154619047D01*
X110021619Y-154619047D02*
X110021619Y-155285714D01*
X111069238Y-152428571D02*
X110021619Y-152428571D01*
X110021619Y-152428571D02*
X109831142Y-152523809D01*
X109831142Y-152523809D02*
X109735904Y-152714285D01*
X109735904Y-152714285D02*
X109735904Y-153095238D01*
X109735904Y-153095238D02*
X109831142Y-153285714D01*
X110974000Y-152428571D02*
X111069238Y-152619047D01*
X111069238Y-152619047D02*
X111069238Y-153095238D01*
X111069238Y-153095238D02*
X110974000Y-153285714D01*
X110974000Y-153285714D02*
X110783523Y-153380952D01*
X110783523Y-153380952D02*
X110593047Y-153380952D01*
X110593047Y-153380952D02*
X110402571Y-153285714D01*
X110402571Y-153285714D02*
X110307333Y-153095238D01*
X110307333Y-153095238D02*
X110307333Y-152619047D01*
X110307333Y-152619047D02*
X110212095Y-152428571D01*
X109735904Y-151476190D02*
X111069238Y-151476190D01*
X109926380Y-151476190D02*
X109831142Y-151380952D01*
X109831142Y-151380952D02*
X109735904Y-151190476D01*
X109735904Y-151190476D02*
X109735904Y-150904761D01*
X109735904Y-150904761D02*
X109831142Y-150714285D01*
X109831142Y-150714285D02*
X110021619Y-150619047D01*
X110021619Y-150619047D02*
X111069238Y-150619047D01*
X111069238Y-149666666D02*
X109069238Y-149666666D01*
X110307333Y-149476190D02*
X111069238Y-148904761D01*
X109735904Y-148904761D02*
X110497809Y-149666666D01*
X110021619Y-145857141D02*
X110116857Y-145571427D01*
X110116857Y-145571427D02*
X110212095Y-145476189D01*
X110212095Y-145476189D02*
X110402571Y-145380951D01*
X110402571Y-145380951D02*
X110688285Y-145380951D01*
X110688285Y-145380951D02*
X110878761Y-145476189D01*
X110878761Y-145476189D02*
X110974000Y-145571427D01*
X110974000Y-145571427D02*
X111069238Y-145761903D01*
X111069238Y-145761903D02*
X111069238Y-146523808D01*
X111069238Y-146523808D02*
X109069238Y-146523808D01*
X109069238Y-146523808D02*
X109069238Y-145857141D01*
X109069238Y-145857141D02*
X109164476Y-145666665D01*
X109164476Y-145666665D02*
X109259714Y-145571427D01*
X109259714Y-145571427D02*
X109450190Y-145476189D01*
X109450190Y-145476189D02*
X109640666Y-145476189D01*
X109640666Y-145476189D02*
X109831142Y-145571427D01*
X109831142Y-145571427D02*
X109926380Y-145666665D01*
X109926380Y-145666665D02*
X110021619Y-145857141D01*
X110021619Y-145857141D02*
X110021619Y-146523808D01*
X111069238Y-144523808D02*
X109735904Y-144523808D01*
X110116857Y-144523808D02*
X109926380Y-144428570D01*
X109926380Y-144428570D02*
X109831142Y-144333332D01*
X109831142Y-144333332D02*
X109735904Y-144142856D01*
X109735904Y-144142856D02*
X109735904Y-143952379D01*
X110974000Y-142523808D02*
X111069238Y-142714284D01*
X111069238Y-142714284D02*
X111069238Y-143095237D01*
X111069238Y-143095237D02*
X110974000Y-143285713D01*
X110974000Y-143285713D02*
X110783523Y-143380951D01*
X110783523Y-143380951D02*
X110021619Y-143380951D01*
X110021619Y-143380951D02*
X109831142Y-143285713D01*
X109831142Y-143285713D02*
X109735904Y-143095237D01*
X109735904Y-143095237D02*
X109735904Y-142714284D01*
X109735904Y-142714284D02*
X109831142Y-142523808D01*
X109831142Y-142523808D02*
X110021619Y-142428570D01*
X110021619Y-142428570D02*
X110212095Y-142428570D01*
X110212095Y-142428570D02*
X110402571Y-143380951D01*
X111069238Y-140714284D02*
X110021619Y-140714284D01*
X110021619Y-140714284D02*
X109831142Y-140809522D01*
X109831142Y-140809522D02*
X109735904Y-140999998D01*
X109735904Y-140999998D02*
X109735904Y-141380951D01*
X109735904Y-141380951D02*
X109831142Y-141571427D01*
X110974000Y-140714284D02*
X111069238Y-140904760D01*
X111069238Y-140904760D02*
X111069238Y-141380951D01*
X111069238Y-141380951D02*
X110974000Y-141571427D01*
X110974000Y-141571427D02*
X110783523Y-141666665D01*
X110783523Y-141666665D02*
X110593047Y-141666665D01*
X110593047Y-141666665D02*
X110402571Y-141571427D01*
X110402571Y-141571427D02*
X110307333Y-141380951D01*
X110307333Y-141380951D02*
X110307333Y-140904760D01*
X110307333Y-140904760D02*
X110212095Y-140714284D01*
X111069238Y-139761903D02*
X109069238Y-139761903D01*
X110307333Y-139571427D02*
X111069238Y-138999998D01*
X109735904Y-138999998D02*
X110497809Y-139761903D01*
X111069238Y-137857141D02*
X110974000Y-138047617D01*
X110974000Y-138047617D02*
X110878761Y-138142855D01*
X110878761Y-138142855D02*
X110688285Y-138238093D01*
X110688285Y-138238093D02*
X110116857Y-138238093D01*
X110116857Y-138238093D02*
X109926380Y-138142855D01*
X109926380Y-138142855D02*
X109831142Y-138047617D01*
X109831142Y-138047617D02*
X109735904Y-137857141D01*
X109735904Y-137857141D02*
X109735904Y-137571426D01*
X109735904Y-137571426D02*
X109831142Y-137380950D01*
X109831142Y-137380950D02*
X109926380Y-137285712D01*
X109926380Y-137285712D02*
X110116857Y-137190474D01*
X110116857Y-137190474D02*
X110688285Y-137190474D01*
X110688285Y-137190474D02*
X110878761Y-137285712D01*
X110878761Y-137285712D02*
X110974000Y-137380950D01*
X110974000Y-137380950D02*
X111069238Y-137571426D01*
X111069238Y-137571426D02*
X111069238Y-137857141D01*
X109735904Y-135476188D02*
X111069238Y-135476188D01*
X109735904Y-136333331D02*
X110783523Y-136333331D01*
X110783523Y-136333331D02*
X110974000Y-136238093D01*
X110974000Y-136238093D02*
X111069238Y-136047617D01*
X111069238Y-136047617D02*
X111069238Y-135761902D01*
X111069238Y-135761902D02*
X110974000Y-135571426D01*
X110974000Y-135571426D02*
X110878761Y-135476188D01*
X109735904Y-134809521D02*
X109735904Y-134047617D01*
X109069238Y-134523807D02*
X110783523Y-134523807D01*
X110783523Y-134523807D02*
X110974000Y-134428569D01*
X110974000Y-134428569D02*
X111069238Y-134238093D01*
X111069238Y-134238093D02*
X111069238Y-134047617D01*
X111069238Y-130714283D02*
X110116857Y-131380950D01*
X111069238Y-131857140D02*
X109069238Y-131857140D01*
X109069238Y-131857140D02*
X109069238Y-131095235D01*
X109069238Y-131095235D02*
X109164476Y-130904759D01*
X109164476Y-130904759D02*
X109259714Y-130809521D01*
X109259714Y-130809521D02*
X109450190Y-130714283D01*
X109450190Y-130714283D02*
X109735904Y-130714283D01*
X109735904Y-130714283D02*
X109926380Y-130809521D01*
X109926380Y-130809521D02*
X110021619Y-130904759D01*
X110021619Y-130904759D02*
X110116857Y-131095235D01*
X110116857Y-131095235D02*
X110116857Y-131857140D01*
X111069238Y-128809521D02*
X111069238Y-129952378D01*
X111069238Y-129380950D02*
X109069238Y-129380950D01*
X109069238Y-129380950D02*
X109354952Y-129571426D01*
X109354952Y-129571426D02*
X109545428Y-129761902D01*
X109545428Y-129761902D02*
X109640666Y-129952378D01*
X112289238Y-162952382D02*
X112670190Y-162952382D01*
X112289238Y-162190477D02*
X112670190Y-162190477D01*
X114289238Y-161333334D02*
X112289238Y-161333334D01*
X114289238Y-160190477D02*
X113146380Y-161047620D01*
X112289238Y-160190477D02*
X113432095Y-161333334D01*
X114289238Y-159333334D02*
X112955904Y-159333334D01*
X112289238Y-159333334D02*
X112384476Y-159428572D01*
X112384476Y-159428572D02*
X112479714Y-159333334D01*
X112479714Y-159333334D02*
X112384476Y-159238096D01*
X112384476Y-159238096D02*
X112289238Y-159333334D01*
X112289238Y-159333334D02*
X112479714Y-159333334D01*
X112955904Y-158380953D02*
X114289238Y-158380953D01*
X113146380Y-158380953D02*
X113051142Y-158285715D01*
X113051142Y-158285715D02*
X112955904Y-158095239D01*
X112955904Y-158095239D02*
X112955904Y-157809524D01*
X112955904Y-157809524D02*
X113051142Y-157619048D01*
X113051142Y-157619048D02*
X113241619Y-157523810D01*
X113241619Y-157523810D02*
X114289238Y-157523810D01*
X114194000Y-155809524D02*
X114289238Y-156000000D01*
X114289238Y-156000000D02*
X114289238Y-156380953D01*
X114289238Y-156380953D02*
X114194000Y-156571429D01*
X114194000Y-156571429D02*
X114003523Y-156666667D01*
X114003523Y-156666667D02*
X113241619Y-156666667D01*
X113241619Y-156666667D02*
X113051142Y-156571429D01*
X113051142Y-156571429D02*
X112955904Y-156380953D01*
X112955904Y-156380953D02*
X112955904Y-156000000D01*
X112955904Y-156000000D02*
X113051142Y-155809524D01*
X113051142Y-155809524D02*
X113241619Y-155714286D01*
X113241619Y-155714286D02*
X113432095Y-155714286D01*
X113432095Y-155714286D02*
X113622571Y-156666667D01*
X112955904Y-155142857D02*
X112955904Y-154380953D01*
X112289238Y-154857143D02*
X114003523Y-154857143D01*
X114003523Y-154857143D02*
X114194000Y-154761905D01*
X114194000Y-154761905D02*
X114289238Y-154571429D01*
X114289238Y-154571429D02*
X114289238Y-154380953D01*
X114289238Y-153714286D02*
X112955904Y-153714286D01*
X112289238Y-153714286D02*
X112384476Y-153809524D01*
X112384476Y-153809524D02*
X112479714Y-153714286D01*
X112479714Y-153714286D02*
X112384476Y-153619048D01*
X112384476Y-153619048D02*
X112289238Y-153714286D01*
X112289238Y-153714286D02*
X112479714Y-153714286D01*
X114194000Y-151904762D02*
X114289238Y-152095238D01*
X114289238Y-152095238D02*
X114289238Y-152476191D01*
X114289238Y-152476191D02*
X114194000Y-152666667D01*
X114194000Y-152666667D02*
X114098761Y-152761905D01*
X114098761Y-152761905D02*
X113908285Y-152857143D01*
X113908285Y-152857143D02*
X113336857Y-152857143D01*
X113336857Y-152857143D02*
X113146380Y-152761905D01*
X113146380Y-152761905D02*
X113051142Y-152666667D01*
X113051142Y-152666667D02*
X112955904Y-152476191D01*
X112955904Y-152476191D02*
X112955904Y-152095238D01*
X112955904Y-152095238D02*
X113051142Y-151904762D01*
X113717809Y-149619047D02*
X113717809Y-148666666D01*
X114289238Y-149809523D02*
X112289238Y-149142857D01*
X112289238Y-149142857D02*
X114289238Y-148476190D01*
X112955904Y-147809523D02*
X114289238Y-147809523D01*
X113146380Y-147809523D02*
X113051142Y-147714285D01*
X113051142Y-147714285D02*
X112955904Y-147523809D01*
X112955904Y-147523809D02*
X112955904Y-147238094D01*
X112955904Y-147238094D02*
X113051142Y-147047618D01*
X113051142Y-147047618D02*
X113241619Y-146952380D01*
X113241619Y-146952380D02*
X114289238Y-146952380D01*
X112955904Y-146285713D02*
X112955904Y-145523809D01*
X112289238Y-145999999D02*
X114003523Y-145999999D01*
X114003523Y-145999999D02*
X114194000Y-145904761D01*
X114194000Y-145904761D02*
X114289238Y-145714285D01*
X114289238Y-145714285D02*
X114289238Y-145523809D01*
X114194000Y-144095237D02*
X114289238Y-144285713D01*
X114289238Y-144285713D02*
X114289238Y-144666666D01*
X114289238Y-144666666D02*
X114194000Y-144857142D01*
X114194000Y-144857142D02*
X114003523Y-144952380D01*
X114003523Y-144952380D02*
X113241619Y-144952380D01*
X113241619Y-144952380D02*
X113051142Y-144857142D01*
X113051142Y-144857142D02*
X112955904Y-144666666D01*
X112955904Y-144666666D02*
X112955904Y-144285713D01*
X112955904Y-144285713D02*
X113051142Y-144095237D01*
X113051142Y-144095237D02*
X113241619Y-143999999D01*
X113241619Y-143999999D02*
X113432095Y-143999999D01*
X113432095Y-143999999D02*
X113622571Y-144952380D01*
X112955904Y-143142856D02*
X114289238Y-143142856D01*
X113146380Y-143142856D02*
X113051142Y-143047618D01*
X113051142Y-143047618D02*
X112955904Y-142857142D01*
X112955904Y-142857142D02*
X112955904Y-142571427D01*
X112955904Y-142571427D02*
X113051142Y-142380951D01*
X113051142Y-142380951D02*
X113241619Y-142285713D01*
X113241619Y-142285713D02*
X114289238Y-142285713D01*
X112955904Y-141333332D02*
X114289238Y-141333332D01*
X113146380Y-141333332D02*
X113051142Y-141238094D01*
X113051142Y-141238094D02*
X112955904Y-141047618D01*
X112955904Y-141047618D02*
X112955904Y-140761903D01*
X112955904Y-140761903D02*
X113051142Y-140571427D01*
X113051142Y-140571427D02*
X113241619Y-140476189D01*
X113241619Y-140476189D02*
X114289238Y-140476189D01*
X114289238Y-138666665D02*
X113241619Y-138666665D01*
X113241619Y-138666665D02*
X113051142Y-138761903D01*
X113051142Y-138761903D02*
X112955904Y-138952379D01*
X112955904Y-138952379D02*
X112955904Y-139333332D01*
X112955904Y-139333332D02*
X113051142Y-139523808D01*
X114194000Y-138666665D02*
X114289238Y-138857141D01*
X114289238Y-138857141D02*
X114289238Y-139333332D01*
X114289238Y-139333332D02*
X114194000Y-139523808D01*
X114194000Y-139523808D02*
X114003523Y-139619046D01*
X114003523Y-139619046D02*
X113813047Y-139619046D01*
X113813047Y-139619046D02*
X113622571Y-139523808D01*
X113622571Y-139523808D02*
X113527333Y-139333332D01*
X113527333Y-139333332D02*
X113527333Y-138857141D01*
X113527333Y-138857141D02*
X113432095Y-138666665D01*
X112289238Y-137809522D02*
X112670190Y-137809522D01*
X112289238Y-137047617D02*
X112670190Y-137047617D01*
X117414000Y-165857143D02*
X117509238Y-165571429D01*
X117509238Y-165571429D02*
X117509238Y-165095238D01*
X117509238Y-165095238D02*
X117414000Y-164904762D01*
X117414000Y-164904762D02*
X117318761Y-164809524D01*
X117318761Y-164809524D02*
X117128285Y-164714286D01*
X117128285Y-164714286D02*
X116937809Y-164714286D01*
X116937809Y-164714286D02*
X116747333Y-164809524D01*
X116747333Y-164809524D02*
X116652095Y-164904762D01*
X116652095Y-164904762D02*
X116556857Y-165095238D01*
X116556857Y-165095238D02*
X116461619Y-165476191D01*
X116461619Y-165476191D02*
X116366380Y-165666667D01*
X116366380Y-165666667D02*
X116271142Y-165761905D01*
X116271142Y-165761905D02*
X116080666Y-165857143D01*
X116080666Y-165857143D02*
X115890190Y-165857143D01*
X115890190Y-165857143D02*
X115699714Y-165761905D01*
X115699714Y-165761905D02*
X115604476Y-165666667D01*
X115604476Y-165666667D02*
X115509238Y-165476191D01*
X115509238Y-165476191D02*
X115509238Y-165000000D01*
X115509238Y-165000000D02*
X115604476Y-164714286D01*
X117414000Y-163095238D02*
X117509238Y-163285714D01*
X117509238Y-163285714D02*
X117509238Y-163666667D01*
X117509238Y-163666667D02*
X117414000Y-163857143D01*
X117414000Y-163857143D02*
X117223523Y-163952381D01*
X117223523Y-163952381D02*
X116461619Y-163952381D01*
X116461619Y-163952381D02*
X116271142Y-163857143D01*
X116271142Y-163857143D02*
X116175904Y-163666667D01*
X116175904Y-163666667D02*
X116175904Y-163285714D01*
X116175904Y-163285714D02*
X116271142Y-163095238D01*
X116271142Y-163095238D02*
X116461619Y-163000000D01*
X116461619Y-163000000D02*
X116652095Y-163000000D01*
X116652095Y-163000000D02*
X116842571Y-163952381D01*
X116175904Y-162142857D02*
X117509238Y-162142857D01*
X116366380Y-162142857D02*
X116271142Y-162047619D01*
X116271142Y-162047619D02*
X116175904Y-161857143D01*
X116175904Y-161857143D02*
X116175904Y-161571428D01*
X116175904Y-161571428D02*
X116271142Y-161380952D01*
X116271142Y-161380952D02*
X116461619Y-161285714D01*
X116461619Y-161285714D02*
X117509238Y-161285714D01*
X117509238Y-160333333D02*
X116175904Y-160333333D01*
X115509238Y-160333333D02*
X115604476Y-160428571D01*
X115604476Y-160428571D02*
X115699714Y-160333333D01*
X115699714Y-160333333D02*
X115604476Y-160238095D01*
X115604476Y-160238095D02*
X115509238Y-160333333D01*
X115509238Y-160333333D02*
X115699714Y-160333333D01*
X117509238Y-159095238D02*
X117414000Y-159285714D01*
X117414000Y-159285714D02*
X117318761Y-159380952D01*
X117318761Y-159380952D02*
X117128285Y-159476190D01*
X117128285Y-159476190D02*
X116556857Y-159476190D01*
X116556857Y-159476190D02*
X116366380Y-159380952D01*
X116366380Y-159380952D02*
X116271142Y-159285714D01*
X116271142Y-159285714D02*
X116175904Y-159095238D01*
X116175904Y-159095238D02*
X116175904Y-158809523D01*
X116175904Y-158809523D02*
X116271142Y-158619047D01*
X116271142Y-158619047D02*
X116366380Y-158523809D01*
X116366380Y-158523809D02*
X116556857Y-158428571D01*
X116556857Y-158428571D02*
X117128285Y-158428571D01*
X117128285Y-158428571D02*
X117318761Y-158523809D01*
X117318761Y-158523809D02*
X117414000Y-158619047D01*
X117414000Y-158619047D02*
X117509238Y-158809523D01*
X117509238Y-158809523D02*
X117509238Y-159095238D01*
X117509238Y-157571428D02*
X116175904Y-157571428D01*
X116556857Y-157571428D02*
X116366380Y-157476190D01*
X116366380Y-157476190D02*
X116271142Y-157380952D01*
X116271142Y-157380952D02*
X116175904Y-157190476D01*
X116175904Y-157190476D02*
X116175904Y-156999999D01*
X117509238Y-154809523D02*
X115509238Y-154809523D01*
X115509238Y-154809523D02*
X115509238Y-154333333D01*
X115509238Y-154333333D02*
X115604476Y-154047618D01*
X115604476Y-154047618D02*
X115794952Y-153857142D01*
X115794952Y-153857142D02*
X115985428Y-153761904D01*
X115985428Y-153761904D02*
X116366380Y-153666666D01*
X116366380Y-153666666D02*
X116652095Y-153666666D01*
X116652095Y-153666666D02*
X117033047Y-153761904D01*
X117033047Y-153761904D02*
X117223523Y-153857142D01*
X117223523Y-153857142D02*
X117414000Y-154047618D01*
X117414000Y-154047618D02*
X117509238Y-154333333D01*
X117509238Y-154333333D02*
X117509238Y-154809523D01*
X117414000Y-152047618D02*
X117509238Y-152238094D01*
X117509238Y-152238094D02*
X117509238Y-152619047D01*
X117509238Y-152619047D02*
X117414000Y-152809523D01*
X117414000Y-152809523D02*
X117223523Y-152904761D01*
X117223523Y-152904761D02*
X116461619Y-152904761D01*
X116461619Y-152904761D02*
X116271142Y-152809523D01*
X116271142Y-152809523D02*
X116175904Y-152619047D01*
X116175904Y-152619047D02*
X116175904Y-152238094D01*
X116175904Y-152238094D02*
X116271142Y-152047618D01*
X116271142Y-152047618D02*
X116461619Y-151952380D01*
X116461619Y-151952380D02*
X116652095Y-151952380D01*
X116652095Y-151952380D02*
X116842571Y-152904761D01*
X117414000Y-151190475D02*
X117509238Y-150999999D01*
X117509238Y-150999999D02*
X117509238Y-150619047D01*
X117509238Y-150619047D02*
X117414000Y-150428570D01*
X117414000Y-150428570D02*
X117223523Y-150333332D01*
X117223523Y-150333332D02*
X117128285Y-150333332D01*
X117128285Y-150333332D02*
X116937809Y-150428570D01*
X116937809Y-150428570D02*
X116842571Y-150619047D01*
X116842571Y-150619047D02*
X116842571Y-150904761D01*
X116842571Y-150904761D02*
X116747333Y-151095237D01*
X116747333Y-151095237D02*
X116556857Y-151190475D01*
X116556857Y-151190475D02*
X116461619Y-151190475D01*
X116461619Y-151190475D02*
X116271142Y-151095237D01*
X116271142Y-151095237D02*
X116175904Y-150904761D01*
X116175904Y-150904761D02*
X116175904Y-150619047D01*
X116175904Y-150619047D02*
X116271142Y-150428570D01*
X117509238Y-149476189D02*
X116175904Y-149476189D01*
X115509238Y-149476189D02*
X115604476Y-149571427D01*
X115604476Y-149571427D02*
X115699714Y-149476189D01*
X115699714Y-149476189D02*
X115604476Y-149380951D01*
X115604476Y-149380951D02*
X115509238Y-149476189D01*
X115509238Y-149476189D02*
X115699714Y-149476189D01*
X116175904Y-147666665D02*
X117794952Y-147666665D01*
X117794952Y-147666665D02*
X117985428Y-147761903D01*
X117985428Y-147761903D02*
X118080666Y-147857141D01*
X118080666Y-147857141D02*
X118175904Y-148047618D01*
X118175904Y-148047618D02*
X118175904Y-148333332D01*
X118175904Y-148333332D02*
X118080666Y-148523808D01*
X117414000Y-147666665D02*
X117509238Y-147857141D01*
X117509238Y-147857141D02*
X117509238Y-148238094D01*
X117509238Y-148238094D02*
X117414000Y-148428570D01*
X117414000Y-148428570D02*
X117318761Y-148523808D01*
X117318761Y-148523808D02*
X117128285Y-148619046D01*
X117128285Y-148619046D02*
X116556857Y-148619046D01*
X116556857Y-148619046D02*
X116366380Y-148523808D01*
X116366380Y-148523808D02*
X116271142Y-148428570D01*
X116271142Y-148428570D02*
X116175904Y-148238094D01*
X116175904Y-148238094D02*
X116175904Y-147857141D01*
X116175904Y-147857141D02*
X116271142Y-147666665D01*
X116175904Y-146714284D02*
X117509238Y-146714284D01*
X116366380Y-146714284D02*
X116271142Y-146619046D01*
X116271142Y-146619046D02*
X116175904Y-146428570D01*
X116175904Y-146428570D02*
X116175904Y-146142855D01*
X116175904Y-146142855D02*
X116271142Y-145952379D01*
X116271142Y-145952379D02*
X116461619Y-145857141D01*
X116461619Y-145857141D02*
X117509238Y-145857141D01*
X115699714Y-143476188D02*
X115604476Y-143380950D01*
X115604476Y-143380950D02*
X115509238Y-143190474D01*
X115509238Y-143190474D02*
X115509238Y-142714283D01*
X115509238Y-142714283D02*
X115604476Y-142523807D01*
X115604476Y-142523807D02*
X115699714Y-142428569D01*
X115699714Y-142428569D02*
X115890190Y-142333331D01*
X115890190Y-142333331D02*
X116080666Y-142333331D01*
X116080666Y-142333331D02*
X116366380Y-142428569D01*
X116366380Y-142428569D02*
X117509238Y-143571426D01*
X117509238Y-143571426D02*
X117509238Y-142333331D01*
X115509238Y-141666664D02*
X115509238Y-140428569D01*
X115509238Y-140428569D02*
X116271142Y-141095236D01*
X116271142Y-141095236D02*
X116271142Y-140809521D01*
X116271142Y-140809521D02*
X116366380Y-140619045D01*
X116366380Y-140619045D02*
X116461619Y-140523807D01*
X116461619Y-140523807D02*
X116652095Y-140428569D01*
X116652095Y-140428569D02*
X117128285Y-140428569D01*
X117128285Y-140428569D02*
X117318761Y-140523807D01*
X117318761Y-140523807D02*
X117414000Y-140619045D01*
X117414000Y-140619045D02*
X117509238Y-140809521D01*
X117509238Y-140809521D02*
X117509238Y-141380950D01*
X117509238Y-141380950D02*
X117414000Y-141571426D01*
X117414000Y-141571426D02*
X117318761Y-141666664D01*
X116747333Y-139571426D02*
X116747333Y-138047617D01*
X115699714Y-137190474D02*
X115604476Y-137095236D01*
X115604476Y-137095236D02*
X115509238Y-136904760D01*
X115509238Y-136904760D02*
X115509238Y-136428569D01*
X115509238Y-136428569D02*
X115604476Y-136238093D01*
X115604476Y-136238093D02*
X115699714Y-136142855D01*
X115699714Y-136142855D02*
X115890190Y-136047617D01*
X115890190Y-136047617D02*
X116080666Y-136047617D01*
X116080666Y-136047617D02*
X116366380Y-136142855D01*
X116366380Y-136142855D02*
X117509238Y-137285712D01*
X117509238Y-137285712D02*
X117509238Y-136047617D01*
X116175904Y-134333331D02*
X117509238Y-134333331D01*
X115414000Y-134809522D02*
X116842571Y-135285712D01*
X116842571Y-135285712D02*
X116842571Y-134047617D01*
X120729238Y-172238096D02*
X118729238Y-172238096D01*
X118729238Y-172238096D02*
X120157809Y-171571429D01*
X120157809Y-171571429D02*
X118729238Y-170904763D01*
X118729238Y-170904763D02*
X120729238Y-170904763D01*
X120729238Y-169952382D02*
X119395904Y-169952382D01*
X118729238Y-169952382D02*
X118824476Y-170047620D01*
X118824476Y-170047620D02*
X118919714Y-169952382D01*
X118919714Y-169952382D02*
X118824476Y-169857144D01*
X118824476Y-169857144D02*
X118729238Y-169952382D01*
X118729238Y-169952382D02*
X118919714Y-169952382D01*
X120634000Y-169095239D02*
X120729238Y-168904763D01*
X120729238Y-168904763D02*
X120729238Y-168523811D01*
X120729238Y-168523811D02*
X120634000Y-168333334D01*
X120634000Y-168333334D02*
X120443523Y-168238096D01*
X120443523Y-168238096D02*
X120348285Y-168238096D01*
X120348285Y-168238096D02*
X120157809Y-168333334D01*
X120157809Y-168333334D02*
X120062571Y-168523811D01*
X120062571Y-168523811D02*
X120062571Y-168809525D01*
X120062571Y-168809525D02*
X119967333Y-169000001D01*
X119967333Y-169000001D02*
X119776857Y-169095239D01*
X119776857Y-169095239D02*
X119681619Y-169095239D01*
X119681619Y-169095239D02*
X119491142Y-169000001D01*
X119491142Y-169000001D02*
X119395904Y-168809525D01*
X119395904Y-168809525D02*
X119395904Y-168523811D01*
X119395904Y-168523811D02*
X119491142Y-168333334D01*
X120634000Y-167476191D02*
X120729238Y-167285715D01*
X120729238Y-167285715D02*
X120729238Y-166904763D01*
X120729238Y-166904763D02*
X120634000Y-166714286D01*
X120634000Y-166714286D02*
X120443523Y-166619048D01*
X120443523Y-166619048D02*
X120348285Y-166619048D01*
X120348285Y-166619048D02*
X120157809Y-166714286D01*
X120157809Y-166714286D02*
X120062571Y-166904763D01*
X120062571Y-166904763D02*
X120062571Y-167190477D01*
X120062571Y-167190477D02*
X119967333Y-167380953D01*
X119967333Y-167380953D02*
X119776857Y-167476191D01*
X119776857Y-167476191D02*
X119681619Y-167476191D01*
X119681619Y-167476191D02*
X119491142Y-167380953D01*
X119491142Y-167380953D02*
X119395904Y-167190477D01*
X119395904Y-167190477D02*
X119395904Y-166904763D01*
X119395904Y-166904763D02*
X119491142Y-166714286D01*
X120729238Y-165476191D02*
X120634000Y-165666667D01*
X120634000Y-165666667D02*
X120538761Y-165761905D01*
X120538761Y-165761905D02*
X120348285Y-165857143D01*
X120348285Y-165857143D02*
X119776857Y-165857143D01*
X119776857Y-165857143D02*
X119586380Y-165761905D01*
X119586380Y-165761905D02*
X119491142Y-165666667D01*
X119491142Y-165666667D02*
X119395904Y-165476191D01*
X119395904Y-165476191D02*
X119395904Y-165190476D01*
X119395904Y-165190476D02*
X119491142Y-165000000D01*
X119491142Y-165000000D02*
X119586380Y-164904762D01*
X119586380Y-164904762D02*
X119776857Y-164809524D01*
X119776857Y-164809524D02*
X120348285Y-164809524D01*
X120348285Y-164809524D02*
X120538761Y-164904762D01*
X120538761Y-164904762D02*
X120634000Y-165000000D01*
X120634000Y-165000000D02*
X120729238Y-165190476D01*
X120729238Y-165190476D02*
X120729238Y-165476191D01*
X119395904Y-163095238D02*
X120729238Y-163095238D01*
X119395904Y-163952381D02*
X120443523Y-163952381D01*
X120443523Y-163952381D02*
X120634000Y-163857143D01*
X120634000Y-163857143D02*
X120729238Y-163666667D01*
X120729238Y-163666667D02*
X120729238Y-163380952D01*
X120729238Y-163380952D02*
X120634000Y-163190476D01*
X120634000Y-163190476D02*
X120538761Y-163095238D01*
X120729238Y-162142857D02*
X119395904Y-162142857D01*
X119776857Y-162142857D02*
X119586380Y-162047619D01*
X119586380Y-162047619D02*
X119491142Y-161952381D01*
X119491142Y-161952381D02*
X119395904Y-161761905D01*
X119395904Y-161761905D02*
X119395904Y-161571428D01*
X120729238Y-160904762D02*
X119395904Y-160904762D01*
X118729238Y-160904762D02*
X118824476Y-161000000D01*
X118824476Y-161000000D02*
X118919714Y-160904762D01*
X118919714Y-160904762D02*
X118824476Y-160809524D01*
X118824476Y-160809524D02*
X118729238Y-160904762D01*
X118729238Y-160904762D02*
X118919714Y-160904762D01*
X120634000Y-158523809D02*
X120729238Y-158238095D01*
X120729238Y-158238095D02*
X120729238Y-157761904D01*
X120729238Y-157761904D02*
X120634000Y-157571428D01*
X120634000Y-157571428D02*
X120538761Y-157476190D01*
X120538761Y-157476190D02*
X120348285Y-157380952D01*
X120348285Y-157380952D02*
X120157809Y-157380952D01*
X120157809Y-157380952D02*
X119967333Y-157476190D01*
X119967333Y-157476190D02*
X119872095Y-157571428D01*
X119872095Y-157571428D02*
X119776857Y-157761904D01*
X119776857Y-157761904D02*
X119681619Y-158142857D01*
X119681619Y-158142857D02*
X119586380Y-158333333D01*
X119586380Y-158333333D02*
X119491142Y-158428571D01*
X119491142Y-158428571D02*
X119300666Y-158523809D01*
X119300666Y-158523809D02*
X119110190Y-158523809D01*
X119110190Y-158523809D02*
X118919714Y-158428571D01*
X118919714Y-158428571D02*
X118824476Y-158333333D01*
X118824476Y-158333333D02*
X118729238Y-158142857D01*
X118729238Y-158142857D02*
X118729238Y-157666666D01*
X118729238Y-157666666D02*
X118824476Y-157380952D01*
X120729238Y-154904761D02*
X120729238Y-155000000D01*
X120729238Y-155000000D02*
X120634000Y-155190476D01*
X120634000Y-155190476D02*
X120348285Y-155476190D01*
X120348285Y-155476190D02*
X119776857Y-155952380D01*
X119776857Y-155952380D02*
X119491142Y-156142857D01*
X119491142Y-156142857D02*
X119205428Y-156238095D01*
X119205428Y-156238095D02*
X119014952Y-156238095D01*
X119014952Y-156238095D02*
X118824476Y-156142857D01*
X118824476Y-156142857D02*
X118729238Y-155952380D01*
X118729238Y-155952380D02*
X118729238Y-155857142D01*
X118729238Y-155857142D02*
X118824476Y-155666666D01*
X118824476Y-155666666D02*
X119014952Y-155571428D01*
X119014952Y-155571428D02*
X119110190Y-155571428D01*
X119110190Y-155571428D02*
X119300666Y-155666666D01*
X119300666Y-155666666D02*
X119395904Y-155761904D01*
X119395904Y-155761904D02*
X119776857Y-156333333D01*
X119776857Y-156333333D02*
X119872095Y-156428571D01*
X119872095Y-156428571D02*
X120062571Y-156523809D01*
X120062571Y-156523809D02*
X120348285Y-156523809D01*
X120348285Y-156523809D02*
X120538761Y-156428571D01*
X120538761Y-156428571D02*
X120634000Y-156333333D01*
X120634000Y-156333333D02*
X120729238Y-156142857D01*
X120729238Y-156142857D02*
X120729238Y-155857142D01*
X120729238Y-155857142D02*
X120634000Y-155666666D01*
X120634000Y-155666666D02*
X120538761Y-155571428D01*
X120538761Y-155571428D02*
X120157809Y-155285714D01*
X120157809Y-155285714D02*
X119872095Y-155190476D01*
X119872095Y-155190476D02*
X119681619Y-155190476D01*
X118729238Y-154333333D02*
X118729238Y-153190476D01*
X120729238Y-153761905D02*
X118729238Y-153761905D01*
X119681619Y-150999999D02*
X119681619Y-150333332D01*
X120729238Y-150047618D02*
X120729238Y-150999999D01*
X120729238Y-150999999D02*
X118729238Y-150999999D01*
X118729238Y-150999999D02*
X118729238Y-150047618D01*
X120538761Y-148047618D02*
X120634000Y-148142856D01*
X120634000Y-148142856D02*
X120729238Y-148428570D01*
X120729238Y-148428570D02*
X120729238Y-148619046D01*
X120729238Y-148619046D02*
X120634000Y-148904761D01*
X120634000Y-148904761D02*
X120443523Y-149095237D01*
X120443523Y-149095237D02*
X120253047Y-149190475D01*
X120253047Y-149190475D02*
X119872095Y-149285713D01*
X119872095Y-149285713D02*
X119586380Y-149285713D01*
X119586380Y-149285713D02*
X119205428Y-149190475D01*
X119205428Y-149190475D02*
X119014952Y-149095237D01*
X119014952Y-149095237D02*
X118824476Y-148904761D01*
X118824476Y-148904761D02*
X118729238Y-148619046D01*
X118729238Y-148619046D02*
X118729238Y-148428570D01*
X118729238Y-148428570D02*
X118824476Y-148142856D01*
X118824476Y-148142856D02*
X118919714Y-148047618D01*
X119681619Y-147190475D02*
X119681619Y-146523808D01*
X120729238Y-146238094D02*
X120729238Y-147190475D01*
X120729238Y-147190475D02*
X118729238Y-147190475D01*
X118729238Y-147190475D02*
X118729238Y-146238094D01*
X120729238Y-143857141D02*
X118729238Y-143857141D01*
X118729238Y-143857141D02*
X118729238Y-143380951D01*
X118729238Y-143380951D02*
X118824476Y-143095236D01*
X118824476Y-143095236D02*
X119014952Y-142904760D01*
X119014952Y-142904760D02*
X119205428Y-142809522D01*
X119205428Y-142809522D02*
X119586380Y-142714284D01*
X119586380Y-142714284D02*
X119872095Y-142714284D01*
X119872095Y-142714284D02*
X120253047Y-142809522D01*
X120253047Y-142809522D02*
X120443523Y-142904760D01*
X120443523Y-142904760D02*
X120634000Y-143095236D01*
X120634000Y-143095236D02*
X120729238Y-143380951D01*
X120729238Y-143380951D02*
X120729238Y-143857141D01*
X120634000Y-141095236D02*
X120729238Y-141285712D01*
X120729238Y-141285712D02*
X120729238Y-141666665D01*
X120729238Y-141666665D02*
X120634000Y-141857141D01*
X120634000Y-141857141D02*
X120443523Y-141952379D01*
X120443523Y-141952379D02*
X119681619Y-141952379D01*
X119681619Y-141952379D02*
X119491142Y-141857141D01*
X119491142Y-141857141D02*
X119395904Y-141666665D01*
X119395904Y-141666665D02*
X119395904Y-141285712D01*
X119395904Y-141285712D02*
X119491142Y-141095236D01*
X119491142Y-141095236D02*
X119681619Y-140999998D01*
X119681619Y-140999998D02*
X119872095Y-140999998D01*
X119872095Y-140999998D02*
X120062571Y-141952379D01*
X119395904Y-140142855D02*
X121395904Y-140142855D01*
X119491142Y-140142855D02*
X119395904Y-139952379D01*
X119395904Y-139952379D02*
X119395904Y-139571426D01*
X119395904Y-139571426D02*
X119491142Y-139380950D01*
X119491142Y-139380950D02*
X119586380Y-139285712D01*
X119586380Y-139285712D02*
X119776857Y-139190474D01*
X119776857Y-139190474D02*
X120348285Y-139190474D01*
X120348285Y-139190474D02*
X120538761Y-139285712D01*
X120538761Y-139285712D02*
X120634000Y-139380950D01*
X120634000Y-139380950D02*
X120729238Y-139571426D01*
X120729238Y-139571426D02*
X120729238Y-139952379D01*
X120729238Y-139952379D02*
X120634000Y-140142855D01*
X120729238Y-137476188D02*
X119681619Y-137476188D01*
X119681619Y-137476188D02*
X119491142Y-137571426D01*
X119491142Y-137571426D02*
X119395904Y-137761902D01*
X119395904Y-137761902D02*
X119395904Y-138142855D01*
X119395904Y-138142855D02*
X119491142Y-138333331D01*
X120634000Y-137476188D02*
X120729238Y-137666664D01*
X120729238Y-137666664D02*
X120729238Y-138142855D01*
X120729238Y-138142855D02*
X120634000Y-138333331D01*
X120634000Y-138333331D02*
X120443523Y-138428569D01*
X120443523Y-138428569D02*
X120253047Y-138428569D01*
X120253047Y-138428569D02*
X120062571Y-138333331D01*
X120062571Y-138333331D02*
X119967333Y-138142855D01*
X119967333Y-138142855D02*
X119967333Y-137666664D01*
X119967333Y-137666664D02*
X119872095Y-137476188D01*
X120729238Y-136523807D02*
X119395904Y-136523807D01*
X119776857Y-136523807D02*
X119586380Y-136428569D01*
X119586380Y-136428569D02*
X119491142Y-136333331D01*
X119491142Y-136333331D02*
X119395904Y-136142855D01*
X119395904Y-136142855D02*
X119395904Y-135952378D01*
X119395904Y-135571426D02*
X119395904Y-134809522D01*
X118729238Y-135285712D02*
X120443523Y-135285712D01*
X120443523Y-135285712D02*
X120634000Y-135190474D01*
X120634000Y-135190474D02*
X120729238Y-134999998D01*
X120729238Y-134999998D02*
X120729238Y-134809522D01*
X120729238Y-134142855D02*
X119395904Y-134142855D01*
X119586380Y-134142855D02*
X119491142Y-134047617D01*
X119491142Y-134047617D02*
X119395904Y-133857141D01*
X119395904Y-133857141D02*
X119395904Y-133571426D01*
X119395904Y-133571426D02*
X119491142Y-133380950D01*
X119491142Y-133380950D02*
X119681619Y-133285712D01*
X119681619Y-133285712D02*
X120729238Y-133285712D01*
X119681619Y-133285712D02*
X119491142Y-133190474D01*
X119491142Y-133190474D02*
X119395904Y-132999998D01*
X119395904Y-132999998D02*
X119395904Y-132714284D01*
X119395904Y-132714284D02*
X119491142Y-132523807D01*
X119491142Y-132523807D02*
X119681619Y-132428569D01*
X119681619Y-132428569D02*
X120729238Y-132428569D01*
X120634000Y-130714283D02*
X120729238Y-130904759D01*
X120729238Y-130904759D02*
X120729238Y-131285712D01*
X120729238Y-131285712D02*
X120634000Y-131476188D01*
X120634000Y-131476188D02*
X120443523Y-131571426D01*
X120443523Y-131571426D02*
X119681619Y-131571426D01*
X119681619Y-131571426D02*
X119491142Y-131476188D01*
X119491142Y-131476188D02*
X119395904Y-131285712D01*
X119395904Y-131285712D02*
X119395904Y-130904759D01*
X119395904Y-130904759D02*
X119491142Y-130714283D01*
X119491142Y-130714283D02*
X119681619Y-130619045D01*
X119681619Y-130619045D02*
X119872095Y-130619045D01*
X119872095Y-130619045D02*
X120062571Y-131571426D01*
X119395904Y-129761902D02*
X120729238Y-129761902D01*
X119586380Y-129761902D02*
X119491142Y-129666664D01*
X119491142Y-129666664D02*
X119395904Y-129476188D01*
X119395904Y-129476188D02*
X119395904Y-129190473D01*
X119395904Y-129190473D02*
X119491142Y-128999997D01*
X119491142Y-128999997D02*
X119681619Y-128904759D01*
X119681619Y-128904759D02*
X120729238Y-128904759D01*
X119395904Y-128238092D02*
X119395904Y-127476188D01*
X118729238Y-127952378D02*
X120443523Y-127952378D01*
X120443523Y-127952378D02*
X120634000Y-127857140D01*
X120634000Y-127857140D02*
X120729238Y-127666664D01*
X120729238Y-127666664D02*
X120729238Y-127476188D01*
D11*
X515336779Y-193869819D02*
X515336779Y-192869819D01*
X515336779Y-192869819D02*
X515670112Y-193584104D01*
X515670112Y-193584104D02*
X516003445Y-192869819D01*
X516003445Y-192869819D02*
X516003445Y-193869819D01*
X516765350Y-192869819D02*
X516765350Y-193584104D01*
X516765350Y-193584104D02*
X516717731Y-193726961D01*
X516717731Y-193726961D02*
X516622493Y-193822200D01*
X516622493Y-193822200D02*
X516479636Y-193869819D01*
X516479636Y-193869819D02*
X516384398Y-193869819D01*
X517812969Y-193869819D02*
X517479636Y-193393628D01*
X517241541Y-193869819D02*
X517241541Y-192869819D01*
X517241541Y-192869819D02*
X517622493Y-192869819D01*
X517622493Y-192869819D02*
X517717731Y-192917438D01*
X517717731Y-192917438D02*
X517765350Y-192965057D01*
X517765350Y-192965057D02*
X517812969Y-193060295D01*
X517812969Y-193060295D02*
X517812969Y-193203152D01*
X517812969Y-193203152D02*
X517765350Y-193298390D01*
X517765350Y-193298390D02*
X517717731Y-193346009D01*
X517717731Y-193346009D02*
X517622493Y-193393628D01*
X517622493Y-193393628D02*
X517241541Y-193393628D01*
X518289160Y-193822200D02*
X518289160Y-193869819D01*
X518289160Y-193869819D02*
X518241541Y-193965057D01*
X518241541Y-193965057D02*
X518193922Y-194012676D01*
X519432017Y-192965057D02*
X519479636Y-192917438D01*
X519479636Y-192917438D02*
X519574874Y-192869819D01*
X519574874Y-192869819D02*
X519812969Y-192869819D01*
X519812969Y-192869819D02*
X519908207Y-192917438D01*
X519908207Y-192917438D02*
X519955826Y-192965057D01*
X519955826Y-192965057D02*
X520003445Y-193060295D01*
X520003445Y-193060295D02*
X520003445Y-193155533D01*
X520003445Y-193155533D02*
X519955826Y-193298390D01*
X519955826Y-193298390D02*
X519384398Y-193869819D01*
X519384398Y-193869819D02*
X520003445Y-193869819D01*
X520622493Y-192869819D02*
X520717731Y-192869819D01*
X520717731Y-192869819D02*
X520812969Y-192917438D01*
X520812969Y-192917438D02*
X520860588Y-192965057D01*
X520860588Y-192965057D02*
X520908207Y-193060295D01*
X520908207Y-193060295D02*
X520955826Y-193250771D01*
X520955826Y-193250771D02*
X520955826Y-193488866D01*
X520955826Y-193488866D02*
X520908207Y-193679342D01*
X520908207Y-193679342D02*
X520860588Y-193774580D01*
X520860588Y-193774580D02*
X520812969Y-193822200D01*
X520812969Y-193822200D02*
X520717731Y-193869819D01*
X520717731Y-193869819D02*
X520622493Y-193869819D01*
X520622493Y-193869819D02*
X520527255Y-193822200D01*
X520527255Y-193822200D02*
X520479636Y-193774580D01*
X520479636Y-193774580D02*
X520432017Y-193679342D01*
X520432017Y-193679342D02*
X520384398Y-193488866D01*
X520384398Y-193488866D02*
X520384398Y-193250771D01*
X520384398Y-193250771D02*
X520432017Y-193060295D01*
X520432017Y-193060295D02*
X520479636Y-192965057D01*
X520479636Y-192965057D02*
X520527255Y-192917438D01*
X520527255Y-192917438D02*
X520622493Y-192869819D01*
X521336779Y-192965057D02*
X521384398Y-192917438D01*
X521384398Y-192917438D02*
X521479636Y-192869819D01*
X521479636Y-192869819D02*
X521717731Y-192869819D01*
X521717731Y-192869819D02*
X521812969Y-192917438D01*
X521812969Y-192917438D02*
X521860588Y-192965057D01*
X521860588Y-192965057D02*
X521908207Y-193060295D01*
X521908207Y-193060295D02*
X521908207Y-193155533D01*
X521908207Y-193155533D02*
X521860588Y-193298390D01*
X521860588Y-193298390D02*
X521289160Y-193869819D01*
X521289160Y-193869819D02*
X521908207Y-193869819D01*
X522765350Y-193203152D02*
X522765350Y-193869819D01*
X522527255Y-192822200D02*
X522289160Y-193536485D01*
X522289160Y-193536485D02*
X522908207Y-193536485D01*
X515336779Y-288869819D02*
X515336779Y-287869819D01*
X515336779Y-287869819D02*
X515670112Y-288584104D01*
X515670112Y-288584104D02*
X516003445Y-287869819D01*
X516003445Y-287869819D02*
X516003445Y-288869819D01*
X516765350Y-287869819D02*
X516765350Y-288584104D01*
X516765350Y-288584104D02*
X516717731Y-288726961D01*
X516717731Y-288726961D02*
X516622493Y-288822200D01*
X516622493Y-288822200D02*
X516479636Y-288869819D01*
X516479636Y-288869819D02*
X516384398Y-288869819D01*
X517812969Y-288869819D02*
X517479636Y-288393628D01*
X517241541Y-288869819D02*
X517241541Y-287869819D01*
X517241541Y-287869819D02*
X517622493Y-287869819D01*
X517622493Y-287869819D02*
X517717731Y-287917438D01*
X517717731Y-287917438D02*
X517765350Y-287965057D01*
X517765350Y-287965057D02*
X517812969Y-288060295D01*
X517812969Y-288060295D02*
X517812969Y-288203152D01*
X517812969Y-288203152D02*
X517765350Y-288298390D01*
X517765350Y-288298390D02*
X517717731Y-288346009D01*
X517717731Y-288346009D02*
X517622493Y-288393628D01*
X517622493Y-288393628D02*
X517241541Y-288393628D01*
X518289160Y-288822200D02*
X518289160Y-288869819D01*
X518289160Y-288869819D02*
X518241541Y-288965057D01*
X518241541Y-288965057D02*
X518193922Y-289012676D01*
X519432017Y-287965057D02*
X519479636Y-287917438D01*
X519479636Y-287917438D02*
X519574874Y-287869819D01*
X519574874Y-287869819D02*
X519812969Y-287869819D01*
X519812969Y-287869819D02*
X519908207Y-287917438D01*
X519908207Y-287917438D02*
X519955826Y-287965057D01*
X519955826Y-287965057D02*
X520003445Y-288060295D01*
X520003445Y-288060295D02*
X520003445Y-288155533D01*
X520003445Y-288155533D02*
X519955826Y-288298390D01*
X519955826Y-288298390D02*
X519384398Y-288869819D01*
X519384398Y-288869819D02*
X520003445Y-288869819D01*
X520622493Y-287869819D02*
X520717731Y-287869819D01*
X520717731Y-287869819D02*
X520812969Y-287917438D01*
X520812969Y-287917438D02*
X520860588Y-287965057D01*
X520860588Y-287965057D02*
X520908207Y-288060295D01*
X520908207Y-288060295D02*
X520955826Y-288250771D01*
X520955826Y-288250771D02*
X520955826Y-288488866D01*
X520955826Y-288488866D02*
X520908207Y-288679342D01*
X520908207Y-288679342D02*
X520860588Y-288774580D01*
X520860588Y-288774580D02*
X520812969Y-288822200D01*
X520812969Y-288822200D02*
X520717731Y-288869819D01*
X520717731Y-288869819D02*
X520622493Y-288869819D01*
X520622493Y-288869819D02*
X520527255Y-288822200D01*
X520527255Y-288822200D02*
X520479636Y-288774580D01*
X520479636Y-288774580D02*
X520432017Y-288679342D01*
X520432017Y-288679342D02*
X520384398Y-288488866D01*
X520384398Y-288488866D02*
X520384398Y-288250771D01*
X520384398Y-288250771D02*
X520432017Y-288060295D01*
X520432017Y-288060295D02*
X520479636Y-287965057D01*
X520479636Y-287965057D02*
X520527255Y-287917438D01*
X520527255Y-287917438D02*
X520622493Y-287869819D01*
X521336779Y-287965057D02*
X521384398Y-287917438D01*
X521384398Y-287917438D02*
X521479636Y-287869819D01*
X521479636Y-287869819D02*
X521717731Y-287869819D01*
X521717731Y-287869819D02*
X521812969Y-287917438D01*
X521812969Y-287917438D02*
X521860588Y-287965057D01*
X521860588Y-287965057D02*
X521908207Y-288060295D01*
X521908207Y-288060295D02*
X521908207Y-288155533D01*
X521908207Y-288155533D02*
X521860588Y-288298390D01*
X521860588Y-288298390D02*
X521289160Y-288869819D01*
X521289160Y-288869819D02*
X521908207Y-288869819D01*
X522765350Y-288203152D02*
X522765350Y-288869819D01*
X522527255Y-287822200D02*
X522289160Y-288536485D01*
X522289160Y-288536485D02*
X522908207Y-288536485D01*
D10*
X110878761Y-265952382D02*
X110974000Y-266047620D01*
X110974000Y-266047620D02*
X111069238Y-266333334D01*
X111069238Y-266333334D02*
X111069238Y-266523810D01*
X111069238Y-266523810D02*
X110974000Y-266809525D01*
X110974000Y-266809525D02*
X110783523Y-267000001D01*
X110783523Y-267000001D02*
X110593047Y-267095239D01*
X110593047Y-267095239D02*
X110212095Y-267190477D01*
X110212095Y-267190477D02*
X109926380Y-267190477D01*
X109926380Y-267190477D02*
X109545428Y-267095239D01*
X109545428Y-267095239D02*
X109354952Y-267000001D01*
X109354952Y-267000001D02*
X109164476Y-266809525D01*
X109164476Y-266809525D02*
X109069238Y-266523810D01*
X109069238Y-266523810D02*
X109069238Y-266333334D01*
X109069238Y-266333334D02*
X109164476Y-266047620D01*
X109164476Y-266047620D02*
X109259714Y-265952382D01*
X111069238Y-264238096D02*
X110021619Y-264238096D01*
X110021619Y-264238096D02*
X109831142Y-264333334D01*
X109831142Y-264333334D02*
X109735904Y-264523810D01*
X109735904Y-264523810D02*
X109735904Y-264904763D01*
X109735904Y-264904763D02*
X109831142Y-265095239D01*
X110974000Y-264238096D02*
X111069238Y-264428572D01*
X111069238Y-264428572D02*
X111069238Y-264904763D01*
X111069238Y-264904763D02*
X110974000Y-265095239D01*
X110974000Y-265095239D02*
X110783523Y-265190477D01*
X110783523Y-265190477D02*
X110593047Y-265190477D01*
X110593047Y-265190477D02*
X110402571Y-265095239D01*
X110402571Y-265095239D02*
X110307333Y-264904763D01*
X110307333Y-264904763D02*
X110307333Y-264428572D01*
X110307333Y-264428572D02*
X110212095Y-264238096D01*
X109735904Y-263285715D02*
X111735904Y-263285715D01*
X109831142Y-263285715D02*
X109735904Y-263095239D01*
X109735904Y-263095239D02*
X109735904Y-262714286D01*
X109735904Y-262714286D02*
X109831142Y-262523810D01*
X109831142Y-262523810D02*
X109926380Y-262428572D01*
X109926380Y-262428572D02*
X110116857Y-262333334D01*
X110116857Y-262333334D02*
X110688285Y-262333334D01*
X110688285Y-262333334D02*
X110878761Y-262428572D01*
X110878761Y-262428572D02*
X110974000Y-262523810D01*
X110974000Y-262523810D02*
X111069238Y-262714286D01*
X111069238Y-262714286D02*
X111069238Y-263095239D01*
X111069238Y-263095239D02*
X110974000Y-263285715D01*
X111069238Y-260619048D02*
X110021619Y-260619048D01*
X110021619Y-260619048D02*
X109831142Y-260714286D01*
X109831142Y-260714286D02*
X109735904Y-260904762D01*
X109735904Y-260904762D02*
X109735904Y-261285715D01*
X109735904Y-261285715D02*
X109831142Y-261476191D01*
X110974000Y-260619048D02*
X111069238Y-260809524D01*
X111069238Y-260809524D02*
X111069238Y-261285715D01*
X111069238Y-261285715D02*
X110974000Y-261476191D01*
X110974000Y-261476191D02*
X110783523Y-261571429D01*
X110783523Y-261571429D02*
X110593047Y-261571429D01*
X110593047Y-261571429D02*
X110402571Y-261476191D01*
X110402571Y-261476191D02*
X110307333Y-261285715D01*
X110307333Y-261285715D02*
X110307333Y-260809524D01*
X110307333Y-260809524D02*
X110212095Y-260619048D01*
X110974000Y-258809524D02*
X111069238Y-259000000D01*
X111069238Y-259000000D02*
X111069238Y-259380953D01*
X111069238Y-259380953D02*
X110974000Y-259571429D01*
X110974000Y-259571429D02*
X110878761Y-259666667D01*
X110878761Y-259666667D02*
X110688285Y-259761905D01*
X110688285Y-259761905D02*
X110116857Y-259761905D01*
X110116857Y-259761905D02*
X109926380Y-259666667D01*
X109926380Y-259666667D02*
X109831142Y-259571429D01*
X109831142Y-259571429D02*
X109735904Y-259380953D01*
X109735904Y-259380953D02*
X109735904Y-259000000D01*
X109735904Y-259000000D02*
X109831142Y-258809524D01*
X111069238Y-257952381D02*
X109735904Y-257952381D01*
X109069238Y-257952381D02*
X109164476Y-258047619D01*
X109164476Y-258047619D02*
X109259714Y-257952381D01*
X109259714Y-257952381D02*
X109164476Y-257857143D01*
X109164476Y-257857143D02*
X109069238Y-257952381D01*
X109069238Y-257952381D02*
X109259714Y-257952381D01*
X109735904Y-257285714D02*
X109735904Y-256523810D01*
X109069238Y-257000000D02*
X110783523Y-257000000D01*
X110783523Y-257000000D02*
X110974000Y-256904762D01*
X110974000Y-256904762D02*
X111069238Y-256714286D01*
X111069238Y-256714286D02*
X111069238Y-256523810D01*
X111069238Y-255571429D02*
X110974000Y-255761905D01*
X110974000Y-255761905D02*
X110878761Y-255857143D01*
X110878761Y-255857143D02*
X110688285Y-255952381D01*
X110688285Y-255952381D02*
X110116857Y-255952381D01*
X110116857Y-255952381D02*
X109926380Y-255857143D01*
X109926380Y-255857143D02*
X109831142Y-255761905D01*
X109831142Y-255761905D02*
X109735904Y-255571429D01*
X109735904Y-255571429D02*
X109735904Y-255285714D01*
X109735904Y-255285714D02*
X109831142Y-255095238D01*
X109831142Y-255095238D02*
X109926380Y-255000000D01*
X109926380Y-255000000D02*
X110116857Y-254904762D01*
X110116857Y-254904762D02*
X110688285Y-254904762D01*
X110688285Y-254904762D02*
X110878761Y-255000000D01*
X110878761Y-255000000D02*
X110974000Y-255095238D01*
X110974000Y-255095238D02*
X111069238Y-255285714D01*
X111069238Y-255285714D02*
X111069238Y-255571429D01*
X111069238Y-254047619D02*
X109735904Y-254047619D01*
X110116857Y-254047619D02*
X109926380Y-253952381D01*
X109926380Y-253952381D02*
X109831142Y-253857143D01*
X109831142Y-253857143D02*
X109735904Y-253666667D01*
X109735904Y-253666667D02*
X109735904Y-253476190D01*
X110021619Y-250619047D02*
X110116857Y-250333333D01*
X110116857Y-250333333D02*
X110212095Y-250238095D01*
X110212095Y-250238095D02*
X110402571Y-250142857D01*
X110402571Y-250142857D02*
X110688285Y-250142857D01*
X110688285Y-250142857D02*
X110878761Y-250238095D01*
X110878761Y-250238095D02*
X110974000Y-250333333D01*
X110974000Y-250333333D02*
X111069238Y-250523809D01*
X111069238Y-250523809D02*
X111069238Y-251285714D01*
X111069238Y-251285714D02*
X109069238Y-251285714D01*
X109069238Y-251285714D02*
X109069238Y-250619047D01*
X109069238Y-250619047D02*
X109164476Y-250428571D01*
X109164476Y-250428571D02*
X109259714Y-250333333D01*
X109259714Y-250333333D02*
X109450190Y-250238095D01*
X109450190Y-250238095D02*
X109640666Y-250238095D01*
X109640666Y-250238095D02*
X109831142Y-250333333D01*
X109831142Y-250333333D02*
X109926380Y-250428571D01*
X109926380Y-250428571D02*
X110021619Y-250619047D01*
X110021619Y-250619047D02*
X110021619Y-251285714D01*
X111069238Y-248428571D02*
X110021619Y-248428571D01*
X110021619Y-248428571D02*
X109831142Y-248523809D01*
X109831142Y-248523809D02*
X109735904Y-248714285D01*
X109735904Y-248714285D02*
X109735904Y-249095238D01*
X109735904Y-249095238D02*
X109831142Y-249285714D01*
X110974000Y-248428571D02*
X111069238Y-248619047D01*
X111069238Y-248619047D02*
X111069238Y-249095238D01*
X111069238Y-249095238D02*
X110974000Y-249285714D01*
X110974000Y-249285714D02*
X110783523Y-249380952D01*
X110783523Y-249380952D02*
X110593047Y-249380952D01*
X110593047Y-249380952D02*
X110402571Y-249285714D01*
X110402571Y-249285714D02*
X110307333Y-249095238D01*
X110307333Y-249095238D02*
X110307333Y-248619047D01*
X110307333Y-248619047D02*
X110212095Y-248428571D01*
X109735904Y-247476190D02*
X111069238Y-247476190D01*
X109926380Y-247476190D02*
X109831142Y-247380952D01*
X109831142Y-247380952D02*
X109735904Y-247190476D01*
X109735904Y-247190476D02*
X109735904Y-246904761D01*
X109735904Y-246904761D02*
X109831142Y-246714285D01*
X109831142Y-246714285D02*
X110021619Y-246619047D01*
X110021619Y-246619047D02*
X111069238Y-246619047D01*
X111069238Y-245666666D02*
X109069238Y-245666666D01*
X110307333Y-245476190D02*
X111069238Y-244904761D01*
X109735904Y-244904761D02*
X110497809Y-245666666D01*
X110021619Y-241857141D02*
X110116857Y-241571427D01*
X110116857Y-241571427D02*
X110212095Y-241476189D01*
X110212095Y-241476189D02*
X110402571Y-241380951D01*
X110402571Y-241380951D02*
X110688285Y-241380951D01*
X110688285Y-241380951D02*
X110878761Y-241476189D01*
X110878761Y-241476189D02*
X110974000Y-241571427D01*
X110974000Y-241571427D02*
X111069238Y-241761903D01*
X111069238Y-241761903D02*
X111069238Y-242523808D01*
X111069238Y-242523808D02*
X109069238Y-242523808D01*
X109069238Y-242523808D02*
X109069238Y-241857141D01*
X109069238Y-241857141D02*
X109164476Y-241666665D01*
X109164476Y-241666665D02*
X109259714Y-241571427D01*
X109259714Y-241571427D02*
X109450190Y-241476189D01*
X109450190Y-241476189D02*
X109640666Y-241476189D01*
X109640666Y-241476189D02*
X109831142Y-241571427D01*
X109831142Y-241571427D02*
X109926380Y-241666665D01*
X109926380Y-241666665D02*
X110021619Y-241857141D01*
X110021619Y-241857141D02*
X110021619Y-242523808D01*
X111069238Y-240523808D02*
X109735904Y-240523808D01*
X110116857Y-240523808D02*
X109926380Y-240428570D01*
X109926380Y-240428570D02*
X109831142Y-240333332D01*
X109831142Y-240333332D02*
X109735904Y-240142856D01*
X109735904Y-240142856D02*
X109735904Y-239952379D01*
X110974000Y-238523808D02*
X111069238Y-238714284D01*
X111069238Y-238714284D02*
X111069238Y-239095237D01*
X111069238Y-239095237D02*
X110974000Y-239285713D01*
X110974000Y-239285713D02*
X110783523Y-239380951D01*
X110783523Y-239380951D02*
X110021619Y-239380951D01*
X110021619Y-239380951D02*
X109831142Y-239285713D01*
X109831142Y-239285713D02*
X109735904Y-239095237D01*
X109735904Y-239095237D02*
X109735904Y-238714284D01*
X109735904Y-238714284D02*
X109831142Y-238523808D01*
X109831142Y-238523808D02*
X110021619Y-238428570D01*
X110021619Y-238428570D02*
X110212095Y-238428570D01*
X110212095Y-238428570D02*
X110402571Y-239380951D01*
X111069238Y-236714284D02*
X110021619Y-236714284D01*
X110021619Y-236714284D02*
X109831142Y-236809522D01*
X109831142Y-236809522D02*
X109735904Y-236999998D01*
X109735904Y-236999998D02*
X109735904Y-237380951D01*
X109735904Y-237380951D02*
X109831142Y-237571427D01*
X110974000Y-236714284D02*
X111069238Y-236904760D01*
X111069238Y-236904760D02*
X111069238Y-237380951D01*
X111069238Y-237380951D02*
X110974000Y-237571427D01*
X110974000Y-237571427D02*
X110783523Y-237666665D01*
X110783523Y-237666665D02*
X110593047Y-237666665D01*
X110593047Y-237666665D02*
X110402571Y-237571427D01*
X110402571Y-237571427D02*
X110307333Y-237380951D01*
X110307333Y-237380951D02*
X110307333Y-236904760D01*
X110307333Y-236904760D02*
X110212095Y-236714284D01*
X111069238Y-235761903D02*
X109069238Y-235761903D01*
X110307333Y-235571427D02*
X111069238Y-234999998D01*
X109735904Y-234999998D02*
X110497809Y-235761903D01*
X111069238Y-233857141D02*
X110974000Y-234047617D01*
X110974000Y-234047617D02*
X110878761Y-234142855D01*
X110878761Y-234142855D02*
X110688285Y-234238093D01*
X110688285Y-234238093D02*
X110116857Y-234238093D01*
X110116857Y-234238093D02*
X109926380Y-234142855D01*
X109926380Y-234142855D02*
X109831142Y-234047617D01*
X109831142Y-234047617D02*
X109735904Y-233857141D01*
X109735904Y-233857141D02*
X109735904Y-233571426D01*
X109735904Y-233571426D02*
X109831142Y-233380950D01*
X109831142Y-233380950D02*
X109926380Y-233285712D01*
X109926380Y-233285712D02*
X110116857Y-233190474D01*
X110116857Y-233190474D02*
X110688285Y-233190474D01*
X110688285Y-233190474D02*
X110878761Y-233285712D01*
X110878761Y-233285712D02*
X110974000Y-233380950D01*
X110974000Y-233380950D02*
X111069238Y-233571426D01*
X111069238Y-233571426D02*
X111069238Y-233857141D01*
X109735904Y-231476188D02*
X111069238Y-231476188D01*
X109735904Y-232333331D02*
X110783523Y-232333331D01*
X110783523Y-232333331D02*
X110974000Y-232238093D01*
X110974000Y-232238093D02*
X111069238Y-232047617D01*
X111069238Y-232047617D02*
X111069238Y-231761902D01*
X111069238Y-231761902D02*
X110974000Y-231571426D01*
X110974000Y-231571426D02*
X110878761Y-231476188D01*
X109735904Y-230809521D02*
X109735904Y-230047617D01*
X109069238Y-230523807D02*
X110783523Y-230523807D01*
X110783523Y-230523807D02*
X110974000Y-230428569D01*
X110974000Y-230428569D02*
X111069238Y-230238093D01*
X111069238Y-230238093D02*
X111069238Y-230047617D01*
X111069238Y-226714283D02*
X110116857Y-227380950D01*
X111069238Y-227857140D02*
X109069238Y-227857140D01*
X109069238Y-227857140D02*
X109069238Y-227095235D01*
X109069238Y-227095235D02*
X109164476Y-226904759D01*
X109164476Y-226904759D02*
X109259714Y-226809521D01*
X109259714Y-226809521D02*
X109450190Y-226714283D01*
X109450190Y-226714283D02*
X109735904Y-226714283D01*
X109735904Y-226714283D02*
X109926380Y-226809521D01*
X109926380Y-226809521D02*
X110021619Y-226904759D01*
X110021619Y-226904759D02*
X110116857Y-227095235D01*
X110116857Y-227095235D02*
X110116857Y-227857140D01*
X111069238Y-224809521D02*
X111069238Y-225952378D01*
X111069238Y-225380950D02*
X109069238Y-225380950D01*
X109069238Y-225380950D02*
X109354952Y-225571426D01*
X109354952Y-225571426D02*
X109545428Y-225761902D01*
X109545428Y-225761902D02*
X109640666Y-225952378D01*
X112289238Y-258952382D02*
X112670190Y-258952382D01*
X112289238Y-258190477D02*
X112670190Y-258190477D01*
X114289238Y-257333334D02*
X112289238Y-257333334D01*
X114289238Y-256190477D02*
X113146380Y-257047620D01*
X112289238Y-256190477D02*
X113432095Y-257333334D01*
X114289238Y-255333334D02*
X112955904Y-255333334D01*
X112289238Y-255333334D02*
X112384476Y-255428572D01*
X112384476Y-255428572D02*
X112479714Y-255333334D01*
X112479714Y-255333334D02*
X112384476Y-255238096D01*
X112384476Y-255238096D02*
X112289238Y-255333334D01*
X112289238Y-255333334D02*
X112479714Y-255333334D01*
X112955904Y-254380953D02*
X114289238Y-254380953D01*
X113146380Y-254380953D02*
X113051142Y-254285715D01*
X113051142Y-254285715D02*
X112955904Y-254095239D01*
X112955904Y-254095239D02*
X112955904Y-253809524D01*
X112955904Y-253809524D02*
X113051142Y-253619048D01*
X113051142Y-253619048D02*
X113241619Y-253523810D01*
X113241619Y-253523810D02*
X114289238Y-253523810D01*
X114194000Y-251809524D02*
X114289238Y-252000000D01*
X114289238Y-252000000D02*
X114289238Y-252380953D01*
X114289238Y-252380953D02*
X114194000Y-252571429D01*
X114194000Y-252571429D02*
X114003523Y-252666667D01*
X114003523Y-252666667D02*
X113241619Y-252666667D01*
X113241619Y-252666667D02*
X113051142Y-252571429D01*
X113051142Y-252571429D02*
X112955904Y-252380953D01*
X112955904Y-252380953D02*
X112955904Y-252000000D01*
X112955904Y-252000000D02*
X113051142Y-251809524D01*
X113051142Y-251809524D02*
X113241619Y-251714286D01*
X113241619Y-251714286D02*
X113432095Y-251714286D01*
X113432095Y-251714286D02*
X113622571Y-252666667D01*
X112955904Y-251142857D02*
X112955904Y-250380953D01*
X112289238Y-250857143D02*
X114003523Y-250857143D01*
X114003523Y-250857143D02*
X114194000Y-250761905D01*
X114194000Y-250761905D02*
X114289238Y-250571429D01*
X114289238Y-250571429D02*
X114289238Y-250380953D01*
X114289238Y-249714286D02*
X112955904Y-249714286D01*
X112289238Y-249714286D02*
X112384476Y-249809524D01*
X112384476Y-249809524D02*
X112479714Y-249714286D01*
X112479714Y-249714286D02*
X112384476Y-249619048D01*
X112384476Y-249619048D02*
X112289238Y-249714286D01*
X112289238Y-249714286D02*
X112479714Y-249714286D01*
X114194000Y-247904762D02*
X114289238Y-248095238D01*
X114289238Y-248095238D02*
X114289238Y-248476191D01*
X114289238Y-248476191D02*
X114194000Y-248666667D01*
X114194000Y-248666667D02*
X114098761Y-248761905D01*
X114098761Y-248761905D02*
X113908285Y-248857143D01*
X113908285Y-248857143D02*
X113336857Y-248857143D01*
X113336857Y-248857143D02*
X113146380Y-248761905D01*
X113146380Y-248761905D02*
X113051142Y-248666667D01*
X113051142Y-248666667D02*
X112955904Y-248476191D01*
X112955904Y-248476191D02*
X112955904Y-248095238D01*
X112955904Y-248095238D02*
X113051142Y-247904762D01*
X113717809Y-245619047D02*
X113717809Y-244666666D01*
X114289238Y-245809523D02*
X112289238Y-245142857D01*
X112289238Y-245142857D02*
X114289238Y-244476190D01*
X112955904Y-243809523D02*
X114289238Y-243809523D01*
X113146380Y-243809523D02*
X113051142Y-243714285D01*
X113051142Y-243714285D02*
X112955904Y-243523809D01*
X112955904Y-243523809D02*
X112955904Y-243238094D01*
X112955904Y-243238094D02*
X113051142Y-243047618D01*
X113051142Y-243047618D02*
X113241619Y-242952380D01*
X113241619Y-242952380D02*
X114289238Y-242952380D01*
X112955904Y-242285713D02*
X112955904Y-241523809D01*
X112289238Y-241999999D02*
X114003523Y-241999999D01*
X114003523Y-241999999D02*
X114194000Y-241904761D01*
X114194000Y-241904761D02*
X114289238Y-241714285D01*
X114289238Y-241714285D02*
X114289238Y-241523809D01*
X114194000Y-240095237D02*
X114289238Y-240285713D01*
X114289238Y-240285713D02*
X114289238Y-240666666D01*
X114289238Y-240666666D02*
X114194000Y-240857142D01*
X114194000Y-240857142D02*
X114003523Y-240952380D01*
X114003523Y-240952380D02*
X113241619Y-240952380D01*
X113241619Y-240952380D02*
X113051142Y-240857142D01*
X113051142Y-240857142D02*
X112955904Y-240666666D01*
X112955904Y-240666666D02*
X112955904Y-240285713D01*
X112955904Y-240285713D02*
X113051142Y-240095237D01*
X113051142Y-240095237D02*
X113241619Y-239999999D01*
X113241619Y-239999999D02*
X113432095Y-239999999D01*
X113432095Y-239999999D02*
X113622571Y-240952380D01*
X112955904Y-239142856D02*
X114289238Y-239142856D01*
X113146380Y-239142856D02*
X113051142Y-239047618D01*
X113051142Y-239047618D02*
X112955904Y-238857142D01*
X112955904Y-238857142D02*
X112955904Y-238571427D01*
X112955904Y-238571427D02*
X113051142Y-238380951D01*
X113051142Y-238380951D02*
X113241619Y-238285713D01*
X113241619Y-238285713D02*
X114289238Y-238285713D01*
X112955904Y-237333332D02*
X114289238Y-237333332D01*
X113146380Y-237333332D02*
X113051142Y-237238094D01*
X113051142Y-237238094D02*
X112955904Y-237047618D01*
X112955904Y-237047618D02*
X112955904Y-236761903D01*
X112955904Y-236761903D02*
X113051142Y-236571427D01*
X113051142Y-236571427D02*
X113241619Y-236476189D01*
X113241619Y-236476189D02*
X114289238Y-236476189D01*
X114289238Y-234666665D02*
X113241619Y-234666665D01*
X113241619Y-234666665D02*
X113051142Y-234761903D01*
X113051142Y-234761903D02*
X112955904Y-234952379D01*
X112955904Y-234952379D02*
X112955904Y-235333332D01*
X112955904Y-235333332D02*
X113051142Y-235523808D01*
X114194000Y-234666665D02*
X114289238Y-234857141D01*
X114289238Y-234857141D02*
X114289238Y-235333332D01*
X114289238Y-235333332D02*
X114194000Y-235523808D01*
X114194000Y-235523808D02*
X114003523Y-235619046D01*
X114003523Y-235619046D02*
X113813047Y-235619046D01*
X113813047Y-235619046D02*
X113622571Y-235523808D01*
X113622571Y-235523808D02*
X113527333Y-235333332D01*
X113527333Y-235333332D02*
X113527333Y-234857141D01*
X113527333Y-234857141D02*
X113432095Y-234666665D01*
X112289238Y-233809522D02*
X112670190Y-233809522D01*
X112289238Y-233047617D02*
X112670190Y-233047617D01*
X117414000Y-261857143D02*
X117509238Y-261571429D01*
X117509238Y-261571429D02*
X117509238Y-261095238D01*
X117509238Y-261095238D02*
X117414000Y-260904762D01*
X117414000Y-260904762D02*
X117318761Y-260809524D01*
X117318761Y-260809524D02*
X117128285Y-260714286D01*
X117128285Y-260714286D02*
X116937809Y-260714286D01*
X116937809Y-260714286D02*
X116747333Y-260809524D01*
X116747333Y-260809524D02*
X116652095Y-260904762D01*
X116652095Y-260904762D02*
X116556857Y-261095238D01*
X116556857Y-261095238D02*
X116461619Y-261476191D01*
X116461619Y-261476191D02*
X116366380Y-261666667D01*
X116366380Y-261666667D02*
X116271142Y-261761905D01*
X116271142Y-261761905D02*
X116080666Y-261857143D01*
X116080666Y-261857143D02*
X115890190Y-261857143D01*
X115890190Y-261857143D02*
X115699714Y-261761905D01*
X115699714Y-261761905D02*
X115604476Y-261666667D01*
X115604476Y-261666667D02*
X115509238Y-261476191D01*
X115509238Y-261476191D02*
X115509238Y-261000000D01*
X115509238Y-261000000D02*
X115604476Y-260714286D01*
X117414000Y-259095238D02*
X117509238Y-259285714D01*
X117509238Y-259285714D02*
X117509238Y-259666667D01*
X117509238Y-259666667D02*
X117414000Y-259857143D01*
X117414000Y-259857143D02*
X117223523Y-259952381D01*
X117223523Y-259952381D02*
X116461619Y-259952381D01*
X116461619Y-259952381D02*
X116271142Y-259857143D01*
X116271142Y-259857143D02*
X116175904Y-259666667D01*
X116175904Y-259666667D02*
X116175904Y-259285714D01*
X116175904Y-259285714D02*
X116271142Y-259095238D01*
X116271142Y-259095238D02*
X116461619Y-259000000D01*
X116461619Y-259000000D02*
X116652095Y-259000000D01*
X116652095Y-259000000D02*
X116842571Y-259952381D01*
X116175904Y-258142857D02*
X117509238Y-258142857D01*
X116366380Y-258142857D02*
X116271142Y-258047619D01*
X116271142Y-258047619D02*
X116175904Y-257857143D01*
X116175904Y-257857143D02*
X116175904Y-257571428D01*
X116175904Y-257571428D02*
X116271142Y-257380952D01*
X116271142Y-257380952D02*
X116461619Y-257285714D01*
X116461619Y-257285714D02*
X117509238Y-257285714D01*
X117509238Y-256333333D02*
X116175904Y-256333333D01*
X115509238Y-256333333D02*
X115604476Y-256428571D01*
X115604476Y-256428571D02*
X115699714Y-256333333D01*
X115699714Y-256333333D02*
X115604476Y-256238095D01*
X115604476Y-256238095D02*
X115509238Y-256333333D01*
X115509238Y-256333333D02*
X115699714Y-256333333D01*
X117509238Y-255095238D02*
X117414000Y-255285714D01*
X117414000Y-255285714D02*
X117318761Y-255380952D01*
X117318761Y-255380952D02*
X117128285Y-255476190D01*
X117128285Y-255476190D02*
X116556857Y-255476190D01*
X116556857Y-255476190D02*
X116366380Y-255380952D01*
X116366380Y-255380952D02*
X116271142Y-255285714D01*
X116271142Y-255285714D02*
X116175904Y-255095238D01*
X116175904Y-255095238D02*
X116175904Y-254809523D01*
X116175904Y-254809523D02*
X116271142Y-254619047D01*
X116271142Y-254619047D02*
X116366380Y-254523809D01*
X116366380Y-254523809D02*
X116556857Y-254428571D01*
X116556857Y-254428571D02*
X117128285Y-254428571D01*
X117128285Y-254428571D02*
X117318761Y-254523809D01*
X117318761Y-254523809D02*
X117414000Y-254619047D01*
X117414000Y-254619047D02*
X117509238Y-254809523D01*
X117509238Y-254809523D02*
X117509238Y-255095238D01*
X117509238Y-253571428D02*
X116175904Y-253571428D01*
X116556857Y-253571428D02*
X116366380Y-253476190D01*
X116366380Y-253476190D02*
X116271142Y-253380952D01*
X116271142Y-253380952D02*
X116175904Y-253190476D01*
X116175904Y-253190476D02*
X116175904Y-252999999D01*
X117509238Y-250809523D02*
X115509238Y-250809523D01*
X115509238Y-250809523D02*
X115509238Y-250333333D01*
X115509238Y-250333333D02*
X115604476Y-250047618D01*
X115604476Y-250047618D02*
X115794952Y-249857142D01*
X115794952Y-249857142D02*
X115985428Y-249761904D01*
X115985428Y-249761904D02*
X116366380Y-249666666D01*
X116366380Y-249666666D02*
X116652095Y-249666666D01*
X116652095Y-249666666D02*
X117033047Y-249761904D01*
X117033047Y-249761904D02*
X117223523Y-249857142D01*
X117223523Y-249857142D02*
X117414000Y-250047618D01*
X117414000Y-250047618D02*
X117509238Y-250333333D01*
X117509238Y-250333333D02*
X117509238Y-250809523D01*
X117414000Y-248047618D02*
X117509238Y-248238094D01*
X117509238Y-248238094D02*
X117509238Y-248619047D01*
X117509238Y-248619047D02*
X117414000Y-248809523D01*
X117414000Y-248809523D02*
X117223523Y-248904761D01*
X117223523Y-248904761D02*
X116461619Y-248904761D01*
X116461619Y-248904761D02*
X116271142Y-248809523D01*
X116271142Y-248809523D02*
X116175904Y-248619047D01*
X116175904Y-248619047D02*
X116175904Y-248238094D01*
X116175904Y-248238094D02*
X116271142Y-248047618D01*
X116271142Y-248047618D02*
X116461619Y-247952380D01*
X116461619Y-247952380D02*
X116652095Y-247952380D01*
X116652095Y-247952380D02*
X116842571Y-248904761D01*
X117414000Y-247190475D02*
X117509238Y-246999999D01*
X117509238Y-246999999D02*
X117509238Y-246619047D01*
X117509238Y-246619047D02*
X117414000Y-246428570D01*
X117414000Y-246428570D02*
X117223523Y-246333332D01*
X117223523Y-246333332D02*
X117128285Y-246333332D01*
X117128285Y-246333332D02*
X116937809Y-246428570D01*
X116937809Y-246428570D02*
X116842571Y-246619047D01*
X116842571Y-246619047D02*
X116842571Y-246904761D01*
X116842571Y-246904761D02*
X116747333Y-247095237D01*
X116747333Y-247095237D02*
X116556857Y-247190475D01*
X116556857Y-247190475D02*
X116461619Y-247190475D01*
X116461619Y-247190475D02*
X116271142Y-247095237D01*
X116271142Y-247095237D02*
X116175904Y-246904761D01*
X116175904Y-246904761D02*
X116175904Y-246619047D01*
X116175904Y-246619047D02*
X116271142Y-246428570D01*
X117509238Y-245476189D02*
X116175904Y-245476189D01*
X115509238Y-245476189D02*
X115604476Y-245571427D01*
X115604476Y-245571427D02*
X115699714Y-245476189D01*
X115699714Y-245476189D02*
X115604476Y-245380951D01*
X115604476Y-245380951D02*
X115509238Y-245476189D01*
X115509238Y-245476189D02*
X115699714Y-245476189D01*
X116175904Y-243666665D02*
X117794952Y-243666665D01*
X117794952Y-243666665D02*
X117985428Y-243761903D01*
X117985428Y-243761903D02*
X118080666Y-243857141D01*
X118080666Y-243857141D02*
X118175904Y-244047618D01*
X118175904Y-244047618D02*
X118175904Y-244333332D01*
X118175904Y-244333332D02*
X118080666Y-244523808D01*
X117414000Y-243666665D02*
X117509238Y-243857141D01*
X117509238Y-243857141D02*
X117509238Y-244238094D01*
X117509238Y-244238094D02*
X117414000Y-244428570D01*
X117414000Y-244428570D02*
X117318761Y-244523808D01*
X117318761Y-244523808D02*
X117128285Y-244619046D01*
X117128285Y-244619046D02*
X116556857Y-244619046D01*
X116556857Y-244619046D02*
X116366380Y-244523808D01*
X116366380Y-244523808D02*
X116271142Y-244428570D01*
X116271142Y-244428570D02*
X116175904Y-244238094D01*
X116175904Y-244238094D02*
X116175904Y-243857141D01*
X116175904Y-243857141D02*
X116271142Y-243666665D01*
X116175904Y-242714284D02*
X117509238Y-242714284D01*
X116366380Y-242714284D02*
X116271142Y-242619046D01*
X116271142Y-242619046D02*
X116175904Y-242428570D01*
X116175904Y-242428570D02*
X116175904Y-242142855D01*
X116175904Y-242142855D02*
X116271142Y-241952379D01*
X116271142Y-241952379D02*
X116461619Y-241857141D01*
X116461619Y-241857141D02*
X117509238Y-241857141D01*
X115699714Y-239476188D02*
X115604476Y-239380950D01*
X115604476Y-239380950D02*
X115509238Y-239190474D01*
X115509238Y-239190474D02*
X115509238Y-238714283D01*
X115509238Y-238714283D02*
X115604476Y-238523807D01*
X115604476Y-238523807D02*
X115699714Y-238428569D01*
X115699714Y-238428569D02*
X115890190Y-238333331D01*
X115890190Y-238333331D02*
X116080666Y-238333331D01*
X116080666Y-238333331D02*
X116366380Y-238428569D01*
X116366380Y-238428569D02*
X117509238Y-239571426D01*
X117509238Y-239571426D02*
X117509238Y-238333331D01*
X115509238Y-237666664D02*
X115509238Y-236428569D01*
X115509238Y-236428569D02*
X116271142Y-237095236D01*
X116271142Y-237095236D02*
X116271142Y-236809521D01*
X116271142Y-236809521D02*
X116366380Y-236619045D01*
X116366380Y-236619045D02*
X116461619Y-236523807D01*
X116461619Y-236523807D02*
X116652095Y-236428569D01*
X116652095Y-236428569D02*
X117128285Y-236428569D01*
X117128285Y-236428569D02*
X117318761Y-236523807D01*
X117318761Y-236523807D02*
X117414000Y-236619045D01*
X117414000Y-236619045D02*
X117509238Y-236809521D01*
X117509238Y-236809521D02*
X117509238Y-237380950D01*
X117509238Y-237380950D02*
X117414000Y-237571426D01*
X117414000Y-237571426D02*
X117318761Y-237666664D01*
X116747333Y-235571426D02*
X116747333Y-234047617D01*
X115699714Y-233190474D02*
X115604476Y-233095236D01*
X115604476Y-233095236D02*
X115509238Y-232904760D01*
X115509238Y-232904760D02*
X115509238Y-232428569D01*
X115509238Y-232428569D02*
X115604476Y-232238093D01*
X115604476Y-232238093D02*
X115699714Y-232142855D01*
X115699714Y-232142855D02*
X115890190Y-232047617D01*
X115890190Y-232047617D02*
X116080666Y-232047617D01*
X116080666Y-232047617D02*
X116366380Y-232142855D01*
X116366380Y-232142855D02*
X117509238Y-233285712D01*
X117509238Y-233285712D02*
X117509238Y-232047617D01*
X116175904Y-230333331D02*
X117509238Y-230333331D01*
X115414000Y-230809522D02*
X116842571Y-231285712D01*
X116842571Y-231285712D02*
X116842571Y-230047617D01*
X120729238Y-268238096D02*
X118729238Y-268238096D01*
X118729238Y-268238096D02*
X120157809Y-267571429D01*
X120157809Y-267571429D02*
X118729238Y-266904763D01*
X118729238Y-266904763D02*
X120729238Y-266904763D01*
X120729238Y-265952382D02*
X119395904Y-265952382D01*
X118729238Y-265952382D02*
X118824476Y-266047620D01*
X118824476Y-266047620D02*
X118919714Y-265952382D01*
X118919714Y-265952382D02*
X118824476Y-265857144D01*
X118824476Y-265857144D02*
X118729238Y-265952382D01*
X118729238Y-265952382D02*
X118919714Y-265952382D01*
X120634000Y-265095239D02*
X120729238Y-264904763D01*
X120729238Y-264904763D02*
X120729238Y-264523811D01*
X120729238Y-264523811D02*
X120634000Y-264333334D01*
X120634000Y-264333334D02*
X120443523Y-264238096D01*
X120443523Y-264238096D02*
X120348285Y-264238096D01*
X120348285Y-264238096D02*
X120157809Y-264333334D01*
X120157809Y-264333334D02*
X120062571Y-264523811D01*
X120062571Y-264523811D02*
X120062571Y-264809525D01*
X120062571Y-264809525D02*
X119967333Y-265000001D01*
X119967333Y-265000001D02*
X119776857Y-265095239D01*
X119776857Y-265095239D02*
X119681619Y-265095239D01*
X119681619Y-265095239D02*
X119491142Y-265000001D01*
X119491142Y-265000001D02*
X119395904Y-264809525D01*
X119395904Y-264809525D02*
X119395904Y-264523811D01*
X119395904Y-264523811D02*
X119491142Y-264333334D01*
X120634000Y-263476191D02*
X120729238Y-263285715D01*
X120729238Y-263285715D02*
X120729238Y-262904763D01*
X120729238Y-262904763D02*
X120634000Y-262714286D01*
X120634000Y-262714286D02*
X120443523Y-262619048D01*
X120443523Y-262619048D02*
X120348285Y-262619048D01*
X120348285Y-262619048D02*
X120157809Y-262714286D01*
X120157809Y-262714286D02*
X120062571Y-262904763D01*
X120062571Y-262904763D02*
X120062571Y-263190477D01*
X120062571Y-263190477D02*
X119967333Y-263380953D01*
X119967333Y-263380953D02*
X119776857Y-263476191D01*
X119776857Y-263476191D02*
X119681619Y-263476191D01*
X119681619Y-263476191D02*
X119491142Y-263380953D01*
X119491142Y-263380953D02*
X119395904Y-263190477D01*
X119395904Y-263190477D02*
X119395904Y-262904763D01*
X119395904Y-262904763D02*
X119491142Y-262714286D01*
X120729238Y-261476191D02*
X120634000Y-261666667D01*
X120634000Y-261666667D02*
X120538761Y-261761905D01*
X120538761Y-261761905D02*
X120348285Y-261857143D01*
X120348285Y-261857143D02*
X119776857Y-261857143D01*
X119776857Y-261857143D02*
X119586380Y-261761905D01*
X119586380Y-261761905D02*
X119491142Y-261666667D01*
X119491142Y-261666667D02*
X119395904Y-261476191D01*
X119395904Y-261476191D02*
X119395904Y-261190476D01*
X119395904Y-261190476D02*
X119491142Y-261000000D01*
X119491142Y-261000000D02*
X119586380Y-260904762D01*
X119586380Y-260904762D02*
X119776857Y-260809524D01*
X119776857Y-260809524D02*
X120348285Y-260809524D01*
X120348285Y-260809524D02*
X120538761Y-260904762D01*
X120538761Y-260904762D02*
X120634000Y-261000000D01*
X120634000Y-261000000D02*
X120729238Y-261190476D01*
X120729238Y-261190476D02*
X120729238Y-261476191D01*
X119395904Y-259095238D02*
X120729238Y-259095238D01*
X119395904Y-259952381D02*
X120443523Y-259952381D01*
X120443523Y-259952381D02*
X120634000Y-259857143D01*
X120634000Y-259857143D02*
X120729238Y-259666667D01*
X120729238Y-259666667D02*
X120729238Y-259380952D01*
X120729238Y-259380952D02*
X120634000Y-259190476D01*
X120634000Y-259190476D02*
X120538761Y-259095238D01*
X120729238Y-258142857D02*
X119395904Y-258142857D01*
X119776857Y-258142857D02*
X119586380Y-258047619D01*
X119586380Y-258047619D02*
X119491142Y-257952381D01*
X119491142Y-257952381D02*
X119395904Y-257761905D01*
X119395904Y-257761905D02*
X119395904Y-257571428D01*
X120729238Y-256904762D02*
X119395904Y-256904762D01*
X118729238Y-256904762D02*
X118824476Y-257000000D01*
X118824476Y-257000000D02*
X118919714Y-256904762D01*
X118919714Y-256904762D02*
X118824476Y-256809524D01*
X118824476Y-256809524D02*
X118729238Y-256904762D01*
X118729238Y-256904762D02*
X118919714Y-256904762D01*
X120634000Y-254523809D02*
X120729238Y-254238095D01*
X120729238Y-254238095D02*
X120729238Y-253761904D01*
X120729238Y-253761904D02*
X120634000Y-253571428D01*
X120634000Y-253571428D02*
X120538761Y-253476190D01*
X120538761Y-253476190D02*
X120348285Y-253380952D01*
X120348285Y-253380952D02*
X120157809Y-253380952D01*
X120157809Y-253380952D02*
X119967333Y-253476190D01*
X119967333Y-253476190D02*
X119872095Y-253571428D01*
X119872095Y-253571428D02*
X119776857Y-253761904D01*
X119776857Y-253761904D02*
X119681619Y-254142857D01*
X119681619Y-254142857D02*
X119586380Y-254333333D01*
X119586380Y-254333333D02*
X119491142Y-254428571D01*
X119491142Y-254428571D02*
X119300666Y-254523809D01*
X119300666Y-254523809D02*
X119110190Y-254523809D01*
X119110190Y-254523809D02*
X118919714Y-254428571D01*
X118919714Y-254428571D02*
X118824476Y-254333333D01*
X118824476Y-254333333D02*
X118729238Y-254142857D01*
X118729238Y-254142857D02*
X118729238Y-253666666D01*
X118729238Y-253666666D02*
X118824476Y-253380952D01*
X120729238Y-250904761D02*
X120729238Y-251000000D01*
X120729238Y-251000000D02*
X120634000Y-251190476D01*
X120634000Y-251190476D02*
X120348285Y-251476190D01*
X120348285Y-251476190D02*
X119776857Y-251952380D01*
X119776857Y-251952380D02*
X119491142Y-252142857D01*
X119491142Y-252142857D02*
X119205428Y-252238095D01*
X119205428Y-252238095D02*
X119014952Y-252238095D01*
X119014952Y-252238095D02*
X118824476Y-252142857D01*
X118824476Y-252142857D02*
X118729238Y-251952380D01*
X118729238Y-251952380D02*
X118729238Y-251857142D01*
X118729238Y-251857142D02*
X118824476Y-251666666D01*
X118824476Y-251666666D02*
X119014952Y-251571428D01*
X119014952Y-251571428D02*
X119110190Y-251571428D01*
X119110190Y-251571428D02*
X119300666Y-251666666D01*
X119300666Y-251666666D02*
X119395904Y-251761904D01*
X119395904Y-251761904D02*
X119776857Y-252333333D01*
X119776857Y-252333333D02*
X119872095Y-252428571D01*
X119872095Y-252428571D02*
X120062571Y-252523809D01*
X120062571Y-252523809D02*
X120348285Y-252523809D01*
X120348285Y-252523809D02*
X120538761Y-252428571D01*
X120538761Y-252428571D02*
X120634000Y-252333333D01*
X120634000Y-252333333D02*
X120729238Y-252142857D01*
X120729238Y-252142857D02*
X120729238Y-251857142D01*
X120729238Y-251857142D02*
X120634000Y-251666666D01*
X120634000Y-251666666D02*
X120538761Y-251571428D01*
X120538761Y-251571428D02*
X120157809Y-251285714D01*
X120157809Y-251285714D02*
X119872095Y-251190476D01*
X119872095Y-251190476D02*
X119681619Y-251190476D01*
X118729238Y-250333333D02*
X118729238Y-249190476D01*
X120729238Y-249761905D02*
X118729238Y-249761905D01*
X119681619Y-246999999D02*
X119681619Y-246333332D01*
X120729238Y-246047618D02*
X120729238Y-246999999D01*
X120729238Y-246999999D02*
X118729238Y-246999999D01*
X118729238Y-246999999D02*
X118729238Y-246047618D01*
X120538761Y-244047618D02*
X120634000Y-244142856D01*
X120634000Y-244142856D02*
X120729238Y-244428570D01*
X120729238Y-244428570D02*
X120729238Y-244619046D01*
X120729238Y-244619046D02*
X120634000Y-244904761D01*
X120634000Y-244904761D02*
X120443523Y-245095237D01*
X120443523Y-245095237D02*
X120253047Y-245190475D01*
X120253047Y-245190475D02*
X119872095Y-245285713D01*
X119872095Y-245285713D02*
X119586380Y-245285713D01*
X119586380Y-245285713D02*
X119205428Y-245190475D01*
X119205428Y-245190475D02*
X119014952Y-245095237D01*
X119014952Y-245095237D02*
X118824476Y-244904761D01*
X118824476Y-244904761D02*
X118729238Y-244619046D01*
X118729238Y-244619046D02*
X118729238Y-244428570D01*
X118729238Y-244428570D02*
X118824476Y-244142856D01*
X118824476Y-244142856D02*
X118919714Y-244047618D01*
X119681619Y-243190475D02*
X119681619Y-242523808D01*
X120729238Y-242238094D02*
X120729238Y-243190475D01*
X120729238Y-243190475D02*
X118729238Y-243190475D01*
X118729238Y-243190475D02*
X118729238Y-242238094D01*
X120729238Y-239857141D02*
X118729238Y-239857141D01*
X118729238Y-239857141D02*
X118729238Y-239380951D01*
X118729238Y-239380951D02*
X118824476Y-239095236D01*
X118824476Y-239095236D02*
X119014952Y-238904760D01*
X119014952Y-238904760D02*
X119205428Y-238809522D01*
X119205428Y-238809522D02*
X119586380Y-238714284D01*
X119586380Y-238714284D02*
X119872095Y-238714284D01*
X119872095Y-238714284D02*
X120253047Y-238809522D01*
X120253047Y-238809522D02*
X120443523Y-238904760D01*
X120443523Y-238904760D02*
X120634000Y-239095236D01*
X120634000Y-239095236D02*
X120729238Y-239380951D01*
X120729238Y-239380951D02*
X120729238Y-239857141D01*
X120634000Y-237095236D02*
X120729238Y-237285712D01*
X120729238Y-237285712D02*
X120729238Y-237666665D01*
X120729238Y-237666665D02*
X120634000Y-237857141D01*
X120634000Y-237857141D02*
X120443523Y-237952379D01*
X120443523Y-237952379D02*
X119681619Y-237952379D01*
X119681619Y-237952379D02*
X119491142Y-237857141D01*
X119491142Y-237857141D02*
X119395904Y-237666665D01*
X119395904Y-237666665D02*
X119395904Y-237285712D01*
X119395904Y-237285712D02*
X119491142Y-237095236D01*
X119491142Y-237095236D02*
X119681619Y-236999998D01*
X119681619Y-236999998D02*
X119872095Y-236999998D01*
X119872095Y-236999998D02*
X120062571Y-237952379D01*
X119395904Y-236142855D02*
X121395904Y-236142855D01*
X119491142Y-236142855D02*
X119395904Y-235952379D01*
X119395904Y-235952379D02*
X119395904Y-235571426D01*
X119395904Y-235571426D02*
X119491142Y-235380950D01*
X119491142Y-235380950D02*
X119586380Y-235285712D01*
X119586380Y-235285712D02*
X119776857Y-235190474D01*
X119776857Y-235190474D02*
X120348285Y-235190474D01*
X120348285Y-235190474D02*
X120538761Y-235285712D01*
X120538761Y-235285712D02*
X120634000Y-235380950D01*
X120634000Y-235380950D02*
X120729238Y-235571426D01*
X120729238Y-235571426D02*
X120729238Y-235952379D01*
X120729238Y-235952379D02*
X120634000Y-236142855D01*
X120729238Y-233476188D02*
X119681619Y-233476188D01*
X119681619Y-233476188D02*
X119491142Y-233571426D01*
X119491142Y-233571426D02*
X119395904Y-233761902D01*
X119395904Y-233761902D02*
X119395904Y-234142855D01*
X119395904Y-234142855D02*
X119491142Y-234333331D01*
X120634000Y-233476188D02*
X120729238Y-233666664D01*
X120729238Y-233666664D02*
X120729238Y-234142855D01*
X120729238Y-234142855D02*
X120634000Y-234333331D01*
X120634000Y-234333331D02*
X120443523Y-234428569D01*
X120443523Y-234428569D02*
X120253047Y-234428569D01*
X120253047Y-234428569D02*
X120062571Y-234333331D01*
X120062571Y-234333331D02*
X119967333Y-234142855D01*
X119967333Y-234142855D02*
X119967333Y-233666664D01*
X119967333Y-233666664D02*
X119872095Y-233476188D01*
X120729238Y-232523807D02*
X119395904Y-232523807D01*
X119776857Y-232523807D02*
X119586380Y-232428569D01*
X119586380Y-232428569D02*
X119491142Y-232333331D01*
X119491142Y-232333331D02*
X119395904Y-232142855D01*
X119395904Y-232142855D02*
X119395904Y-231952378D01*
X119395904Y-231571426D02*
X119395904Y-230809522D01*
X118729238Y-231285712D02*
X120443523Y-231285712D01*
X120443523Y-231285712D02*
X120634000Y-231190474D01*
X120634000Y-231190474D02*
X120729238Y-230999998D01*
X120729238Y-230999998D02*
X120729238Y-230809522D01*
X120729238Y-230142855D02*
X119395904Y-230142855D01*
X119586380Y-230142855D02*
X119491142Y-230047617D01*
X119491142Y-230047617D02*
X119395904Y-229857141D01*
X119395904Y-229857141D02*
X119395904Y-229571426D01*
X119395904Y-229571426D02*
X119491142Y-229380950D01*
X119491142Y-229380950D02*
X119681619Y-229285712D01*
X119681619Y-229285712D02*
X120729238Y-229285712D01*
X119681619Y-229285712D02*
X119491142Y-229190474D01*
X119491142Y-229190474D02*
X119395904Y-228999998D01*
X119395904Y-228999998D02*
X119395904Y-228714284D01*
X119395904Y-228714284D02*
X119491142Y-228523807D01*
X119491142Y-228523807D02*
X119681619Y-228428569D01*
X119681619Y-228428569D02*
X120729238Y-228428569D01*
X120634000Y-226714283D02*
X120729238Y-226904759D01*
X120729238Y-226904759D02*
X120729238Y-227285712D01*
X120729238Y-227285712D02*
X120634000Y-227476188D01*
X120634000Y-227476188D02*
X120443523Y-227571426D01*
X120443523Y-227571426D02*
X119681619Y-227571426D01*
X119681619Y-227571426D02*
X119491142Y-227476188D01*
X119491142Y-227476188D02*
X119395904Y-227285712D01*
X119395904Y-227285712D02*
X119395904Y-226904759D01*
X119395904Y-226904759D02*
X119491142Y-226714283D01*
X119491142Y-226714283D02*
X119681619Y-226619045D01*
X119681619Y-226619045D02*
X119872095Y-226619045D01*
X119872095Y-226619045D02*
X120062571Y-227571426D01*
X119395904Y-225761902D02*
X120729238Y-225761902D01*
X119586380Y-225761902D02*
X119491142Y-225666664D01*
X119491142Y-225666664D02*
X119395904Y-225476188D01*
X119395904Y-225476188D02*
X119395904Y-225190473D01*
X119395904Y-225190473D02*
X119491142Y-224999997D01*
X119491142Y-224999997D02*
X119681619Y-224904759D01*
X119681619Y-224904759D02*
X120729238Y-224904759D01*
X119395904Y-224238092D02*
X119395904Y-223476188D01*
X118729238Y-223952378D02*
X120443523Y-223952378D01*
X120443523Y-223952378D02*
X120634000Y-223857140D01*
X120634000Y-223857140D02*
X120729238Y-223666664D01*
X120729238Y-223666664D02*
X120729238Y-223476188D01*
D12*
X134166666Y-192172419D02*
X133833333Y-191696228D01*
X133595238Y-192172419D02*
X133595238Y-191172419D01*
X133595238Y-191172419D02*
X133976190Y-191172419D01*
X133976190Y-191172419D02*
X134071428Y-191220038D01*
X134071428Y-191220038D02*
X134119047Y-191267657D01*
X134119047Y-191267657D02*
X134166666Y-191362895D01*
X134166666Y-191362895D02*
X134166666Y-191505752D01*
X134166666Y-191505752D02*
X134119047Y-191600990D01*
X134119047Y-191600990D02*
X134071428Y-191648609D01*
X134071428Y-191648609D02*
X133976190Y-191696228D01*
X133976190Y-191696228D02*
X133595238Y-191696228D01*
X134595238Y-191648609D02*
X134928571Y-191648609D01*
X135071428Y-192172419D02*
X134595238Y-192172419D01*
X134595238Y-192172419D02*
X134595238Y-191172419D01*
X134595238Y-191172419D02*
X135071428Y-191172419D01*
X135833333Y-191648609D02*
X135500000Y-191648609D01*
X135500000Y-192172419D02*
X135500000Y-191172419D01*
X135500000Y-191172419D02*
X135976190Y-191172419D01*
X136500000Y-191172419D02*
X136500000Y-191410514D01*
X136261905Y-191315276D02*
X136500000Y-191410514D01*
X136500000Y-191410514D02*
X136738095Y-191315276D01*
X136357143Y-191600990D02*
X136500000Y-191410514D01*
X136500000Y-191410514D02*
X136642857Y-191600990D01*
X137261905Y-191172419D02*
X137261905Y-191410514D01*
X137023810Y-191315276D02*
X137261905Y-191410514D01*
X137261905Y-191410514D02*
X137500000Y-191315276D01*
X137119048Y-191600990D02*
X137261905Y-191410514D01*
X137261905Y-191410514D02*
X137404762Y-191600990D01*
D11*
X217637855Y-168566128D02*
X217685474Y-168518509D01*
X217685474Y-168518509D02*
X217828331Y-168470889D01*
X217828331Y-168470889D02*
X217923569Y-168470889D01*
X217923569Y-168470889D02*
X218066426Y-168518509D01*
X218066426Y-168518509D02*
X218161664Y-168613747D01*
X218161664Y-168613747D02*
X218209283Y-168708985D01*
X218209283Y-168708985D02*
X218256902Y-168899461D01*
X218256902Y-168899461D02*
X218256902Y-169042318D01*
X218256902Y-169042318D02*
X218209283Y-169232794D01*
X218209283Y-169232794D02*
X218161664Y-169328032D01*
X218161664Y-169328032D02*
X218066426Y-169423270D01*
X218066426Y-169423270D02*
X217923569Y-169470889D01*
X217923569Y-169470889D02*
X217828331Y-169470889D01*
X217828331Y-169470889D02*
X217685474Y-169423270D01*
X217685474Y-169423270D02*
X217637855Y-169375651D01*
X216685474Y-168470889D02*
X217256902Y-168470889D01*
X216971188Y-168470889D02*
X216971188Y-169470889D01*
X216971188Y-169470889D02*
X217066426Y-169328032D01*
X217066426Y-169328032D02*
X217161664Y-169232794D01*
X217161664Y-169232794D02*
X217256902Y-169185175D01*
X216304521Y-169375651D02*
X216256902Y-169423270D01*
X216256902Y-169423270D02*
X216161664Y-169470889D01*
X216161664Y-169470889D02*
X215923569Y-169470889D01*
X215923569Y-169470889D02*
X215828331Y-169423270D01*
X215828331Y-169423270D02*
X215780712Y-169375651D01*
X215780712Y-169375651D02*
X215733093Y-169280413D01*
X215733093Y-169280413D02*
X215733093Y-169185175D01*
X215733093Y-169185175D02*
X215780712Y-169042318D01*
X215780712Y-169042318D02*
X216352140Y-168470889D01*
X216352140Y-168470889D02*
X215733093Y-168470889D01*
X415569857Y-263847978D02*
X415617476Y-263800359D01*
X415617476Y-263800359D02*
X415760333Y-263752739D01*
X415760333Y-263752739D02*
X415855571Y-263752739D01*
X415855571Y-263752739D02*
X415998428Y-263800359D01*
X415998428Y-263800359D02*
X416093666Y-263895597D01*
X416093666Y-263895597D02*
X416141285Y-263990835D01*
X416141285Y-263990835D02*
X416188904Y-264181311D01*
X416188904Y-264181311D02*
X416188904Y-264324168D01*
X416188904Y-264324168D02*
X416141285Y-264514644D01*
X416141285Y-264514644D02*
X416093666Y-264609882D01*
X416093666Y-264609882D02*
X415998428Y-264705120D01*
X415998428Y-264705120D02*
X415855571Y-264752739D01*
X415855571Y-264752739D02*
X415760333Y-264752739D01*
X415760333Y-264752739D02*
X415617476Y-264705120D01*
X415617476Y-264705120D02*
X415569857Y-264657501D01*
X415188904Y-264657501D02*
X415141285Y-264705120D01*
X415141285Y-264705120D02*
X415046047Y-264752739D01*
X415046047Y-264752739D02*
X414807952Y-264752739D01*
X414807952Y-264752739D02*
X414712714Y-264705120D01*
X414712714Y-264705120D02*
X414665095Y-264657501D01*
X414665095Y-264657501D02*
X414617476Y-264562263D01*
X414617476Y-264562263D02*
X414617476Y-264467025D01*
X414617476Y-264467025D02*
X414665095Y-264324168D01*
X414665095Y-264324168D02*
X415236523Y-263752739D01*
X415236523Y-263752739D02*
X414617476Y-263752739D01*
X413760333Y-264419406D02*
X413760333Y-263752739D01*
X413998428Y-264800359D02*
X414236523Y-264086073D01*
X414236523Y-264086073D02*
X413617476Y-264086073D01*
X283569857Y-263847978D02*
X283617476Y-263800359D01*
X283617476Y-263800359D02*
X283760333Y-263752739D01*
X283760333Y-263752739D02*
X283855571Y-263752739D01*
X283855571Y-263752739D02*
X283998428Y-263800359D01*
X283998428Y-263800359D02*
X284093666Y-263895597D01*
X284093666Y-263895597D02*
X284141285Y-263990835D01*
X284141285Y-263990835D02*
X284188904Y-264181311D01*
X284188904Y-264181311D02*
X284188904Y-264324168D01*
X284188904Y-264324168D02*
X284141285Y-264514644D01*
X284141285Y-264514644D02*
X284093666Y-264609882D01*
X284093666Y-264609882D02*
X283998428Y-264705120D01*
X283998428Y-264705120D02*
X283855571Y-264752739D01*
X283855571Y-264752739D02*
X283760333Y-264752739D01*
X283760333Y-264752739D02*
X283617476Y-264705120D01*
X283617476Y-264705120D02*
X283569857Y-264657501D01*
X283188904Y-264657501D02*
X283141285Y-264705120D01*
X283141285Y-264705120D02*
X283046047Y-264752739D01*
X283046047Y-264752739D02*
X282807952Y-264752739D01*
X282807952Y-264752739D02*
X282712714Y-264705120D01*
X282712714Y-264705120D02*
X282665095Y-264657501D01*
X282665095Y-264657501D02*
X282617476Y-264562263D01*
X282617476Y-264562263D02*
X282617476Y-264467025D01*
X282617476Y-264467025D02*
X282665095Y-264324168D01*
X282665095Y-264324168D02*
X283236523Y-263752739D01*
X283236523Y-263752739D02*
X282617476Y-263752739D01*
X281665095Y-263752739D02*
X282236523Y-263752739D01*
X281950809Y-263752739D02*
X281950809Y-264752739D01*
X281950809Y-264752739D02*
X282046047Y-264609882D01*
X282046047Y-264609882D02*
X282141285Y-264514644D01*
X282141285Y-264514644D02*
X282236523Y-264467025D01*
X348487142Y-226259548D02*
X348439523Y-226307168D01*
X348439523Y-226307168D02*
X348296666Y-226354787D01*
X348296666Y-226354787D02*
X348201428Y-226354787D01*
X348201428Y-226354787D02*
X348058571Y-226307168D01*
X348058571Y-226307168D02*
X347963333Y-226211929D01*
X347963333Y-226211929D02*
X347915714Y-226116691D01*
X347915714Y-226116691D02*
X347868095Y-225926215D01*
X347868095Y-225926215D02*
X347868095Y-225783358D01*
X347868095Y-225783358D02*
X347915714Y-225592882D01*
X347915714Y-225592882D02*
X347963333Y-225497644D01*
X347963333Y-225497644D02*
X348058571Y-225402406D01*
X348058571Y-225402406D02*
X348201428Y-225354787D01*
X348201428Y-225354787D02*
X348296666Y-225354787D01*
X348296666Y-225354787D02*
X348439523Y-225402406D01*
X348439523Y-225402406D02*
X348487142Y-225450025D01*
X348868095Y-225450025D02*
X348915714Y-225402406D01*
X348915714Y-225402406D02*
X349010952Y-225354787D01*
X349010952Y-225354787D02*
X349249047Y-225354787D01*
X349249047Y-225354787D02*
X349344285Y-225402406D01*
X349344285Y-225402406D02*
X349391904Y-225450025D01*
X349391904Y-225450025D02*
X349439523Y-225545263D01*
X349439523Y-225545263D02*
X349439523Y-225640501D01*
X349439523Y-225640501D02*
X349391904Y-225783358D01*
X349391904Y-225783358D02*
X348820476Y-226354787D01*
X348820476Y-226354787D02*
X349439523Y-226354787D01*
X349820476Y-225450025D02*
X349868095Y-225402406D01*
X349868095Y-225402406D02*
X349963333Y-225354787D01*
X349963333Y-225354787D02*
X350201428Y-225354787D01*
X350201428Y-225354787D02*
X350296666Y-225402406D01*
X350296666Y-225402406D02*
X350344285Y-225450025D01*
X350344285Y-225450025D02*
X350391904Y-225545263D01*
X350391904Y-225545263D02*
X350391904Y-225640501D01*
X350391904Y-225640501D02*
X350344285Y-225783358D01*
X350344285Y-225783358D02*
X349772857Y-226354787D01*
X349772857Y-226354787D02*
X350391904Y-226354787D01*
X282352140Y-131104989D02*
X282304521Y-131152609D01*
X282304521Y-131152609D02*
X282161664Y-131200228D01*
X282161664Y-131200228D02*
X282066426Y-131200228D01*
X282066426Y-131200228D02*
X281923569Y-131152609D01*
X281923569Y-131152609D02*
X281828331Y-131057370D01*
X281828331Y-131057370D02*
X281780712Y-130962132D01*
X281780712Y-130962132D02*
X281733093Y-130771656D01*
X281733093Y-130771656D02*
X281733093Y-130628799D01*
X281733093Y-130628799D02*
X281780712Y-130438323D01*
X281780712Y-130438323D02*
X281828331Y-130343085D01*
X281828331Y-130343085D02*
X281923569Y-130247847D01*
X281923569Y-130247847D02*
X282066426Y-130200228D01*
X282066426Y-130200228D02*
X282161664Y-130200228D01*
X282161664Y-130200228D02*
X282304521Y-130247847D01*
X282304521Y-130247847D02*
X282352140Y-130295466D01*
X282685474Y-130200228D02*
X283304521Y-130200228D01*
X283304521Y-130200228D02*
X282971188Y-130581180D01*
X282971188Y-130581180D02*
X283114045Y-130581180D01*
X283114045Y-130581180D02*
X283209283Y-130628799D01*
X283209283Y-130628799D02*
X283256902Y-130676418D01*
X283256902Y-130676418D02*
X283304521Y-130771656D01*
X283304521Y-130771656D02*
X283304521Y-131009751D01*
X283304521Y-131009751D02*
X283256902Y-131104989D01*
X283256902Y-131104989D02*
X283209283Y-131152609D01*
X283209283Y-131152609D02*
X283114045Y-131200228D01*
X283114045Y-131200228D02*
X282828331Y-131200228D01*
X282828331Y-131200228D02*
X282733093Y-131152609D01*
X282733093Y-131152609D02*
X282685474Y-131104989D01*
X284256902Y-131200228D02*
X283685474Y-131200228D01*
X283971188Y-131200228D02*
X283971188Y-130200228D01*
X283971188Y-130200228D02*
X283875950Y-130343085D01*
X283875950Y-130343085D02*
X283780712Y-130438323D01*
X283780712Y-130438323D02*
X283685474Y-130485942D01*
X436487142Y-226259548D02*
X436439523Y-226307168D01*
X436439523Y-226307168D02*
X436296666Y-226354787D01*
X436296666Y-226354787D02*
X436201428Y-226354787D01*
X436201428Y-226354787D02*
X436058571Y-226307168D01*
X436058571Y-226307168D02*
X435963333Y-226211929D01*
X435963333Y-226211929D02*
X435915714Y-226116691D01*
X435915714Y-226116691D02*
X435868095Y-225926215D01*
X435868095Y-225926215D02*
X435868095Y-225783358D01*
X435868095Y-225783358D02*
X435915714Y-225592882D01*
X435915714Y-225592882D02*
X435963333Y-225497644D01*
X435963333Y-225497644D02*
X436058571Y-225402406D01*
X436058571Y-225402406D02*
X436201428Y-225354787D01*
X436201428Y-225354787D02*
X436296666Y-225354787D01*
X436296666Y-225354787D02*
X436439523Y-225402406D01*
X436439523Y-225402406D02*
X436487142Y-225450025D01*
X436868095Y-225450025D02*
X436915714Y-225402406D01*
X436915714Y-225402406D02*
X437010952Y-225354787D01*
X437010952Y-225354787D02*
X437249047Y-225354787D01*
X437249047Y-225354787D02*
X437344285Y-225402406D01*
X437344285Y-225402406D02*
X437391904Y-225450025D01*
X437391904Y-225450025D02*
X437439523Y-225545263D01*
X437439523Y-225545263D02*
X437439523Y-225640501D01*
X437439523Y-225640501D02*
X437391904Y-225783358D01*
X437391904Y-225783358D02*
X436820476Y-226354787D01*
X436820476Y-226354787D02*
X437439523Y-226354787D01*
X438296666Y-225354787D02*
X438106190Y-225354787D01*
X438106190Y-225354787D02*
X438010952Y-225402406D01*
X438010952Y-225402406D02*
X437963333Y-225450025D01*
X437963333Y-225450025D02*
X437868095Y-225592882D01*
X437868095Y-225592882D02*
X437820476Y-225783358D01*
X437820476Y-225783358D02*
X437820476Y-226164310D01*
X437820476Y-226164310D02*
X437868095Y-226259548D01*
X437868095Y-226259548D02*
X437915714Y-226307168D01*
X437915714Y-226307168D02*
X438010952Y-226354787D01*
X438010952Y-226354787D02*
X438201428Y-226354787D01*
X438201428Y-226354787D02*
X438296666Y-226307168D01*
X438296666Y-226307168D02*
X438344285Y-226259548D01*
X438344285Y-226259548D02*
X438391904Y-226164310D01*
X438391904Y-226164310D02*
X438391904Y-225926215D01*
X438391904Y-225926215D02*
X438344285Y-225830977D01*
X438344285Y-225830977D02*
X438296666Y-225783358D01*
X438296666Y-225783358D02*
X438201428Y-225735739D01*
X438201428Y-225735739D02*
X438010952Y-225735739D01*
X438010952Y-225735739D02*
X437915714Y-225783358D01*
X437915714Y-225783358D02*
X437868095Y-225830977D01*
X437868095Y-225830977D02*
X437820476Y-225926215D01*
X480487142Y-226259548D02*
X480439523Y-226307168D01*
X480439523Y-226307168D02*
X480296666Y-226354787D01*
X480296666Y-226354787D02*
X480201428Y-226354787D01*
X480201428Y-226354787D02*
X480058571Y-226307168D01*
X480058571Y-226307168D02*
X479963333Y-226211929D01*
X479963333Y-226211929D02*
X479915714Y-226116691D01*
X479915714Y-226116691D02*
X479868095Y-225926215D01*
X479868095Y-225926215D02*
X479868095Y-225783358D01*
X479868095Y-225783358D02*
X479915714Y-225592882D01*
X479915714Y-225592882D02*
X479963333Y-225497644D01*
X479963333Y-225497644D02*
X480058571Y-225402406D01*
X480058571Y-225402406D02*
X480201428Y-225354787D01*
X480201428Y-225354787D02*
X480296666Y-225354787D01*
X480296666Y-225354787D02*
X480439523Y-225402406D01*
X480439523Y-225402406D02*
X480487142Y-225450025D01*
X480868095Y-225450025D02*
X480915714Y-225402406D01*
X480915714Y-225402406D02*
X481010952Y-225354787D01*
X481010952Y-225354787D02*
X481249047Y-225354787D01*
X481249047Y-225354787D02*
X481344285Y-225402406D01*
X481344285Y-225402406D02*
X481391904Y-225450025D01*
X481391904Y-225450025D02*
X481439523Y-225545263D01*
X481439523Y-225545263D02*
X481439523Y-225640501D01*
X481439523Y-225640501D02*
X481391904Y-225783358D01*
X481391904Y-225783358D02*
X480820476Y-226354787D01*
X480820476Y-226354787D02*
X481439523Y-226354787D01*
X482010952Y-225783358D02*
X481915714Y-225735739D01*
X481915714Y-225735739D02*
X481868095Y-225688120D01*
X481868095Y-225688120D02*
X481820476Y-225592882D01*
X481820476Y-225592882D02*
X481820476Y-225545263D01*
X481820476Y-225545263D02*
X481868095Y-225450025D01*
X481868095Y-225450025D02*
X481915714Y-225402406D01*
X481915714Y-225402406D02*
X482010952Y-225354787D01*
X482010952Y-225354787D02*
X482201428Y-225354787D01*
X482201428Y-225354787D02*
X482296666Y-225402406D01*
X482296666Y-225402406D02*
X482344285Y-225450025D01*
X482344285Y-225450025D02*
X482391904Y-225545263D01*
X482391904Y-225545263D02*
X482391904Y-225592882D01*
X482391904Y-225592882D02*
X482344285Y-225688120D01*
X482344285Y-225688120D02*
X482296666Y-225735739D01*
X482296666Y-225735739D02*
X482201428Y-225783358D01*
X482201428Y-225783358D02*
X482010952Y-225783358D01*
X482010952Y-225783358D02*
X481915714Y-225830977D01*
X481915714Y-225830977D02*
X481868095Y-225878596D01*
X481868095Y-225878596D02*
X481820476Y-225973834D01*
X481820476Y-225973834D02*
X481820476Y-226164310D01*
X481820476Y-226164310D02*
X481868095Y-226259548D01*
X481868095Y-226259548D02*
X481915714Y-226307168D01*
X481915714Y-226307168D02*
X482010952Y-226354787D01*
X482010952Y-226354787D02*
X482201428Y-226354787D01*
X482201428Y-226354787D02*
X482296666Y-226307168D01*
X482296666Y-226307168D02*
X482344285Y-226259548D01*
X482344285Y-226259548D02*
X482391904Y-226164310D01*
X482391904Y-226164310D02*
X482391904Y-225973834D01*
X482391904Y-225973834D02*
X482344285Y-225878596D01*
X482344285Y-225878596D02*
X482296666Y-225830977D01*
X482296666Y-225830977D02*
X482201428Y-225783358D01*
X327540857Y-263847978D02*
X327588476Y-263800359D01*
X327588476Y-263800359D02*
X327731333Y-263752739D01*
X327731333Y-263752739D02*
X327826571Y-263752739D01*
X327826571Y-263752739D02*
X327969428Y-263800359D01*
X327969428Y-263800359D02*
X328064666Y-263895597D01*
X328064666Y-263895597D02*
X328112285Y-263990835D01*
X328112285Y-263990835D02*
X328159904Y-264181311D01*
X328159904Y-264181311D02*
X328159904Y-264324168D01*
X328159904Y-264324168D02*
X328112285Y-264514644D01*
X328112285Y-264514644D02*
X328064666Y-264609882D01*
X328064666Y-264609882D02*
X327969428Y-264705120D01*
X327969428Y-264705120D02*
X327826571Y-264752739D01*
X327826571Y-264752739D02*
X327731333Y-264752739D01*
X327731333Y-264752739D02*
X327588476Y-264705120D01*
X327588476Y-264705120D02*
X327540857Y-264657501D01*
X327159904Y-264657501D02*
X327112285Y-264705120D01*
X327112285Y-264705120D02*
X327017047Y-264752739D01*
X327017047Y-264752739D02*
X326778952Y-264752739D01*
X326778952Y-264752739D02*
X326683714Y-264705120D01*
X326683714Y-264705120D02*
X326636095Y-264657501D01*
X326636095Y-264657501D02*
X326588476Y-264562263D01*
X326588476Y-264562263D02*
X326588476Y-264467025D01*
X326588476Y-264467025D02*
X326636095Y-264324168D01*
X326636095Y-264324168D02*
X327207523Y-263752739D01*
X327207523Y-263752739D02*
X326588476Y-263752739D01*
X326112285Y-263752739D02*
X325921809Y-263752739D01*
X325921809Y-263752739D02*
X325826571Y-263800359D01*
X325826571Y-263800359D02*
X325778952Y-263847978D01*
X325778952Y-263847978D02*
X325683714Y-263990835D01*
X325683714Y-263990835D02*
X325636095Y-264181311D01*
X325636095Y-264181311D02*
X325636095Y-264562263D01*
X325636095Y-264562263D02*
X325683714Y-264657501D01*
X325683714Y-264657501D02*
X325731333Y-264705120D01*
X325731333Y-264705120D02*
X325826571Y-264752739D01*
X325826571Y-264752739D02*
X326017047Y-264752739D01*
X326017047Y-264752739D02*
X326112285Y-264705120D01*
X326112285Y-264705120D02*
X326159904Y-264657501D01*
X326159904Y-264657501D02*
X326207523Y-264562263D01*
X326207523Y-264562263D02*
X326207523Y-264324168D01*
X326207523Y-264324168D02*
X326159904Y-264228930D01*
X326159904Y-264228930D02*
X326112285Y-264181311D01*
X326112285Y-264181311D02*
X326017047Y-264133692D01*
X326017047Y-264133692D02*
X325826571Y-264133692D01*
X325826571Y-264133692D02*
X325731333Y-264181311D01*
X325731333Y-264181311D02*
X325683714Y-264228930D01*
X325683714Y-264228930D02*
X325636095Y-264324168D01*
X173637855Y-168566128D02*
X173685474Y-168518509D01*
X173685474Y-168518509D02*
X173828331Y-168470889D01*
X173828331Y-168470889D02*
X173923569Y-168470889D01*
X173923569Y-168470889D02*
X174066426Y-168518509D01*
X174066426Y-168518509D02*
X174161664Y-168613747D01*
X174161664Y-168613747D02*
X174209283Y-168708985D01*
X174209283Y-168708985D02*
X174256902Y-168899461D01*
X174256902Y-168899461D02*
X174256902Y-169042318D01*
X174256902Y-169042318D02*
X174209283Y-169232794D01*
X174209283Y-169232794D02*
X174161664Y-169328032D01*
X174161664Y-169328032D02*
X174066426Y-169423270D01*
X174066426Y-169423270D02*
X173923569Y-169470889D01*
X173923569Y-169470889D02*
X173828331Y-169470889D01*
X173828331Y-169470889D02*
X173685474Y-169423270D01*
X173685474Y-169423270D02*
X173637855Y-169375651D01*
X172685474Y-168470889D02*
X173256902Y-168470889D01*
X172971188Y-168470889D02*
X172971188Y-169470889D01*
X172971188Y-169470889D02*
X173066426Y-169328032D01*
X173066426Y-169328032D02*
X173161664Y-169232794D01*
X173161664Y-169232794D02*
X173256902Y-169185175D01*
X172066426Y-169470889D02*
X171971188Y-169470889D01*
X171971188Y-169470889D02*
X171875950Y-169423270D01*
X171875950Y-169423270D02*
X171828331Y-169375651D01*
X171828331Y-169375651D02*
X171780712Y-169280413D01*
X171780712Y-169280413D02*
X171733093Y-169089937D01*
X171733093Y-169089937D02*
X171733093Y-168851842D01*
X171733093Y-168851842D02*
X171780712Y-168661366D01*
X171780712Y-168661366D02*
X171828331Y-168566128D01*
X171828331Y-168566128D02*
X171875950Y-168518509D01*
X171875950Y-168518509D02*
X171971188Y-168470889D01*
X171971188Y-168470889D02*
X172066426Y-168470889D01*
X172066426Y-168470889D02*
X172161664Y-168518509D01*
X172161664Y-168518509D02*
X172209283Y-168566128D01*
X172209283Y-168566128D02*
X172256902Y-168661366D01*
X172256902Y-168661366D02*
X172304521Y-168851842D01*
X172304521Y-168851842D02*
X172304521Y-169089937D01*
X172304521Y-169089937D02*
X172256902Y-169280413D01*
X172256902Y-169280413D02*
X172209283Y-169375651D01*
X172209283Y-169375651D02*
X172161664Y-169423270D01*
X172161664Y-169423270D02*
X172066426Y-169470889D01*
D12*
X136833333Y-202327580D02*
X137166666Y-202803771D01*
X137404761Y-202327580D02*
X137404761Y-203327580D01*
X137404761Y-203327580D02*
X137023809Y-203327580D01*
X137023809Y-203327580D02*
X136928571Y-203279961D01*
X136928571Y-203279961D02*
X136880952Y-203232342D01*
X136880952Y-203232342D02*
X136833333Y-203137104D01*
X136833333Y-203137104D02*
X136833333Y-202994247D01*
X136833333Y-202994247D02*
X136880952Y-202899009D01*
X136880952Y-202899009D02*
X136928571Y-202851390D01*
X136928571Y-202851390D02*
X137023809Y-202803771D01*
X137023809Y-202803771D02*
X137404761Y-202803771D01*
X136404761Y-202851390D02*
X136071428Y-202851390D01*
X135928571Y-202327580D02*
X136404761Y-202327580D01*
X136404761Y-202327580D02*
X136404761Y-203327580D01*
X136404761Y-203327580D02*
X135928571Y-203327580D01*
X135166666Y-202851390D02*
X135499999Y-202851390D01*
X135499999Y-202327580D02*
X135499999Y-203327580D01*
X135499999Y-203327580D02*
X135023809Y-203327580D01*
X134499999Y-203327580D02*
X134499999Y-203089485D01*
X134738094Y-203184723D02*
X134499999Y-203089485D01*
X134499999Y-203089485D02*
X134261904Y-203184723D01*
X134642856Y-202899009D02*
X134499999Y-203089485D01*
X134499999Y-203089485D02*
X134357142Y-202899009D01*
X133738094Y-203327580D02*
X133738094Y-203089485D01*
X133976189Y-203184723D02*
X133738094Y-203089485D01*
X133738094Y-203089485D02*
X133499999Y-203184723D01*
X133880951Y-202899009D02*
X133738094Y-203089485D01*
X133738094Y-203089485D02*
X133595237Y-202899009D01*
D11*
X437161664Y-168566128D02*
X437209283Y-168518509D01*
X437209283Y-168518509D02*
X437352140Y-168470889D01*
X437352140Y-168470889D02*
X437447378Y-168470889D01*
X437447378Y-168470889D02*
X437590235Y-168518509D01*
X437590235Y-168518509D02*
X437685473Y-168613747D01*
X437685473Y-168613747D02*
X437733092Y-168708985D01*
X437733092Y-168708985D02*
X437780711Y-168899461D01*
X437780711Y-168899461D02*
X437780711Y-169042318D01*
X437780711Y-169042318D02*
X437733092Y-169232794D01*
X437733092Y-169232794D02*
X437685473Y-169328032D01*
X437685473Y-169328032D02*
X437590235Y-169423270D01*
X437590235Y-169423270D02*
X437447378Y-169470889D01*
X437447378Y-169470889D02*
X437352140Y-169470889D01*
X437352140Y-169470889D02*
X437209283Y-169423270D01*
X437209283Y-169423270D02*
X437161664Y-169375651D01*
X436304521Y-169137556D02*
X436304521Y-168470889D01*
X436542616Y-169518509D02*
X436780711Y-168804223D01*
X436780711Y-168804223D02*
X436161664Y-168804223D01*
X458828331Y-131195139D02*
X458780712Y-131242759D01*
X458780712Y-131242759D02*
X458637855Y-131290378D01*
X458637855Y-131290378D02*
X458542617Y-131290378D01*
X458542617Y-131290378D02*
X458399760Y-131242759D01*
X458399760Y-131242759D02*
X458304522Y-131147520D01*
X458304522Y-131147520D02*
X458256903Y-131052282D01*
X458256903Y-131052282D02*
X458209284Y-130861806D01*
X458209284Y-130861806D02*
X458209284Y-130718949D01*
X458209284Y-130718949D02*
X458256903Y-130528473D01*
X458256903Y-130528473D02*
X458304522Y-130433235D01*
X458304522Y-130433235D02*
X458399760Y-130337997D01*
X458399760Y-130337997D02*
X458542617Y-130290378D01*
X458542617Y-130290378D02*
X458637855Y-130290378D01*
X458637855Y-130290378D02*
X458780712Y-130337997D01*
X458780712Y-130337997D02*
X458828331Y-130385616D01*
X459161665Y-130290378D02*
X459828331Y-130290378D01*
X459828331Y-130290378D02*
X459399760Y-131290378D01*
D12*
X518672419Y-151333333D02*
X518196228Y-151666666D01*
X518672419Y-151904761D02*
X517672419Y-151904761D01*
X517672419Y-151904761D02*
X517672419Y-151523809D01*
X517672419Y-151523809D02*
X517720038Y-151428571D01*
X517720038Y-151428571D02*
X517767657Y-151380952D01*
X517767657Y-151380952D02*
X517862895Y-151333333D01*
X517862895Y-151333333D02*
X518005752Y-151333333D01*
X518005752Y-151333333D02*
X518100990Y-151380952D01*
X518100990Y-151380952D02*
X518148609Y-151428571D01*
X518148609Y-151428571D02*
X518196228Y-151523809D01*
X518196228Y-151523809D02*
X518196228Y-151904761D01*
X518148609Y-150904761D02*
X518148609Y-150571428D01*
X518672419Y-150428571D02*
X518672419Y-150904761D01*
X518672419Y-150904761D02*
X517672419Y-150904761D01*
X517672419Y-150904761D02*
X517672419Y-150428571D01*
X518148609Y-149666666D02*
X518148609Y-149999999D01*
X518672419Y-149999999D02*
X517672419Y-149999999D01*
X517672419Y-149999999D02*
X517672419Y-149523809D01*
X517672419Y-148999999D02*
X517910514Y-148999999D01*
X517815276Y-149238094D02*
X517910514Y-148999999D01*
X517910514Y-148999999D02*
X517815276Y-148761904D01*
X518100990Y-149142856D02*
X517910514Y-148999999D01*
X517910514Y-148999999D02*
X518100990Y-148857142D01*
X517672419Y-148238094D02*
X517910514Y-148238094D01*
X517815276Y-148476189D02*
X517910514Y-148238094D01*
X517910514Y-148238094D02*
X517815276Y-147999999D01*
X518100990Y-148380951D02*
X517910514Y-148238094D01*
X517910514Y-148238094D02*
X518100990Y-148095237D01*
D11*
X216487142Y-226259548D02*
X216439523Y-226307168D01*
X216439523Y-226307168D02*
X216296666Y-226354787D01*
X216296666Y-226354787D02*
X216201428Y-226354787D01*
X216201428Y-226354787D02*
X216058571Y-226307168D01*
X216058571Y-226307168D02*
X215963333Y-226211929D01*
X215963333Y-226211929D02*
X215915714Y-226116691D01*
X215915714Y-226116691D02*
X215868095Y-225926215D01*
X215868095Y-225926215D02*
X215868095Y-225783358D01*
X215868095Y-225783358D02*
X215915714Y-225592882D01*
X215915714Y-225592882D02*
X215963333Y-225497644D01*
X215963333Y-225497644D02*
X216058571Y-225402406D01*
X216058571Y-225402406D02*
X216201428Y-225354787D01*
X216201428Y-225354787D02*
X216296666Y-225354787D01*
X216296666Y-225354787D02*
X216439523Y-225402406D01*
X216439523Y-225402406D02*
X216487142Y-225450025D01*
X217439523Y-226354787D02*
X216868095Y-226354787D01*
X217153809Y-226354787D02*
X217153809Y-225354787D01*
X217153809Y-225354787D02*
X217058571Y-225497644D01*
X217058571Y-225497644D02*
X216963333Y-225592882D01*
X216963333Y-225592882D02*
X216868095Y-225640501D01*
X218010952Y-225783358D02*
X217915714Y-225735739D01*
X217915714Y-225735739D02*
X217868095Y-225688120D01*
X217868095Y-225688120D02*
X217820476Y-225592882D01*
X217820476Y-225592882D02*
X217820476Y-225545263D01*
X217820476Y-225545263D02*
X217868095Y-225450025D01*
X217868095Y-225450025D02*
X217915714Y-225402406D01*
X217915714Y-225402406D02*
X218010952Y-225354787D01*
X218010952Y-225354787D02*
X218201428Y-225354787D01*
X218201428Y-225354787D02*
X218296666Y-225402406D01*
X218296666Y-225402406D02*
X218344285Y-225450025D01*
X218344285Y-225450025D02*
X218391904Y-225545263D01*
X218391904Y-225545263D02*
X218391904Y-225592882D01*
X218391904Y-225592882D02*
X218344285Y-225688120D01*
X218344285Y-225688120D02*
X218296666Y-225735739D01*
X218296666Y-225735739D02*
X218201428Y-225783358D01*
X218201428Y-225783358D02*
X218010952Y-225783358D01*
X218010952Y-225783358D02*
X217915714Y-225830977D01*
X217915714Y-225830977D02*
X217868095Y-225878596D01*
X217868095Y-225878596D02*
X217820476Y-225973834D01*
X217820476Y-225973834D02*
X217820476Y-226164310D01*
X217820476Y-226164310D02*
X217868095Y-226259548D01*
X217868095Y-226259548D02*
X217915714Y-226307168D01*
X217915714Y-226307168D02*
X218010952Y-226354787D01*
X218010952Y-226354787D02*
X218201428Y-226354787D01*
X218201428Y-226354787D02*
X218296666Y-226307168D01*
X218296666Y-226307168D02*
X218344285Y-226259548D01*
X218344285Y-226259548D02*
X218391904Y-226164310D01*
X218391904Y-226164310D02*
X218391904Y-225973834D01*
X218391904Y-225973834D02*
X218344285Y-225878596D01*
X218344285Y-225878596D02*
X218296666Y-225830977D01*
X218296666Y-225830977D02*
X218201428Y-225783358D01*
X150828331Y-131104989D02*
X150780712Y-131152609D01*
X150780712Y-131152609D02*
X150637855Y-131200228D01*
X150637855Y-131200228D02*
X150542617Y-131200228D01*
X150542617Y-131200228D02*
X150399760Y-131152609D01*
X150399760Y-131152609D02*
X150304522Y-131057370D01*
X150304522Y-131057370D02*
X150256903Y-130962132D01*
X150256903Y-130962132D02*
X150209284Y-130771656D01*
X150209284Y-130771656D02*
X150209284Y-130628799D01*
X150209284Y-130628799D02*
X150256903Y-130438323D01*
X150256903Y-130438323D02*
X150304522Y-130343085D01*
X150304522Y-130343085D02*
X150399760Y-130247847D01*
X150399760Y-130247847D02*
X150542617Y-130200228D01*
X150542617Y-130200228D02*
X150637855Y-130200228D01*
X150637855Y-130200228D02*
X150780712Y-130247847D01*
X150780712Y-130247847D02*
X150828331Y-130295466D01*
X151304522Y-131200228D02*
X151494998Y-131200228D01*
X151494998Y-131200228D02*
X151590236Y-131152609D01*
X151590236Y-131152609D02*
X151637855Y-131104989D01*
X151637855Y-131104989D02*
X151733093Y-130962132D01*
X151733093Y-130962132D02*
X151780712Y-130771656D01*
X151780712Y-130771656D02*
X151780712Y-130390704D01*
X151780712Y-130390704D02*
X151733093Y-130295466D01*
X151733093Y-130295466D02*
X151685474Y-130247847D01*
X151685474Y-130247847D02*
X151590236Y-130200228D01*
X151590236Y-130200228D02*
X151399760Y-130200228D01*
X151399760Y-130200228D02*
X151304522Y-130247847D01*
X151304522Y-130247847D02*
X151256903Y-130295466D01*
X151256903Y-130295466D02*
X151209284Y-130390704D01*
X151209284Y-130390704D02*
X151209284Y-130628799D01*
X151209284Y-130628799D02*
X151256903Y-130724037D01*
X151256903Y-130724037D02*
X151304522Y-130771656D01*
X151304522Y-130771656D02*
X151399760Y-130819275D01*
X151399760Y-130819275D02*
X151590236Y-130819275D01*
X151590236Y-130819275D02*
X151685474Y-130771656D01*
X151685474Y-130771656D02*
X151733093Y-130724037D01*
X151733093Y-130724037D02*
X151780712Y-130628799D01*
X326828331Y-131104989D02*
X326780712Y-131152609D01*
X326780712Y-131152609D02*
X326637855Y-131200228D01*
X326637855Y-131200228D02*
X326542617Y-131200228D01*
X326542617Y-131200228D02*
X326399760Y-131152609D01*
X326399760Y-131152609D02*
X326304522Y-131057370D01*
X326304522Y-131057370D02*
X326256903Y-130962132D01*
X326256903Y-130962132D02*
X326209284Y-130771656D01*
X326209284Y-130771656D02*
X326209284Y-130628799D01*
X326209284Y-130628799D02*
X326256903Y-130438323D01*
X326256903Y-130438323D02*
X326304522Y-130343085D01*
X326304522Y-130343085D02*
X326399760Y-130247847D01*
X326399760Y-130247847D02*
X326542617Y-130200228D01*
X326542617Y-130200228D02*
X326637855Y-130200228D01*
X326637855Y-130200228D02*
X326780712Y-130247847D01*
X326780712Y-130247847D02*
X326828331Y-130295466D01*
X327780712Y-131200228D02*
X327209284Y-131200228D01*
X327494998Y-131200228D02*
X327494998Y-130200228D01*
X327494998Y-130200228D02*
X327399760Y-130343085D01*
X327399760Y-130343085D02*
X327304522Y-130438323D01*
X327304522Y-130438323D02*
X327209284Y-130485942D01*
X393161664Y-168475978D02*
X393209283Y-168428359D01*
X393209283Y-168428359D02*
X393352140Y-168380739D01*
X393352140Y-168380739D02*
X393447378Y-168380739D01*
X393447378Y-168380739D02*
X393590235Y-168428359D01*
X393590235Y-168428359D02*
X393685473Y-168523597D01*
X393685473Y-168523597D02*
X393733092Y-168618835D01*
X393733092Y-168618835D02*
X393780711Y-168809311D01*
X393780711Y-168809311D02*
X393780711Y-168952168D01*
X393780711Y-168952168D02*
X393733092Y-169142644D01*
X393733092Y-169142644D02*
X393685473Y-169237882D01*
X393685473Y-169237882D02*
X393590235Y-169333120D01*
X393590235Y-169333120D02*
X393447378Y-169380739D01*
X393447378Y-169380739D02*
X393352140Y-169380739D01*
X393352140Y-169380739D02*
X393209283Y-169333120D01*
X393209283Y-169333120D02*
X393161664Y-169285501D01*
X392828330Y-169380739D02*
X392209283Y-169380739D01*
X392209283Y-169380739D02*
X392542616Y-168999787D01*
X392542616Y-168999787D02*
X392399759Y-168999787D01*
X392399759Y-168999787D02*
X392304521Y-168952168D01*
X392304521Y-168952168D02*
X392256902Y-168904549D01*
X392256902Y-168904549D02*
X392209283Y-168809311D01*
X392209283Y-168809311D02*
X392209283Y-168571216D01*
X392209283Y-168571216D02*
X392256902Y-168475978D01*
X392256902Y-168475978D02*
X392304521Y-168428359D01*
X392304521Y-168428359D02*
X392399759Y-168380739D01*
X392399759Y-168380739D02*
X392685473Y-168380739D01*
X392685473Y-168380739D02*
X392780711Y-168428359D01*
X392780711Y-168428359D02*
X392828330Y-168475978D01*
X370828331Y-131195139D02*
X370780712Y-131242759D01*
X370780712Y-131242759D02*
X370637855Y-131290378D01*
X370637855Y-131290378D02*
X370542617Y-131290378D01*
X370542617Y-131290378D02*
X370399760Y-131242759D01*
X370399760Y-131242759D02*
X370304522Y-131147520D01*
X370304522Y-131147520D02*
X370256903Y-131052282D01*
X370256903Y-131052282D02*
X370209284Y-130861806D01*
X370209284Y-130861806D02*
X370209284Y-130718949D01*
X370209284Y-130718949D02*
X370256903Y-130528473D01*
X370256903Y-130528473D02*
X370304522Y-130433235D01*
X370304522Y-130433235D02*
X370399760Y-130337997D01*
X370399760Y-130337997D02*
X370542617Y-130290378D01*
X370542617Y-130290378D02*
X370637855Y-130290378D01*
X370637855Y-130290378D02*
X370780712Y-130337997D01*
X370780712Y-130337997D02*
X370828331Y-130385616D01*
X371733093Y-130290378D02*
X371256903Y-130290378D01*
X371256903Y-130290378D02*
X371209284Y-130766568D01*
X371209284Y-130766568D02*
X371256903Y-130718949D01*
X371256903Y-130718949D02*
X371352141Y-130671330D01*
X371352141Y-130671330D02*
X371590236Y-130671330D01*
X371590236Y-130671330D02*
X371685474Y-130718949D01*
X371685474Y-130718949D02*
X371733093Y-130766568D01*
X371733093Y-130766568D02*
X371780712Y-130861806D01*
X371780712Y-130861806D02*
X371780712Y-131099901D01*
X371780712Y-131099901D02*
X371733093Y-131195139D01*
X371733093Y-131195139D02*
X371685474Y-131242759D01*
X371685474Y-131242759D02*
X371590236Y-131290378D01*
X371590236Y-131290378D02*
X371352141Y-131290378D01*
X371352141Y-131290378D02*
X371256903Y-131242759D01*
X371256903Y-131242759D02*
X371209284Y-131195139D01*
X238352140Y-131104989D02*
X238304521Y-131152609D01*
X238304521Y-131152609D02*
X238161664Y-131200228D01*
X238161664Y-131200228D02*
X238066426Y-131200228D01*
X238066426Y-131200228D02*
X237923569Y-131152609D01*
X237923569Y-131152609D02*
X237828331Y-131057370D01*
X237828331Y-131057370D02*
X237780712Y-130962132D01*
X237780712Y-130962132D02*
X237733093Y-130771656D01*
X237733093Y-130771656D02*
X237733093Y-130628799D01*
X237733093Y-130628799D02*
X237780712Y-130438323D01*
X237780712Y-130438323D02*
X237828331Y-130343085D01*
X237828331Y-130343085D02*
X237923569Y-130247847D01*
X237923569Y-130247847D02*
X238066426Y-130200228D01*
X238066426Y-130200228D02*
X238161664Y-130200228D01*
X238161664Y-130200228D02*
X238304521Y-130247847D01*
X238304521Y-130247847D02*
X238352140Y-130295466D01*
X239304521Y-131200228D02*
X238733093Y-131200228D01*
X239018807Y-131200228D02*
X239018807Y-130200228D01*
X239018807Y-130200228D02*
X238923569Y-130343085D01*
X238923569Y-130343085D02*
X238828331Y-130438323D01*
X238828331Y-130438323D02*
X238733093Y-130485942D01*
X239637855Y-130200228D02*
X240256902Y-130200228D01*
X240256902Y-130200228D02*
X239923569Y-130581180D01*
X239923569Y-130581180D02*
X240066426Y-130581180D01*
X240066426Y-130581180D02*
X240161664Y-130628799D01*
X240161664Y-130628799D02*
X240209283Y-130676418D01*
X240209283Y-130676418D02*
X240256902Y-130771656D01*
X240256902Y-130771656D02*
X240256902Y-131009751D01*
X240256902Y-131009751D02*
X240209283Y-131104989D01*
X240209283Y-131104989D02*
X240161664Y-131152609D01*
X240161664Y-131152609D02*
X240066426Y-131200228D01*
X240066426Y-131200228D02*
X239780712Y-131200228D01*
X239780712Y-131200228D02*
X239685474Y-131152609D01*
X239685474Y-131152609D02*
X239637855Y-131104989D01*
D12*
X518672419Y-246333333D02*
X518196228Y-246666666D01*
X518672419Y-246904761D02*
X517672419Y-246904761D01*
X517672419Y-246904761D02*
X517672419Y-246523809D01*
X517672419Y-246523809D02*
X517720038Y-246428571D01*
X517720038Y-246428571D02*
X517767657Y-246380952D01*
X517767657Y-246380952D02*
X517862895Y-246333333D01*
X517862895Y-246333333D02*
X518005752Y-246333333D01*
X518005752Y-246333333D02*
X518100990Y-246380952D01*
X518100990Y-246380952D02*
X518148609Y-246428571D01*
X518148609Y-246428571D02*
X518196228Y-246523809D01*
X518196228Y-246523809D02*
X518196228Y-246904761D01*
X518148609Y-245904761D02*
X518148609Y-245571428D01*
X518672419Y-245428571D02*
X518672419Y-245904761D01*
X518672419Y-245904761D02*
X517672419Y-245904761D01*
X517672419Y-245904761D02*
X517672419Y-245428571D01*
X518148609Y-244666666D02*
X518148609Y-244999999D01*
X518672419Y-244999999D02*
X517672419Y-244999999D01*
X517672419Y-244999999D02*
X517672419Y-244523809D01*
X517672419Y-243999999D02*
X517910514Y-243999999D01*
X517815276Y-244238094D02*
X517910514Y-243999999D01*
X517910514Y-243999999D02*
X517815276Y-243761904D01*
X518100990Y-244142856D02*
X517910514Y-243999999D01*
X517910514Y-243999999D02*
X518100990Y-243857142D01*
X517672419Y-243238094D02*
X517910514Y-243238094D01*
X517815276Y-243476189D02*
X517910514Y-243238094D01*
X517910514Y-243238094D02*
X517815276Y-242999999D01*
X518100990Y-243380951D02*
X517910514Y-243238094D01*
X517910514Y-243238094D02*
X518100990Y-243095237D01*
D11*
X481161664Y-168566128D02*
X481209283Y-168518509D01*
X481209283Y-168518509D02*
X481352140Y-168470889D01*
X481352140Y-168470889D02*
X481447378Y-168470889D01*
X481447378Y-168470889D02*
X481590235Y-168518509D01*
X481590235Y-168518509D02*
X481685473Y-168613747D01*
X481685473Y-168613747D02*
X481733092Y-168708985D01*
X481733092Y-168708985D02*
X481780711Y-168899461D01*
X481780711Y-168899461D02*
X481780711Y-169042318D01*
X481780711Y-169042318D02*
X481733092Y-169232794D01*
X481733092Y-169232794D02*
X481685473Y-169328032D01*
X481685473Y-169328032D02*
X481590235Y-169423270D01*
X481590235Y-169423270D02*
X481447378Y-169470889D01*
X481447378Y-169470889D02*
X481352140Y-169470889D01*
X481352140Y-169470889D02*
X481209283Y-169423270D01*
X481209283Y-169423270D02*
X481161664Y-169375651D01*
X480590235Y-169042318D02*
X480685473Y-169089937D01*
X480685473Y-169089937D02*
X480733092Y-169137556D01*
X480733092Y-169137556D02*
X480780711Y-169232794D01*
X480780711Y-169232794D02*
X480780711Y-169280413D01*
X480780711Y-169280413D02*
X480733092Y-169375651D01*
X480733092Y-169375651D02*
X480685473Y-169423270D01*
X480685473Y-169423270D02*
X480590235Y-169470889D01*
X480590235Y-169470889D02*
X480399759Y-169470889D01*
X480399759Y-169470889D02*
X480304521Y-169423270D01*
X480304521Y-169423270D02*
X480256902Y-169375651D01*
X480256902Y-169375651D02*
X480209283Y-169280413D01*
X480209283Y-169280413D02*
X480209283Y-169232794D01*
X480209283Y-169232794D02*
X480256902Y-169137556D01*
X480256902Y-169137556D02*
X480304521Y-169089937D01*
X480304521Y-169089937D02*
X480399759Y-169042318D01*
X480399759Y-169042318D02*
X480590235Y-169042318D01*
X480590235Y-169042318D02*
X480685473Y-168994699D01*
X480685473Y-168994699D02*
X480733092Y-168947080D01*
X480733092Y-168947080D02*
X480780711Y-168851842D01*
X480780711Y-168851842D02*
X480780711Y-168661366D01*
X480780711Y-168661366D02*
X480733092Y-168566128D01*
X480733092Y-168566128D02*
X480685473Y-168518509D01*
X480685473Y-168518509D02*
X480590235Y-168470889D01*
X480590235Y-168470889D02*
X480399759Y-168470889D01*
X480399759Y-168470889D02*
X480304521Y-168518509D01*
X480304521Y-168518509D02*
X480256902Y-168566128D01*
X480256902Y-168566128D02*
X480209283Y-168661366D01*
X480209283Y-168661366D02*
X480209283Y-168851842D01*
X480209283Y-168851842D02*
X480256902Y-168947080D01*
X480256902Y-168947080D02*
X480304521Y-168994699D01*
X480304521Y-168994699D02*
X480399759Y-169042318D01*
X459569857Y-263847978D02*
X459617476Y-263800359D01*
X459617476Y-263800359D02*
X459760333Y-263752739D01*
X459760333Y-263752739D02*
X459855571Y-263752739D01*
X459855571Y-263752739D02*
X459998428Y-263800359D01*
X459998428Y-263800359D02*
X460093666Y-263895597D01*
X460093666Y-263895597D02*
X460141285Y-263990835D01*
X460141285Y-263990835D02*
X460188904Y-264181311D01*
X460188904Y-264181311D02*
X460188904Y-264324168D01*
X460188904Y-264324168D02*
X460141285Y-264514644D01*
X460141285Y-264514644D02*
X460093666Y-264609882D01*
X460093666Y-264609882D02*
X459998428Y-264705120D01*
X459998428Y-264705120D02*
X459855571Y-264752739D01*
X459855571Y-264752739D02*
X459760333Y-264752739D01*
X459760333Y-264752739D02*
X459617476Y-264705120D01*
X459617476Y-264705120D02*
X459569857Y-264657501D01*
X459188904Y-264657501D02*
X459141285Y-264705120D01*
X459141285Y-264705120D02*
X459046047Y-264752739D01*
X459046047Y-264752739D02*
X458807952Y-264752739D01*
X458807952Y-264752739D02*
X458712714Y-264705120D01*
X458712714Y-264705120D02*
X458665095Y-264657501D01*
X458665095Y-264657501D02*
X458617476Y-264562263D01*
X458617476Y-264562263D02*
X458617476Y-264467025D01*
X458617476Y-264467025D02*
X458665095Y-264324168D01*
X458665095Y-264324168D02*
X459236523Y-263752739D01*
X459236523Y-263752739D02*
X458617476Y-263752739D01*
X458284142Y-264752739D02*
X457617476Y-264752739D01*
X457617476Y-264752739D02*
X458046047Y-263752739D01*
X305637855Y-168566128D02*
X305685474Y-168518509D01*
X305685474Y-168518509D02*
X305828331Y-168470889D01*
X305828331Y-168470889D02*
X305923569Y-168470889D01*
X305923569Y-168470889D02*
X306066426Y-168518509D01*
X306066426Y-168518509D02*
X306161664Y-168613747D01*
X306161664Y-168613747D02*
X306209283Y-168708985D01*
X306209283Y-168708985D02*
X306256902Y-168899461D01*
X306256902Y-168899461D02*
X306256902Y-169042318D01*
X306256902Y-169042318D02*
X306209283Y-169232794D01*
X306209283Y-169232794D02*
X306161664Y-169328032D01*
X306161664Y-169328032D02*
X306066426Y-169423270D01*
X306066426Y-169423270D02*
X305923569Y-169470889D01*
X305923569Y-169470889D02*
X305828331Y-169470889D01*
X305828331Y-169470889D02*
X305685474Y-169423270D01*
X305685474Y-169423270D02*
X305637855Y-169375651D01*
X305304521Y-169470889D02*
X304685474Y-169470889D01*
X304685474Y-169470889D02*
X305018807Y-169089937D01*
X305018807Y-169089937D02*
X304875950Y-169089937D01*
X304875950Y-169089937D02*
X304780712Y-169042318D01*
X304780712Y-169042318D02*
X304733093Y-168994699D01*
X304733093Y-168994699D02*
X304685474Y-168899461D01*
X304685474Y-168899461D02*
X304685474Y-168661366D01*
X304685474Y-168661366D02*
X304733093Y-168566128D01*
X304733093Y-168566128D02*
X304780712Y-168518509D01*
X304780712Y-168518509D02*
X304875950Y-168470889D01*
X304875950Y-168470889D02*
X305161664Y-168470889D01*
X305161664Y-168470889D02*
X305256902Y-168518509D01*
X305256902Y-168518509D02*
X305304521Y-168566128D01*
X304304521Y-169375651D02*
X304256902Y-169423270D01*
X304256902Y-169423270D02*
X304161664Y-169470889D01*
X304161664Y-169470889D02*
X303923569Y-169470889D01*
X303923569Y-169470889D02*
X303828331Y-169423270D01*
X303828331Y-169423270D02*
X303780712Y-169375651D01*
X303780712Y-169375651D02*
X303733093Y-169280413D01*
X303733093Y-169280413D02*
X303733093Y-169185175D01*
X303733093Y-169185175D02*
X303780712Y-169042318D01*
X303780712Y-169042318D02*
X304352140Y-168470889D01*
X304352140Y-168470889D02*
X303733093Y-168470889D01*
X392487142Y-226259548D02*
X392439523Y-226307168D01*
X392439523Y-226307168D02*
X392296666Y-226354787D01*
X392296666Y-226354787D02*
X392201428Y-226354787D01*
X392201428Y-226354787D02*
X392058571Y-226307168D01*
X392058571Y-226307168D02*
X391963333Y-226211929D01*
X391963333Y-226211929D02*
X391915714Y-226116691D01*
X391915714Y-226116691D02*
X391868095Y-225926215D01*
X391868095Y-225926215D02*
X391868095Y-225783358D01*
X391868095Y-225783358D02*
X391915714Y-225592882D01*
X391915714Y-225592882D02*
X391963333Y-225497644D01*
X391963333Y-225497644D02*
X392058571Y-225402406D01*
X392058571Y-225402406D02*
X392201428Y-225354787D01*
X392201428Y-225354787D02*
X392296666Y-225354787D01*
X392296666Y-225354787D02*
X392439523Y-225402406D01*
X392439523Y-225402406D02*
X392487142Y-225450025D01*
X392868095Y-225450025D02*
X392915714Y-225402406D01*
X392915714Y-225402406D02*
X393010952Y-225354787D01*
X393010952Y-225354787D02*
X393249047Y-225354787D01*
X393249047Y-225354787D02*
X393344285Y-225402406D01*
X393344285Y-225402406D02*
X393391904Y-225450025D01*
X393391904Y-225450025D02*
X393439523Y-225545263D01*
X393439523Y-225545263D02*
X393439523Y-225640501D01*
X393439523Y-225640501D02*
X393391904Y-225783358D01*
X393391904Y-225783358D02*
X392820476Y-226354787D01*
X392820476Y-226354787D02*
X393439523Y-226354787D01*
X394344285Y-225354787D02*
X393868095Y-225354787D01*
X393868095Y-225354787D02*
X393820476Y-225830977D01*
X393820476Y-225830977D02*
X393868095Y-225783358D01*
X393868095Y-225783358D02*
X393963333Y-225735739D01*
X393963333Y-225735739D02*
X394201428Y-225735739D01*
X394201428Y-225735739D02*
X394296666Y-225783358D01*
X394296666Y-225783358D02*
X394344285Y-225830977D01*
X394344285Y-225830977D02*
X394391904Y-225926215D01*
X394391904Y-225926215D02*
X394391904Y-226164310D01*
X394391904Y-226164310D02*
X394344285Y-226259548D01*
X394344285Y-226259548D02*
X394296666Y-226307168D01*
X394296666Y-226307168D02*
X394201428Y-226354787D01*
X394201428Y-226354787D02*
X393963333Y-226354787D01*
X393963333Y-226354787D02*
X393868095Y-226307168D01*
X393868095Y-226307168D02*
X393820476Y-226259548D01*
X261637855Y-168566128D02*
X261685474Y-168518509D01*
X261685474Y-168518509D02*
X261828331Y-168470889D01*
X261828331Y-168470889D02*
X261923569Y-168470889D01*
X261923569Y-168470889D02*
X262066426Y-168518509D01*
X262066426Y-168518509D02*
X262161664Y-168613747D01*
X262161664Y-168613747D02*
X262209283Y-168708985D01*
X262209283Y-168708985D02*
X262256902Y-168899461D01*
X262256902Y-168899461D02*
X262256902Y-169042318D01*
X262256902Y-169042318D02*
X262209283Y-169232794D01*
X262209283Y-169232794D02*
X262161664Y-169328032D01*
X262161664Y-169328032D02*
X262066426Y-169423270D01*
X262066426Y-169423270D02*
X261923569Y-169470889D01*
X261923569Y-169470889D02*
X261828331Y-169470889D01*
X261828331Y-169470889D02*
X261685474Y-169423270D01*
X261685474Y-169423270D02*
X261637855Y-169375651D01*
X260685474Y-168470889D02*
X261256902Y-168470889D01*
X260971188Y-168470889D02*
X260971188Y-169470889D01*
X260971188Y-169470889D02*
X261066426Y-169328032D01*
X261066426Y-169328032D02*
X261161664Y-169232794D01*
X261161664Y-169232794D02*
X261256902Y-169185175D01*
X259828331Y-169137556D02*
X259828331Y-168470889D01*
X260066426Y-169518509D02*
X260304521Y-168804223D01*
X260304521Y-168804223D02*
X259685474Y-168804223D01*
X371569857Y-263847978D02*
X371617476Y-263800359D01*
X371617476Y-263800359D02*
X371760333Y-263752739D01*
X371760333Y-263752739D02*
X371855571Y-263752739D01*
X371855571Y-263752739D02*
X371998428Y-263800359D01*
X371998428Y-263800359D02*
X372093666Y-263895597D01*
X372093666Y-263895597D02*
X372141285Y-263990835D01*
X372141285Y-263990835D02*
X372188904Y-264181311D01*
X372188904Y-264181311D02*
X372188904Y-264324168D01*
X372188904Y-264324168D02*
X372141285Y-264514644D01*
X372141285Y-264514644D02*
X372093666Y-264609882D01*
X372093666Y-264609882D02*
X371998428Y-264705120D01*
X371998428Y-264705120D02*
X371855571Y-264752739D01*
X371855571Y-264752739D02*
X371760333Y-264752739D01*
X371760333Y-264752739D02*
X371617476Y-264705120D01*
X371617476Y-264705120D02*
X371569857Y-264657501D01*
X371188904Y-264657501D02*
X371141285Y-264705120D01*
X371141285Y-264705120D02*
X371046047Y-264752739D01*
X371046047Y-264752739D02*
X370807952Y-264752739D01*
X370807952Y-264752739D02*
X370712714Y-264705120D01*
X370712714Y-264705120D02*
X370665095Y-264657501D01*
X370665095Y-264657501D02*
X370617476Y-264562263D01*
X370617476Y-264562263D02*
X370617476Y-264467025D01*
X370617476Y-264467025D02*
X370665095Y-264324168D01*
X370665095Y-264324168D02*
X371236523Y-263752739D01*
X371236523Y-263752739D02*
X370617476Y-263752739D01*
X370284142Y-264752739D02*
X369665095Y-264752739D01*
X369665095Y-264752739D02*
X369998428Y-264371787D01*
X369998428Y-264371787D02*
X369855571Y-264371787D01*
X369855571Y-264371787D02*
X369760333Y-264324168D01*
X369760333Y-264324168D02*
X369712714Y-264276549D01*
X369712714Y-264276549D02*
X369665095Y-264181311D01*
X369665095Y-264181311D02*
X369665095Y-263943216D01*
X369665095Y-263943216D02*
X369712714Y-263847978D01*
X369712714Y-263847978D02*
X369760333Y-263800359D01*
X369760333Y-263800359D02*
X369855571Y-263752739D01*
X369855571Y-263752739D02*
X370141285Y-263752739D01*
X370141285Y-263752739D02*
X370236523Y-263800359D01*
X370236523Y-263800359D02*
X370284142Y-263847978D01*
X195569857Y-263847978D02*
X195617476Y-263800359D01*
X195617476Y-263800359D02*
X195760333Y-263752739D01*
X195760333Y-263752739D02*
X195855571Y-263752739D01*
X195855571Y-263752739D02*
X195998428Y-263800359D01*
X195998428Y-263800359D02*
X196093666Y-263895597D01*
X196093666Y-263895597D02*
X196141285Y-263990835D01*
X196141285Y-263990835D02*
X196188904Y-264181311D01*
X196188904Y-264181311D02*
X196188904Y-264324168D01*
X196188904Y-264324168D02*
X196141285Y-264514644D01*
X196141285Y-264514644D02*
X196093666Y-264609882D01*
X196093666Y-264609882D02*
X195998428Y-264705120D01*
X195998428Y-264705120D02*
X195855571Y-264752739D01*
X195855571Y-264752739D02*
X195760333Y-264752739D01*
X195760333Y-264752739D02*
X195617476Y-264705120D01*
X195617476Y-264705120D02*
X195569857Y-264657501D01*
X194617476Y-263752739D02*
X195188904Y-263752739D01*
X194903190Y-263752739D02*
X194903190Y-264752739D01*
X194903190Y-264752739D02*
X194998428Y-264609882D01*
X194998428Y-264609882D02*
X195093666Y-264514644D01*
X195093666Y-264514644D02*
X195188904Y-264467025D01*
X194284142Y-264752739D02*
X193617476Y-264752739D01*
X193617476Y-264752739D02*
X194046047Y-263752739D01*
X194352140Y-131104989D02*
X194304521Y-131152609D01*
X194304521Y-131152609D02*
X194161664Y-131200228D01*
X194161664Y-131200228D02*
X194066426Y-131200228D01*
X194066426Y-131200228D02*
X193923569Y-131152609D01*
X193923569Y-131152609D02*
X193828331Y-131057370D01*
X193828331Y-131057370D02*
X193780712Y-130962132D01*
X193780712Y-130962132D02*
X193733093Y-130771656D01*
X193733093Y-130771656D02*
X193733093Y-130628799D01*
X193733093Y-130628799D02*
X193780712Y-130438323D01*
X193780712Y-130438323D02*
X193828331Y-130343085D01*
X193828331Y-130343085D02*
X193923569Y-130247847D01*
X193923569Y-130247847D02*
X194066426Y-130200228D01*
X194066426Y-130200228D02*
X194161664Y-130200228D01*
X194161664Y-130200228D02*
X194304521Y-130247847D01*
X194304521Y-130247847D02*
X194352140Y-130295466D01*
X195304521Y-131200228D02*
X194733093Y-131200228D01*
X195018807Y-131200228D02*
X195018807Y-130200228D01*
X195018807Y-130200228D02*
X194923569Y-130343085D01*
X194923569Y-130343085D02*
X194828331Y-130438323D01*
X194828331Y-130438323D02*
X194733093Y-130485942D01*
X196256902Y-131200228D02*
X195685474Y-131200228D01*
X195971188Y-131200228D02*
X195971188Y-130200228D01*
X195971188Y-130200228D02*
X195875950Y-130343085D01*
X195875950Y-130343085D02*
X195780712Y-130438323D01*
X195780712Y-130438323D02*
X195685474Y-130485942D01*
X239569857Y-263847978D02*
X239617476Y-263800359D01*
X239617476Y-263800359D02*
X239760333Y-263752739D01*
X239760333Y-263752739D02*
X239855571Y-263752739D01*
X239855571Y-263752739D02*
X239998428Y-263800359D01*
X239998428Y-263800359D02*
X240093666Y-263895597D01*
X240093666Y-263895597D02*
X240141285Y-263990835D01*
X240141285Y-263990835D02*
X240188904Y-264181311D01*
X240188904Y-264181311D02*
X240188904Y-264324168D01*
X240188904Y-264324168D02*
X240141285Y-264514644D01*
X240141285Y-264514644D02*
X240093666Y-264609882D01*
X240093666Y-264609882D02*
X239998428Y-264705120D01*
X239998428Y-264705120D02*
X239855571Y-264752739D01*
X239855571Y-264752739D02*
X239760333Y-264752739D01*
X239760333Y-264752739D02*
X239617476Y-264705120D01*
X239617476Y-264705120D02*
X239569857Y-264657501D01*
X238617476Y-263752739D02*
X239188904Y-263752739D01*
X238903190Y-263752739D02*
X238903190Y-264752739D01*
X238903190Y-264752739D02*
X238998428Y-264609882D01*
X238998428Y-264609882D02*
X239093666Y-264514644D01*
X239093666Y-264514644D02*
X239188904Y-264467025D01*
X238141285Y-263752739D02*
X237950809Y-263752739D01*
X237950809Y-263752739D02*
X237855571Y-263800359D01*
X237855571Y-263800359D02*
X237807952Y-263847978D01*
X237807952Y-263847978D02*
X237712714Y-263990835D01*
X237712714Y-263990835D02*
X237665095Y-264181311D01*
X237665095Y-264181311D02*
X237665095Y-264562263D01*
X237665095Y-264562263D02*
X237712714Y-264657501D01*
X237712714Y-264657501D02*
X237760333Y-264705120D01*
X237760333Y-264705120D02*
X237855571Y-264752739D01*
X237855571Y-264752739D02*
X238046047Y-264752739D01*
X238046047Y-264752739D02*
X238141285Y-264705120D01*
X238141285Y-264705120D02*
X238188904Y-264657501D01*
X238188904Y-264657501D02*
X238236523Y-264562263D01*
X238236523Y-264562263D02*
X238236523Y-264324168D01*
X238236523Y-264324168D02*
X238188904Y-264228930D01*
X238188904Y-264228930D02*
X238141285Y-264181311D01*
X238141285Y-264181311D02*
X238046047Y-264133692D01*
X238046047Y-264133692D02*
X237855571Y-264133692D01*
X237855571Y-264133692D02*
X237760333Y-264181311D01*
X237760333Y-264181311D02*
X237712714Y-264228930D01*
X237712714Y-264228930D02*
X237665095Y-264324168D01*
X349161664Y-168566128D02*
X349209283Y-168518509D01*
X349209283Y-168518509D02*
X349352140Y-168470889D01*
X349352140Y-168470889D02*
X349447378Y-168470889D01*
X349447378Y-168470889D02*
X349590235Y-168518509D01*
X349590235Y-168518509D02*
X349685473Y-168613747D01*
X349685473Y-168613747D02*
X349733092Y-168708985D01*
X349733092Y-168708985D02*
X349780711Y-168899461D01*
X349780711Y-168899461D02*
X349780711Y-169042318D01*
X349780711Y-169042318D02*
X349733092Y-169232794D01*
X349733092Y-169232794D02*
X349685473Y-169328032D01*
X349685473Y-169328032D02*
X349590235Y-169423270D01*
X349590235Y-169423270D02*
X349447378Y-169470889D01*
X349447378Y-169470889D02*
X349352140Y-169470889D01*
X349352140Y-169470889D02*
X349209283Y-169423270D01*
X349209283Y-169423270D02*
X349161664Y-169375651D01*
X348780711Y-169375651D02*
X348733092Y-169423270D01*
X348733092Y-169423270D02*
X348637854Y-169470889D01*
X348637854Y-169470889D02*
X348399759Y-169470889D01*
X348399759Y-169470889D02*
X348304521Y-169423270D01*
X348304521Y-169423270D02*
X348256902Y-169375651D01*
X348256902Y-169375651D02*
X348209283Y-169280413D01*
X348209283Y-169280413D02*
X348209283Y-169185175D01*
X348209283Y-169185175D02*
X348256902Y-169042318D01*
X348256902Y-169042318D02*
X348828330Y-168470889D01*
X348828330Y-168470889D02*
X348209283Y-168470889D01*
X260487142Y-226259548D02*
X260439523Y-226307168D01*
X260439523Y-226307168D02*
X260296666Y-226354787D01*
X260296666Y-226354787D02*
X260201428Y-226354787D01*
X260201428Y-226354787D02*
X260058571Y-226307168D01*
X260058571Y-226307168D02*
X259963333Y-226211929D01*
X259963333Y-226211929D02*
X259915714Y-226116691D01*
X259915714Y-226116691D02*
X259868095Y-225926215D01*
X259868095Y-225926215D02*
X259868095Y-225783358D01*
X259868095Y-225783358D02*
X259915714Y-225592882D01*
X259915714Y-225592882D02*
X259963333Y-225497644D01*
X259963333Y-225497644D02*
X260058571Y-225402406D01*
X260058571Y-225402406D02*
X260201428Y-225354787D01*
X260201428Y-225354787D02*
X260296666Y-225354787D01*
X260296666Y-225354787D02*
X260439523Y-225402406D01*
X260439523Y-225402406D02*
X260487142Y-225450025D01*
X260868095Y-225450025D02*
X260915714Y-225402406D01*
X260915714Y-225402406D02*
X261010952Y-225354787D01*
X261010952Y-225354787D02*
X261249047Y-225354787D01*
X261249047Y-225354787D02*
X261344285Y-225402406D01*
X261344285Y-225402406D02*
X261391904Y-225450025D01*
X261391904Y-225450025D02*
X261439523Y-225545263D01*
X261439523Y-225545263D02*
X261439523Y-225640501D01*
X261439523Y-225640501D02*
X261391904Y-225783358D01*
X261391904Y-225783358D02*
X260820476Y-226354787D01*
X260820476Y-226354787D02*
X261439523Y-226354787D01*
X262058571Y-225354787D02*
X262153809Y-225354787D01*
X262153809Y-225354787D02*
X262249047Y-225402406D01*
X262249047Y-225402406D02*
X262296666Y-225450025D01*
X262296666Y-225450025D02*
X262344285Y-225545263D01*
X262344285Y-225545263D02*
X262391904Y-225735739D01*
X262391904Y-225735739D02*
X262391904Y-225973834D01*
X262391904Y-225973834D02*
X262344285Y-226164310D01*
X262344285Y-226164310D02*
X262296666Y-226259548D01*
X262296666Y-226259548D02*
X262249047Y-226307168D01*
X262249047Y-226307168D02*
X262153809Y-226354787D01*
X262153809Y-226354787D02*
X262058571Y-226354787D01*
X262058571Y-226354787D02*
X261963333Y-226307168D01*
X261963333Y-226307168D02*
X261915714Y-226259548D01*
X261915714Y-226259548D02*
X261868095Y-226164310D01*
X261868095Y-226164310D02*
X261820476Y-225973834D01*
X261820476Y-225973834D02*
X261820476Y-225735739D01*
X261820476Y-225735739D02*
X261868095Y-225545263D01*
X261868095Y-225545263D02*
X261915714Y-225450025D01*
X261915714Y-225450025D02*
X261963333Y-225402406D01*
X261963333Y-225402406D02*
X262058571Y-225354787D01*
X151721857Y-263847978D02*
X151769476Y-263800359D01*
X151769476Y-263800359D02*
X151912333Y-263752739D01*
X151912333Y-263752739D02*
X152007571Y-263752739D01*
X152007571Y-263752739D02*
X152150428Y-263800359D01*
X152150428Y-263800359D02*
X152245666Y-263895597D01*
X152245666Y-263895597D02*
X152293285Y-263990835D01*
X152293285Y-263990835D02*
X152340904Y-264181311D01*
X152340904Y-264181311D02*
X152340904Y-264324168D01*
X152340904Y-264324168D02*
X152293285Y-264514644D01*
X152293285Y-264514644D02*
X152245666Y-264609882D01*
X152245666Y-264609882D02*
X152150428Y-264705120D01*
X152150428Y-264705120D02*
X152007571Y-264752739D01*
X152007571Y-264752739D02*
X151912333Y-264752739D01*
X151912333Y-264752739D02*
X151769476Y-264705120D01*
X151769476Y-264705120D02*
X151721857Y-264657501D01*
X150769476Y-263752739D02*
X151340904Y-263752739D01*
X151055190Y-263752739D02*
X151055190Y-264752739D01*
X151055190Y-264752739D02*
X151150428Y-264609882D01*
X151150428Y-264609882D02*
X151245666Y-264514644D01*
X151245666Y-264514644D02*
X151340904Y-264467025D01*
X149864714Y-264752739D02*
X150340904Y-264752739D01*
X150340904Y-264752739D02*
X150388523Y-264276549D01*
X150388523Y-264276549D02*
X150340904Y-264324168D01*
X150340904Y-264324168D02*
X150245666Y-264371787D01*
X150245666Y-264371787D02*
X150007571Y-264371787D01*
X150007571Y-264371787D02*
X149912333Y-264324168D01*
X149912333Y-264324168D02*
X149864714Y-264276549D01*
X149864714Y-264276549D02*
X149817095Y-264181311D01*
X149817095Y-264181311D02*
X149817095Y-263943216D01*
X149817095Y-263943216D02*
X149864714Y-263847978D01*
X149864714Y-263847978D02*
X149912333Y-263800359D01*
X149912333Y-263800359D02*
X150007571Y-263752739D01*
X150007571Y-263752739D02*
X150245666Y-263752739D01*
X150245666Y-263752739D02*
X150340904Y-263800359D01*
X150340904Y-263800359D02*
X150388523Y-263847978D01*
X304487142Y-226259548D02*
X304439523Y-226307168D01*
X304439523Y-226307168D02*
X304296666Y-226354787D01*
X304296666Y-226354787D02*
X304201428Y-226354787D01*
X304201428Y-226354787D02*
X304058571Y-226307168D01*
X304058571Y-226307168D02*
X303963333Y-226211929D01*
X303963333Y-226211929D02*
X303915714Y-226116691D01*
X303915714Y-226116691D02*
X303868095Y-225926215D01*
X303868095Y-225926215D02*
X303868095Y-225783358D01*
X303868095Y-225783358D02*
X303915714Y-225592882D01*
X303915714Y-225592882D02*
X303963333Y-225497644D01*
X303963333Y-225497644D02*
X304058571Y-225402406D01*
X304058571Y-225402406D02*
X304201428Y-225354787D01*
X304201428Y-225354787D02*
X304296666Y-225354787D01*
X304296666Y-225354787D02*
X304439523Y-225402406D01*
X304439523Y-225402406D02*
X304487142Y-225450025D01*
X304820476Y-225354787D02*
X305439523Y-225354787D01*
X305439523Y-225354787D02*
X305106190Y-225735739D01*
X305106190Y-225735739D02*
X305249047Y-225735739D01*
X305249047Y-225735739D02*
X305344285Y-225783358D01*
X305344285Y-225783358D02*
X305391904Y-225830977D01*
X305391904Y-225830977D02*
X305439523Y-225926215D01*
X305439523Y-225926215D02*
X305439523Y-226164310D01*
X305439523Y-226164310D02*
X305391904Y-226259548D01*
X305391904Y-226259548D02*
X305344285Y-226307168D01*
X305344285Y-226307168D02*
X305249047Y-226354787D01*
X305249047Y-226354787D02*
X304963333Y-226354787D01*
X304963333Y-226354787D02*
X304868095Y-226307168D01*
X304868095Y-226307168D02*
X304820476Y-226259548D01*
X306058571Y-225354787D02*
X306153809Y-225354787D01*
X306153809Y-225354787D02*
X306249047Y-225402406D01*
X306249047Y-225402406D02*
X306296666Y-225450025D01*
X306296666Y-225450025D02*
X306344285Y-225545263D01*
X306344285Y-225545263D02*
X306391904Y-225735739D01*
X306391904Y-225735739D02*
X306391904Y-225973834D01*
X306391904Y-225973834D02*
X306344285Y-226164310D01*
X306344285Y-226164310D02*
X306296666Y-226259548D01*
X306296666Y-226259548D02*
X306249047Y-226307168D01*
X306249047Y-226307168D02*
X306153809Y-226354787D01*
X306153809Y-226354787D02*
X306058571Y-226354787D01*
X306058571Y-226354787D02*
X305963333Y-226307168D01*
X305963333Y-226307168D02*
X305915714Y-226259548D01*
X305915714Y-226259548D02*
X305868095Y-226164310D01*
X305868095Y-226164310D02*
X305820476Y-225973834D01*
X305820476Y-225973834D02*
X305820476Y-225735739D01*
X305820476Y-225735739D02*
X305868095Y-225545263D01*
X305868095Y-225545263D02*
X305915714Y-225450025D01*
X305915714Y-225450025D02*
X305963333Y-225402406D01*
X305963333Y-225402406D02*
X306058571Y-225354787D01*
X414828331Y-131195139D02*
X414780712Y-131242759D01*
X414780712Y-131242759D02*
X414637855Y-131290378D01*
X414637855Y-131290378D02*
X414542617Y-131290378D01*
X414542617Y-131290378D02*
X414399760Y-131242759D01*
X414399760Y-131242759D02*
X414304522Y-131147520D01*
X414304522Y-131147520D02*
X414256903Y-131052282D01*
X414256903Y-131052282D02*
X414209284Y-130861806D01*
X414209284Y-130861806D02*
X414209284Y-130718949D01*
X414209284Y-130718949D02*
X414256903Y-130528473D01*
X414256903Y-130528473D02*
X414304522Y-130433235D01*
X414304522Y-130433235D02*
X414399760Y-130337997D01*
X414399760Y-130337997D02*
X414542617Y-130290378D01*
X414542617Y-130290378D02*
X414637855Y-130290378D01*
X414637855Y-130290378D02*
X414780712Y-130337997D01*
X414780712Y-130337997D02*
X414828331Y-130385616D01*
X415685474Y-130290378D02*
X415494998Y-130290378D01*
X415494998Y-130290378D02*
X415399760Y-130337997D01*
X415399760Y-130337997D02*
X415352141Y-130385616D01*
X415352141Y-130385616D02*
X415256903Y-130528473D01*
X415256903Y-130528473D02*
X415209284Y-130718949D01*
X415209284Y-130718949D02*
X415209284Y-131099901D01*
X415209284Y-131099901D02*
X415256903Y-131195139D01*
X415256903Y-131195139D02*
X415304522Y-131242759D01*
X415304522Y-131242759D02*
X415399760Y-131290378D01*
X415399760Y-131290378D02*
X415590236Y-131290378D01*
X415590236Y-131290378D02*
X415685474Y-131242759D01*
X415685474Y-131242759D02*
X415733093Y-131195139D01*
X415733093Y-131195139D02*
X415780712Y-131099901D01*
X415780712Y-131099901D02*
X415780712Y-130861806D01*
X415780712Y-130861806D02*
X415733093Y-130766568D01*
X415733093Y-130766568D02*
X415685474Y-130718949D01*
X415685474Y-130718949D02*
X415590236Y-130671330D01*
X415590236Y-130671330D02*
X415399760Y-130671330D01*
X415399760Y-130671330D02*
X415304522Y-130718949D01*
X415304522Y-130718949D02*
X415256903Y-130766568D01*
X415256903Y-130766568D02*
X415209284Y-130861806D01*
X172487142Y-226259548D02*
X172439523Y-226307168D01*
X172439523Y-226307168D02*
X172296666Y-226354787D01*
X172296666Y-226354787D02*
X172201428Y-226354787D01*
X172201428Y-226354787D02*
X172058571Y-226307168D01*
X172058571Y-226307168D02*
X171963333Y-226211929D01*
X171963333Y-226211929D02*
X171915714Y-226116691D01*
X171915714Y-226116691D02*
X171868095Y-225926215D01*
X171868095Y-225926215D02*
X171868095Y-225783358D01*
X171868095Y-225783358D02*
X171915714Y-225592882D01*
X171915714Y-225592882D02*
X171963333Y-225497644D01*
X171963333Y-225497644D02*
X172058571Y-225402406D01*
X172058571Y-225402406D02*
X172201428Y-225354787D01*
X172201428Y-225354787D02*
X172296666Y-225354787D01*
X172296666Y-225354787D02*
X172439523Y-225402406D01*
X172439523Y-225402406D02*
X172487142Y-225450025D01*
X173439523Y-226354787D02*
X172868095Y-226354787D01*
X173153809Y-226354787D02*
X173153809Y-225354787D01*
X173153809Y-225354787D02*
X173058571Y-225497644D01*
X173058571Y-225497644D02*
X172963333Y-225592882D01*
X172963333Y-225592882D02*
X172868095Y-225640501D01*
X174296666Y-225354787D02*
X174106190Y-225354787D01*
X174106190Y-225354787D02*
X174010952Y-225402406D01*
X174010952Y-225402406D02*
X173963333Y-225450025D01*
X173963333Y-225450025D02*
X173868095Y-225592882D01*
X173868095Y-225592882D02*
X173820476Y-225783358D01*
X173820476Y-225783358D02*
X173820476Y-226164310D01*
X173820476Y-226164310D02*
X173868095Y-226259548D01*
X173868095Y-226259548D02*
X173915714Y-226307168D01*
X173915714Y-226307168D02*
X174010952Y-226354787D01*
X174010952Y-226354787D02*
X174201428Y-226354787D01*
X174201428Y-226354787D02*
X174296666Y-226307168D01*
X174296666Y-226307168D02*
X174344285Y-226259548D01*
X174344285Y-226259548D02*
X174391904Y-226164310D01*
X174391904Y-226164310D02*
X174391904Y-225926215D01*
X174391904Y-225926215D02*
X174344285Y-225830977D01*
X174344285Y-225830977D02*
X174296666Y-225783358D01*
X174296666Y-225783358D02*
X174201428Y-225735739D01*
X174201428Y-225735739D02*
X174010952Y-225735739D01*
X174010952Y-225735739D02*
X173915714Y-225783358D01*
X173915714Y-225783358D02*
X173868095Y-225830977D01*
X173868095Y-225830977D02*
X173820476Y-225926215D01*
D12*
X340000000Y-200000000D02*
G75*
G03*
X340000000Y-195000000I0J2500000D01*
G01*
X350000000Y-195000000D02*
G75*
G03*
X350000000Y-200000000I0J-2500000D01*
G01*
D13*
X126610000Y-191715000D02*
X135500000Y-180285000D01*
D14*
X134103000Y-187016000D02*
X135500000Y-187016000D01*
X134103000Y-189810000D02*
X134865000Y-189175000D01*
X134230000Y-188794000D02*
X134103000Y-189810000D01*
X134357000Y-189302000D02*
X134230000Y-188794000D01*
X134357000Y-189429000D02*
X136135000Y-186635000D01*
X134484000Y-186889000D02*
X135754000Y-186889000D01*
X134865000Y-186635000D02*
X136643000Y-184603000D01*
X134865000Y-189175000D02*
X134357000Y-189429000D01*
D13*
X135500000Y-180285000D02*
X144390000Y-191715000D01*
D14*
X135500000Y-187016000D02*
X134357000Y-189302000D01*
X135627000Y-184730000D02*
X134103000Y-187016000D01*
X135881000Y-184984000D02*
X134484000Y-186889000D01*
X135881000Y-185111000D02*
X135754000Y-184603000D01*
X136135000Y-186635000D02*
X134865000Y-186635000D01*
X136643000Y-184603000D02*
X135881000Y-185111000D01*
D13*
X144390000Y-191715000D02*
X126610000Y-191715000D01*
D15*
X217706198Y-190298709D02*
X216436198Y-190298709D01*
X217071198Y-190933709D02*
X217071198Y-189663709D01*
X237619798Y-168925709D02*
G75*
G03*
X237619798Y-168925709I-20624800J0D01*
G01*
X415638200Y-285580559D02*
X414368200Y-285580559D01*
X415003200Y-286215559D02*
X415003200Y-284945559D01*
X435551800Y-264207559D02*
G75*
G03*
X435551800Y-264207559I-20624800J0D01*
G01*
X283638200Y-285580559D02*
X282368200Y-285580559D01*
X283003200Y-286215559D02*
X283003200Y-284945559D01*
X303551800Y-264207559D02*
G75*
G03*
X303551800Y-264207559I-20624800J0D01*
G01*
X348418800Y-204526968D02*
X349688800Y-204526968D01*
X349053800Y-203891968D02*
X349053800Y-205161968D01*
X369754800Y-225899968D02*
G75*
G03*
X369754800Y-225899968I-20624800J0D01*
G01*
X282283798Y-109372409D02*
X283553798Y-109372409D01*
X282918798Y-108737409D02*
X282918798Y-110007409D01*
X303619798Y-130745409D02*
G75*
G03*
X303619798Y-130745409I-20624800J0D01*
G01*
D12*
X147500000Y-195000000D02*
G75*
G03*
X147500000Y-200000000I0J-2500000D01*
G01*
X137500000Y-200000000D02*
G75*
G03*
X137500000Y-195000000I0J2500000D01*
G01*
D15*
X436418800Y-204526968D02*
X437688800Y-204526968D01*
X437053800Y-203891968D02*
X437053800Y-205161968D01*
X457754800Y-225899968D02*
G75*
G03*
X457754800Y-225899968I-20624800J0D01*
G01*
X480418800Y-204526968D02*
X481688800Y-204526968D01*
X481053800Y-203891968D02*
X481053800Y-205161968D01*
X501754800Y-225899968D02*
G75*
G03*
X501754800Y-225899968I-20624800J0D01*
G01*
X327609200Y-285580559D02*
X326339200Y-285580559D01*
X326974200Y-286215559D02*
X326974200Y-284945559D01*
X347522800Y-264207559D02*
G75*
G03*
X347522800Y-264207559I-20624800J0D01*
G01*
X173706198Y-190298709D02*
X172436198Y-190298709D01*
X173071198Y-190933709D02*
X173071198Y-189663709D01*
X193619798Y-168925709D02*
G75*
G03*
X193619798Y-168925709I-20624800J0D01*
G01*
D13*
X144390000Y-202785000D02*
X135500000Y-214215000D01*
D14*
X136897000Y-207484000D02*
X135500000Y-207484000D01*
X136897000Y-204690000D02*
X136135000Y-205325000D01*
X136770000Y-205706000D02*
X136897000Y-204690000D01*
X136643000Y-205198000D02*
X136770000Y-205706000D01*
X136643000Y-205071000D02*
X134865000Y-207865000D01*
X136516000Y-207611000D02*
X135246000Y-207611000D01*
X136135000Y-207865000D02*
X134357000Y-209897000D01*
X136135000Y-205325000D02*
X136643000Y-205071000D01*
D13*
X135500000Y-214215000D02*
X126610000Y-202785000D01*
D14*
X135500000Y-207484000D02*
X136643000Y-205198000D01*
X135373000Y-209770000D02*
X136897000Y-207484000D01*
X135119000Y-209516000D02*
X136516000Y-207611000D01*
X135119000Y-209389000D02*
X135246000Y-209897000D01*
X134865000Y-207865000D02*
X136135000Y-207865000D01*
X134357000Y-209897000D02*
X135119000Y-209389000D01*
D13*
X126610000Y-202785000D02*
X144390000Y-202785000D01*
D15*
X437706198Y-190298709D02*
X436436198Y-190298709D01*
X437071198Y-190933709D02*
X437071198Y-189663709D01*
X457619798Y-168925709D02*
G75*
G03*
X457619798Y-168925709I-20624800J0D01*
G01*
X458283798Y-109462559D02*
X459553798Y-109462559D01*
X458918798Y-108827559D02*
X458918798Y-110097559D01*
X479619798Y-130835559D02*
G75*
G03*
X479619798Y-130835559I-20624800J0D01*
G01*
D13*
X518215000Y-158890000D02*
X506785000Y-150000000D01*
D14*
X513516000Y-151397000D02*
X513516000Y-150000000D01*
X516310000Y-151397000D02*
X515675000Y-150635000D01*
X515294000Y-151270000D02*
X516310000Y-151397000D01*
X515802000Y-151143000D02*
X515294000Y-151270000D01*
X515929000Y-151143000D02*
X513135000Y-149365000D01*
X513389000Y-151016000D02*
X513389000Y-149746000D01*
X513135000Y-150635000D02*
X511103000Y-148857000D01*
X515675000Y-150635000D02*
X515929000Y-151143000D01*
D13*
X506785000Y-150000000D02*
X518215000Y-141110000D01*
D14*
X513516000Y-150000000D02*
X515802000Y-151143000D01*
X511230000Y-149873000D02*
X513516000Y-151397000D01*
X511484000Y-149619000D02*
X513389000Y-151016000D01*
X511611000Y-149619000D02*
X511103000Y-149746000D01*
X513135000Y-149365000D02*
X513135000Y-150635000D01*
X511103000Y-148857000D02*
X511611000Y-149619000D01*
D13*
X518215000Y-141110000D02*
X518215000Y-158890000D01*
D12*
X302500000Y-195000000D02*
G75*
G03*
X302500000Y-200000000I0J-2500000D01*
G01*
X292500000Y-200000000D02*
G75*
G03*
X292500000Y-195000000I0J2500000D01*
G01*
D15*
X216418800Y-204526968D02*
X217688800Y-204526968D01*
X217053800Y-203891968D02*
X217053800Y-205161968D01*
X237754800Y-225899968D02*
G75*
G03*
X237754800Y-225899968I-20624800J0D01*
G01*
X150283798Y-109372409D02*
X151553798Y-109372409D01*
X150918798Y-108737409D02*
X150918798Y-110007409D01*
X171619798Y-130745409D02*
G75*
G03*
X171619798Y-130745409I-20624800J0D01*
G01*
X326283798Y-109372409D02*
X327553798Y-109372409D01*
X326918798Y-108737409D02*
X326918798Y-110007409D01*
X347619798Y-130745409D02*
G75*
G03*
X347619798Y-130745409I-20624800J0D01*
G01*
X393706198Y-190208559D02*
X392436198Y-190208559D01*
X393071198Y-190843559D02*
X393071198Y-189573559D01*
X413619798Y-168835559D02*
G75*
G03*
X413619798Y-168835559I-20624800J0D01*
G01*
X370283798Y-109462559D02*
X371553798Y-109462559D01*
X370918798Y-108827559D02*
X370918798Y-110097559D01*
X391619798Y-130835559D02*
G75*
G03*
X391619798Y-130835559I-20624800J0D01*
G01*
X238283798Y-109372409D02*
X239553798Y-109372409D01*
X238918798Y-108737409D02*
X238918798Y-110007409D01*
X259619798Y-130745409D02*
G75*
G03*
X259619798Y-130745409I-20624800J0D01*
G01*
D13*
X518215000Y-253890000D02*
X506785000Y-245000000D01*
D14*
X513516000Y-246397000D02*
X513516000Y-245000000D01*
X516310000Y-246397000D02*
X515675000Y-245635000D01*
X515294000Y-246270000D02*
X516310000Y-246397000D01*
X515802000Y-246143000D02*
X515294000Y-246270000D01*
X515929000Y-246143000D02*
X513135000Y-244365000D01*
X513389000Y-246016000D02*
X513389000Y-244746000D01*
X513135000Y-245635000D02*
X511103000Y-243857000D01*
X515675000Y-245635000D02*
X515929000Y-246143000D01*
D13*
X506785000Y-245000000D02*
X518215000Y-236110000D01*
D14*
X513516000Y-245000000D02*
X515802000Y-246143000D01*
X511230000Y-244873000D02*
X513516000Y-246397000D01*
X511484000Y-244619000D02*
X513389000Y-246016000D01*
X511611000Y-244619000D02*
X511103000Y-244746000D01*
X513135000Y-244365000D02*
X513135000Y-245635000D01*
X511103000Y-243857000D02*
X511611000Y-244619000D01*
D13*
X518215000Y-236110000D02*
X518215000Y-253890000D01*
D15*
X481706198Y-190298709D02*
X480436198Y-190298709D01*
X481071198Y-190933709D02*
X481071198Y-189663709D01*
X501619798Y-168925709D02*
G75*
G03*
X501619798Y-168925709I-20624800J0D01*
G01*
X459638200Y-285580559D02*
X458368200Y-285580559D01*
X459003200Y-286215559D02*
X459003200Y-284945559D01*
X479551800Y-264207559D02*
G75*
G03*
X479551800Y-264207559I-20624800J0D01*
G01*
X305706198Y-190298709D02*
X304436198Y-190298709D01*
X305071198Y-190933709D02*
X305071198Y-189663709D01*
X325619798Y-168925709D02*
G75*
G03*
X325619798Y-168925709I-20624800J0D01*
G01*
X392418800Y-204526968D02*
X393688800Y-204526968D01*
X393053800Y-203891968D02*
X393053800Y-205161968D01*
X413754800Y-225899968D02*
G75*
G03*
X413754800Y-225899968I-20624800J0D01*
G01*
X261706198Y-190298709D02*
X260436198Y-190298709D01*
X261071198Y-190933709D02*
X261071198Y-189663709D01*
X281619798Y-168925709D02*
G75*
G03*
X281619798Y-168925709I-20624800J0D01*
G01*
X371638200Y-285580559D02*
X370368200Y-285580559D01*
X371003200Y-286215559D02*
X371003200Y-284945559D01*
X391551800Y-264207559D02*
G75*
G03*
X391551800Y-264207559I-20624800J0D01*
G01*
X195638200Y-285580559D02*
X194368200Y-285580559D01*
X195003200Y-286215559D02*
X195003200Y-284945559D01*
X215551800Y-264207559D02*
G75*
G03*
X215551800Y-264207559I-20624800J0D01*
G01*
X194283798Y-109372409D02*
X195553798Y-109372409D01*
X194918798Y-108737409D02*
X194918798Y-110007409D01*
X215619798Y-130745409D02*
G75*
G03*
X215619798Y-130745409I-20624800J0D01*
G01*
X239638200Y-285580559D02*
X238368200Y-285580559D01*
X239003200Y-286215559D02*
X239003200Y-284945559D01*
X259551800Y-264207559D02*
G75*
G03*
X259551800Y-264207559I-20624800J0D01*
G01*
X349706198Y-190298709D02*
X348436198Y-190298709D01*
X349071198Y-190933709D02*
X349071198Y-189663709D01*
X369619798Y-168925709D02*
G75*
G03*
X369619798Y-168925709I-20624800J0D01*
G01*
D12*
X495000000Y-200000000D02*
G75*
G03*
X495000000Y-195000000I0J2500000D01*
G01*
X505000000Y-195000000D02*
G75*
G03*
X505000000Y-200000000I0J-2500000D01*
G01*
D15*
X260418800Y-204526968D02*
X261688800Y-204526968D01*
X261053800Y-203891968D02*
X261053800Y-205161968D01*
X281754800Y-225899968D02*
G75*
G03*
X281754800Y-225899968I-20624800J0D01*
G01*
X151790200Y-285580559D02*
X150520200Y-285580559D01*
X151155200Y-286215559D02*
X151155200Y-284945559D01*
X171703800Y-264207559D02*
G75*
G03*
X171703800Y-264207559I-20624800J0D01*
G01*
X304418800Y-204526968D02*
X305688800Y-204526968D01*
X305053800Y-203891968D02*
X305053800Y-205161968D01*
X325754800Y-225899968D02*
G75*
G03*
X325754800Y-225899968I-20624800J0D01*
G01*
X414283798Y-109462559D02*
X415553798Y-109462559D01*
X414918798Y-108827559D02*
X414918798Y-110097559D01*
X435619798Y-130835559D02*
G75*
G03*
X435619798Y-130835559I-20624800J0D01*
G01*
X172418800Y-204526968D02*
X173688800Y-204526968D01*
X173053800Y-203891968D02*
X173053800Y-205161968D01*
X193754800Y-225899968D02*
G75*
G03*
X193754800Y-225899968I-20624800J0D01*
G01*
D12*
X147500000Y-195000000D02*
G75*
G03*
X147500000Y-200000000I0J-2500000D01*
G01*
X137500000Y-200000000D02*
G75*
G03*
X137500000Y-195000000I0J2500000D01*
G01*
%LPC*%
D16*
X135585000Y-168965000D03*
D17*
X341250000Y-195000000D03*
X341250000Y-200000000D03*
X342000000Y-195000000D03*
X342000000Y-195000000D03*
X342000000Y-200000000D03*
X342000000Y-200000000D03*
X342750000Y-195000000D03*
X342750000Y-200000000D03*
X343500000Y-195000000D03*
X343500000Y-200000000D03*
X344250000Y-195000000D03*
X344250000Y-200000000D03*
X345000000Y-195000000D03*
X345000000Y-200000000D03*
X345750000Y-195000000D03*
X345750000Y-200000000D03*
X346500000Y-195000000D03*
X346500000Y-200000000D03*
X347250000Y-195000000D03*
X347250000Y-200000000D03*
X348000000Y-195000000D03*
X348000000Y-200000000D03*
X348750000Y-195000000D03*
X348750000Y-200000000D03*
D18*
X216994998Y-180175709D03*
D19*
X216994998Y-157675709D03*
X226737784Y-174550709D03*
X207252212Y-174550709D03*
D18*
X414927000Y-275457559D03*
D19*
X414927000Y-252957559D03*
X424669786Y-269832559D03*
X405184214Y-269832559D03*
D18*
X282927000Y-275457559D03*
D19*
X282927000Y-252957559D03*
X292669786Y-269832559D03*
X273184214Y-269832559D03*
D18*
X349130000Y-214649968D03*
D19*
X349130000Y-237149968D03*
X339387214Y-220274968D03*
X358872786Y-220274968D03*
D18*
X282994998Y-119495409D03*
D19*
X282994998Y-141995409D03*
X273252212Y-125120409D03*
X292737784Y-125120409D03*
D17*
X146250000Y-200000000D03*
X146250000Y-195000000D03*
X145500000Y-200000000D03*
X145500000Y-200000000D03*
X145500000Y-195000000D03*
X145500000Y-195000000D03*
X144750000Y-200000000D03*
X144750000Y-195000000D03*
X144000000Y-200000000D03*
X144000000Y-195000000D03*
X143250000Y-200000000D03*
X143250000Y-195000000D03*
X142500000Y-200000000D03*
X142500000Y-195000000D03*
X141750000Y-200000000D03*
X141750000Y-195000000D03*
X141000000Y-200000000D03*
X141000000Y-195000000D03*
X140250000Y-200000000D03*
X140250000Y-195000000D03*
X139500000Y-200000000D03*
X139500000Y-195000000D03*
X138750000Y-200000000D03*
X138750000Y-195000000D03*
D18*
X437130000Y-214649968D03*
D19*
X437130000Y-237149968D03*
X427387214Y-220274968D03*
X446872786Y-220274968D03*
D18*
X481130000Y-214649968D03*
D19*
X481130000Y-237149968D03*
X471387214Y-220274968D03*
X490872786Y-220274968D03*
D16*
X496160000Y-264027559D03*
D18*
X326898000Y-275457559D03*
D19*
X326898000Y-252957559D03*
X336640786Y-269832559D03*
X317155214Y-269832559D03*
D18*
X172994998Y-180175709D03*
D19*
X172994998Y-157675709D03*
X182737784Y-174550709D03*
X163252212Y-174550709D03*
D18*
X436994998Y-180175709D03*
D19*
X436994998Y-157675709D03*
X446737784Y-174550709D03*
X427252212Y-174550709D03*
D18*
X458994998Y-119585559D03*
D19*
X458994998Y-142085559D03*
X449252212Y-125210559D03*
X468737784Y-125210559D03*
D17*
X301250000Y-200000000D03*
X301250000Y-195000000D03*
X300500000Y-200000000D03*
X300500000Y-200000000D03*
X300500000Y-195000000D03*
X300500000Y-195000000D03*
X299750000Y-200000000D03*
X299750000Y-195000000D03*
X299000000Y-200000000D03*
X299000000Y-195000000D03*
X298250000Y-200000000D03*
X298250000Y-195000000D03*
X297500000Y-200000000D03*
X297500000Y-195000000D03*
X296750000Y-200000000D03*
X296750000Y-195000000D03*
X296000000Y-200000000D03*
X296000000Y-195000000D03*
X295250000Y-200000000D03*
X295250000Y-195000000D03*
X294500000Y-200000000D03*
X294500000Y-195000000D03*
X293750000Y-200000000D03*
X293750000Y-195000000D03*
D18*
X217130000Y-214649968D03*
D19*
X217130000Y-237149968D03*
X207387214Y-220274968D03*
X226872786Y-220274968D03*
D16*
X135480000Y-225927559D03*
D18*
X150994998Y-119495409D03*
D19*
X150994998Y-141995409D03*
X141252212Y-125120409D03*
X160737784Y-125120409D03*
D18*
X326994998Y-119495409D03*
D19*
X326994998Y-141995409D03*
X317252212Y-125120409D03*
X336737784Y-125120409D03*
D18*
X392994998Y-180085559D03*
D19*
X392994998Y-157585559D03*
X402737784Y-174460559D03*
X383252212Y-174460559D03*
D18*
X370994998Y-119585559D03*
D19*
X370994998Y-142085559D03*
X361252212Y-125210559D03*
X380737784Y-125210559D03*
D18*
X238994998Y-119495409D03*
D19*
X238994998Y-141995409D03*
X229252212Y-125120409D03*
X248737784Y-125120409D03*
D18*
X480994998Y-180175709D03*
D19*
X480994998Y-157675709D03*
X490737784Y-174550709D03*
X471252212Y-174550709D03*
D18*
X458927000Y-275457559D03*
D19*
X458927000Y-252957559D03*
X468669786Y-269832559D03*
X449184214Y-269832559D03*
D18*
X304994998Y-180175709D03*
D19*
X304994998Y-157675709D03*
X314737784Y-174550709D03*
X295252212Y-174550709D03*
D18*
X393130000Y-214649968D03*
D19*
X393130000Y-237149968D03*
X383387214Y-220274968D03*
X402872786Y-220274968D03*
D18*
X260994998Y-180175709D03*
D19*
X260994998Y-157675709D03*
X270737784Y-174550709D03*
X251252212Y-174550709D03*
D18*
X370927000Y-275457559D03*
D19*
X370927000Y-252957559D03*
X380669786Y-269832559D03*
X361184214Y-269832559D03*
D18*
X194927000Y-275457559D03*
D19*
X194927000Y-252957559D03*
X204669786Y-269832559D03*
X185184214Y-269832559D03*
D18*
X194994998Y-119495409D03*
D19*
X194994998Y-141995409D03*
X185252212Y-125120409D03*
X204737784Y-125120409D03*
D18*
X238927000Y-275457559D03*
D19*
X238927000Y-252957559D03*
X248669786Y-269832559D03*
X229184214Y-269832559D03*
D18*
X348994998Y-180175709D03*
D19*
X348994998Y-157675709D03*
X358737784Y-174550709D03*
X339252212Y-174550709D03*
D17*
X496250000Y-195000000D03*
X496250000Y-200000000D03*
X497000000Y-195000000D03*
X497000000Y-195000000D03*
X497000000Y-200000000D03*
X497000000Y-200000000D03*
X497750000Y-195000000D03*
X497750000Y-200000000D03*
X498500000Y-195000000D03*
X498500000Y-200000000D03*
X499250000Y-195000000D03*
X499250000Y-200000000D03*
X500000000Y-195000000D03*
X500000000Y-200000000D03*
X500750000Y-195000000D03*
X500750000Y-200000000D03*
X501500000Y-195000000D03*
X501500000Y-200000000D03*
X502250000Y-195000000D03*
X502250000Y-200000000D03*
X503000000Y-195000000D03*
X503000000Y-200000000D03*
X503750000Y-195000000D03*
X503750000Y-200000000D03*
D16*
X496265000Y-130865000D03*
D18*
X261130000Y-214649968D03*
D19*
X261130000Y-237149968D03*
X251387214Y-220274968D03*
X270872786Y-220274968D03*
D18*
X151079000Y-275457559D03*
D19*
X151079000Y-252957559D03*
X160821786Y-269832559D03*
X141336214Y-269832559D03*
D18*
X305130000Y-214649968D03*
D19*
X305130000Y-237149968D03*
X295387214Y-220274968D03*
X314872786Y-220274968D03*
D18*
X414994998Y-119585559D03*
D19*
X414994998Y-142085559D03*
X405252212Y-125210559D03*
X424737784Y-125210559D03*
D18*
X173130000Y-214649968D03*
D19*
X173130000Y-237149968D03*
X163387214Y-220274968D03*
X182872786Y-220274968D03*
D17*
X146250000Y-200000000D03*
X146250000Y-195000000D03*
X145500000Y-200000000D03*
X145500000Y-200000000D03*
X145500000Y-195000000D03*
X145500000Y-195000000D03*
X144750000Y-200000000D03*
X144750000Y-195000000D03*
X144000000Y-200000000D03*
X144000000Y-195000000D03*
X143250000Y-200000000D03*
X143250000Y-195000000D03*
X142500000Y-200000000D03*
X142500000Y-195000000D03*
X141750000Y-200000000D03*
X141750000Y-195000000D03*
X141000000Y-200000000D03*
X141000000Y-195000000D03*
X140250000Y-200000000D03*
X140250000Y-195000000D03*
X139500000Y-200000000D03*
X139500000Y-195000000D03*
X138750000Y-200000000D03*
X138750000Y-195000000D03*
%LPD*%
M02*
