M48
; DRILL file {KiCad 7.0.7} date Tue Feb 27 11:45:29 2024
; FORMAT={-:-/ absolute / metric / decimal}
; #@! TF.CreationDate,2024-02-27T11:45:29-06:00
; #@! TF.GenerationSoftware,Kicad,Pcbnew,7.0.7
; #@! TF.FileFunction,Plated,1,2,PTH
FMAT,2
METRIC
; #@! TA.AperFunction,Plated,PTH,ComponentDrill
T1C1.575
; #@! TA.AperFunction,Plated,PTH,ComponentDrill
T2C9.144
%
G90
G05
T1
X141.252Y-125.12
X141.336Y-269.833
X150.995Y-119.495
X150.995Y-141.995
X151.079Y-252.958
X151.079Y-275.458
X160.738Y-125.12
X160.822Y-269.833
X163.252Y-174.551
X163.387Y-220.275
X172.995Y-157.676
X172.995Y-180.176
X173.13Y-214.65
X173.13Y-237.15
X182.738Y-174.551
X182.873Y-220.275
X185.184Y-269.833
X185.252Y-125.12
X194.927Y-252.958
X194.927Y-275.458
X194.995Y-119.495
X194.995Y-141.995
X204.67Y-269.833
X204.738Y-125.12
X207.252Y-174.551
X207.387Y-220.275
X216.995Y-157.676
X216.995Y-180.176
X217.13Y-214.65
X217.13Y-237.15
X226.738Y-174.551
X226.873Y-220.275
X229.184Y-269.833
X229.252Y-125.12
X238.927Y-252.958
X238.927Y-275.458
X238.995Y-119.495
X238.995Y-141.995
X248.67Y-269.833
X248.738Y-125.12
X251.252Y-174.551
X251.387Y-220.275
X260.995Y-157.676
X260.995Y-180.176
X261.13Y-214.65
X261.13Y-237.15
X270.738Y-174.551
X270.873Y-220.275
X273.184Y-269.833
X273.252Y-125.12
X282.927Y-252.958
X282.927Y-275.458
X282.995Y-119.495
X282.995Y-141.995
X292.67Y-269.833
X292.738Y-125.12
X295.252Y-174.551
X295.387Y-220.275
X304.995Y-157.676
X304.995Y-180.176
X305.13Y-214.65
X305.13Y-237.15
X314.738Y-174.551
X314.873Y-220.275
X317.155Y-269.833
X317.252Y-125.12
X326.898Y-252.958
X326.898Y-275.458
X326.995Y-119.495
X326.995Y-141.995
X336.641Y-269.833
X336.738Y-125.12
X339.252Y-174.551
X339.387Y-220.275
X348.995Y-157.676
X348.995Y-180.176
X349.13Y-214.65
X349.13Y-237.15
X358.738Y-174.551
X358.873Y-220.275
X361.184Y-269.833
X361.252Y-125.211
X370.927Y-252.958
X370.927Y-275.458
X370.995Y-119.586
X370.995Y-142.086
X380.67Y-269.833
X380.738Y-125.211
X383.252Y-174.461
X383.387Y-220.275
X392.995Y-157.586
X392.995Y-180.086
X393.13Y-214.65
X393.13Y-237.15
X402.738Y-174.461
X402.873Y-220.275
X405.184Y-269.833
X405.252Y-125.211
X414.927Y-252.958
X414.927Y-275.458
X414.995Y-119.586
X414.995Y-142.086
X424.67Y-269.833
X424.738Y-125.211
X427.252Y-174.551
X427.387Y-220.275
X436.995Y-157.676
X436.995Y-180.176
X437.13Y-214.65
X437.13Y-237.15
X446.738Y-174.551
X446.873Y-220.275
X449.184Y-269.833
X449.252Y-125.211
X458.927Y-252.958
X458.927Y-275.458
X458.995Y-119.586
X458.995Y-142.086
X468.67Y-269.833
X468.738Y-125.211
X471.252Y-174.551
X471.387Y-220.275
X480.995Y-157.676
X480.995Y-180.176
X481.13Y-214.65
X481.13Y-237.15
X490.738Y-174.551
X490.873Y-220.275
T2
X135.48Y-225.928
X135.585Y-168.965
X496.16Y-264.028
X496.265Y-130.865
T0
M30
