G04 #@! TF.GenerationSoftware,KiCad,Pcbnew,7.0.7*
G04 #@! TF.CreationDate,2024-02-27T11:45:06-06:00*
G04 #@! TF.ProjectId,CapBankBreakout,43617042-616e-46b4-9272-65616b6f7574,rev?*
G04 #@! TF.SameCoordinates,Original*
G04 #@! TF.FileFunction,Legend,Bot*
G04 #@! TF.FilePolarity,Positive*
%FSLAX46Y46*%
G04 Gerber Fmt 4.6, Leading zero omitted, Abs format (unit mm)*
G04 Created by KiCad (PCBNEW 7.0.7) date 2024-02-27 11:45:06*
%MOMM*%
%LPD*%
G01*
G04 APERTURE LIST*
%ADD10C,1.000000*%
%ADD11C,0.100000*%
%ADD12C,1.270000*%
%ADD13C,0.381000*%
%ADD14R,18.288000X18.288000*%
%ADD15C,0.500000*%
%ADD16R,2.082800X2.082800*%
%ADD17C,2.082800*%
G04 APERTURE END LIST*
D10*
X515137523Y-230523810D02*
X515328000Y-230333334D01*
X515328000Y-230333334D02*
X515518476Y-229761905D01*
X515518476Y-229761905D02*
X515518476Y-229380953D01*
X515518476Y-229380953D02*
X515328000Y-228809524D01*
X515328000Y-228809524D02*
X514947047Y-228428572D01*
X514947047Y-228428572D02*
X514566095Y-228238095D01*
X514566095Y-228238095D02*
X513804190Y-228047619D01*
X513804190Y-228047619D02*
X513232761Y-228047619D01*
X513232761Y-228047619D02*
X512470857Y-228238095D01*
X512470857Y-228238095D02*
X512089904Y-228428572D01*
X512089904Y-228428572D02*
X511708952Y-228809524D01*
X511708952Y-228809524D02*
X511518476Y-229380953D01*
X511518476Y-229380953D02*
X511518476Y-229761905D01*
X511518476Y-229761905D02*
X511708952Y-230333334D01*
X511708952Y-230333334D02*
X511899428Y-230523810D01*
X514375619Y-232047619D02*
X514375619Y-233952381D01*
X515518476Y-231666667D02*
X511518476Y-233000000D01*
X511518476Y-233000000D02*
X515518476Y-234333334D01*
X515518476Y-235666666D02*
X511518476Y-235666666D01*
X511518476Y-235666666D02*
X511518476Y-237190476D01*
X511518476Y-237190476D02*
X511708952Y-237571428D01*
X511708952Y-237571428D02*
X511899428Y-237761905D01*
X511899428Y-237761905D02*
X512280380Y-237952381D01*
X512280380Y-237952381D02*
X512851809Y-237952381D01*
X512851809Y-237952381D02*
X513232761Y-237761905D01*
X513232761Y-237761905D02*
X513423238Y-237571428D01*
X513423238Y-237571428D02*
X513613714Y-237190476D01*
X513613714Y-237190476D02*
X513613714Y-235666666D01*
X514375619Y-239476190D02*
X514375619Y-241380952D01*
X515518476Y-239095238D02*
X511518476Y-240428571D01*
X511518476Y-240428571D02*
X515518476Y-241761905D01*
X515137523Y-245380952D02*
X515328000Y-245190476D01*
X515328000Y-245190476D02*
X515518476Y-244619047D01*
X515518476Y-244619047D02*
X515518476Y-244238095D01*
X515518476Y-244238095D02*
X515328000Y-243666666D01*
X515328000Y-243666666D02*
X514947047Y-243285714D01*
X514947047Y-243285714D02*
X514566095Y-243095237D01*
X514566095Y-243095237D02*
X513804190Y-242904761D01*
X513804190Y-242904761D02*
X513232761Y-242904761D01*
X513232761Y-242904761D02*
X512470857Y-243095237D01*
X512470857Y-243095237D02*
X512089904Y-243285714D01*
X512089904Y-243285714D02*
X511708952Y-243666666D01*
X511708952Y-243666666D02*
X511518476Y-244238095D01*
X511518476Y-244238095D02*
X511518476Y-244619047D01*
X511518476Y-244619047D02*
X511708952Y-245190476D01*
X511708952Y-245190476D02*
X511899428Y-245380952D01*
X515518476Y-247095237D02*
X511518476Y-247095237D01*
X511518476Y-248428571D02*
X511518476Y-250714285D01*
X515518476Y-249571428D02*
X511518476Y-249571428D01*
X511518476Y-252809523D02*
X511518476Y-253571428D01*
X511518476Y-253571428D02*
X511708952Y-253952380D01*
X511708952Y-253952380D02*
X512089904Y-254333333D01*
X512089904Y-254333333D02*
X512851809Y-254523809D01*
X512851809Y-254523809D02*
X514185142Y-254523809D01*
X514185142Y-254523809D02*
X514947047Y-254333333D01*
X514947047Y-254333333D02*
X515328000Y-253952380D01*
X515328000Y-253952380D02*
X515518476Y-253571428D01*
X515518476Y-253571428D02*
X515518476Y-252809523D01*
X515518476Y-252809523D02*
X515328000Y-252428571D01*
X515328000Y-252428571D02*
X514947047Y-252047618D01*
X514947047Y-252047618D02*
X514185142Y-251857142D01*
X514185142Y-251857142D02*
X512851809Y-251857142D01*
X512851809Y-251857142D02*
X512089904Y-252047618D01*
X512089904Y-252047618D02*
X511708952Y-252428571D01*
X511708952Y-252428571D02*
X511518476Y-252809523D01*
X515518476Y-258523809D02*
X513613714Y-257190475D01*
X515518476Y-256238094D02*
X511518476Y-256238094D01*
X511518476Y-256238094D02*
X511518476Y-257761904D01*
X511518476Y-257761904D02*
X511708952Y-258142856D01*
X511708952Y-258142856D02*
X511899428Y-258333333D01*
X511899428Y-258333333D02*
X512280380Y-258523809D01*
X512280380Y-258523809D02*
X512851809Y-258523809D01*
X512851809Y-258523809D02*
X513232761Y-258333333D01*
X513232761Y-258333333D02*
X513423238Y-258142856D01*
X513423238Y-258142856D02*
X513613714Y-257761904D01*
X513613714Y-257761904D02*
X513613714Y-256238094D01*
X515137523Y-260809523D02*
X515328000Y-260999999D01*
X515328000Y-260999999D02*
X515518476Y-260809523D01*
X515518476Y-260809523D02*
X515328000Y-260619047D01*
X515328000Y-260619047D02*
X515137523Y-260809523D01*
X515137523Y-260809523D02*
X515518476Y-260809523D01*
X511708952Y-260047618D02*
X511518476Y-260428571D01*
X511518476Y-260428571D02*
X511518476Y-261380952D01*
X511518476Y-261380952D02*
X511708952Y-261761904D01*
X511708952Y-261761904D02*
X512089904Y-261952380D01*
X512089904Y-261952380D02*
X512470857Y-261952380D01*
X512470857Y-261952380D02*
X512851809Y-261761904D01*
X512851809Y-261761904D02*
X513042285Y-261571428D01*
X513042285Y-261571428D02*
X513232761Y-261190475D01*
X513232761Y-261190475D02*
X513423238Y-260999999D01*
X513423238Y-260999999D02*
X513804190Y-260809523D01*
X513804190Y-260809523D02*
X513994666Y-260809523D01*
X521958476Y-213952381D02*
X517958476Y-213952381D01*
X521958476Y-218904762D02*
X517958476Y-218904762D01*
X519863238Y-218904762D02*
X519863238Y-221190477D01*
X521958476Y-221190477D02*
X517958476Y-221190477D01*
X520815619Y-222904762D02*
X520815619Y-224809524D01*
X521958476Y-222523810D02*
X517958476Y-223857143D01*
X517958476Y-223857143D02*
X521958476Y-225190477D01*
X521958476Y-228809524D02*
X520053714Y-227476190D01*
X521958476Y-226523809D02*
X517958476Y-226523809D01*
X517958476Y-226523809D02*
X517958476Y-228047619D01*
X517958476Y-228047619D02*
X518148952Y-228428571D01*
X518148952Y-228428571D02*
X518339428Y-228619048D01*
X518339428Y-228619048D02*
X518720380Y-228809524D01*
X518720380Y-228809524D02*
X519291809Y-228809524D01*
X519291809Y-228809524D02*
X519672761Y-228619048D01*
X519672761Y-228619048D02*
X519863238Y-228428571D01*
X519863238Y-228428571D02*
X520053714Y-228047619D01*
X520053714Y-228047619D02*
X520053714Y-226523809D01*
X521958476Y-230523809D02*
X517958476Y-230523809D01*
X517958476Y-230523809D02*
X517958476Y-231476190D01*
X517958476Y-231476190D02*
X518148952Y-232047619D01*
X518148952Y-232047619D02*
X518529904Y-232428571D01*
X518529904Y-232428571D02*
X518910857Y-232619048D01*
X518910857Y-232619048D02*
X519672761Y-232809524D01*
X519672761Y-232809524D02*
X520244190Y-232809524D01*
X520244190Y-232809524D02*
X521006095Y-232619048D01*
X521006095Y-232619048D02*
X521387047Y-232428571D01*
X521387047Y-232428571D02*
X521768000Y-232047619D01*
X521768000Y-232047619D02*
X521958476Y-231476190D01*
X521958476Y-231476190D02*
X521958476Y-230523809D01*
X521958476Y-236428571D02*
X521958476Y-234523809D01*
X521958476Y-234523809D02*
X517958476Y-234523809D01*
X520053714Y-238523809D02*
X521958476Y-238523809D01*
X517958476Y-237190476D02*
X520053714Y-238523809D01*
X520053714Y-238523809D02*
X517958476Y-239857143D01*
X521958476Y-244238094D02*
X517958476Y-244238094D01*
X521958476Y-246523809D02*
X519672761Y-244809523D01*
X517958476Y-246523809D02*
X520244190Y-244238094D01*
X521958476Y-248238094D02*
X517958476Y-248238094D01*
X517958476Y-248238094D02*
X521958476Y-250523809D01*
X521958476Y-250523809D02*
X517958476Y-250523809D01*
X517958476Y-253190475D02*
X517958476Y-253952380D01*
X517958476Y-253952380D02*
X518148952Y-254333332D01*
X518148952Y-254333332D02*
X518529904Y-254714285D01*
X518529904Y-254714285D02*
X519291809Y-254904761D01*
X519291809Y-254904761D02*
X520625142Y-254904761D01*
X520625142Y-254904761D02*
X521387047Y-254714285D01*
X521387047Y-254714285D02*
X521768000Y-254333332D01*
X521768000Y-254333332D02*
X521958476Y-253952380D01*
X521958476Y-253952380D02*
X521958476Y-253190475D01*
X521958476Y-253190475D02*
X521768000Y-252809523D01*
X521768000Y-252809523D02*
X521387047Y-252428570D01*
X521387047Y-252428570D02*
X520625142Y-252238094D01*
X520625142Y-252238094D02*
X519291809Y-252238094D01*
X519291809Y-252238094D02*
X518529904Y-252428570D01*
X518529904Y-252428570D02*
X518148952Y-252809523D01*
X518148952Y-252809523D02*
X517958476Y-253190475D01*
X517958476Y-256238094D02*
X521958476Y-257190475D01*
X521958476Y-257190475D02*
X519101333Y-257952380D01*
X519101333Y-257952380D02*
X521958476Y-258714285D01*
X521958476Y-258714285D02*
X517958476Y-259666666D01*
X521958476Y-264238094D02*
X517958476Y-264238094D01*
X519863238Y-264238094D02*
X519863238Y-266523809D01*
X521958476Y-266523809D02*
X517958476Y-266523809D01*
X519863238Y-268428570D02*
X519863238Y-269761904D01*
X521958476Y-270333332D02*
X521958476Y-268428570D01*
X521958476Y-268428570D02*
X517958476Y-268428570D01*
X517958476Y-268428570D02*
X517958476Y-270333332D01*
X521958476Y-274333333D02*
X520053714Y-272999999D01*
X521958476Y-272047618D02*
X517958476Y-272047618D01*
X517958476Y-272047618D02*
X517958476Y-273571428D01*
X517958476Y-273571428D02*
X518148952Y-273952380D01*
X518148952Y-273952380D02*
X518339428Y-274142857D01*
X518339428Y-274142857D02*
X518720380Y-274333333D01*
X518720380Y-274333333D02*
X519291809Y-274333333D01*
X519291809Y-274333333D02*
X519672761Y-274142857D01*
X519672761Y-274142857D02*
X519863238Y-273952380D01*
X519863238Y-273952380D02*
X520053714Y-273571428D01*
X520053714Y-273571428D02*
X520053714Y-272047618D01*
X521577523Y-276047618D02*
X521768000Y-276238095D01*
X521768000Y-276238095D02*
X521958476Y-276047618D01*
X521958476Y-276047618D02*
X521768000Y-275857142D01*
X521768000Y-275857142D02*
X521577523Y-276047618D01*
X521577523Y-276047618D02*
X521958476Y-276047618D01*
X520434666Y-276047618D02*
X518148952Y-275857142D01*
X518148952Y-275857142D02*
X517958476Y-276047618D01*
X517958476Y-276047618D02*
X518148952Y-276238095D01*
X518148952Y-276238095D02*
X520434666Y-276047618D01*
X520434666Y-276047618D02*
X517958476Y-276047618D01*
X515137523Y-135523810D02*
X515328000Y-135333334D01*
X515328000Y-135333334D02*
X515518476Y-134761905D01*
X515518476Y-134761905D02*
X515518476Y-134380953D01*
X515518476Y-134380953D02*
X515328000Y-133809524D01*
X515328000Y-133809524D02*
X514947047Y-133428572D01*
X514947047Y-133428572D02*
X514566095Y-133238095D01*
X514566095Y-133238095D02*
X513804190Y-133047619D01*
X513804190Y-133047619D02*
X513232761Y-133047619D01*
X513232761Y-133047619D02*
X512470857Y-133238095D01*
X512470857Y-133238095D02*
X512089904Y-133428572D01*
X512089904Y-133428572D02*
X511708952Y-133809524D01*
X511708952Y-133809524D02*
X511518476Y-134380953D01*
X511518476Y-134380953D02*
X511518476Y-134761905D01*
X511518476Y-134761905D02*
X511708952Y-135333334D01*
X511708952Y-135333334D02*
X511899428Y-135523810D01*
X514375619Y-137047619D02*
X514375619Y-138952381D01*
X515518476Y-136666667D02*
X511518476Y-138000000D01*
X511518476Y-138000000D02*
X515518476Y-139333334D01*
X515518476Y-140666666D02*
X511518476Y-140666666D01*
X511518476Y-140666666D02*
X511518476Y-142190476D01*
X511518476Y-142190476D02*
X511708952Y-142571428D01*
X511708952Y-142571428D02*
X511899428Y-142761905D01*
X511899428Y-142761905D02*
X512280380Y-142952381D01*
X512280380Y-142952381D02*
X512851809Y-142952381D01*
X512851809Y-142952381D02*
X513232761Y-142761905D01*
X513232761Y-142761905D02*
X513423238Y-142571428D01*
X513423238Y-142571428D02*
X513613714Y-142190476D01*
X513613714Y-142190476D02*
X513613714Y-140666666D01*
X514375619Y-144476190D02*
X514375619Y-146380952D01*
X515518476Y-144095238D02*
X511518476Y-145428571D01*
X511518476Y-145428571D02*
X515518476Y-146761905D01*
X515137523Y-150380952D02*
X515328000Y-150190476D01*
X515328000Y-150190476D02*
X515518476Y-149619047D01*
X515518476Y-149619047D02*
X515518476Y-149238095D01*
X515518476Y-149238095D02*
X515328000Y-148666666D01*
X515328000Y-148666666D02*
X514947047Y-148285714D01*
X514947047Y-148285714D02*
X514566095Y-148095237D01*
X514566095Y-148095237D02*
X513804190Y-147904761D01*
X513804190Y-147904761D02*
X513232761Y-147904761D01*
X513232761Y-147904761D02*
X512470857Y-148095237D01*
X512470857Y-148095237D02*
X512089904Y-148285714D01*
X512089904Y-148285714D02*
X511708952Y-148666666D01*
X511708952Y-148666666D02*
X511518476Y-149238095D01*
X511518476Y-149238095D02*
X511518476Y-149619047D01*
X511518476Y-149619047D02*
X511708952Y-150190476D01*
X511708952Y-150190476D02*
X511899428Y-150380952D01*
X515518476Y-152095237D02*
X511518476Y-152095237D01*
X511518476Y-153428571D02*
X511518476Y-155714285D01*
X515518476Y-154571428D02*
X511518476Y-154571428D01*
X511518476Y-157809523D02*
X511518476Y-158571428D01*
X511518476Y-158571428D02*
X511708952Y-158952380D01*
X511708952Y-158952380D02*
X512089904Y-159333333D01*
X512089904Y-159333333D02*
X512851809Y-159523809D01*
X512851809Y-159523809D02*
X514185142Y-159523809D01*
X514185142Y-159523809D02*
X514947047Y-159333333D01*
X514947047Y-159333333D02*
X515328000Y-158952380D01*
X515328000Y-158952380D02*
X515518476Y-158571428D01*
X515518476Y-158571428D02*
X515518476Y-157809523D01*
X515518476Y-157809523D02*
X515328000Y-157428571D01*
X515328000Y-157428571D02*
X514947047Y-157047618D01*
X514947047Y-157047618D02*
X514185142Y-156857142D01*
X514185142Y-156857142D02*
X512851809Y-156857142D01*
X512851809Y-156857142D02*
X512089904Y-157047618D01*
X512089904Y-157047618D02*
X511708952Y-157428571D01*
X511708952Y-157428571D02*
X511518476Y-157809523D01*
X515518476Y-163523809D02*
X513613714Y-162190475D01*
X515518476Y-161238094D02*
X511518476Y-161238094D01*
X511518476Y-161238094D02*
X511518476Y-162761904D01*
X511518476Y-162761904D02*
X511708952Y-163142856D01*
X511708952Y-163142856D02*
X511899428Y-163333333D01*
X511899428Y-163333333D02*
X512280380Y-163523809D01*
X512280380Y-163523809D02*
X512851809Y-163523809D01*
X512851809Y-163523809D02*
X513232761Y-163333333D01*
X513232761Y-163333333D02*
X513423238Y-163142856D01*
X513423238Y-163142856D02*
X513613714Y-162761904D01*
X513613714Y-162761904D02*
X513613714Y-161238094D01*
X515137523Y-165809523D02*
X515328000Y-165999999D01*
X515328000Y-165999999D02*
X515518476Y-165809523D01*
X515518476Y-165809523D02*
X515328000Y-165619047D01*
X515328000Y-165619047D02*
X515137523Y-165809523D01*
X515137523Y-165809523D02*
X515518476Y-165809523D01*
X511708952Y-165047618D02*
X511518476Y-165428571D01*
X511518476Y-165428571D02*
X511518476Y-166380952D01*
X511518476Y-166380952D02*
X511708952Y-166761904D01*
X511708952Y-166761904D02*
X512089904Y-166952380D01*
X512089904Y-166952380D02*
X512470857Y-166952380D01*
X512470857Y-166952380D02*
X512851809Y-166761904D01*
X512851809Y-166761904D02*
X513042285Y-166571428D01*
X513042285Y-166571428D02*
X513232761Y-166190475D01*
X513232761Y-166190475D02*
X513423238Y-165999999D01*
X513423238Y-165999999D02*
X513804190Y-165809523D01*
X513804190Y-165809523D02*
X513994666Y-165809523D01*
X521958476Y-118952381D02*
X517958476Y-118952381D01*
X521958476Y-123904762D02*
X517958476Y-123904762D01*
X519863238Y-123904762D02*
X519863238Y-126190477D01*
X521958476Y-126190477D02*
X517958476Y-126190477D01*
X520815619Y-127904762D02*
X520815619Y-129809524D01*
X521958476Y-127523810D02*
X517958476Y-128857143D01*
X517958476Y-128857143D02*
X521958476Y-130190477D01*
X521958476Y-133809524D02*
X520053714Y-132476190D01*
X521958476Y-131523809D02*
X517958476Y-131523809D01*
X517958476Y-131523809D02*
X517958476Y-133047619D01*
X517958476Y-133047619D02*
X518148952Y-133428571D01*
X518148952Y-133428571D02*
X518339428Y-133619048D01*
X518339428Y-133619048D02*
X518720380Y-133809524D01*
X518720380Y-133809524D02*
X519291809Y-133809524D01*
X519291809Y-133809524D02*
X519672761Y-133619048D01*
X519672761Y-133619048D02*
X519863238Y-133428571D01*
X519863238Y-133428571D02*
X520053714Y-133047619D01*
X520053714Y-133047619D02*
X520053714Y-131523809D01*
X521958476Y-135523809D02*
X517958476Y-135523809D01*
X517958476Y-135523809D02*
X517958476Y-136476190D01*
X517958476Y-136476190D02*
X518148952Y-137047619D01*
X518148952Y-137047619D02*
X518529904Y-137428571D01*
X518529904Y-137428571D02*
X518910857Y-137619048D01*
X518910857Y-137619048D02*
X519672761Y-137809524D01*
X519672761Y-137809524D02*
X520244190Y-137809524D01*
X520244190Y-137809524D02*
X521006095Y-137619048D01*
X521006095Y-137619048D02*
X521387047Y-137428571D01*
X521387047Y-137428571D02*
X521768000Y-137047619D01*
X521768000Y-137047619D02*
X521958476Y-136476190D01*
X521958476Y-136476190D02*
X521958476Y-135523809D01*
X521958476Y-141428571D02*
X521958476Y-139523809D01*
X521958476Y-139523809D02*
X517958476Y-139523809D01*
X520053714Y-143523809D02*
X521958476Y-143523809D01*
X517958476Y-142190476D02*
X520053714Y-143523809D01*
X520053714Y-143523809D02*
X517958476Y-144857143D01*
X521958476Y-149238094D02*
X517958476Y-149238094D01*
X521958476Y-151523809D02*
X519672761Y-149809523D01*
X517958476Y-151523809D02*
X520244190Y-149238094D01*
X521958476Y-153238094D02*
X517958476Y-153238094D01*
X517958476Y-153238094D02*
X521958476Y-155523809D01*
X521958476Y-155523809D02*
X517958476Y-155523809D01*
X517958476Y-158190475D02*
X517958476Y-158952380D01*
X517958476Y-158952380D02*
X518148952Y-159333332D01*
X518148952Y-159333332D02*
X518529904Y-159714285D01*
X518529904Y-159714285D02*
X519291809Y-159904761D01*
X519291809Y-159904761D02*
X520625142Y-159904761D01*
X520625142Y-159904761D02*
X521387047Y-159714285D01*
X521387047Y-159714285D02*
X521768000Y-159333332D01*
X521768000Y-159333332D02*
X521958476Y-158952380D01*
X521958476Y-158952380D02*
X521958476Y-158190475D01*
X521958476Y-158190475D02*
X521768000Y-157809523D01*
X521768000Y-157809523D02*
X521387047Y-157428570D01*
X521387047Y-157428570D02*
X520625142Y-157238094D01*
X520625142Y-157238094D02*
X519291809Y-157238094D01*
X519291809Y-157238094D02*
X518529904Y-157428570D01*
X518529904Y-157428570D02*
X518148952Y-157809523D01*
X518148952Y-157809523D02*
X517958476Y-158190475D01*
X517958476Y-161238094D02*
X521958476Y-162190475D01*
X521958476Y-162190475D02*
X519101333Y-162952380D01*
X519101333Y-162952380D02*
X521958476Y-163714285D01*
X521958476Y-163714285D02*
X517958476Y-164666666D01*
X521958476Y-169238094D02*
X517958476Y-169238094D01*
X519863238Y-169238094D02*
X519863238Y-171523809D01*
X521958476Y-171523809D02*
X517958476Y-171523809D01*
X519863238Y-173428570D02*
X519863238Y-174761904D01*
X521958476Y-175333332D02*
X521958476Y-173428570D01*
X521958476Y-173428570D02*
X517958476Y-173428570D01*
X517958476Y-173428570D02*
X517958476Y-175333332D01*
X521958476Y-179333333D02*
X520053714Y-177999999D01*
X521958476Y-177047618D02*
X517958476Y-177047618D01*
X517958476Y-177047618D02*
X517958476Y-178571428D01*
X517958476Y-178571428D02*
X518148952Y-178952380D01*
X518148952Y-178952380D02*
X518339428Y-179142857D01*
X518339428Y-179142857D02*
X518720380Y-179333333D01*
X518720380Y-179333333D02*
X519291809Y-179333333D01*
X519291809Y-179333333D02*
X519672761Y-179142857D01*
X519672761Y-179142857D02*
X519863238Y-178952380D01*
X519863238Y-178952380D02*
X520053714Y-178571428D01*
X520053714Y-178571428D02*
X520053714Y-177047618D01*
X521577523Y-181047618D02*
X521768000Y-181238095D01*
X521768000Y-181238095D02*
X521958476Y-181047618D01*
X521958476Y-181047618D02*
X521768000Y-180857142D01*
X521768000Y-180857142D02*
X521577523Y-181047618D01*
X521577523Y-181047618D02*
X521958476Y-181047618D01*
X520434666Y-181047618D02*
X518148952Y-180857142D01*
X518148952Y-180857142D02*
X517958476Y-181047618D01*
X517958476Y-181047618D02*
X518148952Y-181238095D01*
X518148952Y-181238095D02*
X520434666Y-181047618D01*
X520434666Y-181047618D02*
X517958476Y-181047618D01*
D11*
X134166666Y-202327580D02*
X133833333Y-202803771D01*
X133595238Y-202327580D02*
X133595238Y-203327580D01*
X133595238Y-203327580D02*
X133976190Y-203327580D01*
X133976190Y-203327580D02*
X134071428Y-203279961D01*
X134071428Y-203279961D02*
X134119047Y-203232342D01*
X134119047Y-203232342D02*
X134166666Y-203137104D01*
X134166666Y-203137104D02*
X134166666Y-202994247D01*
X134166666Y-202994247D02*
X134119047Y-202899009D01*
X134119047Y-202899009D02*
X134071428Y-202851390D01*
X134071428Y-202851390D02*
X133976190Y-202803771D01*
X133976190Y-202803771D02*
X133595238Y-202803771D01*
X134595238Y-202851390D02*
X134928571Y-202851390D01*
X135071428Y-202327580D02*
X134595238Y-202327580D01*
X134595238Y-202327580D02*
X134595238Y-203327580D01*
X134595238Y-203327580D02*
X135071428Y-203327580D01*
X135833333Y-202851390D02*
X135500000Y-202851390D01*
X135500000Y-202327580D02*
X135500000Y-203327580D01*
X135500000Y-203327580D02*
X135976190Y-203327580D01*
X136500000Y-203327580D02*
X136500000Y-203089485D01*
X136261905Y-203184723D02*
X136500000Y-203089485D01*
X136500000Y-203089485D02*
X136738095Y-203184723D01*
X136357143Y-202899009D02*
X136500000Y-203089485D01*
X136500000Y-203089485D02*
X136642857Y-202899009D01*
X137261905Y-203327580D02*
X137261905Y-203089485D01*
X137023810Y-203184723D02*
X137261905Y-203089485D01*
X137261905Y-203089485D02*
X137500000Y-203184723D01*
X137119048Y-202899009D02*
X137261905Y-203089485D01*
X137261905Y-203089485D02*
X137404762Y-202899009D01*
X508672419Y-148666666D02*
X508196228Y-148333333D01*
X508672419Y-148095238D02*
X507672419Y-148095238D01*
X507672419Y-148095238D02*
X507672419Y-148476190D01*
X507672419Y-148476190D02*
X507720038Y-148571428D01*
X507720038Y-148571428D02*
X507767657Y-148619047D01*
X507767657Y-148619047D02*
X507862895Y-148666666D01*
X507862895Y-148666666D02*
X508005752Y-148666666D01*
X508005752Y-148666666D02*
X508100990Y-148619047D01*
X508100990Y-148619047D02*
X508148609Y-148571428D01*
X508148609Y-148571428D02*
X508196228Y-148476190D01*
X508196228Y-148476190D02*
X508196228Y-148095238D01*
X508148609Y-149095238D02*
X508148609Y-149428571D01*
X508672419Y-149571428D02*
X508672419Y-149095238D01*
X508672419Y-149095238D02*
X507672419Y-149095238D01*
X507672419Y-149095238D02*
X507672419Y-149571428D01*
X508148609Y-150333333D02*
X508148609Y-150000000D01*
X508672419Y-150000000D02*
X507672419Y-150000000D01*
X507672419Y-150000000D02*
X507672419Y-150476190D01*
X507672419Y-151000000D02*
X507910514Y-151000000D01*
X507815276Y-150761905D02*
X507910514Y-151000000D01*
X507910514Y-151000000D02*
X507815276Y-151238095D01*
X508100990Y-150857143D02*
X507910514Y-151000000D01*
X507910514Y-151000000D02*
X508100990Y-151142857D01*
X507672419Y-151761905D02*
X507910514Y-151761905D01*
X507815276Y-151523810D02*
X507910514Y-151761905D01*
X507910514Y-151761905D02*
X507815276Y-152000000D01*
X508100990Y-151619048D02*
X507910514Y-151761905D01*
X507910514Y-151761905D02*
X508100990Y-151904762D01*
X136833333Y-192172419D02*
X137166666Y-191696228D01*
X137404761Y-192172419D02*
X137404761Y-191172419D01*
X137404761Y-191172419D02*
X137023809Y-191172419D01*
X137023809Y-191172419D02*
X136928571Y-191220038D01*
X136928571Y-191220038D02*
X136880952Y-191267657D01*
X136880952Y-191267657D02*
X136833333Y-191362895D01*
X136833333Y-191362895D02*
X136833333Y-191505752D01*
X136833333Y-191505752D02*
X136880952Y-191600990D01*
X136880952Y-191600990D02*
X136928571Y-191648609D01*
X136928571Y-191648609D02*
X137023809Y-191696228D01*
X137023809Y-191696228D02*
X137404761Y-191696228D01*
X136404761Y-191648609D02*
X136071428Y-191648609D01*
X135928571Y-192172419D02*
X136404761Y-192172419D01*
X136404761Y-192172419D02*
X136404761Y-191172419D01*
X136404761Y-191172419D02*
X135928571Y-191172419D01*
X135166666Y-191648609D02*
X135499999Y-191648609D01*
X135499999Y-192172419D02*
X135499999Y-191172419D01*
X135499999Y-191172419D02*
X135023809Y-191172419D01*
X134499999Y-191172419D02*
X134499999Y-191410514D01*
X134738094Y-191315276D02*
X134499999Y-191410514D01*
X134499999Y-191410514D02*
X134261904Y-191315276D01*
X134642856Y-191600990D02*
X134499999Y-191410514D01*
X134499999Y-191410514D02*
X134357142Y-191600990D01*
X133738094Y-191172419D02*
X133738094Y-191410514D01*
X133976189Y-191315276D02*
X133738094Y-191410514D01*
X133738094Y-191410514D02*
X133499999Y-191315276D01*
X133880951Y-191600990D02*
X133738094Y-191410514D01*
X133738094Y-191410514D02*
X133595237Y-191600990D01*
X508672419Y-243666666D02*
X508196228Y-243333333D01*
X508672419Y-243095238D02*
X507672419Y-243095238D01*
X507672419Y-243095238D02*
X507672419Y-243476190D01*
X507672419Y-243476190D02*
X507720038Y-243571428D01*
X507720038Y-243571428D02*
X507767657Y-243619047D01*
X507767657Y-243619047D02*
X507862895Y-243666666D01*
X507862895Y-243666666D02*
X508005752Y-243666666D01*
X508005752Y-243666666D02*
X508100990Y-243619047D01*
X508100990Y-243619047D02*
X508148609Y-243571428D01*
X508148609Y-243571428D02*
X508196228Y-243476190D01*
X508196228Y-243476190D02*
X508196228Y-243095238D01*
X508148609Y-244095238D02*
X508148609Y-244428571D01*
X508672419Y-244571428D02*
X508672419Y-244095238D01*
X508672419Y-244095238D02*
X507672419Y-244095238D01*
X507672419Y-244095238D02*
X507672419Y-244571428D01*
X508148609Y-245333333D02*
X508148609Y-245000000D01*
X508672419Y-245000000D02*
X507672419Y-245000000D01*
X507672419Y-245000000D02*
X507672419Y-245476190D01*
X507672419Y-246000000D02*
X507910514Y-246000000D01*
X507815276Y-245761905D02*
X507910514Y-246000000D01*
X507910514Y-246000000D02*
X507815276Y-246238095D01*
X508100990Y-245857143D02*
X507910514Y-246000000D01*
X507910514Y-246000000D02*
X508100990Y-246142857D01*
X507672419Y-246761905D02*
X507910514Y-246761905D01*
X507815276Y-246523810D02*
X507910514Y-246761905D01*
X507910514Y-246761905D02*
X507815276Y-247000000D01*
X508100990Y-246619048D02*
X507910514Y-246761905D01*
X507910514Y-246761905D02*
X508100990Y-246904762D01*
D12*
X126610000Y-202785000D02*
X135500000Y-214215000D01*
D13*
X134103000Y-204690000D02*
X134865000Y-205325000D01*
X134103000Y-207484000D02*
X135500000Y-207484000D01*
X134230000Y-205706000D02*
X134103000Y-204690000D01*
X134357000Y-205071000D02*
X136135000Y-207865000D01*
X134357000Y-205198000D02*
X134230000Y-205706000D01*
X134484000Y-207611000D02*
X135754000Y-207611000D01*
X134865000Y-205325000D02*
X134357000Y-205071000D01*
X134865000Y-207865000D02*
X136643000Y-209897000D01*
X135500000Y-207484000D02*
X134357000Y-205198000D01*
D12*
X135500000Y-214215000D02*
X144390000Y-202785000D01*
D13*
X135627000Y-209770000D02*
X134103000Y-207484000D01*
X135881000Y-209389000D02*
X135754000Y-209897000D01*
X135881000Y-209516000D02*
X134484000Y-207611000D01*
X136135000Y-207865000D02*
X134865000Y-207865000D01*
X136643000Y-209897000D02*
X135881000Y-209389000D01*
D12*
X144390000Y-202785000D02*
X126610000Y-202785000D01*
X508215000Y-141110000D02*
X496785000Y-150000000D01*
D13*
X506310000Y-148603000D02*
X505675000Y-149365000D01*
X503516000Y-148603000D02*
X503516000Y-150000000D01*
X505294000Y-148730000D02*
X506310000Y-148603000D01*
X505929000Y-148857000D02*
X503135000Y-150635000D01*
X505802000Y-148857000D02*
X505294000Y-148730000D01*
X503389000Y-148984000D02*
X503389000Y-150254000D01*
X505675000Y-149365000D02*
X505929000Y-148857000D01*
X503135000Y-149365000D02*
X501103000Y-151143000D01*
X503516000Y-150000000D02*
X505802000Y-148857000D01*
D12*
X496785000Y-150000000D02*
X508215000Y-158890000D01*
D13*
X501230000Y-150127000D02*
X503516000Y-148603000D01*
X501611000Y-150381000D02*
X501103000Y-150254000D01*
X501484000Y-150381000D02*
X503389000Y-148984000D01*
X503135000Y-150635000D02*
X503135000Y-149365000D01*
X501103000Y-151143000D02*
X501611000Y-150381000D01*
D12*
X508215000Y-158890000D02*
X508215000Y-141110000D01*
X144390000Y-191715000D02*
X135500000Y-180285000D01*
D13*
X136897000Y-189810000D02*
X136135000Y-189175000D01*
X136897000Y-187016000D02*
X135500000Y-187016000D01*
X136770000Y-188794000D02*
X136897000Y-189810000D01*
X136643000Y-189429000D02*
X134865000Y-186635000D01*
X136643000Y-189302000D02*
X136770000Y-188794000D01*
X136516000Y-186889000D02*
X135246000Y-186889000D01*
X136135000Y-189175000D02*
X136643000Y-189429000D01*
X136135000Y-186635000D02*
X134357000Y-184603000D01*
X135500000Y-187016000D02*
X136643000Y-189302000D01*
D12*
X135500000Y-180285000D02*
X126610000Y-191715000D01*
D13*
X135373000Y-184730000D02*
X136897000Y-187016000D01*
X135119000Y-185111000D02*
X135246000Y-184603000D01*
X135119000Y-184984000D02*
X136516000Y-186889000D01*
X134865000Y-186635000D02*
X136135000Y-186635000D01*
X134357000Y-184603000D02*
X135119000Y-185111000D01*
D12*
X126610000Y-191715000D02*
X144390000Y-191715000D01*
X508215000Y-236110000D02*
X496785000Y-245000000D01*
D13*
X506310000Y-243603000D02*
X505675000Y-244365000D01*
X503516000Y-243603000D02*
X503516000Y-245000000D01*
X505294000Y-243730000D02*
X506310000Y-243603000D01*
X505929000Y-243857000D02*
X503135000Y-245635000D01*
X505802000Y-243857000D02*
X505294000Y-243730000D01*
X503389000Y-243984000D02*
X503389000Y-245254000D01*
X505675000Y-244365000D02*
X505929000Y-243857000D01*
X503135000Y-244365000D02*
X501103000Y-246143000D01*
X503516000Y-245000000D02*
X505802000Y-243857000D01*
D12*
X496785000Y-245000000D02*
X508215000Y-253890000D01*
D13*
X501230000Y-245127000D02*
X503516000Y-243603000D01*
X501611000Y-245381000D02*
X501103000Y-245254000D01*
X501484000Y-245381000D02*
X503389000Y-243984000D01*
X503135000Y-245635000D02*
X503135000Y-244365000D01*
X501103000Y-246143000D02*
X501611000Y-245381000D01*
D12*
X508215000Y-253890000D02*
X508215000Y-236110000D01*
%LPC*%
D14*
X135585000Y-168965000D03*
D15*
X341250000Y-195000000D03*
X341250000Y-200000000D03*
X342000000Y-195000000D03*
X342000000Y-195000000D03*
X342000000Y-200000000D03*
X342000000Y-200000000D03*
X342750000Y-195000000D03*
X342750000Y-200000000D03*
X343500000Y-195000000D03*
X343500000Y-200000000D03*
X344250000Y-195000000D03*
X344250000Y-200000000D03*
X345000000Y-195000000D03*
X345000000Y-200000000D03*
X345750000Y-195000000D03*
X345750000Y-200000000D03*
X346500000Y-195000000D03*
X346500000Y-200000000D03*
X347250000Y-195000000D03*
X347250000Y-200000000D03*
X348000000Y-195000000D03*
X348000000Y-200000000D03*
X348750000Y-195000000D03*
X348750000Y-200000000D03*
D16*
X216994998Y-180175709D03*
D17*
X216994998Y-157675709D03*
X226737784Y-174550709D03*
X207252212Y-174550709D03*
D16*
X414927000Y-275457559D03*
D17*
X414927000Y-252957559D03*
X424669786Y-269832559D03*
X405184214Y-269832559D03*
D16*
X282927000Y-275457559D03*
D17*
X282927000Y-252957559D03*
X292669786Y-269832559D03*
X273184214Y-269832559D03*
D16*
X349130000Y-214649968D03*
D17*
X349130000Y-237149968D03*
X339387214Y-220274968D03*
X358872786Y-220274968D03*
D16*
X282994998Y-119495409D03*
D17*
X282994998Y-141995409D03*
X273252212Y-125120409D03*
X292737784Y-125120409D03*
D15*
X146250000Y-200000000D03*
X146250000Y-195000000D03*
X145500000Y-200000000D03*
X145500000Y-200000000D03*
X145500000Y-195000000D03*
X145500000Y-195000000D03*
X144750000Y-200000000D03*
X144750000Y-195000000D03*
X144000000Y-200000000D03*
X144000000Y-195000000D03*
X143250000Y-200000000D03*
X143250000Y-195000000D03*
X142500000Y-200000000D03*
X142500000Y-195000000D03*
X141750000Y-200000000D03*
X141750000Y-195000000D03*
X141000000Y-200000000D03*
X141000000Y-195000000D03*
X140250000Y-200000000D03*
X140250000Y-195000000D03*
X139500000Y-200000000D03*
X139500000Y-195000000D03*
X138750000Y-200000000D03*
X138750000Y-195000000D03*
D16*
X437130000Y-214649968D03*
D17*
X437130000Y-237149968D03*
X427387214Y-220274968D03*
X446872786Y-220274968D03*
D16*
X481130000Y-214649968D03*
D17*
X481130000Y-237149968D03*
X471387214Y-220274968D03*
X490872786Y-220274968D03*
D14*
X496160000Y-264027559D03*
D16*
X326898000Y-275457559D03*
D17*
X326898000Y-252957559D03*
X336640786Y-269832559D03*
X317155214Y-269832559D03*
D16*
X172994998Y-180175709D03*
D17*
X172994998Y-157675709D03*
X182737784Y-174550709D03*
X163252212Y-174550709D03*
D16*
X436994998Y-180175709D03*
D17*
X436994998Y-157675709D03*
X446737784Y-174550709D03*
X427252212Y-174550709D03*
D16*
X458994998Y-119585559D03*
D17*
X458994998Y-142085559D03*
X449252212Y-125210559D03*
X468737784Y-125210559D03*
D15*
X301250000Y-200000000D03*
X301250000Y-195000000D03*
X300500000Y-200000000D03*
X300500000Y-200000000D03*
X300500000Y-195000000D03*
X300500000Y-195000000D03*
X299750000Y-200000000D03*
X299750000Y-195000000D03*
X299000000Y-200000000D03*
X299000000Y-195000000D03*
X298250000Y-200000000D03*
X298250000Y-195000000D03*
X297500000Y-200000000D03*
X297500000Y-195000000D03*
X296750000Y-200000000D03*
X296750000Y-195000000D03*
X296000000Y-200000000D03*
X296000000Y-195000000D03*
X295250000Y-200000000D03*
X295250000Y-195000000D03*
X294500000Y-200000000D03*
X294500000Y-195000000D03*
X293750000Y-200000000D03*
X293750000Y-195000000D03*
D16*
X217130000Y-214649968D03*
D17*
X217130000Y-237149968D03*
X207387214Y-220274968D03*
X226872786Y-220274968D03*
D14*
X135480000Y-225927559D03*
D16*
X150994998Y-119495409D03*
D17*
X150994998Y-141995409D03*
X141252212Y-125120409D03*
X160737784Y-125120409D03*
D16*
X326994998Y-119495409D03*
D17*
X326994998Y-141995409D03*
X317252212Y-125120409D03*
X336737784Y-125120409D03*
D16*
X392994998Y-180085559D03*
D17*
X392994998Y-157585559D03*
X402737784Y-174460559D03*
X383252212Y-174460559D03*
D16*
X370994998Y-119585559D03*
D17*
X370994998Y-142085559D03*
X361252212Y-125210559D03*
X380737784Y-125210559D03*
D16*
X238994998Y-119495409D03*
D17*
X238994998Y-141995409D03*
X229252212Y-125120409D03*
X248737784Y-125120409D03*
D16*
X480994998Y-180175709D03*
D17*
X480994998Y-157675709D03*
X490737784Y-174550709D03*
X471252212Y-174550709D03*
D16*
X458927000Y-275457559D03*
D17*
X458927000Y-252957559D03*
X468669786Y-269832559D03*
X449184214Y-269832559D03*
D16*
X304994998Y-180175709D03*
D17*
X304994998Y-157675709D03*
X314737784Y-174550709D03*
X295252212Y-174550709D03*
D16*
X393130000Y-214649968D03*
D17*
X393130000Y-237149968D03*
X383387214Y-220274968D03*
X402872786Y-220274968D03*
D16*
X260994998Y-180175709D03*
D17*
X260994998Y-157675709D03*
X270737784Y-174550709D03*
X251252212Y-174550709D03*
D16*
X370927000Y-275457559D03*
D17*
X370927000Y-252957559D03*
X380669786Y-269832559D03*
X361184214Y-269832559D03*
D16*
X194927000Y-275457559D03*
D17*
X194927000Y-252957559D03*
X204669786Y-269832559D03*
X185184214Y-269832559D03*
D16*
X194994998Y-119495409D03*
D17*
X194994998Y-141995409D03*
X185252212Y-125120409D03*
X204737784Y-125120409D03*
D16*
X238927000Y-275457559D03*
D17*
X238927000Y-252957559D03*
X248669786Y-269832559D03*
X229184214Y-269832559D03*
D16*
X348994998Y-180175709D03*
D17*
X348994998Y-157675709D03*
X358737784Y-174550709D03*
X339252212Y-174550709D03*
D15*
X496250000Y-195000000D03*
X496250000Y-200000000D03*
X497000000Y-195000000D03*
X497000000Y-195000000D03*
X497000000Y-200000000D03*
X497000000Y-200000000D03*
X497750000Y-195000000D03*
X497750000Y-200000000D03*
X498500000Y-195000000D03*
X498500000Y-200000000D03*
X499250000Y-195000000D03*
X499250000Y-200000000D03*
X500000000Y-195000000D03*
X500000000Y-200000000D03*
X500750000Y-195000000D03*
X500750000Y-200000000D03*
X501500000Y-195000000D03*
X501500000Y-200000000D03*
X502250000Y-195000000D03*
X502250000Y-200000000D03*
X503000000Y-195000000D03*
X503000000Y-200000000D03*
X503750000Y-195000000D03*
X503750000Y-200000000D03*
D14*
X496265000Y-130865000D03*
D16*
X261130000Y-214649968D03*
D17*
X261130000Y-237149968D03*
X251387214Y-220274968D03*
X270872786Y-220274968D03*
D16*
X151079000Y-275457559D03*
D17*
X151079000Y-252957559D03*
X160821786Y-269832559D03*
X141336214Y-269832559D03*
D16*
X305130000Y-214649968D03*
D17*
X305130000Y-237149968D03*
X295387214Y-220274968D03*
X314872786Y-220274968D03*
D16*
X414994998Y-119585559D03*
D17*
X414994998Y-142085559D03*
X405252212Y-125210559D03*
X424737784Y-125210559D03*
D16*
X173130000Y-214649968D03*
D17*
X173130000Y-237149968D03*
X163387214Y-220274968D03*
X182872786Y-220274968D03*
D15*
X146250000Y-200000000D03*
X146250000Y-195000000D03*
X145500000Y-200000000D03*
X145500000Y-200000000D03*
X145500000Y-195000000D03*
X145500000Y-195000000D03*
X144750000Y-200000000D03*
X144750000Y-195000000D03*
X144000000Y-200000000D03*
X144000000Y-195000000D03*
X143250000Y-200000000D03*
X143250000Y-195000000D03*
X142500000Y-200000000D03*
X142500000Y-195000000D03*
X141750000Y-200000000D03*
X141750000Y-195000000D03*
X141000000Y-200000000D03*
X141000000Y-195000000D03*
X140250000Y-200000000D03*
X140250000Y-195000000D03*
X139500000Y-200000000D03*
X139500000Y-195000000D03*
X138750000Y-200000000D03*
X138750000Y-195000000D03*
%LPD*%
M02*
