M48
; DRILL file {KiCad 7.0.7} date Tue Feb 27 11:45:29 2024
; FORMAT={-:-/ absolute / metric / decimal}
; #@! TF.CreationDate,2024-02-27T11:45:29-06:00
; #@! TF.GenerationSoftware,Kicad,Pcbnew,7.0.7
; #@! TF.FileFunction,NonPlated,1,2,NPTH
FMAT,2
METRIC
; #@! TA.AperFunction,NonPlated,NPTH,ComponentDrill
T1C0.500
%
G90
G05
T1
X138.75Y-195.0
X138.75Y-195.0
X138.75Y-200.0
X138.75Y-200.0
X139.5Y-195.0
X139.5Y-195.0
X139.5Y-200.0
X139.5Y-200.0
X140.25Y-195.0
X140.25Y-195.0
X140.25Y-200.0
X140.25Y-200.0
X141.0Y-195.0
X141.0Y-195.0
X141.0Y-200.0
X141.0Y-200.0
X141.75Y-195.0
X141.75Y-195.0
X141.75Y-200.0
X141.75Y-200.0
X142.5Y-195.0
X142.5Y-195.0
X142.5Y-200.0
X142.5Y-200.0
X143.25Y-195.0
X143.25Y-195.0
X143.25Y-200.0
X143.25Y-200.0
X144.0Y-195.0
X144.0Y-195.0
X144.0Y-200.0
X144.0Y-200.0
X144.75Y-195.0
X144.75Y-195.0
X144.75Y-200.0
X144.75Y-200.0
X145.5Y-195.0
X145.5Y-195.0
X145.5Y-195.0
X145.5Y-195.0
X145.5Y-200.0
X145.5Y-200.0
X145.5Y-200.0
X145.5Y-200.0
X146.25Y-195.0
X146.25Y-195.0
X146.25Y-200.0
X146.25Y-200.0
X293.75Y-195.0
X293.75Y-200.0
X294.5Y-195.0
X294.5Y-200.0
X295.25Y-195.0
X295.25Y-200.0
X296.0Y-195.0
X296.0Y-200.0
X296.75Y-195.0
X296.75Y-200.0
X297.5Y-195.0
X297.5Y-200.0
X298.25Y-195.0
X298.25Y-200.0
X299.0Y-195.0
X299.0Y-200.0
X299.75Y-195.0
X299.75Y-200.0
X300.5Y-195.0
X300.5Y-195.0
X300.5Y-200.0
X300.5Y-200.0
X301.25Y-195.0
X301.25Y-200.0
X341.25Y-195.0
X341.25Y-200.0
X342.0Y-195.0
X342.0Y-195.0
X342.0Y-200.0
X342.0Y-200.0
X342.75Y-195.0
X342.75Y-200.0
X343.5Y-195.0
X343.5Y-200.0
X344.25Y-195.0
X344.25Y-200.0
X345.0Y-195.0
X345.0Y-200.0
X345.75Y-195.0
X345.75Y-200.0
X346.5Y-195.0
X346.5Y-200.0
X347.25Y-195.0
X347.25Y-200.0
X348.0Y-195.0
X348.0Y-200.0
X348.75Y-195.0
X348.75Y-200.0
X496.25Y-195.0
X496.25Y-200.0
X497.0Y-195.0
X497.0Y-195.0
X497.0Y-200.0
X497.0Y-200.0
X497.75Y-195.0
X497.75Y-200.0
X498.5Y-195.0
X498.5Y-200.0
X499.25Y-195.0
X499.25Y-200.0
X500.0Y-195.0
X500.0Y-200.0
X500.75Y-195.0
X500.75Y-200.0
X501.5Y-195.0
X501.5Y-200.0
X502.25Y-195.0
X502.25Y-200.0
X503.0Y-195.0
X503.0Y-200.0
X503.75Y-195.0
X503.75Y-200.0
T0
M30
