G04 #@! TF.GenerationSoftware,KiCad,Pcbnew,7.0.7*
G04 #@! TF.CreationDate,2024-02-27T11:45:06-06:00*
G04 #@! TF.ProjectId,CapBankBreakout,43617042-616e-46b4-9272-65616b6f7574,rev?*
G04 #@! TF.SameCoordinates,Original*
G04 #@! TF.FileFunction,Profile,NP*
%FSLAX46Y46*%
G04 Gerber Fmt 4.6, Leading zero omitted, Abs format (unit mm)*
G04 Created by KiCad (PCBNEW 7.0.7) date 2024-02-27 11:45:06*
%MOMM*%
%LPD*%
G01*
G04 APERTURE LIST*
G04 #@! TA.AperFunction,Profile*
%ADD10C,0.100000*%
G04 #@! TD*
G04 APERTURE END LIST*
D10*
X495000000Y-200000000D02*
G75*
G03*
X495000000Y-195000000I0J2500000D01*
G01*
X122286000Y-275190000D02*
G75*
G03*
X122286000Y-275190000I-2286000J0D01*
G01*
X527000000Y-190000000D02*
X527000000Y-110000000D01*
X110000000Y-200000000D02*
X137500000Y-200000000D01*
X340000000Y-200000000D02*
X302500000Y-200000000D01*
X105000000Y-190000000D02*
G75*
G03*
X110000000Y-195000000I5000000J0D01*
G01*
X505000000Y-195000000D02*
G75*
G03*
X505000000Y-200000000I0J-2500000D01*
G01*
X110000000Y-105000000D02*
G75*
G03*
X105000000Y-110000000I0J-5000000D01*
G01*
X350000000Y-195000000D02*
X495000000Y-195000000D01*
X147500000Y-195000000D02*
G75*
G03*
X147500000Y-200000000I0J-2500000D01*
G01*
X122286000Y-180000000D02*
G75*
G03*
X122286000Y-180000000I-2286000J0D01*
G01*
X527000000Y-205000000D02*
X527000000Y-285000000D01*
X340000000Y-200000000D02*
G75*
G03*
X340000000Y-195000000I0J2500000D01*
G01*
X292500000Y-200000000D02*
G75*
G03*
X292500000Y-195000000I0J2500000D01*
G01*
X522000000Y-290000000D02*
X110000000Y-290000000D01*
X105000000Y-285000000D02*
G75*
G03*
X110000000Y-290000000I5000000J0D01*
G01*
X527000000Y-205000000D02*
G75*
G03*
X522000000Y-200000000I-5000000J0D01*
G01*
X505000000Y-200000000D02*
X522000000Y-200000000D01*
X122286000Y-119830000D02*
G75*
G03*
X122286000Y-119830000I-2286000J0D01*
G01*
X147500000Y-195000000D02*
X292500000Y-195000000D01*
X122286000Y-215000000D02*
G75*
G03*
X122286000Y-215000000I-2286000J0D01*
G01*
X302500000Y-195000000D02*
G75*
G03*
X302500000Y-200000000I0J-2500000D01*
G01*
X105000000Y-285000000D02*
X105000000Y-205000000D01*
X495000000Y-200000000D02*
X350000000Y-200000000D01*
X350000000Y-195000000D02*
G75*
G03*
X350000000Y-200000000I0J-2500000D01*
G01*
X137500000Y-200000000D02*
G75*
G03*
X137500000Y-195000000I0J2500000D01*
G01*
X522000000Y-105000000D02*
X110000000Y-105000000D01*
X105000000Y-110000000D02*
X105000000Y-190000000D01*
X522000000Y-290000000D02*
G75*
G03*
X527000000Y-285000000I100J4999900D01*
G01*
X527000000Y-110000000D02*
G75*
G03*
X522000000Y-105000000I-5000000J0D01*
G01*
X302500000Y-195000000D02*
X340000000Y-195000000D01*
X505000000Y-195000000D02*
X522000000Y-195000000D01*
X292500000Y-200000000D02*
X147500000Y-200000000D01*
X522000000Y-195000000D02*
G75*
G03*
X527000000Y-190000000I0J5000000D01*
G01*
X137500000Y-195000000D02*
X110000000Y-195000000D01*
X110000000Y-200000000D02*
G75*
G03*
X105000000Y-205000000I0J-5000000D01*
G01*
M02*
