G04 #@! TF.GenerationSoftware,KiCad,Pcbnew,7.0.2*
G04 #@! TF.CreationDate,2024-02-27T17:42:23-06:00*
G04 #@! TF.ProjectId,CapBankBreakout,43617042-616e-46b4-9272-65616b6f7574,rev?*
G04 #@! TF.SameCoordinates,Original*
G04 #@! TF.FileFunction,Soldermask,Bot*
G04 #@! TF.FilePolarity,Negative*
%FSLAX46Y46*%
G04 Gerber Fmt 4.6, Leading zero omitted, Abs format (unit mm)*
G04 Created by KiCad (PCBNEW 7.0.2) date 2024-02-27 17:42:23*
%MOMM*%
%LPD*%
G01*
G04 APERTURE LIST*
%ADD10R,18.288000X18.288000*%
%ADD11C,0.500000*%
%ADD12R,2.082800X2.082800*%
%ADD13C,2.082800*%
G04 APERTURE END LIST*
D10*
X135585000Y-168965000D03*
D11*
X341250000Y-195000000D03*
X341250000Y-200000000D03*
X342000000Y-195000000D03*
X342000000Y-195000000D03*
X342000000Y-200000000D03*
X342000000Y-200000000D03*
X342750000Y-195000000D03*
X342750000Y-200000000D03*
X343500000Y-195000000D03*
X343500000Y-200000000D03*
X344250000Y-195000000D03*
X344250000Y-200000000D03*
X345000000Y-195000000D03*
X345000000Y-200000000D03*
X345750000Y-195000000D03*
X345750000Y-200000000D03*
X346500000Y-195000000D03*
X346500000Y-200000000D03*
X347250000Y-195000000D03*
X347250000Y-200000000D03*
X348000000Y-195000000D03*
X348000000Y-200000000D03*
X348750000Y-195000000D03*
X348750000Y-200000000D03*
D12*
X216994998Y-180175709D03*
D13*
X216994998Y-157675709D03*
X226737784Y-174550709D03*
X207252212Y-174550709D03*
D12*
X414927000Y-275457559D03*
D13*
X414927000Y-252957559D03*
X424669786Y-269832559D03*
X405184214Y-269832559D03*
D12*
X282927000Y-275457559D03*
D13*
X282927000Y-252957559D03*
X292669786Y-269832559D03*
X273184214Y-269832559D03*
D12*
X349130000Y-214649968D03*
D13*
X349130000Y-237149968D03*
X339387214Y-220274968D03*
X358872786Y-220274968D03*
D12*
X282994998Y-119495409D03*
D13*
X282994998Y-141995409D03*
X273252212Y-125120409D03*
X292737784Y-125120409D03*
D11*
X146250000Y-200000000D03*
X146250000Y-195000000D03*
X145500000Y-200000000D03*
X145500000Y-200000000D03*
X145500000Y-195000000D03*
X145500000Y-195000000D03*
X144750000Y-200000000D03*
X144750000Y-195000000D03*
X144000000Y-200000000D03*
X144000000Y-195000000D03*
X143250000Y-200000000D03*
X143250000Y-195000000D03*
X142500000Y-200000000D03*
X142500000Y-195000000D03*
X141750000Y-200000000D03*
X141750000Y-195000000D03*
X141000000Y-200000000D03*
X141000000Y-195000000D03*
X140250000Y-200000000D03*
X140250000Y-195000000D03*
X139500000Y-200000000D03*
X139500000Y-195000000D03*
X138750000Y-200000000D03*
X138750000Y-195000000D03*
D12*
X437130000Y-214649968D03*
D13*
X437130000Y-237149968D03*
X427387214Y-220274968D03*
X446872786Y-220274968D03*
D12*
X481130000Y-214649968D03*
D13*
X481130000Y-237149968D03*
X471387214Y-220274968D03*
X490872786Y-220274968D03*
D10*
X496160000Y-264027559D03*
D12*
X326898000Y-275457559D03*
D13*
X326898000Y-252957559D03*
X336640786Y-269832559D03*
X317155214Y-269832559D03*
D12*
X172994998Y-180175709D03*
D13*
X172994998Y-157675709D03*
X182737784Y-174550709D03*
X163252212Y-174550709D03*
D12*
X436994998Y-180175709D03*
D13*
X436994998Y-157675709D03*
X446737784Y-174550709D03*
X427252212Y-174550709D03*
D12*
X458994998Y-119585559D03*
D13*
X458994998Y-142085559D03*
X449252212Y-125210559D03*
X468737784Y-125210559D03*
D11*
X301250000Y-200000000D03*
X301250000Y-195000000D03*
X300500000Y-200000000D03*
X300500000Y-200000000D03*
X300500000Y-195000000D03*
X300500000Y-195000000D03*
X299750000Y-200000000D03*
X299750000Y-195000000D03*
X299000000Y-200000000D03*
X299000000Y-195000000D03*
X298250000Y-200000000D03*
X298250000Y-195000000D03*
X297500000Y-200000000D03*
X297500000Y-195000000D03*
X296750000Y-200000000D03*
X296750000Y-195000000D03*
X296000000Y-200000000D03*
X296000000Y-195000000D03*
X295250000Y-200000000D03*
X295250000Y-195000000D03*
X294500000Y-200000000D03*
X294500000Y-195000000D03*
X293750000Y-200000000D03*
X293750000Y-195000000D03*
D12*
X217130000Y-214649968D03*
D13*
X217130000Y-237149968D03*
X207387214Y-220274968D03*
X226872786Y-220274968D03*
D10*
X135480000Y-225927559D03*
D12*
X150994998Y-119495409D03*
D13*
X150994998Y-141995409D03*
X141252212Y-125120409D03*
X160737784Y-125120409D03*
D12*
X326994998Y-119495409D03*
D13*
X326994998Y-141995409D03*
X317252212Y-125120409D03*
X336737784Y-125120409D03*
D12*
X392994998Y-180085559D03*
D13*
X392994998Y-157585559D03*
X402737784Y-174460559D03*
X383252212Y-174460559D03*
D12*
X370994998Y-119585559D03*
D13*
X370994998Y-142085559D03*
X361252212Y-125210559D03*
X380737784Y-125210559D03*
D12*
X238994998Y-119495409D03*
D13*
X238994998Y-141995409D03*
X229252212Y-125120409D03*
X248737784Y-125120409D03*
D12*
X480994998Y-180175709D03*
D13*
X480994998Y-157675709D03*
X490737784Y-174550709D03*
X471252212Y-174550709D03*
D12*
X458927000Y-275457559D03*
D13*
X458927000Y-252957559D03*
X468669786Y-269832559D03*
X449184214Y-269832559D03*
D12*
X304994998Y-180175709D03*
D13*
X304994998Y-157675709D03*
X314737784Y-174550709D03*
X295252212Y-174550709D03*
D12*
X393130000Y-214649968D03*
D13*
X393130000Y-237149968D03*
X383387214Y-220274968D03*
X402872786Y-220274968D03*
D12*
X260994998Y-180175709D03*
D13*
X260994998Y-157675709D03*
X270737784Y-174550709D03*
X251252212Y-174550709D03*
D12*
X370927000Y-275457559D03*
D13*
X370927000Y-252957559D03*
X380669786Y-269832559D03*
X361184214Y-269832559D03*
D12*
X194927000Y-275457559D03*
D13*
X194927000Y-252957559D03*
X204669786Y-269832559D03*
X185184214Y-269832559D03*
D12*
X194994998Y-119495409D03*
D13*
X194994998Y-141995409D03*
X185252212Y-125120409D03*
X204737784Y-125120409D03*
D12*
X238927000Y-275457559D03*
D13*
X238927000Y-252957559D03*
X248669786Y-269832559D03*
X229184214Y-269832559D03*
D12*
X348994998Y-180175709D03*
D13*
X348994998Y-157675709D03*
X358737784Y-174550709D03*
X339252212Y-174550709D03*
D11*
X496250000Y-195000000D03*
X496250000Y-200000000D03*
X497000000Y-195000000D03*
X497000000Y-195000000D03*
X497000000Y-200000000D03*
X497000000Y-200000000D03*
X497750000Y-195000000D03*
X497750000Y-200000000D03*
X498500000Y-195000000D03*
X498500000Y-200000000D03*
X499250000Y-195000000D03*
X499250000Y-200000000D03*
X500000000Y-195000000D03*
X500000000Y-200000000D03*
X500750000Y-195000000D03*
X500750000Y-200000000D03*
X501500000Y-195000000D03*
X501500000Y-200000000D03*
X502250000Y-195000000D03*
X502250000Y-200000000D03*
X503000000Y-195000000D03*
X503000000Y-200000000D03*
X503750000Y-195000000D03*
X503750000Y-200000000D03*
D10*
X496265000Y-130865000D03*
D12*
X261130000Y-214649968D03*
D13*
X261130000Y-237149968D03*
X251387214Y-220274968D03*
X270872786Y-220274968D03*
D12*
X151079000Y-275457559D03*
D13*
X151079000Y-252957559D03*
X160821786Y-269832559D03*
X141336214Y-269832559D03*
D12*
X305130000Y-214649968D03*
D13*
X305130000Y-237149968D03*
X295387214Y-220274968D03*
X314872786Y-220274968D03*
D12*
X414994998Y-119585559D03*
D13*
X414994998Y-142085559D03*
X405252212Y-125210559D03*
X424737784Y-125210559D03*
D12*
X173130000Y-214649968D03*
D13*
X173130000Y-237149968D03*
X163387214Y-220274968D03*
X182872786Y-220274968D03*
D11*
X146250000Y-200000000D03*
X146250000Y-195000000D03*
X145500000Y-200000000D03*
X145500000Y-200000000D03*
X145500000Y-195000000D03*
X145500000Y-195000000D03*
X144750000Y-200000000D03*
X144750000Y-195000000D03*
X144000000Y-200000000D03*
X144000000Y-195000000D03*
X143250000Y-200000000D03*
X143250000Y-195000000D03*
X142500000Y-200000000D03*
X142500000Y-195000000D03*
X141750000Y-200000000D03*
X141750000Y-195000000D03*
X141000000Y-200000000D03*
X141000000Y-195000000D03*
X140250000Y-200000000D03*
X140250000Y-195000000D03*
X139500000Y-200000000D03*
X139500000Y-195000000D03*
X138750000Y-200000000D03*
X138750000Y-195000000D03*
M02*
