M48
; DRILL file {KiCad 7.0.2} date Tue Feb 27 17:42:20 2024
; FORMAT={-:-/ absolute / inch / decimal}
; #@! TF.CreationDate,2024-02-27T17:42:20-06:00
; #@! TF.GenerationSoftware,Kicad,Pcbnew,7.0.2
; #@! TF.FileFunction,Plated,1,2,PTH
FMAT,2
INCH
; #@! TA.AperFunction,Plated,PTH,ComponentDrill
T1C0.0620
; #@! TA.AperFunction,Plated,PTH,ComponentDrill
T2C0.3600
%
G90
G05
T1
X5.5611Y-4.926
X5.5644Y-10.6233
X5.9447Y-4.7045
X5.9447Y-5.5904
X5.948Y-9.959
X5.948Y-10.8448
X6.3283Y-4.926
X6.3316Y-10.6233
X6.4273Y-6.8721
X6.4326Y-8.6722
X6.8108Y-6.2077
X6.8108Y-7.0935
X6.8161Y-8.4508
X6.8161Y-9.3366
X7.1944Y-6.8721
X7.1997Y-8.6722
X7.2907Y-10.6233
X7.2934Y-4.926
X7.6743Y-9.959
X7.6743Y-10.8448
X7.677Y-4.7045
X7.677Y-5.5904
X8.0579Y-10.6233
X8.0605Y-4.926
X8.1595Y-6.8721
X8.1649Y-8.6722
X8.5431Y-6.2077
X8.5431Y-7.0935
X8.5484Y-8.4508
X8.5484Y-9.3366
X8.9267Y-6.8721
X8.932Y-8.6722
X9.023Y-10.6233
X9.0257Y-4.926
X9.4066Y-9.959
X9.4066Y-10.8448
X9.4093Y-4.7045
X9.4093Y-5.5904
X9.7901Y-10.6233
X9.7928Y-4.926
X9.8918Y-6.8721
X9.8971Y-8.6722
X10.2754Y-6.2077
X10.2754Y-7.0935
X10.2807Y-8.4508
X10.2807Y-9.3366
X10.659Y-6.8721
X10.6643Y-8.6722
X10.7553Y-10.6233
X10.758Y-4.926
X11.1389Y-9.959
X11.1389Y-10.8448
X11.1415Y-4.7045
X11.1415Y-5.5904
X11.5224Y-10.6233
X11.5251Y-4.926
X11.6241Y-6.8721
X11.6294Y-8.6722
X12.0077Y-6.2077
X12.0077Y-7.0935
X12.013Y-8.4508
X12.013Y-9.3366
X12.3913Y-6.8721
X12.3966Y-8.6722
X12.4864Y-10.6233
X12.4902Y-4.926
X12.87Y-9.959
X12.87Y-10.8448
X12.8738Y-4.7045
X12.8738Y-5.5904
X13.2536Y-10.6233
X13.2574Y-4.926
X13.3564Y-6.8721
X13.3617Y-8.6722
X13.74Y-6.2077
X13.74Y-7.0935
X13.7453Y-8.4508
X13.7453Y-9.3366
X14.1235Y-6.8721
X14.1288Y-8.6722
X14.2199Y-10.6233
X14.2225Y-4.9295
X14.6034Y-9.959
X14.6034Y-10.8448
X14.6061Y-4.7081
X14.6061Y-5.5939
X14.987Y-10.6233
X14.9897Y-4.9295
X15.0887Y-6.8685
X15.094Y-8.6722
X15.4722Y-6.2042
X15.4722Y-7.09
X15.4776Y-8.4508
X15.4776Y-9.3366
X15.8558Y-6.8685
X15.8611Y-8.6722
X15.9521Y-10.6233
X15.9548Y-4.9295
X16.3357Y-9.959
X16.3357Y-10.8448
X16.3384Y-4.7081
X16.3384Y-5.5939
X16.7193Y-10.6233
X16.722Y-4.9295
X16.821Y-6.8721
X16.8263Y-8.6722
X17.2045Y-6.2077
X17.2045Y-7.0935
X17.2098Y-8.4508
X17.2098Y-9.3366
X17.5881Y-6.8721
X17.5934Y-8.6722
X17.6844Y-10.6233
X17.6871Y-4.9295
X18.068Y-9.959
X18.068Y-10.8448
X18.0707Y-4.7081
X18.0707Y-5.5939
X18.4516Y-10.6233
X18.4542Y-4.9295
X18.5532Y-6.8721
X18.5586Y-8.6722
X18.9368Y-6.2077
X18.9368Y-7.0935
X18.9421Y-8.4508
X18.9421Y-9.3366
X19.3204Y-6.8721
X19.3257Y-8.6722
T2
X5.3339Y-8.8948
X5.338Y-6.6522
X19.5339Y-10.3948
X19.538Y-5.1522
T0
M30
