M48
; DRILL file {KiCad 7.0.2} date Tue Feb 27 17:42:20 2024
; FORMAT={-:-/ absolute / inch / decimal}
; #@! TF.CreationDate,2024-02-27T17:42:20-06:00
; #@! TF.GenerationSoftware,Kicad,Pcbnew,7.0.2
; #@! TF.FileFunction,NonPlated,1,2,NPTH
FMAT,2
INCH
; #@! TA.AperFunction,NonPlated,NPTH,ComponentDrill
T1C0.0197
%
G90
G05
T1
X5.4626Y-7.6772
X5.4626Y-7.6772
X5.4626Y-7.874
X5.4626Y-7.874
X5.4921Y-7.6772
X5.4921Y-7.6772
X5.4921Y-7.874
X5.4921Y-7.874
X5.5217Y-7.6772
X5.5217Y-7.6772
X5.5217Y-7.874
X5.5217Y-7.874
X5.5512Y-7.6772
X5.5512Y-7.6772
X5.5512Y-7.874
X5.5512Y-7.874
X5.5807Y-7.6772
X5.5807Y-7.6772
X5.5807Y-7.874
X5.5807Y-7.874
X5.6102Y-7.6772
X5.6102Y-7.6772
X5.6102Y-7.874
X5.6102Y-7.874
X5.6398Y-7.6772
X5.6398Y-7.6772
X5.6398Y-7.874
X5.6398Y-7.874
X5.6693Y-7.6772
X5.6693Y-7.6772
X5.6693Y-7.874
X5.6693Y-7.874
X5.6988Y-7.6772
X5.6988Y-7.6772
X5.6988Y-7.874
X5.6988Y-7.874
X5.7283Y-7.6772
X5.7283Y-7.6772
X5.7283Y-7.6772
X5.7283Y-7.6772
X5.7283Y-7.874
X5.7283Y-7.874
X5.7283Y-7.874
X5.7283Y-7.874
X5.7579Y-7.6772
X5.7579Y-7.6772
X5.7579Y-7.874
X5.7579Y-7.874
X11.565Y-7.6772
X11.565Y-7.874
X11.5945Y-7.6772
X11.5945Y-7.874
X11.624Y-7.6772
X11.624Y-7.874
X11.6535Y-7.6772
X11.6535Y-7.874
X11.6831Y-7.6772
X11.6831Y-7.874
X11.7126Y-7.6772
X11.7126Y-7.874
X11.7421Y-7.6772
X11.7421Y-7.874
X11.7717Y-7.6772
X11.7717Y-7.874
X11.8012Y-7.6772
X11.8012Y-7.874
X11.8307Y-7.6772
X11.8307Y-7.6772
X11.8307Y-7.874
X11.8307Y-7.874
X11.8602Y-7.6772
X11.8602Y-7.874
X13.435Y-7.6772
X13.435Y-7.874
X13.4646Y-7.6772
X13.4646Y-7.6772
X13.4646Y-7.874
X13.4646Y-7.874
X13.4941Y-7.6772
X13.4941Y-7.874
X13.5236Y-7.6772
X13.5236Y-7.874
X13.5531Y-7.6772
X13.5531Y-7.874
X13.5827Y-7.6772
X13.5827Y-7.874
X13.6122Y-7.6772
X13.6122Y-7.874
X13.6417Y-7.6772
X13.6417Y-7.874
X13.6713Y-7.6772
X13.6713Y-7.874
X13.7008Y-7.6772
X13.7008Y-7.874
X13.7303Y-7.6772
X13.7303Y-7.874
X19.5374Y-7.6772
X19.5374Y-7.874
X19.5669Y-7.6772
X19.5669Y-7.6772
X19.5669Y-7.874
X19.5669Y-7.874
X19.5965Y-7.6772
X19.5965Y-7.874
X19.626Y-7.6772
X19.626Y-7.874
X19.6555Y-7.6772
X19.6555Y-7.874
X19.685Y-7.6772
X19.685Y-7.874
X19.7146Y-7.6772
X19.7146Y-7.874
X19.7441Y-7.6772
X19.7441Y-7.874
X19.7736Y-7.6772
X19.7736Y-7.874
X19.8031Y-7.6772
X19.8031Y-7.874
X19.8327Y-7.6772
X19.8327Y-7.874
T0
M30
