G04 #@! TF.GenerationSoftware,KiCad,Pcbnew,7.0.2*
G04 #@! TF.CreationDate,2024-02-27T13:18:42-06:00*
G04 #@! TF.ProjectId,CapBankBreakout,43617042-616e-46b4-9272-65616b6f7574,rev?*
G04 #@! TF.SameCoordinates,Original*
G04 #@! TF.FileFunction,Soldermask,Bot*
G04 #@! TF.FilePolarity,Negative*
%FSLAX46Y46*%
G04 Gerber Fmt 4.6, Leading zero omitted, Abs format (unit mm)*
G04 Created by KiCad (PCBNEW 7.0.2) date 2024-02-27 13:18:42*
%MOMM*%
%LPD*%
G01*
G04 APERTURE LIST*
%ADD10R,18.288000X18.288000*%
%ADD11R,2.082800X2.082800*%
%ADD12C,2.082800*%
G04 APERTURE END LIST*
D10*
X135585000Y-168965000D03*
D11*
X216994998Y-180175709D03*
D12*
X216994998Y-157675709D03*
X226737784Y-174550709D03*
X207252212Y-174550709D03*
D11*
X282994998Y-119495409D03*
D12*
X282994998Y-141995409D03*
X273252212Y-125120409D03*
X292737784Y-125120409D03*
D11*
X172994998Y-180175709D03*
D12*
X172994998Y-157675709D03*
X182737784Y-174550709D03*
X163252212Y-174550709D03*
D11*
X436994998Y-180175709D03*
D12*
X436994998Y-157675709D03*
X446737784Y-174550709D03*
X427252212Y-174550709D03*
D11*
X458994998Y-119585559D03*
D12*
X458994998Y-142085559D03*
X449252212Y-125210559D03*
X468737784Y-125210559D03*
D11*
X150994998Y-119495409D03*
D12*
X150994998Y-141995409D03*
X141252212Y-125120409D03*
X160737784Y-125120409D03*
D11*
X326994998Y-119495409D03*
D12*
X326994998Y-141995409D03*
X317252212Y-125120409D03*
X336737784Y-125120409D03*
D11*
X392994998Y-180085559D03*
D12*
X392994998Y-157585559D03*
X402737784Y-174460559D03*
X383252212Y-174460559D03*
D11*
X370994998Y-119585559D03*
D12*
X370994998Y-142085559D03*
X361252212Y-125210559D03*
X380737784Y-125210559D03*
D11*
X238994998Y-119495409D03*
D12*
X238994998Y-141995409D03*
X229252212Y-125120409D03*
X248737784Y-125120409D03*
D11*
X480994998Y-180175709D03*
D12*
X480994998Y-157675709D03*
X490737784Y-174550709D03*
X471252212Y-174550709D03*
D11*
X304994998Y-180175709D03*
D12*
X304994998Y-157675709D03*
X314737784Y-174550709D03*
X295252212Y-174550709D03*
D11*
X260994998Y-180175709D03*
D12*
X260994998Y-157675709D03*
X270737784Y-174550709D03*
X251252212Y-174550709D03*
D11*
X194994998Y-119495409D03*
D12*
X194994998Y-141995409D03*
X185252212Y-125120409D03*
X204737784Y-125120409D03*
D11*
X348994998Y-180175709D03*
D12*
X348994998Y-157675709D03*
X358737784Y-174550709D03*
X339252212Y-174550709D03*
D10*
X496265000Y-130865000D03*
D11*
X414994998Y-119585559D03*
D12*
X414994998Y-142085559D03*
X405252212Y-125210559D03*
X424737784Y-125210559D03*
M02*
