M48
; DRILL file {KiCad 7.0.2} date Tue Feb 27 13:18:41 2024
; FORMAT={-:-/ absolute / inch / decimal}
; #@! TF.CreationDate,2024-02-27T13:18:41-06:00
; #@! TF.GenerationSoftware,Kicad,Pcbnew,7.0.2
; #@! TF.FileFunction,Plated,1,2,PTH
FMAT,2
INCH
; #@! TA.AperFunction,Plated,PTH,ComponentDrill
T1C0.0620
; #@! TA.AperFunction,Plated,PTH,ComponentDrill
T2C0.3600
%
G90
G05
T1
X5.5611Y-4.926
X5.9447Y-4.7045
X5.9447Y-5.5904
X6.3283Y-4.926
X6.4273Y-6.8721
X6.8108Y-6.2077
X6.8108Y-7.0935
X7.1944Y-6.8721
X7.2934Y-4.926
X7.677Y-4.7045
X7.677Y-5.5904
X8.0605Y-4.926
X8.1595Y-6.8721
X8.5431Y-6.2077
X8.5431Y-7.0935
X8.9267Y-6.8721
X9.0257Y-4.926
X9.4093Y-4.7045
X9.4093Y-5.5904
X9.7928Y-4.926
X9.8918Y-6.8721
X10.2754Y-6.2077
X10.2754Y-7.0935
X10.659Y-6.8721
X10.758Y-4.926
X11.1415Y-4.7045
X11.1415Y-5.5904
X11.5251Y-4.926
X11.6241Y-6.8721
X12.0077Y-6.2077
X12.0077Y-7.0935
X12.3913Y-6.8721
X12.4902Y-4.926
X12.8738Y-4.7045
X12.8738Y-5.5904
X13.2574Y-4.926
X13.3564Y-6.8721
X13.74Y-6.2077
X13.74Y-7.0935
X14.1235Y-6.8721
X14.2225Y-4.9295
X14.6061Y-4.7081
X14.6061Y-5.5939
X14.9897Y-4.9295
X15.0887Y-6.8685
X15.4722Y-6.2042
X15.4722Y-7.09
X15.8558Y-6.8685
X15.9548Y-4.9295
X16.3384Y-4.7081
X16.3384Y-5.5939
X16.722Y-4.9295
X16.821Y-6.8721
X17.2045Y-6.2077
X17.2045Y-7.0935
X17.5881Y-6.8721
X17.6871Y-4.9295
X18.0707Y-4.7081
X18.0707Y-5.5939
X18.4542Y-4.9295
X18.5532Y-6.8721
X18.9368Y-6.2077
X18.9368Y-7.0935
X19.3204Y-6.8721
T2
X5.338Y-6.6522
X19.538Y-5.1522
T0
M30
