G04 #@! TF.GenerationSoftware,KiCad,Pcbnew,7.0.2*
G04 #@! TF.CreationDate,2024-02-27T13:18:42-06:00*
G04 #@! TF.ProjectId,CapBankBreakout,43617042-616e-46b4-9272-65616b6f7574,rev?*
G04 #@! TF.SameCoordinates,Original*
G04 #@! TF.FileFunction,Legend,Bot*
G04 #@! TF.FilePolarity,Positive*
%FSLAX46Y46*%
G04 Gerber Fmt 4.6, Leading zero omitted, Abs format (unit mm)*
G04 Created by KiCad (PCBNEW 7.0.2) date 2024-02-27 13:18:42*
%MOMM*%
%LPD*%
G01*
G04 APERTURE LIST*
%ADD10C,1.016000*%
%ADD11C,1.000000*%
%ADD12C,0.100000*%
%ADD13C,1.270000*%
%ADD14C,0.381000*%
%ADD15R,18.288000X18.288000*%
%ADD16R,2.082800X2.082800*%
%ADD17C,2.082800*%
G04 APERTURE END LIST*
D10*
X499370476Y-115438643D02*
X498015809Y-119502643D01*
X498015809Y-119502643D02*
X496661143Y-115438643D01*
X495306475Y-117954453D02*
X492210095Y-117954453D01*
X493758285Y-119502643D02*
X493758285Y-116406262D01*
X139370476Y-152938643D02*
X138015809Y-157002643D01*
X138015809Y-157002643D02*
X136661143Y-152938643D01*
X135306475Y-155454453D02*
X132210095Y-155454453D01*
D11*
X515149523Y-135523810D02*
X515340000Y-135333334D01*
X515340000Y-135333334D02*
X515530476Y-134761905D01*
X515530476Y-134761905D02*
X515530476Y-134380953D01*
X515530476Y-134380953D02*
X515340000Y-133809524D01*
X515340000Y-133809524D02*
X514959047Y-133428572D01*
X514959047Y-133428572D02*
X514578095Y-133238095D01*
X514578095Y-133238095D02*
X513816190Y-133047619D01*
X513816190Y-133047619D02*
X513244761Y-133047619D01*
X513244761Y-133047619D02*
X512482857Y-133238095D01*
X512482857Y-133238095D02*
X512101904Y-133428572D01*
X512101904Y-133428572D02*
X511720952Y-133809524D01*
X511720952Y-133809524D02*
X511530476Y-134380953D01*
X511530476Y-134380953D02*
X511530476Y-134761905D01*
X511530476Y-134761905D02*
X511720952Y-135333334D01*
X511720952Y-135333334D02*
X511911428Y-135523810D01*
X514387619Y-137047619D02*
X514387619Y-138952381D01*
X515530476Y-136666667D02*
X511530476Y-138000000D01*
X511530476Y-138000000D02*
X515530476Y-139333334D01*
X515530476Y-140666666D02*
X511530476Y-140666666D01*
X511530476Y-140666666D02*
X511530476Y-142190476D01*
X511530476Y-142190476D02*
X511720952Y-142571428D01*
X511720952Y-142571428D02*
X511911428Y-142761905D01*
X511911428Y-142761905D02*
X512292380Y-142952381D01*
X512292380Y-142952381D02*
X512863809Y-142952381D01*
X512863809Y-142952381D02*
X513244761Y-142761905D01*
X513244761Y-142761905D02*
X513435238Y-142571428D01*
X513435238Y-142571428D02*
X513625714Y-142190476D01*
X513625714Y-142190476D02*
X513625714Y-140666666D01*
X514387619Y-144476190D02*
X514387619Y-146380952D01*
X515530476Y-144095238D02*
X511530476Y-145428571D01*
X511530476Y-145428571D02*
X515530476Y-146761905D01*
X515149523Y-150380952D02*
X515340000Y-150190476D01*
X515340000Y-150190476D02*
X515530476Y-149619047D01*
X515530476Y-149619047D02*
X515530476Y-149238095D01*
X515530476Y-149238095D02*
X515340000Y-148666666D01*
X515340000Y-148666666D02*
X514959047Y-148285714D01*
X514959047Y-148285714D02*
X514578095Y-148095237D01*
X514578095Y-148095237D02*
X513816190Y-147904761D01*
X513816190Y-147904761D02*
X513244761Y-147904761D01*
X513244761Y-147904761D02*
X512482857Y-148095237D01*
X512482857Y-148095237D02*
X512101904Y-148285714D01*
X512101904Y-148285714D02*
X511720952Y-148666666D01*
X511720952Y-148666666D02*
X511530476Y-149238095D01*
X511530476Y-149238095D02*
X511530476Y-149619047D01*
X511530476Y-149619047D02*
X511720952Y-150190476D01*
X511720952Y-150190476D02*
X511911428Y-150380952D01*
X515530476Y-152095237D02*
X511530476Y-152095237D01*
X511530476Y-153428571D02*
X511530476Y-155714285D01*
X515530476Y-154571428D02*
X511530476Y-154571428D01*
X511530476Y-157809523D02*
X511530476Y-158571428D01*
X511530476Y-158571428D02*
X511720952Y-158952380D01*
X511720952Y-158952380D02*
X512101904Y-159333333D01*
X512101904Y-159333333D02*
X512863809Y-159523809D01*
X512863809Y-159523809D02*
X514197142Y-159523809D01*
X514197142Y-159523809D02*
X514959047Y-159333333D01*
X514959047Y-159333333D02*
X515340000Y-158952380D01*
X515340000Y-158952380D02*
X515530476Y-158571428D01*
X515530476Y-158571428D02*
X515530476Y-157809523D01*
X515530476Y-157809523D02*
X515340000Y-157428571D01*
X515340000Y-157428571D02*
X514959047Y-157047618D01*
X514959047Y-157047618D02*
X514197142Y-156857142D01*
X514197142Y-156857142D02*
X512863809Y-156857142D01*
X512863809Y-156857142D02*
X512101904Y-157047618D01*
X512101904Y-157047618D02*
X511720952Y-157428571D01*
X511720952Y-157428571D02*
X511530476Y-157809523D01*
X515530476Y-163523809D02*
X513625714Y-162190475D01*
X515530476Y-161238094D02*
X511530476Y-161238094D01*
X511530476Y-161238094D02*
X511530476Y-162761904D01*
X511530476Y-162761904D02*
X511720952Y-163142856D01*
X511720952Y-163142856D02*
X511911428Y-163333333D01*
X511911428Y-163333333D02*
X512292380Y-163523809D01*
X512292380Y-163523809D02*
X512863809Y-163523809D01*
X512863809Y-163523809D02*
X513244761Y-163333333D01*
X513244761Y-163333333D02*
X513435238Y-163142856D01*
X513435238Y-163142856D02*
X513625714Y-162761904D01*
X513625714Y-162761904D02*
X513625714Y-161238094D01*
X515149523Y-165809523D02*
X515340000Y-165999999D01*
X515340000Y-165999999D02*
X515530476Y-165809523D01*
X515530476Y-165809523D02*
X515340000Y-165619047D01*
X515340000Y-165619047D02*
X515149523Y-165809523D01*
X515149523Y-165809523D02*
X515530476Y-165809523D01*
X511720952Y-165047618D02*
X511530476Y-165428571D01*
X511530476Y-165428571D02*
X511530476Y-166380952D01*
X511530476Y-166380952D02*
X511720952Y-166761904D01*
X511720952Y-166761904D02*
X512101904Y-166952380D01*
X512101904Y-166952380D02*
X512482857Y-166952380D01*
X512482857Y-166952380D02*
X512863809Y-166761904D01*
X512863809Y-166761904D02*
X513054285Y-166571428D01*
X513054285Y-166571428D02*
X513244761Y-166190475D01*
X513244761Y-166190475D02*
X513435238Y-165999999D01*
X513435238Y-165999999D02*
X513816190Y-165809523D01*
X513816190Y-165809523D02*
X514006666Y-165809523D01*
X522010476Y-118952381D02*
X518010476Y-118952381D01*
X522010476Y-123904762D02*
X518010476Y-123904762D01*
X519915238Y-123904762D02*
X519915238Y-126190477D01*
X522010476Y-126190477D02*
X518010476Y-126190477D01*
X520867619Y-127904762D02*
X520867619Y-129809524D01*
X522010476Y-127523810D02*
X518010476Y-128857143D01*
X518010476Y-128857143D02*
X522010476Y-130190477D01*
X522010476Y-133809524D02*
X520105714Y-132476190D01*
X522010476Y-131523809D02*
X518010476Y-131523809D01*
X518010476Y-131523809D02*
X518010476Y-133047619D01*
X518010476Y-133047619D02*
X518200952Y-133428571D01*
X518200952Y-133428571D02*
X518391428Y-133619048D01*
X518391428Y-133619048D02*
X518772380Y-133809524D01*
X518772380Y-133809524D02*
X519343809Y-133809524D01*
X519343809Y-133809524D02*
X519724761Y-133619048D01*
X519724761Y-133619048D02*
X519915238Y-133428571D01*
X519915238Y-133428571D02*
X520105714Y-133047619D01*
X520105714Y-133047619D02*
X520105714Y-131523809D01*
X522010476Y-135523809D02*
X518010476Y-135523809D01*
X518010476Y-135523809D02*
X518010476Y-136476190D01*
X518010476Y-136476190D02*
X518200952Y-137047619D01*
X518200952Y-137047619D02*
X518581904Y-137428571D01*
X518581904Y-137428571D02*
X518962857Y-137619048D01*
X518962857Y-137619048D02*
X519724761Y-137809524D01*
X519724761Y-137809524D02*
X520296190Y-137809524D01*
X520296190Y-137809524D02*
X521058095Y-137619048D01*
X521058095Y-137619048D02*
X521439047Y-137428571D01*
X521439047Y-137428571D02*
X521820000Y-137047619D01*
X521820000Y-137047619D02*
X522010476Y-136476190D01*
X522010476Y-136476190D02*
X522010476Y-135523809D01*
X522010476Y-141428571D02*
X522010476Y-139523809D01*
X522010476Y-139523809D02*
X518010476Y-139523809D01*
X520105714Y-143523809D02*
X522010476Y-143523809D01*
X518010476Y-142190476D02*
X520105714Y-143523809D01*
X520105714Y-143523809D02*
X518010476Y-144857143D01*
X522010476Y-149238094D02*
X518010476Y-149238094D01*
X522010476Y-151523809D02*
X519724761Y-149809523D01*
X518010476Y-151523809D02*
X520296190Y-149238094D01*
X522010476Y-153238094D02*
X518010476Y-153238094D01*
X518010476Y-153238094D02*
X522010476Y-155523809D01*
X522010476Y-155523809D02*
X518010476Y-155523809D01*
X518010476Y-158190475D02*
X518010476Y-158952380D01*
X518010476Y-158952380D02*
X518200952Y-159333332D01*
X518200952Y-159333332D02*
X518581904Y-159714285D01*
X518581904Y-159714285D02*
X519343809Y-159904761D01*
X519343809Y-159904761D02*
X520677142Y-159904761D01*
X520677142Y-159904761D02*
X521439047Y-159714285D01*
X521439047Y-159714285D02*
X521820000Y-159333332D01*
X521820000Y-159333332D02*
X522010476Y-158952380D01*
X522010476Y-158952380D02*
X522010476Y-158190475D01*
X522010476Y-158190475D02*
X521820000Y-157809523D01*
X521820000Y-157809523D02*
X521439047Y-157428570D01*
X521439047Y-157428570D02*
X520677142Y-157238094D01*
X520677142Y-157238094D02*
X519343809Y-157238094D01*
X519343809Y-157238094D02*
X518581904Y-157428570D01*
X518581904Y-157428570D02*
X518200952Y-157809523D01*
X518200952Y-157809523D02*
X518010476Y-158190475D01*
X518010476Y-161238094D02*
X522010476Y-162190475D01*
X522010476Y-162190475D02*
X519153333Y-162952380D01*
X519153333Y-162952380D02*
X522010476Y-163714285D01*
X522010476Y-163714285D02*
X518010476Y-164666666D01*
X522010476Y-169238094D02*
X518010476Y-169238094D01*
X519915238Y-169238094D02*
X519915238Y-171523809D01*
X522010476Y-171523809D02*
X518010476Y-171523809D01*
X519915238Y-173428570D02*
X519915238Y-174761904D01*
X522010476Y-175333332D02*
X522010476Y-173428570D01*
X522010476Y-173428570D02*
X518010476Y-173428570D01*
X518010476Y-173428570D02*
X518010476Y-175333332D01*
X522010476Y-179333333D02*
X520105714Y-177999999D01*
X522010476Y-177047618D02*
X518010476Y-177047618D01*
X518010476Y-177047618D02*
X518010476Y-178571428D01*
X518010476Y-178571428D02*
X518200952Y-178952380D01*
X518200952Y-178952380D02*
X518391428Y-179142857D01*
X518391428Y-179142857D02*
X518772380Y-179333333D01*
X518772380Y-179333333D02*
X519343809Y-179333333D01*
X519343809Y-179333333D02*
X519724761Y-179142857D01*
X519724761Y-179142857D02*
X519915238Y-178952380D01*
X519915238Y-178952380D02*
X520105714Y-178571428D01*
X520105714Y-178571428D02*
X520105714Y-177047618D01*
X521629523Y-181047618D02*
X521820000Y-181238095D01*
X521820000Y-181238095D02*
X522010476Y-181047618D01*
X522010476Y-181047618D02*
X521820000Y-180857142D01*
X521820000Y-180857142D02*
X521629523Y-181047618D01*
X521629523Y-181047618D02*
X522010476Y-181047618D01*
X520486666Y-181047618D02*
X518200952Y-180857142D01*
X518200952Y-180857142D02*
X518010476Y-181047618D01*
X518010476Y-181047618D02*
X518200952Y-181238095D01*
X518200952Y-181238095D02*
X520486666Y-181047618D01*
X520486666Y-181047618D02*
X518010476Y-181047618D01*
D12*
X508677619Y-148666666D02*
X508201428Y-148333333D01*
X508677619Y-148095238D02*
X507677619Y-148095238D01*
X507677619Y-148095238D02*
X507677619Y-148476190D01*
X507677619Y-148476190D02*
X507725238Y-148571428D01*
X507725238Y-148571428D02*
X507772857Y-148619047D01*
X507772857Y-148619047D02*
X507868095Y-148666666D01*
X507868095Y-148666666D02*
X508010952Y-148666666D01*
X508010952Y-148666666D02*
X508106190Y-148619047D01*
X508106190Y-148619047D02*
X508153809Y-148571428D01*
X508153809Y-148571428D02*
X508201428Y-148476190D01*
X508201428Y-148476190D02*
X508201428Y-148095238D01*
X508153809Y-149095238D02*
X508153809Y-149428571D01*
X508677619Y-149571428D02*
X508677619Y-149095238D01*
X508677619Y-149095238D02*
X507677619Y-149095238D01*
X507677619Y-149095238D02*
X507677619Y-149571428D01*
X508153809Y-150333333D02*
X508153809Y-150000000D01*
X508677619Y-150000000D02*
X507677619Y-150000000D01*
X507677619Y-150000000D02*
X507677619Y-150476190D01*
X507677619Y-151000000D02*
X507915714Y-151000000D01*
X507820476Y-150761905D02*
X507915714Y-151000000D01*
X507915714Y-151000000D02*
X507820476Y-151238095D01*
X508106190Y-150857143D02*
X507915714Y-151000000D01*
X507915714Y-151000000D02*
X508106190Y-151142857D01*
X507677619Y-151761905D02*
X507915714Y-151761905D01*
X507820476Y-151523810D02*
X507915714Y-151761905D01*
X507915714Y-151761905D02*
X507820476Y-152000000D01*
X508106190Y-151619048D02*
X507915714Y-151761905D01*
X507915714Y-151761905D02*
X508106190Y-151904762D01*
X136833333Y-192177619D02*
X137166666Y-191701428D01*
X137404761Y-192177619D02*
X137404761Y-191177619D01*
X137404761Y-191177619D02*
X137023809Y-191177619D01*
X137023809Y-191177619D02*
X136928571Y-191225238D01*
X136928571Y-191225238D02*
X136880952Y-191272857D01*
X136880952Y-191272857D02*
X136833333Y-191368095D01*
X136833333Y-191368095D02*
X136833333Y-191510952D01*
X136833333Y-191510952D02*
X136880952Y-191606190D01*
X136880952Y-191606190D02*
X136928571Y-191653809D01*
X136928571Y-191653809D02*
X137023809Y-191701428D01*
X137023809Y-191701428D02*
X137404761Y-191701428D01*
X136404761Y-191653809D02*
X136071428Y-191653809D01*
X135928571Y-192177619D02*
X136404761Y-192177619D01*
X136404761Y-192177619D02*
X136404761Y-191177619D01*
X136404761Y-191177619D02*
X135928571Y-191177619D01*
X135166666Y-191653809D02*
X135499999Y-191653809D01*
X135499999Y-192177619D02*
X135499999Y-191177619D01*
X135499999Y-191177619D02*
X135023809Y-191177619D01*
X134499999Y-191177619D02*
X134499999Y-191415714D01*
X134738094Y-191320476D02*
X134499999Y-191415714D01*
X134499999Y-191415714D02*
X134261904Y-191320476D01*
X134642856Y-191606190D02*
X134499999Y-191415714D01*
X134499999Y-191415714D02*
X134357142Y-191606190D01*
X133738094Y-191177619D02*
X133738094Y-191415714D01*
X133976189Y-191320476D02*
X133738094Y-191415714D01*
X133738094Y-191415714D02*
X133499999Y-191320476D01*
X133880951Y-191606190D02*
X133738094Y-191415714D01*
X133738094Y-191415714D02*
X133595237Y-191606190D01*
D13*
X508215000Y-141110000D02*
X496785000Y-150000000D01*
D14*
X506310000Y-148603000D02*
X505675000Y-149365000D01*
X503516000Y-148603000D02*
X503516000Y-150000000D01*
X505294000Y-148730000D02*
X506310000Y-148603000D01*
X505929000Y-148857000D02*
X503135000Y-150635000D01*
X505802000Y-148857000D02*
X505294000Y-148730000D01*
X503389000Y-148984000D02*
X503389000Y-150254000D01*
X505675000Y-149365000D02*
X505929000Y-148857000D01*
X503135000Y-149365000D02*
X501103000Y-151143000D01*
X503516000Y-150000000D02*
X505802000Y-148857000D01*
D13*
X496785000Y-150000000D02*
X508215000Y-158890000D01*
D14*
X501230000Y-150127000D02*
X503516000Y-148603000D01*
X501611000Y-150381000D02*
X501103000Y-150254000D01*
X501484000Y-150381000D02*
X503389000Y-148984000D01*
X503135000Y-150635000D02*
X503135000Y-149365000D01*
X501103000Y-151143000D02*
X501611000Y-150381000D01*
D13*
X508215000Y-158890000D02*
X508215000Y-141110000D01*
X144390000Y-191715000D02*
X135500000Y-180285000D01*
D14*
X136897000Y-189810000D02*
X136135000Y-189175000D01*
X136897000Y-187016000D02*
X135500000Y-187016000D01*
X136770000Y-188794000D02*
X136897000Y-189810000D01*
X136643000Y-189429000D02*
X134865000Y-186635000D01*
X136643000Y-189302000D02*
X136770000Y-188794000D01*
X136516000Y-186889000D02*
X135246000Y-186889000D01*
X136135000Y-189175000D02*
X136643000Y-189429000D01*
X136135000Y-186635000D02*
X134357000Y-184603000D01*
X135500000Y-187016000D02*
X136643000Y-189302000D01*
D13*
X135500000Y-180285000D02*
X126610000Y-191715000D01*
D14*
X135373000Y-184730000D02*
X136897000Y-187016000D01*
X135119000Y-185111000D02*
X135246000Y-184603000D01*
X135119000Y-184984000D02*
X136516000Y-186889000D01*
X134865000Y-186635000D02*
X136135000Y-186635000D01*
X134357000Y-184603000D02*
X135119000Y-185111000D01*
D13*
X126610000Y-191715000D02*
X144390000Y-191715000D01*
%LPC*%
D15*
X135585000Y-168965000D03*
D16*
X216994998Y-180175709D03*
D17*
X216994998Y-157675709D03*
X226737784Y-174550709D03*
X207252212Y-174550709D03*
D16*
X282994998Y-119495409D03*
D17*
X282994998Y-141995409D03*
X273252212Y-125120409D03*
X292737784Y-125120409D03*
D16*
X172994998Y-180175709D03*
D17*
X172994998Y-157675709D03*
X182737784Y-174550709D03*
X163252212Y-174550709D03*
D16*
X436994998Y-180175709D03*
D17*
X436994998Y-157675709D03*
X446737784Y-174550709D03*
X427252212Y-174550709D03*
D16*
X458994998Y-119585559D03*
D17*
X458994998Y-142085559D03*
X449252212Y-125210559D03*
X468737784Y-125210559D03*
D16*
X150994998Y-119495409D03*
D17*
X150994998Y-141995409D03*
X141252212Y-125120409D03*
X160737784Y-125120409D03*
D16*
X326994998Y-119495409D03*
D17*
X326994998Y-141995409D03*
X317252212Y-125120409D03*
X336737784Y-125120409D03*
D16*
X392994998Y-180085559D03*
D17*
X392994998Y-157585559D03*
X402737784Y-174460559D03*
X383252212Y-174460559D03*
D16*
X370994998Y-119585559D03*
D17*
X370994998Y-142085559D03*
X361252212Y-125210559D03*
X380737784Y-125210559D03*
D16*
X238994998Y-119495409D03*
D17*
X238994998Y-141995409D03*
X229252212Y-125120409D03*
X248737784Y-125120409D03*
D16*
X480994998Y-180175709D03*
D17*
X480994998Y-157675709D03*
X490737784Y-174550709D03*
X471252212Y-174550709D03*
D16*
X304994998Y-180175709D03*
D17*
X304994998Y-157675709D03*
X314737784Y-174550709D03*
X295252212Y-174550709D03*
D16*
X260994998Y-180175709D03*
D17*
X260994998Y-157675709D03*
X270737784Y-174550709D03*
X251252212Y-174550709D03*
D16*
X194994998Y-119495409D03*
D17*
X194994998Y-141995409D03*
X185252212Y-125120409D03*
X204737784Y-125120409D03*
D16*
X348994998Y-180175709D03*
D17*
X348994998Y-157675709D03*
X358737784Y-174550709D03*
X339252212Y-174550709D03*
D15*
X496265000Y-130865000D03*
D16*
X414994998Y-119585559D03*
D17*
X414994998Y-142085559D03*
X405252212Y-125210559D03*
X424737784Y-125210559D03*
%LPD*%
M02*
