G04 #@! TF.GenerationSoftware,KiCad,Pcbnew,7.0.2*
G04 #@! TF.CreationDate,2024-02-27T13:18:42-06:00*
G04 #@! TF.ProjectId,CapBankBreakout,43617042-616e-46b4-9272-65616b6f7574,rev?*
G04 #@! TF.SameCoordinates,Original*
G04 #@! TF.FileFunction,Copper,L2,Bot*
G04 #@! TF.FilePolarity,Positive*
%FSLAX46Y46*%
G04 Gerber Fmt 4.6, Leading zero omitted, Abs format (unit mm)*
G04 Created by KiCad (PCBNEW 7.0.2) date 2024-02-27 13:18:42*
%MOMM*%
%LPD*%
G01*
G04 APERTURE LIST*
G04 #@! TA.AperFunction,ComponentPad*
%ADD10R,18.288000X18.288000*%
G04 #@! TD*
G04 #@! TA.AperFunction,ComponentPad*
%ADD11R,2.082800X2.082800*%
G04 #@! TD*
G04 #@! TA.AperFunction,ComponentPad*
%ADD12C,2.082800*%
G04 #@! TD*
G04 APERTURE END LIST*
D10*
X135585000Y-168965000D03*
D11*
X216994998Y-180175709D03*
D12*
X216994998Y-157675709D03*
X226737784Y-174550709D03*
X207252212Y-174550709D03*
D11*
X282994998Y-119495409D03*
D12*
X282994998Y-141995409D03*
X273252212Y-125120409D03*
X292737784Y-125120409D03*
D11*
X172994998Y-180175709D03*
D12*
X172994998Y-157675709D03*
X182737784Y-174550709D03*
X163252212Y-174550709D03*
D11*
X436994998Y-180175709D03*
D12*
X436994998Y-157675709D03*
X446737784Y-174550709D03*
X427252212Y-174550709D03*
D11*
X458994998Y-119585559D03*
D12*
X458994998Y-142085559D03*
X449252212Y-125210559D03*
X468737784Y-125210559D03*
D11*
X150994998Y-119495409D03*
D12*
X150994998Y-141995409D03*
X141252212Y-125120409D03*
X160737784Y-125120409D03*
D11*
X326994998Y-119495409D03*
D12*
X326994998Y-141995409D03*
X317252212Y-125120409D03*
X336737784Y-125120409D03*
D11*
X392994998Y-180085559D03*
D12*
X392994998Y-157585559D03*
X402737784Y-174460559D03*
X383252212Y-174460559D03*
D11*
X370994998Y-119585559D03*
D12*
X370994998Y-142085559D03*
X361252212Y-125210559D03*
X380737784Y-125210559D03*
D11*
X238994998Y-119495409D03*
D12*
X238994998Y-141995409D03*
X229252212Y-125120409D03*
X248737784Y-125120409D03*
D11*
X480994998Y-180175709D03*
D12*
X480994998Y-157675709D03*
X490737784Y-174550709D03*
X471252212Y-174550709D03*
D11*
X304994998Y-180175709D03*
D12*
X304994998Y-157675709D03*
X314737784Y-174550709D03*
X295252212Y-174550709D03*
D11*
X260994998Y-180175709D03*
D12*
X260994998Y-157675709D03*
X270737784Y-174550709D03*
X251252212Y-174550709D03*
D11*
X194994998Y-119495409D03*
D12*
X194994998Y-141995409D03*
X185252212Y-125120409D03*
X204737784Y-125120409D03*
D11*
X348994998Y-180175709D03*
D12*
X348994998Y-157675709D03*
X358737784Y-174550709D03*
X339252212Y-174550709D03*
D10*
X496265000Y-130865000D03*
D11*
X414994998Y-119585559D03*
D12*
X414994998Y-142085559D03*
X405252212Y-125210559D03*
X424737784Y-125210559D03*
G04 #@! TA.AperFunction,Conductor*
G36*
X522002562Y-105000605D02*
G01*
X522217318Y-105009488D01*
X522413453Y-105018052D01*
X522423332Y-105018882D01*
X522636792Y-105045489D01*
X522834966Y-105071580D01*
X522844166Y-105073147D01*
X523054202Y-105117187D01*
X523250400Y-105160684D01*
X523258889Y-105162886D01*
X523464544Y-105224112D01*
X523656707Y-105284702D01*
X523664446Y-105287428D01*
X523863363Y-105365046D01*
X523865513Y-105365911D01*
X524051024Y-105442752D01*
X524057972Y-105445886D01*
X524225903Y-105527982D01*
X524249587Y-105539561D01*
X524252383Y-105540972D01*
X524430420Y-105633652D01*
X524436636Y-105637118D01*
X524619793Y-105746255D01*
X524622929Y-105748187D01*
X524686491Y-105788681D01*
X524792282Y-105856078D01*
X524797710Y-105859741D01*
X524971184Y-105983599D01*
X524974616Y-105986140D01*
X525133912Y-106108372D01*
X525138567Y-106112126D01*
X525301226Y-106249891D01*
X525304838Y-106253072D01*
X525452925Y-106388769D01*
X525456807Y-106392486D01*
X525607512Y-106543191D01*
X525611232Y-106547076D01*
X525746921Y-106695155D01*
X525750107Y-106698772D01*
X525887872Y-106861431D01*
X525891626Y-106866086D01*
X526013858Y-107025382D01*
X526016399Y-107028814D01*
X526140257Y-107202288D01*
X526143920Y-107207716D01*
X526251800Y-107377052D01*
X526253743Y-107380205D01*
X526362880Y-107563362D01*
X526366346Y-107569578D01*
X526459026Y-107747615D01*
X526460437Y-107750411D01*
X526554099Y-107941997D01*
X526557260Y-107949005D01*
X526634051Y-108134395D01*
X526635008Y-108136774D01*
X526712559Y-108335523D01*
X526715302Y-108343309D01*
X526775899Y-108535496D01*
X526837107Y-108741089D01*
X526839320Y-108749623D01*
X526882818Y-108945826D01*
X526926845Y-109155804D01*
X526928422Y-109165060D01*
X526954524Y-109363318D01*
X526981114Y-109576643D01*
X526981948Y-109586570D01*
X526990513Y-109782728D01*
X526999394Y-109997438D01*
X526999500Y-110002562D01*
X526999500Y-189997437D01*
X526999394Y-190002562D01*
X526990513Y-190217271D01*
X526981948Y-190413427D01*
X526981114Y-190423355D01*
X526954524Y-190636679D01*
X526928423Y-190834936D01*
X526926845Y-190844195D01*
X526882818Y-191054173D01*
X526839320Y-191250374D01*
X526837106Y-191258912D01*
X526775899Y-191464503D01*
X526715301Y-191656693D01*
X526712561Y-191664470D01*
X526635008Y-191863224D01*
X526634051Y-191865603D01*
X526557260Y-192050993D01*
X526554099Y-192058001D01*
X526460437Y-192249587D01*
X526459026Y-192252383D01*
X526366346Y-192430420D01*
X526362880Y-192436636D01*
X526253743Y-192619793D01*
X526251800Y-192622946D01*
X526143920Y-192792282D01*
X526140257Y-192797710D01*
X526016399Y-192971184D01*
X526013858Y-192974616D01*
X525891626Y-193133912D01*
X525887872Y-193138567D01*
X525750107Y-193301226D01*
X525746908Y-193304858D01*
X525611254Y-193452899D01*
X525607512Y-193456807D01*
X525456807Y-193607512D01*
X525452899Y-193611254D01*
X525304858Y-193746908D01*
X525301226Y-193750107D01*
X525138567Y-193887872D01*
X525133912Y-193891626D01*
X524974616Y-194013858D01*
X524971184Y-194016399D01*
X524797710Y-194140257D01*
X524792282Y-194143920D01*
X524622946Y-194251800D01*
X524619793Y-194253743D01*
X524436636Y-194362880D01*
X524430420Y-194366346D01*
X524252383Y-194459026D01*
X524249587Y-194460437D01*
X524058001Y-194554099D01*
X524050993Y-194557260D01*
X523865603Y-194634051D01*
X523863224Y-194635008D01*
X523664475Y-194712559D01*
X523656689Y-194715302D01*
X523464503Y-194775899D01*
X523258909Y-194837107D01*
X523250375Y-194839320D01*
X523054173Y-194882818D01*
X522844194Y-194926845D01*
X522834938Y-194928422D01*
X522636681Y-194954524D01*
X522423355Y-194981114D01*
X522413428Y-194981948D01*
X522217271Y-194990513D01*
X522002563Y-194999394D01*
X521997438Y-194999500D01*
X110002562Y-194999500D01*
X109997437Y-194999394D01*
X109782728Y-194990513D01*
X109586571Y-194981948D01*
X109576643Y-194981114D01*
X109363320Y-194954524D01*
X109165062Y-194928423D01*
X109155803Y-194926845D01*
X108945826Y-194882818D01*
X108749624Y-194839321D01*
X108741086Y-194837106D01*
X108535496Y-194775899D01*
X108343305Y-194715301D01*
X108335528Y-194712561D01*
X108206985Y-194662404D01*
X108136734Y-194634991D01*
X108134395Y-194634051D01*
X107949005Y-194557260D01*
X107941997Y-194554099D01*
X107750411Y-194460437D01*
X107747615Y-194459026D01*
X107569578Y-194366346D01*
X107563362Y-194362880D01*
X107380205Y-194253743D01*
X107377052Y-194251800D01*
X107207716Y-194143920D01*
X107202288Y-194140257D01*
X107028814Y-194016399D01*
X107025382Y-194013858D01*
X106866086Y-193891626D01*
X106861431Y-193887872D01*
X106698772Y-193750107D01*
X106695155Y-193746921D01*
X106547076Y-193611232D01*
X106543191Y-193607512D01*
X106392486Y-193456807D01*
X106388769Y-193452925D01*
X106253072Y-193304838D01*
X106249891Y-193301226D01*
X106112126Y-193138567D01*
X106108372Y-193133912D01*
X105986140Y-192974616D01*
X105983599Y-192971184D01*
X105859741Y-192797710D01*
X105856078Y-192792282D01*
X105748198Y-192622946D01*
X105746255Y-192619793D01*
X105637118Y-192436636D01*
X105633652Y-192430420D01*
X105540972Y-192252383D01*
X105539561Y-192249587D01*
X105527982Y-192225903D01*
X105445886Y-192057972D01*
X105442752Y-192051024D01*
X105365911Y-191865513D01*
X105365046Y-191863363D01*
X105287431Y-191664453D01*
X105284698Y-191656696D01*
X105224100Y-191464503D01*
X105162884Y-191258883D01*
X105160678Y-191250375D01*
X105117181Y-191054173D01*
X105073149Y-190844175D01*
X105071576Y-190834937D01*
X105071576Y-190834936D01*
X105045489Y-190636792D01*
X105018882Y-190423334D01*
X105018052Y-190413455D01*
X105009486Y-190217271D01*
X105000605Y-190002562D01*
X105000500Y-189997439D01*
X105000500Y-180000000D01*
X117708594Y-180000000D01*
X117708859Y-180004043D01*
X117708859Y-180004044D01*
X117715938Y-180112056D01*
X117714502Y-180118468D01*
X117717558Y-180141186D01*
X117718398Y-180149597D01*
X117718839Y-180156320D01*
X117719105Y-180164436D01*
X117719105Y-180182949D01*
X117721060Y-180190199D01*
X117728197Y-180299089D01*
X117728986Y-180303058D01*
X117728988Y-180303069D01*
X117750727Y-180412356D01*
X117750063Y-180419766D01*
X117756708Y-180444023D01*
X117758730Y-180452587D01*
X117760154Y-180459745D01*
X117761430Y-180467410D01*
X117763567Y-180483302D01*
X117765999Y-180489133D01*
X117786672Y-180593060D01*
X117787972Y-180596891D01*
X117787976Y-180596904D01*
X117824823Y-180705449D01*
X117825168Y-180713745D01*
X117835765Y-180738734D01*
X117839025Y-180747288D01*
X117841738Y-180755281D01*
X117843912Y-180762375D01*
X117847396Y-180775093D01*
X117849963Y-180779510D01*
X117881709Y-180873032D01*
X117881713Y-180873042D01*
X117883017Y-180876883D01*
X117884810Y-180880519D01*
X117884813Y-180880526D01*
X117936930Y-180986208D01*
X117938498Y-180995208D01*
X117953222Y-181020067D01*
X117957748Y-181028422D01*
X117962299Y-181037652D01*
X117965242Y-181044076D01*
X117969123Y-181053227D01*
X117971487Y-181056283D01*
X118015584Y-181145703D01*
X118017835Y-181149072D01*
X118017838Y-181149077D01*
X118085098Y-181249738D01*
X118088075Y-181259245D01*
X118106959Y-181283159D01*
X118112748Y-181291120D01*
X118119835Y-181301727D01*
X118123419Y-181307419D01*
X118126584Y-181312762D01*
X118128434Y-181314596D01*
X118182105Y-181394920D01*
X118184780Y-181397970D01*
X118184786Y-181397978D01*
X118266733Y-181491420D01*
X118271268Y-181501196D01*
X118294200Y-181523374D01*
X118301226Y-181530751D01*
X118311731Y-181542730D01*
X118315816Y-181547637D01*
X118317010Y-181549149D01*
X118318054Y-181549940D01*
X118379731Y-181620269D01*
X118469718Y-181699186D01*
X118478670Y-181707036D01*
X118484868Y-181716808D01*
X118511554Y-181736470D01*
X118519761Y-181743072D01*
X118534752Y-181756219D01*
X118536756Y-181758065D01*
X118537039Y-181758225D01*
X118605080Y-181817895D01*
X118608462Y-181820154D01*
X118608461Y-181820154D01*
X118717200Y-181892811D01*
X118725120Y-181902288D01*
X118755174Y-181918758D01*
X118764468Y-181924394D01*
X118854297Y-181984416D01*
X118857935Y-181986210D01*
X118857937Y-181986211D01*
X118978151Y-182045494D01*
X118987808Y-182054378D01*
X119020732Y-182067059D01*
X119031010Y-182071561D01*
X119123117Y-182116983D01*
X119126965Y-182118289D01*
X119126967Y-182118290D01*
X119256973Y-182162421D01*
X119268320Y-182170399D01*
X119303495Y-182178782D01*
X119314592Y-182181980D01*
X119406940Y-182213328D01*
X119548793Y-182241544D01*
X119561743Y-182248318D01*
X119598512Y-182252017D01*
X119610276Y-182253774D01*
X119700911Y-182271803D01*
X119848488Y-182281475D01*
X119862896Y-182286751D01*
X119900533Y-182285493D01*
X119912789Y-182285690D01*
X119995943Y-182291141D01*
X119995957Y-182291141D01*
X120000000Y-182291406D01*
X120150848Y-182281519D01*
X120166519Y-182285025D01*
X120204260Y-182278660D01*
X120216773Y-182277198D01*
X120299089Y-182271803D01*
X120450580Y-182241669D01*
X120467277Y-182243163D01*
X120504364Y-182231659D01*
X120516908Y-182228475D01*
X120593060Y-182213328D01*
X120742426Y-182162624D01*
X120759869Y-182161897D01*
X120795526Y-182145351D01*
X120807847Y-182140417D01*
X120876883Y-182116983D01*
X121021307Y-182045760D01*
X121039176Y-182042646D01*
X121072660Y-182021271D01*
X121084525Y-182014585D01*
X121145703Y-181984416D01*
X121282334Y-181893121D01*
X121300283Y-181887501D01*
X121330887Y-181861627D01*
X121342032Y-181853233D01*
X121394920Y-181817895D01*
X121520937Y-181707380D01*
X121538599Y-181699186D01*
X121565691Y-181669232D01*
X121575885Y-181659192D01*
X121620269Y-181620269D01*
X121732960Y-181491768D01*
X121749945Y-181480995D01*
X121772948Y-181447487D01*
X121781951Y-181435906D01*
X121817895Y-181394920D01*
X121899744Y-181272423D01*
X170953098Y-181272423D01*
X170953099Y-181275145D01*
X170953340Y-181277860D01*
X170953341Y-181277874D01*
X170955968Y-181307419D01*
X170963712Y-181394527D01*
X170975552Y-181435906D01*
X171019689Y-181590159D01*
X171107396Y-181758065D01*
X171113900Y-181770516D01*
X171242489Y-181928218D01*
X171313611Y-181986210D01*
X171400191Y-182056807D01*
X171535447Y-182127459D01*
X171580549Y-182151018D01*
X171776180Y-182206995D01*
X171895561Y-182217609D01*
X174094434Y-182217608D01*
X174213816Y-182206995D01*
X174409447Y-182151018D01*
X174589805Y-182056807D01*
X174747507Y-181928218D01*
X174876096Y-181770516D01*
X174970307Y-181590158D01*
X175026284Y-181394527D01*
X175036898Y-181275146D01*
X175036898Y-181272423D01*
X214953098Y-181272423D01*
X214953099Y-181275145D01*
X214953340Y-181277860D01*
X214953341Y-181277874D01*
X214955968Y-181307419D01*
X214963712Y-181394527D01*
X214975552Y-181435906D01*
X215019689Y-181590159D01*
X215107396Y-181758065D01*
X215113900Y-181770516D01*
X215242489Y-181928218D01*
X215313611Y-181986210D01*
X215400191Y-182056807D01*
X215535447Y-182127459D01*
X215580549Y-182151018D01*
X215776180Y-182206995D01*
X215895561Y-182217609D01*
X218094434Y-182217608D01*
X218213816Y-182206995D01*
X218409447Y-182151018D01*
X218589805Y-182056807D01*
X218747507Y-181928218D01*
X218876096Y-181770516D01*
X218970307Y-181590158D01*
X219026284Y-181394527D01*
X219036898Y-181275146D01*
X219036898Y-181272423D01*
X258953098Y-181272423D01*
X258953099Y-181275145D01*
X258953340Y-181277860D01*
X258953341Y-181277874D01*
X258955968Y-181307419D01*
X258963712Y-181394527D01*
X258975552Y-181435906D01*
X259019689Y-181590159D01*
X259107396Y-181758065D01*
X259113900Y-181770516D01*
X259242489Y-181928218D01*
X259313611Y-181986210D01*
X259400191Y-182056807D01*
X259535447Y-182127459D01*
X259580549Y-182151018D01*
X259776180Y-182206995D01*
X259895561Y-182217609D01*
X262094434Y-182217608D01*
X262213816Y-182206995D01*
X262409447Y-182151018D01*
X262589805Y-182056807D01*
X262747507Y-181928218D01*
X262876096Y-181770516D01*
X262970307Y-181590158D01*
X263026284Y-181394527D01*
X263036898Y-181275146D01*
X263036898Y-181272423D01*
X302953098Y-181272423D01*
X302953099Y-181275145D01*
X302953340Y-181277860D01*
X302953341Y-181277874D01*
X302955968Y-181307419D01*
X302963712Y-181394527D01*
X302975552Y-181435906D01*
X303019689Y-181590159D01*
X303107396Y-181758065D01*
X303113900Y-181770516D01*
X303242489Y-181928218D01*
X303313611Y-181986210D01*
X303400191Y-182056807D01*
X303535447Y-182127459D01*
X303580549Y-182151018D01*
X303776180Y-182206995D01*
X303895561Y-182217609D01*
X306094434Y-182217608D01*
X306213816Y-182206995D01*
X306409447Y-182151018D01*
X306589805Y-182056807D01*
X306747507Y-181928218D01*
X306876096Y-181770516D01*
X306970307Y-181590158D01*
X307026284Y-181394527D01*
X307036898Y-181275146D01*
X307036898Y-181272423D01*
X346953098Y-181272423D01*
X346953099Y-181275145D01*
X346953340Y-181277860D01*
X346953341Y-181277874D01*
X346955968Y-181307419D01*
X346963712Y-181394527D01*
X346975552Y-181435906D01*
X347019689Y-181590159D01*
X347107396Y-181758065D01*
X347113900Y-181770516D01*
X347242489Y-181928218D01*
X347313611Y-181986210D01*
X347400191Y-182056807D01*
X347535447Y-182127459D01*
X347580549Y-182151018D01*
X347776180Y-182206995D01*
X347895561Y-182217609D01*
X350094434Y-182217608D01*
X350213816Y-182206995D01*
X350409447Y-182151018D01*
X350589805Y-182056807D01*
X350747507Y-181928218D01*
X350876096Y-181770516D01*
X350970307Y-181590158D01*
X351026284Y-181394527D01*
X351036898Y-181275146D01*
X351036898Y-181182273D01*
X390953098Y-181182273D01*
X390953099Y-181184995D01*
X390953340Y-181187710D01*
X390953341Y-181187724D01*
X390958883Y-181250061D01*
X390963712Y-181304377D01*
X390966636Y-181314596D01*
X391019689Y-181500009D01*
X391113899Y-181680365D01*
X391135928Y-181707381D01*
X391242489Y-181838068D01*
X391400191Y-181966657D01*
X391568124Y-182054378D01*
X391580549Y-182060868D01*
X391776180Y-182116845D01*
X391895561Y-182127459D01*
X394094434Y-182127458D01*
X394213816Y-182116845D01*
X394409447Y-182060868D01*
X394589805Y-181966657D01*
X394747507Y-181838068D01*
X394876096Y-181680366D01*
X394970307Y-181500008D01*
X395026284Y-181304377D01*
X395029125Y-181272423D01*
X434953098Y-181272423D01*
X434953099Y-181275145D01*
X434953340Y-181277860D01*
X434953341Y-181277874D01*
X434955968Y-181307419D01*
X434963712Y-181394527D01*
X434975552Y-181435906D01*
X435019689Y-181590159D01*
X435107396Y-181758065D01*
X435113900Y-181770516D01*
X435242489Y-181928218D01*
X435313611Y-181986210D01*
X435400191Y-182056807D01*
X435535447Y-182127459D01*
X435580549Y-182151018D01*
X435776180Y-182206995D01*
X435895561Y-182217609D01*
X438094434Y-182217608D01*
X438213816Y-182206995D01*
X438409447Y-182151018D01*
X438589805Y-182056807D01*
X438747507Y-181928218D01*
X438876096Y-181770516D01*
X438970307Y-181590158D01*
X439026284Y-181394527D01*
X439036898Y-181275146D01*
X439036898Y-181272423D01*
X478953098Y-181272423D01*
X478953099Y-181275145D01*
X478953340Y-181277860D01*
X478953341Y-181277874D01*
X478955968Y-181307419D01*
X478963712Y-181394527D01*
X478975552Y-181435906D01*
X479019689Y-181590159D01*
X479107396Y-181758065D01*
X479113900Y-181770516D01*
X479242489Y-181928218D01*
X479313611Y-181986210D01*
X479400191Y-182056807D01*
X479535447Y-182127459D01*
X479580549Y-182151018D01*
X479776180Y-182206995D01*
X479895561Y-182217609D01*
X482094434Y-182217608D01*
X482213816Y-182206995D01*
X482409447Y-182151018D01*
X482589805Y-182056807D01*
X482747507Y-181928218D01*
X482876096Y-181770516D01*
X482970307Y-181590158D01*
X483026284Y-181394527D01*
X483036898Y-181275146D01*
X483036897Y-180000000D01*
X509708594Y-180000000D01*
X509708859Y-180004043D01*
X509708859Y-180004044D01*
X509715938Y-180112056D01*
X509714502Y-180118468D01*
X509717558Y-180141186D01*
X509718398Y-180149597D01*
X509718838Y-180156305D01*
X509719104Y-180164421D01*
X509719104Y-180182944D01*
X509721060Y-180190199D01*
X509728197Y-180299089D01*
X509728986Y-180303058D01*
X509728988Y-180303069D01*
X509750727Y-180412356D01*
X509750063Y-180419766D01*
X509756708Y-180444023D01*
X509758730Y-180452587D01*
X509760154Y-180459745D01*
X509761430Y-180467410D01*
X509763567Y-180483302D01*
X509765999Y-180489133D01*
X509786672Y-180593060D01*
X509787972Y-180596891D01*
X509787976Y-180596904D01*
X509824823Y-180705449D01*
X509825168Y-180713745D01*
X509835765Y-180738734D01*
X509839025Y-180747288D01*
X509841738Y-180755281D01*
X509843912Y-180762375D01*
X509847396Y-180775093D01*
X509849963Y-180779510D01*
X509881709Y-180873032D01*
X509881713Y-180873042D01*
X509883017Y-180876883D01*
X509884810Y-180880519D01*
X509884813Y-180880526D01*
X509936930Y-180986208D01*
X509938498Y-180995208D01*
X509953222Y-181020067D01*
X509957748Y-181028422D01*
X509962299Y-181037652D01*
X509965242Y-181044076D01*
X509969123Y-181053227D01*
X509971487Y-181056283D01*
X510015584Y-181145703D01*
X510017835Y-181149072D01*
X510017838Y-181149077D01*
X510085098Y-181249738D01*
X510088075Y-181259245D01*
X510106959Y-181283159D01*
X510112748Y-181291120D01*
X510119835Y-181301727D01*
X510123419Y-181307419D01*
X510126584Y-181312762D01*
X510128434Y-181314596D01*
X510182105Y-181394920D01*
X510184780Y-181397970D01*
X510184786Y-181397978D01*
X510266733Y-181491420D01*
X510271268Y-181501196D01*
X510294200Y-181523374D01*
X510301226Y-181530751D01*
X510311731Y-181542730D01*
X510315816Y-181547637D01*
X510317010Y-181549149D01*
X510318054Y-181549940D01*
X510379731Y-181620269D01*
X510469718Y-181699186D01*
X510478670Y-181707036D01*
X510484868Y-181716808D01*
X510511554Y-181736470D01*
X510519761Y-181743072D01*
X510534752Y-181756219D01*
X510536756Y-181758065D01*
X510537039Y-181758225D01*
X510605080Y-181817895D01*
X510608462Y-181820154D01*
X510608461Y-181820154D01*
X510717200Y-181892811D01*
X510725120Y-181902288D01*
X510755174Y-181918758D01*
X510764468Y-181924394D01*
X510854297Y-181984416D01*
X510857935Y-181986210D01*
X510857937Y-181986211D01*
X510978151Y-182045494D01*
X510987808Y-182054378D01*
X511020732Y-182067059D01*
X511031010Y-182071561D01*
X511123117Y-182116983D01*
X511126965Y-182118289D01*
X511126967Y-182118290D01*
X511256973Y-182162421D01*
X511268320Y-182170399D01*
X511303495Y-182178782D01*
X511314592Y-182181980D01*
X511406940Y-182213328D01*
X511548793Y-182241544D01*
X511561743Y-182248318D01*
X511598512Y-182252017D01*
X511610276Y-182253774D01*
X511700911Y-182271803D01*
X511848488Y-182281475D01*
X511862896Y-182286751D01*
X511900533Y-182285493D01*
X511912789Y-182285690D01*
X511995943Y-182291141D01*
X511995957Y-182291141D01*
X512000000Y-182291406D01*
X512150848Y-182281519D01*
X512166519Y-182285025D01*
X512204260Y-182278660D01*
X512216773Y-182277198D01*
X512299089Y-182271803D01*
X512450580Y-182241669D01*
X512467277Y-182243163D01*
X512504364Y-182231659D01*
X512516908Y-182228475D01*
X512593060Y-182213328D01*
X512742426Y-182162624D01*
X512759869Y-182161897D01*
X512795526Y-182145351D01*
X512807847Y-182140417D01*
X512876883Y-182116983D01*
X513021307Y-182045760D01*
X513039176Y-182042646D01*
X513072660Y-182021271D01*
X513084525Y-182014585D01*
X513145703Y-181984416D01*
X513282334Y-181893121D01*
X513300283Y-181887501D01*
X513330887Y-181861627D01*
X513342032Y-181853233D01*
X513394920Y-181817895D01*
X513520937Y-181707380D01*
X513538599Y-181699186D01*
X513565691Y-181669232D01*
X513575885Y-181659192D01*
X513620269Y-181620269D01*
X513732960Y-181491768D01*
X513749945Y-181480995D01*
X513772948Y-181447487D01*
X513781951Y-181435906D01*
X513817895Y-181394920D01*
X513914688Y-181250058D01*
X513930612Y-181236749D01*
X513949040Y-181200282D01*
X513956612Y-181187314D01*
X513958161Y-181184996D01*
X513984416Y-181145703D01*
X514062933Y-180986485D01*
X514077408Y-180970751D01*
X514090869Y-180931986D01*
X514096790Y-180917828D01*
X514116983Y-180876883D01*
X514175106Y-180705655D01*
X514187762Y-180687657D01*
X514195964Y-180647305D01*
X514200054Y-180632162D01*
X514213328Y-180593060D01*
X514271803Y-180299089D01*
X514291406Y-180000000D01*
X514271803Y-179700911D01*
X514213328Y-179406940D01*
X514200056Y-179367842D01*
X514195963Y-179352692D01*
X514189243Y-179319633D01*
X514175108Y-179294348D01*
X514118290Y-179126967D01*
X514118289Y-179126965D01*
X514116983Y-179123117D01*
X514096791Y-179082173D01*
X514090871Y-179068017D01*
X514079781Y-179036080D01*
X514062933Y-179013514D01*
X513986211Y-178857936D01*
X513986207Y-178857930D01*
X513984416Y-178854297D01*
X513956610Y-178812683D01*
X513949042Y-178799721D01*
X513933778Y-178769514D01*
X513914688Y-178749941D01*
X513820154Y-178608461D01*
X513817895Y-178605080D01*
X513781948Y-178564090D01*
X513772950Y-178552515D01*
X513753795Y-178524610D01*
X513732961Y-178508231D01*
X513622942Y-178382779D01*
X513620269Y-178379731D01*
X513575903Y-178340823D01*
X513565698Y-178330773D01*
X513543016Y-178305695D01*
X513520938Y-178292620D01*
X513397978Y-178184786D01*
X513397970Y-178184780D01*
X513394920Y-178182105D01*
X513342060Y-178146785D01*
X513330895Y-178138377D01*
X513305138Y-178116601D01*
X513282333Y-178106877D01*
X513149077Y-178017838D01*
X513149072Y-178017835D01*
X513145703Y-178015584D01*
X513142067Y-178013791D01*
X513142062Y-178013788D01*
X513084547Y-177985425D01*
X513072669Y-177978732D01*
X513044351Y-177960655D01*
X513021309Y-177954240D01*
X512880525Y-177884813D01*
X512880524Y-177884812D01*
X512876883Y-177883017D01*
X512873036Y-177881711D01*
X512807871Y-177859590D01*
X512795535Y-177854651D01*
X512765223Y-177840585D01*
X512742426Y-177837375D01*
X512596904Y-177787976D01*
X512596891Y-177787972D01*
X512593060Y-177786672D01*
X512589083Y-177785881D01*
X512589076Y-177785879D01*
X512531408Y-177774408D01*
X512516923Y-177771527D01*
X512504379Y-177768344D01*
X512472690Y-177758514D01*
X512450579Y-177758330D01*
X512303068Y-177728988D01*
X512303060Y-177728987D01*
X512299089Y-177728197D01*
X512295046Y-177727932D01*
X512295031Y-177727930D01*
X512216788Y-177722801D01*
X512204276Y-177721340D01*
X512171878Y-177715875D01*
X512150849Y-177718481D01*
X512000000Y-177708594D01*
X511995957Y-177708859D01*
X511995956Y-177708859D01*
X511912798Y-177714309D01*
X511900546Y-177714505D01*
X511868078Y-177713419D01*
X511848489Y-177718523D01*
X511704968Y-177727930D01*
X511704951Y-177727932D01*
X511700911Y-177728197D01*
X511696943Y-177728986D01*
X511696930Y-177728988D01*
X511610301Y-177746220D01*
X511598523Y-177747980D01*
X511566651Y-177751186D01*
X511548793Y-177758455D01*
X511410920Y-177785880D01*
X511410915Y-177785881D01*
X511406940Y-177786672D01*
X511403106Y-177787973D01*
X511403104Y-177787974D01*
X511314624Y-177818009D01*
X511303513Y-177821211D01*
X511272877Y-177828512D01*
X511256976Y-177837577D01*
X511126963Y-177881711D01*
X511126956Y-177881713D01*
X511123117Y-177883017D01*
X511119487Y-177884807D01*
X511119480Y-177884810D01*
X511031012Y-177928438D01*
X511020737Y-177932939D01*
X510991941Y-177944029D01*
X510978154Y-177954504D01*
X510871939Y-178006883D01*
X510854297Y-178015584D01*
X510850923Y-178017838D01*
X510850915Y-178017843D01*
X510764478Y-178075598D01*
X510755181Y-178081237D01*
X510728774Y-178095708D01*
X510717201Y-178107187D01*
X510608462Y-178179845D01*
X510605080Y-178182105D01*
X510602029Y-178184780D01*
X510602022Y-178184786D01*
X510537040Y-178241774D01*
X510536819Y-178241876D01*
X510534736Y-178243795D01*
X510519764Y-178256924D01*
X510511565Y-178263519D01*
X510488015Y-178280871D01*
X510478671Y-178292962D01*
X510382779Y-178377057D01*
X510382771Y-178377064D01*
X510379731Y-178379731D01*
X510377064Y-178382771D01*
X510377056Y-178382780D01*
X510318053Y-178450060D01*
X510317209Y-178450595D01*
X510315795Y-178452386D01*
X510311712Y-178457291D01*
X510301226Y-178469248D01*
X510294202Y-178476623D01*
X510273881Y-178496275D01*
X510266735Y-178508577D01*
X510184786Y-178602022D01*
X510184780Y-178602029D01*
X510182105Y-178605080D01*
X510179846Y-178608459D01*
X510179845Y-178608462D01*
X510128434Y-178685403D01*
X510126918Y-178686669D01*
X510123403Y-178692604D01*
X510119822Y-178698291D01*
X510112758Y-178708864D01*
X510106969Y-178716826D01*
X510090158Y-178738113D01*
X510085099Y-178750259D01*
X510017836Y-178850925D01*
X510017829Y-178850937D01*
X510015584Y-178854297D01*
X510009447Y-178866741D01*
X509971487Y-178943716D01*
X509969504Y-178945870D01*
X509965238Y-178955931D01*
X509962294Y-178962356D01*
X509957752Y-178971567D01*
X509953229Y-178979917D01*
X509940067Y-179002139D01*
X509936931Y-179013788D01*
X509884816Y-179119467D01*
X509884810Y-179119479D01*
X509883017Y-179123117D01*
X509881713Y-179126956D01*
X509881711Y-179126963D01*
X509849963Y-179220489D01*
X509847739Y-179223651D01*
X509843909Y-179237632D01*
X509841735Y-179244728D01*
X509839025Y-179252711D01*
X509835768Y-179261257D01*
X509826261Y-179283676D01*
X509824824Y-179294548D01*
X509787976Y-179403100D01*
X509786672Y-179406940D01*
X509785882Y-179410907D01*
X509785880Y-179410918D01*
X509765999Y-179510866D01*
X509763782Y-179515102D01*
X509761431Y-179532590D01*
X509760153Y-179540259D01*
X509758730Y-179547411D01*
X509756709Y-179555972D01*
X509750725Y-179577815D01*
X509750727Y-179587642D01*
X509728988Y-179696930D01*
X509728986Y-179696943D01*
X509728197Y-179700911D01*
X509727932Y-179704951D01*
X509727930Y-179704968D01*
X509721059Y-179809799D01*
X509719104Y-179815137D01*
X509719104Y-179835578D01*
X509718838Y-179843697D01*
X509718398Y-179850403D01*
X509717558Y-179858810D01*
X509714797Y-179879336D01*
X509715938Y-179887942D01*
X509708859Y-179995955D01*
X509708594Y-180000000D01*
X483036897Y-180000000D01*
X483036897Y-179076273D01*
X483026284Y-178956891D01*
X482970307Y-178761260D01*
X482876096Y-178580902D01*
X482747507Y-178423200D01*
X482618916Y-178318348D01*
X482589804Y-178294610D01*
X482409448Y-178200400D01*
X482311631Y-178172411D01*
X482213816Y-178144423D01*
X482194704Y-178142723D01*
X482097162Y-178134051D01*
X482097151Y-178134050D01*
X482094435Y-178133809D01*
X482091691Y-178133809D01*
X479898305Y-178133809D01*
X479898282Y-178133809D01*
X479895562Y-178133810D01*
X479892847Y-178134051D01*
X479892832Y-178134052D01*
X479776180Y-178144423D01*
X479580547Y-178200400D01*
X479400191Y-178294610D01*
X479242489Y-178423200D01*
X479113899Y-178580902D01*
X479019689Y-178761258D01*
X478963712Y-178956891D01*
X478953340Y-179073544D01*
X478953339Y-179073556D01*
X478953098Y-179076272D01*
X478953098Y-179079014D01*
X478953098Y-179079015D01*
X478953098Y-181272401D01*
X478953098Y-181272423D01*
X439036898Y-181272423D01*
X439036897Y-179076273D01*
X439026284Y-178956891D01*
X438970307Y-178761260D01*
X438876096Y-178580902D01*
X438747507Y-178423200D01*
X438618916Y-178318348D01*
X438589804Y-178294610D01*
X438409448Y-178200400D01*
X438311631Y-178172411D01*
X438213816Y-178144423D01*
X438194704Y-178142723D01*
X438097162Y-178134051D01*
X438097151Y-178134050D01*
X438094435Y-178133809D01*
X438091691Y-178133809D01*
X435898305Y-178133809D01*
X435898282Y-178133809D01*
X435895562Y-178133810D01*
X435892847Y-178134051D01*
X435892832Y-178134052D01*
X435776180Y-178144423D01*
X435580547Y-178200400D01*
X435400191Y-178294610D01*
X435242489Y-178423200D01*
X435113899Y-178580902D01*
X435019689Y-178761258D01*
X434963712Y-178956891D01*
X434953340Y-179073544D01*
X434953339Y-179073556D01*
X434953098Y-179076272D01*
X434953098Y-179079014D01*
X434953098Y-179079015D01*
X434953098Y-181272401D01*
X434953098Y-181272423D01*
X395029125Y-181272423D01*
X395036898Y-181184996D01*
X395036897Y-178986123D01*
X395026284Y-178866741D01*
X394970307Y-178671110D01*
X394876096Y-178490752D01*
X394747507Y-178333050D01*
X394589805Y-178204461D01*
X394589804Y-178204460D01*
X394409448Y-178110250D01*
X394308051Y-178081237D01*
X394213816Y-178054273D01*
X394194704Y-178052573D01*
X394097162Y-178043901D01*
X394097151Y-178043900D01*
X394094435Y-178043659D01*
X394091691Y-178043659D01*
X391898305Y-178043659D01*
X391898282Y-178043659D01*
X391895562Y-178043660D01*
X391892847Y-178043901D01*
X391892832Y-178043902D01*
X391776180Y-178054273D01*
X391580547Y-178110250D01*
X391400191Y-178204460D01*
X391242489Y-178333050D01*
X391113899Y-178490752D01*
X391019689Y-178671108D01*
X390963712Y-178866741D01*
X390953340Y-178983394D01*
X390953339Y-178983406D01*
X390953098Y-178986122D01*
X390953098Y-178988864D01*
X390953098Y-178988865D01*
X390953098Y-181182251D01*
X390953098Y-181182273D01*
X351036898Y-181182273D01*
X351036897Y-179076273D01*
X351026284Y-178956891D01*
X350970307Y-178761260D01*
X350876096Y-178580902D01*
X350747507Y-178423200D01*
X350618916Y-178318348D01*
X350589804Y-178294610D01*
X350409448Y-178200400D01*
X350311631Y-178172411D01*
X350213816Y-178144423D01*
X350194704Y-178142723D01*
X350097162Y-178134051D01*
X350097151Y-178134050D01*
X350094435Y-178133809D01*
X350091691Y-178133809D01*
X347898305Y-178133809D01*
X347898282Y-178133809D01*
X347895562Y-178133810D01*
X347892847Y-178134051D01*
X347892832Y-178134052D01*
X347776180Y-178144423D01*
X347580547Y-178200400D01*
X347400191Y-178294610D01*
X347242489Y-178423200D01*
X347113899Y-178580902D01*
X347019689Y-178761258D01*
X346963712Y-178956891D01*
X346953340Y-179073544D01*
X346953339Y-179073556D01*
X346953098Y-179076272D01*
X346953098Y-179079014D01*
X346953098Y-179079015D01*
X346953098Y-181272401D01*
X346953098Y-181272423D01*
X307036898Y-181272423D01*
X307036897Y-179076273D01*
X307026284Y-178956891D01*
X306970307Y-178761260D01*
X306876096Y-178580902D01*
X306747507Y-178423200D01*
X306618917Y-178318348D01*
X306589804Y-178294610D01*
X306409448Y-178200400D01*
X306311631Y-178172411D01*
X306213816Y-178144423D01*
X306194704Y-178142723D01*
X306097162Y-178134051D01*
X306097151Y-178134050D01*
X306094435Y-178133809D01*
X306091691Y-178133809D01*
X303898305Y-178133809D01*
X303898282Y-178133809D01*
X303895562Y-178133810D01*
X303892847Y-178134051D01*
X303892832Y-178134052D01*
X303776180Y-178144423D01*
X303580547Y-178200400D01*
X303400191Y-178294610D01*
X303242489Y-178423200D01*
X303113899Y-178580902D01*
X303019689Y-178761258D01*
X302963712Y-178956891D01*
X302953340Y-179073544D01*
X302953339Y-179073556D01*
X302953098Y-179076272D01*
X302953098Y-179079014D01*
X302953098Y-179079015D01*
X302953098Y-181272401D01*
X302953098Y-181272423D01*
X263036898Y-181272423D01*
X263036897Y-179076273D01*
X263026284Y-178956891D01*
X262970307Y-178761260D01*
X262876096Y-178580902D01*
X262747507Y-178423200D01*
X262618917Y-178318348D01*
X262589804Y-178294610D01*
X262409448Y-178200400D01*
X262311631Y-178172411D01*
X262213816Y-178144423D01*
X262194704Y-178142723D01*
X262097162Y-178134051D01*
X262097151Y-178134050D01*
X262094435Y-178133809D01*
X262091691Y-178133809D01*
X259898305Y-178133809D01*
X259898282Y-178133809D01*
X259895562Y-178133810D01*
X259892847Y-178134051D01*
X259892832Y-178134052D01*
X259776180Y-178144423D01*
X259580547Y-178200400D01*
X259400191Y-178294610D01*
X259242489Y-178423200D01*
X259113899Y-178580902D01*
X259019689Y-178761258D01*
X258963712Y-178956891D01*
X258953340Y-179073544D01*
X258953339Y-179073556D01*
X258953098Y-179076272D01*
X258953098Y-179079014D01*
X258953098Y-179079015D01*
X258953098Y-181272401D01*
X258953098Y-181272423D01*
X219036898Y-181272423D01*
X219036897Y-179076273D01*
X219026284Y-178956891D01*
X218970307Y-178761260D01*
X218876096Y-178580902D01*
X218747507Y-178423200D01*
X218618917Y-178318348D01*
X218589804Y-178294610D01*
X218409448Y-178200400D01*
X218311631Y-178172411D01*
X218213816Y-178144423D01*
X218194704Y-178142723D01*
X218097162Y-178134051D01*
X218097151Y-178134050D01*
X218094435Y-178133809D01*
X218091691Y-178133809D01*
X215898305Y-178133809D01*
X215898282Y-178133809D01*
X215895562Y-178133810D01*
X215892847Y-178134051D01*
X215892832Y-178134052D01*
X215776180Y-178144423D01*
X215580547Y-178200400D01*
X215400191Y-178294610D01*
X215242489Y-178423200D01*
X215113899Y-178580902D01*
X215019689Y-178761258D01*
X214963712Y-178956891D01*
X214953340Y-179073544D01*
X214953339Y-179073556D01*
X214953098Y-179076272D01*
X214953098Y-179079014D01*
X214953098Y-179079015D01*
X214953098Y-181272401D01*
X214953098Y-181272423D01*
X175036898Y-181272423D01*
X175036897Y-179076273D01*
X175026284Y-178956891D01*
X174970307Y-178761260D01*
X174876096Y-178580902D01*
X174747507Y-178423200D01*
X174618917Y-178318348D01*
X174589804Y-178294610D01*
X174409448Y-178200400D01*
X174311631Y-178172411D01*
X174213816Y-178144423D01*
X174194704Y-178142723D01*
X174097162Y-178134051D01*
X174097151Y-178134050D01*
X174094435Y-178133809D01*
X174091691Y-178133809D01*
X171898305Y-178133809D01*
X171898282Y-178133809D01*
X171895562Y-178133810D01*
X171892847Y-178134051D01*
X171892832Y-178134052D01*
X171776180Y-178144423D01*
X171580547Y-178200400D01*
X171400191Y-178294610D01*
X171242489Y-178423200D01*
X171113899Y-178580902D01*
X171019689Y-178761258D01*
X170963712Y-178956891D01*
X170953340Y-179073544D01*
X170953339Y-179073556D01*
X170953098Y-179076272D01*
X170953098Y-179079014D01*
X170953098Y-179079015D01*
X170953098Y-181272401D01*
X170953098Y-181272423D01*
X121899744Y-181272423D01*
X121914688Y-181250058D01*
X121930612Y-181236749D01*
X121949040Y-181200282D01*
X121956612Y-181187314D01*
X121958161Y-181184996D01*
X121984416Y-181145703D01*
X122062933Y-180986485D01*
X122077408Y-180970751D01*
X122090869Y-180931986D01*
X122096790Y-180917828D01*
X122116983Y-180876883D01*
X122175106Y-180705655D01*
X122187762Y-180687657D01*
X122195964Y-180647305D01*
X122200054Y-180632162D01*
X122213328Y-180593060D01*
X122271803Y-180299089D01*
X122291406Y-180000000D01*
X122271803Y-179700911D01*
X122213328Y-179406940D01*
X122200056Y-179367842D01*
X122195963Y-179352692D01*
X122189243Y-179319633D01*
X122175108Y-179294348D01*
X122118290Y-179126967D01*
X122118289Y-179126965D01*
X122116983Y-179123117D01*
X122096791Y-179082173D01*
X122090871Y-179068017D01*
X122079781Y-179036080D01*
X122062933Y-179013514D01*
X121986211Y-178857936D01*
X121986207Y-178857930D01*
X121984416Y-178854297D01*
X121956610Y-178812683D01*
X121949042Y-178799721D01*
X121933778Y-178769514D01*
X121914688Y-178749941D01*
X121820154Y-178608461D01*
X121817895Y-178605080D01*
X121781948Y-178564090D01*
X121772950Y-178552515D01*
X121753795Y-178524610D01*
X121732961Y-178508231D01*
X121622942Y-178382779D01*
X121620269Y-178379731D01*
X121575903Y-178340823D01*
X121565698Y-178330773D01*
X121543016Y-178305695D01*
X121520938Y-178292620D01*
X121397978Y-178184786D01*
X121397970Y-178184780D01*
X121394920Y-178182105D01*
X121342060Y-178146785D01*
X121330895Y-178138377D01*
X121305138Y-178116601D01*
X121282333Y-178106877D01*
X121149077Y-178017838D01*
X121149072Y-178017835D01*
X121145703Y-178015584D01*
X121142067Y-178013791D01*
X121142062Y-178013788D01*
X121084547Y-177985425D01*
X121072669Y-177978732D01*
X121044351Y-177960655D01*
X121021309Y-177954240D01*
X120880525Y-177884813D01*
X120880524Y-177884812D01*
X120876883Y-177883017D01*
X120873036Y-177881711D01*
X120807871Y-177859590D01*
X120795535Y-177854651D01*
X120765223Y-177840585D01*
X120742426Y-177837375D01*
X120596904Y-177787976D01*
X120596891Y-177787972D01*
X120593060Y-177786672D01*
X120589083Y-177785881D01*
X120589076Y-177785879D01*
X120531408Y-177774408D01*
X120516923Y-177771527D01*
X120504379Y-177768344D01*
X120472690Y-177758514D01*
X120450579Y-177758330D01*
X120303068Y-177728988D01*
X120303060Y-177728987D01*
X120299089Y-177728197D01*
X120295046Y-177727932D01*
X120295031Y-177727930D01*
X120216788Y-177722801D01*
X120204276Y-177721340D01*
X120171878Y-177715875D01*
X120150849Y-177718481D01*
X120000000Y-177708594D01*
X119995957Y-177708859D01*
X119995956Y-177708859D01*
X119912798Y-177714309D01*
X119900546Y-177714505D01*
X119868078Y-177713419D01*
X119848489Y-177718523D01*
X119704968Y-177727930D01*
X119704951Y-177727932D01*
X119700911Y-177728197D01*
X119696943Y-177728986D01*
X119696930Y-177728988D01*
X119610301Y-177746220D01*
X119598523Y-177747980D01*
X119566651Y-177751186D01*
X119548793Y-177758455D01*
X119410920Y-177785880D01*
X119410915Y-177785881D01*
X119406940Y-177786672D01*
X119403106Y-177787973D01*
X119403104Y-177787974D01*
X119314624Y-177818009D01*
X119303513Y-177821211D01*
X119272877Y-177828512D01*
X119256976Y-177837577D01*
X119126963Y-177881711D01*
X119126956Y-177881713D01*
X119123117Y-177883017D01*
X119119487Y-177884807D01*
X119119480Y-177884810D01*
X119031012Y-177928438D01*
X119020737Y-177932939D01*
X118991941Y-177944029D01*
X118978154Y-177954504D01*
X118871939Y-178006883D01*
X118854297Y-178015584D01*
X118850923Y-178017838D01*
X118850915Y-178017843D01*
X118764478Y-178075598D01*
X118755181Y-178081237D01*
X118728774Y-178095708D01*
X118717201Y-178107187D01*
X118608462Y-178179845D01*
X118605080Y-178182105D01*
X118602029Y-178184780D01*
X118602022Y-178184786D01*
X118537040Y-178241774D01*
X118536819Y-178241876D01*
X118534736Y-178243795D01*
X118519764Y-178256924D01*
X118511565Y-178263519D01*
X118488015Y-178280871D01*
X118478671Y-178292962D01*
X118382779Y-178377057D01*
X118382771Y-178377064D01*
X118379731Y-178379731D01*
X118377064Y-178382771D01*
X118377056Y-178382780D01*
X118318053Y-178450060D01*
X118317209Y-178450595D01*
X118315795Y-178452386D01*
X118311712Y-178457291D01*
X118301226Y-178469248D01*
X118294202Y-178476623D01*
X118273881Y-178496275D01*
X118266735Y-178508577D01*
X118184786Y-178602022D01*
X118184780Y-178602029D01*
X118182105Y-178605080D01*
X118179846Y-178608459D01*
X118179845Y-178608462D01*
X118128434Y-178685403D01*
X118126918Y-178686669D01*
X118123403Y-178692604D01*
X118119822Y-178698291D01*
X118112758Y-178708864D01*
X118106969Y-178716826D01*
X118090158Y-178738113D01*
X118085099Y-178750259D01*
X118017836Y-178850925D01*
X118017829Y-178850937D01*
X118015584Y-178854297D01*
X118009447Y-178866741D01*
X117971487Y-178943716D01*
X117969504Y-178945870D01*
X117965238Y-178955931D01*
X117962294Y-178962356D01*
X117957752Y-178971567D01*
X117953229Y-178979917D01*
X117940067Y-179002139D01*
X117936931Y-179013788D01*
X117884816Y-179119467D01*
X117884810Y-179119479D01*
X117883017Y-179123117D01*
X117881713Y-179126956D01*
X117881711Y-179126963D01*
X117849963Y-179220489D01*
X117847739Y-179223651D01*
X117843909Y-179237632D01*
X117841735Y-179244728D01*
X117839025Y-179252711D01*
X117835768Y-179261257D01*
X117826261Y-179283676D01*
X117824824Y-179294548D01*
X117787976Y-179403100D01*
X117786672Y-179406940D01*
X117785882Y-179410907D01*
X117785880Y-179410918D01*
X117765999Y-179510866D01*
X117763782Y-179515102D01*
X117761431Y-179532590D01*
X117760153Y-179540259D01*
X117758730Y-179547411D01*
X117756709Y-179555972D01*
X117750725Y-179577815D01*
X117750727Y-179587642D01*
X117728988Y-179696930D01*
X117728986Y-179696943D01*
X117728197Y-179700911D01*
X117727932Y-179704951D01*
X117727930Y-179704968D01*
X117721059Y-179809798D01*
X117719105Y-179815133D01*
X117719105Y-179835563D01*
X117718839Y-179843682D01*
X117718398Y-179850403D01*
X117717558Y-179858810D01*
X117714797Y-179879336D01*
X117715938Y-179887942D01*
X117708859Y-179995955D01*
X117708594Y-180000000D01*
X105000500Y-180000000D01*
X105000500Y-174550709D01*
X161205541Y-174550709D01*
X161205830Y-174554933D01*
X161218437Y-174739247D01*
X161224604Y-174829397D01*
X161225463Y-174833535D01*
X161225465Y-174833543D01*
X161263533Y-175016737D01*
X161281437Y-175102894D01*
X161282855Y-175106885D01*
X161282856Y-175106887D01*
X161344279Y-175279717D01*
X161374982Y-175366105D01*
X161376929Y-175369863D01*
X161376931Y-175369867D01*
X161458580Y-175527441D01*
X161503497Y-175614126D01*
X161664586Y-175842338D01*
X161855250Y-176046490D01*
X162071937Y-176222778D01*
X162310610Y-176367918D01*
X162566824Y-176479207D01*
X162778002Y-176538376D01*
X162831724Y-176553429D01*
X162831726Y-176553429D01*
X162835804Y-176554572D01*
X163112542Y-176592609D01*
X163116779Y-176592609D01*
X163387645Y-176592609D01*
X163391882Y-176592609D01*
X163668620Y-176554572D01*
X163937600Y-176479207D01*
X164193814Y-176367918D01*
X164432487Y-176222778D01*
X164649174Y-176046490D01*
X164839838Y-175842338D01*
X165000927Y-175614126D01*
X165129442Y-175366105D01*
X165222987Y-175102894D01*
X165279820Y-174829397D01*
X165298883Y-174550709D01*
X180691113Y-174550709D01*
X180691402Y-174554933D01*
X180704009Y-174739247D01*
X180710176Y-174829397D01*
X180711035Y-174833535D01*
X180711037Y-174833543D01*
X180749105Y-175016737D01*
X180767009Y-175102894D01*
X180768427Y-175106885D01*
X180768428Y-175106887D01*
X180829851Y-175279717D01*
X180860554Y-175366105D01*
X180862501Y-175369863D01*
X180862503Y-175369867D01*
X180944152Y-175527441D01*
X180989069Y-175614126D01*
X181150158Y-175842338D01*
X181340822Y-176046490D01*
X181557509Y-176222778D01*
X181796182Y-176367918D01*
X182052396Y-176479207D01*
X182263574Y-176538376D01*
X182317296Y-176553429D01*
X182317298Y-176553429D01*
X182321376Y-176554572D01*
X182598114Y-176592609D01*
X182602351Y-176592609D01*
X182873217Y-176592609D01*
X182877454Y-176592609D01*
X183154192Y-176554572D01*
X183423172Y-176479207D01*
X183679386Y-176367918D01*
X183918059Y-176222778D01*
X184134746Y-176046490D01*
X184325410Y-175842338D01*
X184486499Y-175614126D01*
X184615014Y-175366105D01*
X184708559Y-175102894D01*
X184765392Y-174829397D01*
X184784455Y-174550709D01*
X205205541Y-174550709D01*
X205205830Y-174554933D01*
X205218437Y-174739247D01*
X205224604Y-174829397D01*
X205225463Y-174833535D01*
X205225465Y-174833543D01*
X205263533Y-175016737D01*
X205281437Y-175102894D01*
X205282855Y-175106885D01*
X205282856Y-175106887D01*
X205344279Y-175279717D01*
X205374982Y-175366105D01*
X205376929Y-175369863D01*
X205376931Y-175369867D01*
X205458580Y-175527441D01*
X205503497Y-175614126D01*
X205664586Y-175842338D01*
X205855250Y-176046490D01*
X206071937Y-176222778D01*
X206310610Y-176367918D01*
X206566824Y-176479207D01*
X206778002Y-176538376D01*
X206831724Y-176553429D01*
X206831726Y-176553429D01*
X206835804Y-176554572D01*
X207112542Y-176592609D01*
X207116779Y-176592609D01*
X207387645Y-176592609D01*
X207391882Y-176592609D01*
X207668620Y-176554572D01*
X207937600Y-176479207D01*
X208193814Y-176367918D01*
X208432487Y-176222778D01*
X208649174Y-176046490D01*
X208839838Y-175842338D01*
X209000927Y-175614126D01*
X209129442Y-175366105D01*
X209222987Y-175102894D01*
X209279820Y-174829397D01*
X209298883Y-174550709D01*
X224691113Y-174550709D01*
X224691401Y-174554919D01*
X224691401Y-174554933D01*
X224704293Y-174743393D01*
X224710176Y-174829397D01*
X224711035Y-174833535D01*
X224711037Y-174833543D01*
X224749105Y-175016737D01*
X224767009Y-175102894D01*
X224768427Y-175106885D01*
X224768428Y-175106887D01*
X224829851Y-175279717D01*
X224860554Y-175366105D01*
X224862501Y-175369863D01*
X224862503Y-175369867D01*
X224944152Y-175527441D01*
X224989069Y-175614126D01*
X225150158Y-175842338D01*
X225340822Y-176046490D01*
X225557509Y-176222778D01*
X225796182Y-176367918D01*
X226052396Y-176479207D01*
X226263574Y-176538376D01*
X226317296Y-176553429D01*
X226317298Y-176553429D01*
X226321376Y-176554572D01*
X226598114Y-176592609D01*
X226602351Y-176592609D01*
X226873217Y-176592609D01*
X226877454Y-176592609D01*
X227154192Y-176554572D01*
X227423172Y-176479207D01*
X227679386Y-176367918D01*
X227918059Y-176222778D01*
X228134746Y-176046490D01*
X228325410Y-175842338D01*
X228486499Y-175614126D01*
X228615014Y-175366105D01*
X228708559Y-175102894D01*
X228765392Y-174829397D01*
X228784455Y-174550709D01*
X249205541Y-174550709D01*
X249205830Y-174554933D01*
X249218437Y-174739247D01*
X249224604Y-174829397D01*
X249225463Y-174833535D01*
X249225465Y-174833543D01*
X249263533Y-175016737D01*
X249281437Y-175102894D01*
X249282855Y-175106885D01*
X249282856Y-175106887D01*
X249344279Y-175279717D01*
X249374982Y-175366105D01*
X249376929Y-175369863D01*
X249376931Y-175369867D01*
X249458580Y-175527441D01*
X249503497Y-175614126D01*
X249664586Y-175842338D01*
X249855250Y-176046490D01*
X250071937Y-176222778D01*
X250310610Y-176367918D01*
X250566824Y-176479207D01*
X250778002Y-176538376D01*
X250831724Y-176553429D01*
X250831726Y-176553429D01*
X250835804Y-176554572D01*
X251112542Y-176592609D01*
X251116779Y-176592609D01*
X251387645Y-176592609D01*
X251391882Y-176592609D01*
X251668620Y-176554572D01*
X251937600Y-176479207D01*
X252193814Y-176367918D01*
X252432487Y-176222778D01*
X252649174Y-176046490D01*
X252839838Y-175842338D01*
X253000927Y-175614126D01*
X253129442Y-175366105D01*
X253222987Y-175102894D01*
X253279820Y-174829397D01*
X253298883Y-174550709D01*
X268691113Y-174550709D01*
X268691402Y-174554933D01*
X268704009Y-174739247D01*
X268710176Y-174829397D01*
X268711035Y-174833535D01*
X268711037Y-174833543D01*
X268749105Y-175016737D01*
X268767009Y-175102894D01*
X268768427Y-175106885D01*
X268768428Y-175106887D01*
X268829851Y-175279717D01*
X268860554Y-175366105D01*
X268862501Y-175369863D01*
X268862503Y-175369867D01*
X268944152Y-175527441D01*
X268989069Y-175614126D01*
X269150158Y-175842338D01*
X269340822Y-176046490D01*
X269557509Y-176222778D01*
X269796182Y-176367918D01*
X270052396Y-176479207D01*
X270263574Y-176538376D01*
X270317296Y-176553429D01*
X270317298Y-176553429D01*
X270321376Y-176554572D01*
X270598114Y-176592609D01*
X270602351Y-176592609D01*
X270873217Y-176592609D01*
X270877454Y-176592609D01*
X271154192Y-176554572D01*
X271423172Y-176479207D01*
X271679386Y-176367918D01*
X271918059Y-176222778D01*
X272134746Y-176046490D01*
X272325410Y-175842338D01*
X272486499Y-175614126D01*
X272615014Y-175366105D01*
X272708559Y-175102894D01*
X272765392Y-174829397D01*
X272784455Y-174550709D01*
X293205541Y-174550709D01*
X293205830Y-174554933D01*
X293218437Y-174739247D01*
X293224604Y-174829397D01*
X293225463Y-174833535D01*
X293225465Y-174833543D01*
X293263533Y-175016737D01*
X293281437Y-175102894D01*
X293282855Y-175106885D01*
X293282856Y-175106887D01*
X293344279Y-175279717D01*
X293374982Y-175366105D01*
X293376929Y-175369863D01*
X293376931Y-175369867D01*
X293458580Y-175527441D01*
X293503497Y-175614126D01*
X293664586Y-175842338D01*
X293855250Y-176046490D01*
X294071937Y-176222778D01*
X294310610Y-176367918D01*
X294566824Y-176479207D01*
X294778002Y-176538376D01*
X294831724Y-176553429D01*
X294831726Y-176553429D01*
X294835804Y-176554572D01*
X295112542Y-176592609D01*
X295116779Y-176592609D01*
X295387645Y-176592609D01*
X295391882Y-176592609D01*
X295668620Y-176554572D01*
X295937600Y-176479207D01*
X296193814Y-176367918D01*
X296432487Y-176222778D01*
X296649174Y-176046490D01*
X296839838Y-175842338D01*
X297000927Y-175614126D01*
X297129442Y-175366105D01*
X297222987Y-175102894D01*
X297279820Y-174829397D01*
X297298883Y-174550709D01*
X312691113Y-174550709D01*
X312691402Y-174554933D01*
X312704009Y-174739247D01*
X312710176Y-174829397D01*
X312711035Y-174833535D01*
X312711037Y-174833543D01*
X312749105Y-175016737D01*
X312767009Y-175102894D01*
X312768427Y-175106885D01*
X312768428Y-175106887D01*
X312829851Y-175279717D01*
X312860554Y-175366105D01*
X312862501Y-175369863D01*
X312862503Y-175369867D01*
X312944152Y-175527441D01*
X312989069Y-175614126D01*
X313150158Y-175842338D01*
X313340822Y-176046490D01*
X313557509Y-176222778D01*
X313796182Y-176367918D01*
X314052396Y-176479207D01*
X314263574Y-176538376D01*
X314317296Y-176553429D01*
X314317298Y-176553429D01*
X314321376Y-176554572D01*
X314598114Y-176592609D01*
X314602351Y-176592609D01*
X314873217Y-176592609D01*
X314877454Y-176592609D01*
X315154192Y-176554572D01*
X315423172Y-176479207D01*
X315679386Y-176367918D01*
X315918059Y-176222778D01*
X316134746Y-176046490D01*
X316325410Y-175842338D01*
X316486499Y-175614126D01*
X316615014Y-175366105D01*
X316708559Y-175102894D01*
X316765392Y-174829397D01*
X316784455Y-174550709D01*
X337205541Y-174550709D01*
X337205830Y-174554933D01*
X337218437Y-174739247D01*
X337224604Y-174829397D01*
X337225463Y-174833535D01*
X337225465Y-174833543D01*
X337263533Y-175016737D01*
X337281437Y-175102894D01*
X337282855Y-175106885D01*
X337282856Y-175106887D01*
X337344279Y-175279717D01*
X337374982Y-175366105D01*
X337376929Y-175369863D01*
X337376931Y-175369867D01*
X337458580Y-175527441D01*
X337503497Y-175614126D01*
X337664586Y-175842338D01*
X337855250Y-176046490D01*
X338071937Y-176222778D01*
X338310610Y-176367918D01*
X338566824Y-176479207D01*
X338778002Y-176538376D01*
X338831724Y-176553429D01*
X338831726Y-176553429D01*
X338835804Y-176554572D01*
X339112542Y-176592609D01*
X339116779Y-176592609D01*
X339387645Y-176592609D01*
X339391882Y-176592609D01*
X339668620Y-176554572D01*
X339937600Y-176479207D01*
X340193814Y-176367918D01*
X340432487Y-176222778D01*
X340649174Y-176046490D01*
X340839838Y-175842338D01*
X341000927Y-175614126D01*
X341129442Y-175366105D01*
X341222987Y-175102894D01*
X341279820Y-174829397D01*
X341298883Y-174550709D01*
X356691113Y-174550709D01*
X356691402Y-174554933D01*
X356704009Y-174739247D01*
X356710176Y-174829397D01*
X356711035Y-174833535D01*
X356711037Y-174833543D01*
X356749105Y-175016737D01*
X356767009Y-175102894D01*
X356768427Y-175106885D01*
X356768428Y-175106887D01*
X356829851Y-175279717D01*
X356860554Y-175366105D01*
X356862501Y-175369863D01*
X356862503Y-175369867D01*
X356944152Y-175527441D01*
X356989069Y-175614126D01*
X357150158Y-175842338D01*
X357340822Y-176046490D01*
X357557509Y-176222778D01*
X357796182Y-176367918D01*
X358052396Y-176479207D01*
X358263574Y-176538376D01*
X358317296Y-176553429D01*
X358317298Y-176553429D01*
X358321376Y-176554572D01*
X358598114Y-176592609D01*
X358602351Y-176592609D01*
X358873217Y-176592609D01*
X358877454Y-176592609D01*
X359154192Y-176554572D01*
X359423172Y-176479207D01*
X359679386Y-176367918D01*
X359918059Y-176222778D01*
X360134746Y-176046490D01*
X360325410Y-175842338D01*
X360486499Y-175614126D01*
X360615014Y-175366105D01*
X360708559Y-175102894D01*
X360765392Y-174829397D01*
X360784455Y-174550709D01*
X360778289Y-174460559D01*
X381205541Y-174460559D01*
X381224604Y-174739247D01*
X381225463Y-174743385D01*
X381225465Y-174743393D01*
X381280574Y-175008592D01*
X381281437Y-175012744D01*
X381282855Y-175016735D01*
X381282856Y-175016737D01*
X381312000Y-175098742D01*
X381374982Y-175275955D01*
X381376929Y-175279713D01*
X381376931Y-175279717D01*
X381501547Y-175520213D01*
X381503497Y-175523976D01*
X381664586Y-175752188D01*
X381855250Y-175956340D01*
X382071937Y-176132628D01*
X382310610Y-176277768D01*
X382505999Y-176362637D01*
X382522038Y-176369604D01*
X382566824Y-176389057D01*
X382778002Y-176448226D01*
X382831724Y-176463279D01*
X382831726Y-176463279D01*
X382835804Y-176464422D01*
X383112542Y-176502459D01*
X383116779Y-176502459D01*
X383387645Y-176502459D01*
X383391882Y-176502459D01*
X383668620Y-176464422D01*
X383937600Y-176389057D01*
X384193814Y-176277768D01*
X384432487Y-176132628D01*
X384649174Y-175956340D01*
X384839838Y-175752188D01*
X385000927Y-175523976D01*
X385129442Y-175275955D01*
X385222987Y-175012744D01*
X385279820Y-174739247D01*
X385298883Y-174460559D01*
X400691113Y-174460559D01*
X400710176Y-174739247D01*
X400711035Y-174743385D01*
X400711037Y-174743393D01*
X400766146Y-175008592D01*
X400767009Y-175012744D01*
X400768427Y-175016735D01*
X400768428Y-175016737D01*
X400797572Y-175098742D01*
X400860554Y-175275955D01*
X400862501Y-175279713D01*
X400862503Y-175279717D01*
X400987119Y-175520213D01*
X400989069Y-175523976D01*
X401150158Y-175752188D01*
X401340822Y-175956340D01*
X401557509Y-176132628D01*
X401796182Y-176277768D01*
X401991571Y-176362637D01*
X402007610Y-176369604D01*
X402052396Y-176389057D01*
X402263574Y-176448226D01*
X402317296Y-176463279D01*
X402317298Y-176463279D01*
X402321376Y-176464422D01*
X402598114Y-176502459D01*
X402602351Y-176502459D01*
X402873217Y-176502459D01*
X402877454Y-176502459D01*
X403154192Y-176464422D01*
X403423172Y-176389057D01*
X403679386Y-176277768D01*
X403918059Y-176132628D01*
X404134746Y-175956340D01*
X404325410Y-175752188D01*
X404486499Y-175523976D01*
X404615014Y-175275955D01*
X404708559Y-175012744D01*
X404765392Y-174739247D01*
X404778289Y-174550709D01*
X425205541Y-174550709D01*
X425205830Y-174554933D01*
X425218437Y-174739247D01*
X425224604Y-174829397D01*
X425225463Y-174833535D01*
X425225465Y-174833543D01*
X425263533Y-175016737D01*
X425281437Y-175102894D01*
X425282855Y-175106885D01*
X425282856Y-175106887D01*
X425344279Y-175279717D01*
X425374982Y-175366105D01*
X425376929Y-175369863D01*
X425376931Y-175369867D01*
X425458580Y-175527441D01*
X425503497Y-175614126D01*
X425664586Y-175842338D01*
X425855250Y-176046490D01*
X426071937Y-176222778D01*
X426310610Y-176367918D01*
X426566824Y-176479207D01*
X426778002Y-176538376D01*
X426831724Y-176553429D01*
X426831726Y-176553429D01*
X426835804Y-176554572D01*
X427112542Y-176592609D01*
X427116779Y-176592609D01*
X427387645Y-176592609D01*
X427391882Y-176592609D01*
X427668620Y-176554572D01*
X427937600Y-176479207D01*
X428193814Y-176367918D01*
X428432487Y-176222778D01*
X428649174Y-176046490D01*
X428839838Y-175842338D01*
X429000927Y-175614126D01*
X429129442Y-175366105D01*
X429222987Y-175102894D01*
X429279820Y-174829397D01*
X429298883Y-174550709D01*
X444691113Y-174550709D01*
X444691402Y-174554933D01*
X444704009Y-174739247D01*
X444710176Y-174829397D01*
X444711035Y-174833535D01*
X444711037Y-174833543D01*
X444749105Y-175016737D01*
X444767009Y-175102894D01*
X444768427Y-175106885D01*
X444768428Y-175106887D01*
X444829851Y-175279717D01*
X444860554Y-175366105D01*
X444862501Y-175369863D01*
X444862503Y-175369867D01*
X444944152Y-175527441D01*
X444989069Y-175614126D01*
X445150158Y-175842338D01*
X445340822Y-176046490D01*
X445557509Y-176222778D01*
X445796182Y-176367918D01*
X446052396Y-176479207D01*
X446263574Y-176538376D01*
X446317296Y-176553429D01*
X446317298Y-176553429D01*
X446321376Y-176554572D01*
X446598114Y-176592609D01*
X446602351Y-176592609D01*
X446873217Y-176592609D01*
X446877454Y-176592609D01*
X447154192Y-176554572D01*
X447423172Y-176479207D01*
X447679386Y-176367918D01*
X447918059Y-176222778D01*
X448134746Y-176046490D01*
X448325410Y-175842338D01*
X448486499Y-175614126D01*
X448615014Y-175366105D01*
X448708559Y-175102894D01*
X448765392Y-174829397D01*
X448784455Y-174550709D01*
X469205541Y-174550709D01*
X469205830Y-174554933D01*
X469218437Y-174739247D01*
X469224604Y-174829397D01*
X469225463Y-174833535D01*
X469225465Y-174833543D01*
X469263533Y-175016737D01*
X469281437Y-175102894D01*
X469282855Y-175106885D01*
X469282856Y-175106887D01*
X469344279Y-175279717D01*
X469374982Y-175366105D01*
X469376929Y-175369863D01*
X469376931Y-175369867D01*
X469458580Y-175527441D01*
X469503497Y-175614126D01*
X469664586Y-175842338D01*
X469855250Y-176046490D01*
X470071937Y-176222778D01*
X470310610Y-176367918D01*
X470566824Y-176479207D01*
X470778002Y-176538376D01*
X470831724Y-176553429D01*
X470831726Y-176553429D01*
X470835804Y-176554572D01*
X471112542Y-176592609D01*
X471116779Y-176592609D01*
X471387645Y-176592609D01*
X471391882Y-176592609D01*
X471668620Y-176554572D01*
X471937600Y-176479207D01*
X472193814Y-176367918D01*
X472432487Y-176222778D01*
X472649174Y-176046490D01*
X472839838Y-175842338D01*
X473000927Y-175614126D01*
X473129442Y-175366105D01*
X473222987Y-175102894D01*
X473279820Y-174829397D01*
X473298883Y-174550709D01*
X488691113Y-174550709D01*
X488691401Y-174554933D01*
X488691402Y-174554933D01*
X488704009Y-174739247D01*
X488710176Y-174829397D01*
X488711035Y-174833535D01*
X488711037Y-174833543D01*
X488749105Y-175016737D01*
X488767009Y-175102894D01*
X488768427Y-175106885D01*
X488768428Y-175106887D01*
X488829851Y-175279717D01*
X488860554Y-175366105D01*
X488862501Y-175369863D01*
X488862503Y-175369867D01*
X488944152Y-175527441D01*
X488989069Y-175614126D01*
X489150158Y-175842338D01*
X489340822Y-176046490D01*
X489557509Y-176222778D01*
X489796182Y-176367918D01*
X490052396Y-176479207D01*
X490263574Y-176538376D01*
X490317296Y-176553429D01*
X490317298Y-176553429D01*
X490321376Y-176554572D01*
X490598114Y-176592609D01*
X490602351Y-176592609D01*
X490873217Y-176592609D01*
X490877454Y-176592609D01*
X491154192Y-176554572D01*
X491423172Y-176479207D01*
X491679386Y-176367918D01*
X491918059Y-176222778D01*
X492134746Y-176046490D01*
X492325410Y-175842338D01*
X492486499Y-175614126D01*
X492615014Y-175366105D01*
X492708559Y-175102894D01*
X492765392Y-174829397D01*
X492784455Y-174550709D01*
X492765392Y-174272021D01*
X492708559Y-173998524D01*
X492615014Y-173735313D01*
X492486499Y-173487292D01*
X492325410Y-173259080D01*
X492134746Y-173054928D01*
X492131464Y-173052258D01*
X492131461Y-173052255D01*
X492020651Y-172962105D01*
X491918059Y-172878640D01*
X491914435Y-172876436D01*
X491914432Y-172876434D01*
X491683004Y-172735700D01*
X491683002Y-172735699D01*
X491679386Y-172733500D01*
X491659229Y-172724744D01*
X491427053Y-172623896D01*
X491427043Y-172623892D01*
X491423172Y-172622211D01*
X491419100Y-172621070D01*
X491158271Y-172547988D01*
X491158258Y-172547985D01*
X491154192Y-172546846D01*
X491150005Y-172546270D01*
X491149993Y-172546268D01*
X490881651Y-172509385D01*
X490881638Y-172509384D01*
X490877454Y-172508809D01*
X490598114Y-172508809D01*
X490593930Y-172509384D01*
X490593916Y-172509385D01*
X490325574Y-172546268D01*
X490325559Y-172546270D01*
X490321376Y-172546846D01*
X490317312Y-172547984D01*
X490317296Y-172547988D01*
X490056467Y-172621070D01*
X490056462Y-172621071D01*
X490052396Y-172622211D01*
X490048528Y-172623890D01*
X490048514Y-172623896D01*
X489800065Y-172731813D01*
X489800060Y-172731815D01*
X489796182Y-172733500D01*
X489792571Y-172735695D01*
X489792563Y-172735700D01*
X489561135Y-172876434D01*
X489561124Y-172876441D01*
X489557509Y-172878640D01*
X489554219Y-172881316D01*
X489554217Y-172881318D01*
X489344106Y-173052255D01*
X489344095Y-173052264D01*
X489340822Y-173054928D01*
X489150158Y-173259080D01*
X489147715Y-173262540D01*
X489147710Y-173262547D01*
X488991515Y-173483826D01*
X488991511Y-173483831D01*
X488989069Y-173487292D01*
X488987123Y-173491046D01*
X488987119Y-173491054D01*
X488862503Y-173731550D01*
X488862498Y-173731560D01*
X488860554Y-173735313D01*
X488859137Y-173739298D01*
X488859133Y-173739309D01*
X488768428Y-173994530D01*
X488767009Y-173998524D01*
X488766147Y-174002669D01*
X488766146Y-174002675D01*
X488711037Y-174267874D01*
X488711035Y-174267884D01*
X488710176Y-174272021D01*
X488709887Y-174276236D01*
X488709887Y-174276241D01*
X488691402Y-174546484D01*
X488691113Y-174550709D01*
X473298883Y-174550709D01*
X473279820Y-174272021D01*
X473222987Y-173998524D01*
X473129442Y-173735313D01*
X473000927Y-173487292D01*
X472839838Y-173259080D01*
X472649174Y-173054928D01*
X472645892Y-173052258D01*
X472645889Y-173052255D01*
X472535079Y-172962105D01*
X472432487Y-172878640D01*
X472428863Y-172876436D01*
X472428860Y-172876434D01*
X472197432Y-172735700D01*
X472197430Y-172735699D01*
X472193814Y-172733500D01*
X472173657Y-172724744D01*
X471941481Y-172623896D01*
X471941471Y-172623892D01*
X471937600Y-172622211D01*
X471933528Y-172621070D01*
X471672699Y-172547988D01*
X471672686Y-172547985D01*
X471668620Y-172546846D01*
X471664433Y-172546270D01*
X471664421Y-172546268D01*
X471396079Y-172509385D01*
X471396066Y-172509384D01*
X471391882Y-172508809D01*
X471112542Y-172508809D01*
X471108358Y-172509384D01*
X471108344Y-172509385D01*
X470840002Y-172546268D01*
X470839987Y-172546270D01*
X470835804Y-172546846D01*
X470831740Y-172547984D01*
X470831724Y-172547988D01*
X470570895Y-172621070D01*
X470570890Y-172621071D01*
X470566824Y-172622211D01*
X470562956Y-172623890D01*
X470562942Y-172623896D01*
X470314493Y-172731813D01*
X470314488Y-172731815D01*
X470310610Y-172733500D01*
X470306999Y-172735695D01*
X470306991Y-172735700D01*
X470075563Y-172876434D01*
X470075552Y-172876441D01*
X470071937Y-172878640D01*
X470068647Y-172881316D01*
X470068645Y-172881318D01*
X469858534Y-173052255D01*
X469858523Y-173052264D01*
X469855250Y-173054928D01*
X469664586Y-173259080D01*
X469662143Y-173262540D01*
X469662138Y-173262547D01*
X469505943Y-173483826D01*
X469505939Y-173483831D01*
X469503497Y-173487292D01*
X469501551Y-173491046D01*
X469501547Y-173491054D01*
X469376931Y-173731550D01*
X469376926Y-173731560D01*
X469374982Y-173735313D01*
X469373565Y-173739298D01*
X469373561Y-173739309D01*
X469282856Y-173994530D01*
X469281437Y-173998524D01*
X469280575Y-174002669D01*
X469280574Y-174002675D01*
X469225465Y-174267874D01*
X469225463Y-174267884D01*
X469224604Y-174272021D01*
X469224315Y-174276236D01*
X469224315Y-174276241D01*
X469205830Y-174546484D01*
X469205541Y-174550709D01*
X448784455Y-174550709D01*
X448765392Y-174272021D01*
X448708559Y-173998524D01*
X448615014Y-173735313D01*
X448486499Y-173487292D01*
X448325410Y-173259080D01*
X448134746Y-173054928D01*
X448131464Y-173052258D01*
X448131461Y-173052255D01*
X448020651Y-172962105D01*
X447918059Y-172878640D01*
X447914435Y-172876436D01*
X447914432Y-172876434D01*
X447683004Y-172735700D01*
X447683002Y-172735699D01*
X447679386Y-172733500D01*
X447659229Y-172724744D01*
X447427053Y-172623896D01*
X447427043Y-172623892D01*
X447423172Y-172622211D01*
X447419100Y-172621070D01*
X447158271Y-172547988D01*
X447158258Y-172547985D01*
X447154192Y-172546846D01*
X447150005Y-172546270D01*
X447149993Y-172546268D01*
X446881651Y-172509385D01*
X446881638Y-172509384D01*
X446877454Y-172508809D01*
X446598114Y-172508809D01*
X446593930Y-172509384D01*
X446593916Y-172509385D01*
X446325574Y-172546268D01*
X446325559Y-172546270D01*
X446321376Y-172546846D01*
X446317312Y-172547984D01*
X446317296Y-172547988D01*
X446056467Y-172621070D01*
X446056462Y-172621071D01*
X446052396Y-172622211D01*
X446048528Y-172623890D01*
X446048514Y-172623896D01*
X445800065Y-172731813D01*
X445800060Y-172731815D01*
X445796182Y-172733500D01*
X445792571Y-172735695D01*
X445792563Y-172735700D01*
X445561135Y-172876434D01*
X445561124Y-172876441D01*
X445557509Y-172878640D01*
X445554219Y-172881316D01*
X445554217Y-172881318D01*
X445344106Y-173052255D01*
X445344095Y-173052264D01*
X445340822Y-173054928D01*
X445150158Y-173259080D01*
X445147715Y-173262540D01*
X445147710Y-173262547D01*
X444991515Y-173483826D01*
X444991511Y-173483831D01*
X444989069Y-173487292D01*
X444987123Y-173491046D01*
X444987119Y-173491054D01*
X444862503Y-173731550D01*
X444862498Y-173731560D01*
X444860554Y-173735313D01*
X444859137Y-173739298D01*
X444859133Y-173739309D01*
X444768428Y-173994530D01*
X444767009Y-173998524D01*
X444766147Y-174002669D01*
X444766146Y-174002675D01*
X444711037Y-174267874D01*
X444711035Y-174267884D01*
X444710176Y-174272021D01*
X444709887Y-174276236D01*
X444709887Y-174276241D01*
X444691402Y-174546484D01*
X444691113Y-174550709D01*
X429298883Y-174550709D01*
X429279820Y-174272021D01*
X429222987Y-173998524D01*
X429129442Y-173735313D01*
X429000927Y-173487292D01*
X428839838Y-173259080D01*
X428649174Y-173054928D01*
X428645892Y-173052258D01*
X428645889Y-173052255D01*
X428535079Y-172962105D01*
X428432487Y-172878640D01*
X428428863Y-172876436D01*
X428428860Y-172876434D01*
X428197432Y-172735700D01*
X428197430Y-172735699D01*
X428193814Y-172733500D01*
X428173657Y-172724744D01*
X427941481Y-172623896D01*
X427941471Y-172623892D01*
X427937600Y-172622211D01*
X427933528Y-172621070D01*
X427672699Y-172547988D01*
X427672686Y-172547985D01*
X427668620Y-172546846D01*
X427664433Y-172546270D01*
X427664421Y-172546268D01*
X427396079Y-172509385D01*
X427396066Y-172509384D01*
X427391882Y-172508809D01*
X427112542Y-172508809D01*
X427108358Y-172509384D01*
X427108344Y-172509385D01*
X426840002Y-172546268D01*
X426839987Y-172546270D01*
X426835804Y-172546846D01*
X426831740Y-172547984D01*
X426831724Y-172547988D01*
X426570895Y-172621070D01*
X426570890Y-172621071D01*
X426566824Y-172622211D01*
X426562956Y-172623890D01*
X426562942Y-172623896D01*
X426314493Y-172731813D01*
X426314488Y-172731815D01*
X426310610Y-172733500D01*
X426306999Y-172735695D01*
X426306991Y-172735700D01*
X426075563Y-172876434D01*
X426075552Y-172876441D01*
X426071937Y-172878640D01*
X426068647Y-172881316D01*
X426068645Y-172881318D01*
X425858534Y-173052255D01*
X425858523Y-173052264D01*
X425855250Y-173054928D01*
X425664586Y-173259080D01*
X425662143Y-173262540D01*
X425662138Y-173262547D01*
X425505943Y-173483826D01*
X425505939Y-173483831D01*
X425503497Y-173487292D01*
X425501551Y-173491046D01*
X425501547Y-173491054D01*
X425376931Y-173731550D01*
X425376926Y-173731560D01*
X425374982Y-173735313D01*
X425373565Y-173739298D01*
X425373561Y-173739309D01*
X425282856Y-173994530D01*
X425281437Y-173998524D01*
X425280575Y-174002669D01*
X425280574Y-174002675D01*
X425225465Y-174267874D01*
X425225463Y-174267884D01*
X425224604Y-174272021D01*
X425224315Y-174276236D01*
X425224315Y-174276241D01*
X425205830Y-174546484D01*
X425205541Y-174550709D01*
X404778289Y-174550709D01*
X404784455Y-174460559D01*
X404765392Y-174181871D01*
X404708559Y-173908374D01*
X404615014Y-173645163D01*
X404486499Y-173397142D01*
X404325410Y-173168930D01*
X404134746Y-172964778D01*
X404131464Y-172962108D01*
X404131461Y-172962105D01*
X404026157Y-172876434D01*
X403918059Y-172788490D01*
X403914435Y-172786286D01*
X403914432Y-172786284D01*
X403683004Y-172645550D01*
X403683002Y-172645549D01*
X403679386Y-172643350D01*
X403628092Y-172621070D01*
X403427053Y-172533746D01*
X403427043Y-172533742D01*
X403423172Y-172532061D01*
X403419100Y-172530920D01*
X403158271Y-172457838D01*
X403158258Y-172457835D01*
X403154192Y-172456696D01*
X403150005Y-172456120D01*
X403149993Y-172456118D01*
X402881651Y-172419235D01*
X402881638Y-172419234D01*
X402877454Y-172418659D01*
X402598114Y-172418659D01*
X402593930Y-172419234D01*
X402593916Y-172419235D01*
X402325574Y-172456118D01*
X402325559Y-172456120D01*
X402321376Y-172456696D01*
X402317312Y-172457834D01*
X402317296Y-172457838D01*
X402056467Y-172530920D01*
X402056462Y-172530921D01*
X402052396Y-172532061D01*
X402048528Y-172533740D01*
X402048514Y-172533746D01*
X401800065Y-172641663D01*
X401800060Y-172641665D01*
X401796182Y-172643350D01*
X401792571Y-172645545D01*
X401792563Y-172645550D01*
X401561135Y-172786284D01*
X401561124Y-172786291D01*
X401557509Y-172788490D01*
X401554219Y-172791166D01*
X401554217Y-172791168D01*
X401344106Y-172962105D01*
X401344095Y-172962114D01*
X401340822Y-172964778D01*
X401337934Y-172967869D01*
X401337931Y-172967873D01*
X401153053Y-173165830D01*
X401150158Y-173168930D01*
X401147715Y-173172390D01*
X401147710Y-173172397D01*
X400991515Y-173393676D01*
X400991511Y-173393681D01*
X400989069Y-173397142D01*
X400987123Y-173400896D01*
X400987119Y-173400904D01*
X400862503Y-173641400D01*
X400862498Y-173641410D01*
X400860554Y-173645163D01*
X400859137Y-173649148D01*
X400859133Y-173649159D01*
X400768428Y-173904380D01*
X400767009Y-173908374D01*
X400766147Y-173912519D01*
X400766146Y-173912525D01*
X400711037Y-174177724D01*
X400711035Y-174177734D01*
X400710176Y-174181871D01*
X400709887Y-174186086D01*
X400709887Y-174186091D01*
X400703721Y-174276241D01*
X400691113Y-174460559D01*
X385298883Y-174460559D01*
X385279820Y-174181871D01*
X385222987Y-173908374D01*
X385129442Y-173645163D01*
X385000927Y-173397142D01*
X384839838Y-173168930D01*
X384649174Y-172964778D01*
X384645892Y-172962108D01*
X384645889Y-172962105D01*
X384540585Y-172876434D01*
X384432487Y-172788490D01*
X384428863Y-172786286D01*
X384428860Y-172786284D01*
X384197432Y-172645550D01*
X384197430Y-172645549D01*
X384193814Y-172643350D01*
X384142520Y-172621070D01*
X383941481Y-172533746D01*
X383941471Y-172533742D01*
X383937600Y-172532061D01*
X383933528Y-172530920D01*
X383672699Y-172457838D01*
X383672686Y-172457835D01*
X383668620Y-172456696D01*
X383664433Y-172456120D01*
X383664421Y-172456118D01*
X383396079Y-172419235D01*
X383396066Y-172419234D01*
X383391882Y-172418659D01*
X383112542Y-172418659D01*
X383108358Y-172419234D01*
X383108344Y-172419235D01*
X382840002Y-172456118D01*
X382839987Y-172456120D01*
X382835804Y-172456696D01*
X382831740Y-172457834D01*
X382831724Y-172457838D01*
X382570895Y-172530920D01*
X382570890Y-172530921D01*
X382566824Y-172532061D01*
X382562956Y-172533740D01*
X382562942Y-172533746D01*
X382314493Y-172641663D01*
X382314488Y-172641665D01*
X382310610Y-172643350D01*
X382306999Y-172645545D01*
X382306991Y-172645550D01*
X382075563Y-172786284D01*
X382075552Y-172786291D01*
X382071937Y-172788490D01*
X382068647Y-172791166D01*
X382068645Y-172791168D01*
X381858534Y-172962105D01*
X381858523Y-172962114D01*
X381855250Y-172964778D01*
X381852362Y-172967869D01*
X381852359Y-172967873D01*
X381667481Y-173165830D01*
X381664586Y-173168930D01*
X381662143Y-173172390D01*
X381662138Y-173172397D01*
X381505943Y-173393676D01*
X381505939Y-173393681D01*
X381503497Y-173397142D01*
X381501551Y-173400896D01*
X381501547Y-173400904D01*
X381376931Y-173641400D01*
X381376926Y-173641410D01*
X381374982Y-173645163D01*
X381373565Y-173649148D01*
X381373561Y-173649159D01*
X381282856Y-173904380D01*
X381281437Y-173908374D01*
X381280575Y-173912519D01*
X381280574Y-173912525D01*
X381225465Y-174177724D01*
X381225463Y-174177734D01*
X381224604Y-174181871D01*
X381224315Y-174186086D01*
X381224315Y-174186091D01*
X381218149Y-174276241D01*
X381205541Y-174460559D01*
X360778289Y-174460559D01*
X360765392Y-174272021D01*
X360708559Y-173998524D01*
X360615014Y-173735313D01*
X360486499Y-173487292D01*
X360325410Y-173259080D01*
X360134746Y-173054928D01*
X360131464Y-173052258D01*
X360131461Y-173052255D01*
X360020651Y-172962105D01*
X359918059Y-172878640D01*
X359914435Y-172876436D01*
X359914432Y-172876434D01*
X359683004Y-172735700D01*
X359683002Y-172735699D01*
X359679386Y-172733500D01*
X359659229Y-172724744D01*
X359427053Y-172623896D01*
X359427043Y-172623892D01*
X359423172Y-172622211D01*
X359419100Y-172621070D01*
X359158271Y-172547988D01*
X359158258Y-172547985D01*
X359154192Y-172546846D01*
X359150005Y-172546270D01*
X359149993Y-172546268D01*
X358881651Y-172509385D01*
X358881638Y-172509384D01*
X358877454Y-172508809D01*
X358598114Y-172508809D01*
X358593930Y-172509384D01*
X358593916Y-172509385D01*
X358325574Y-172546268D01*
X358325559Y-172546270D01*
X358321376Y-172546846D01*
X358317312Y-172547984D01*
X358317296Y-172547988D01*
X358056467Y-172621070D01*
X358056462Y-172621071D01*
X358052396Y-172622211D01*
X358048528Y-172623890D01*
X358048514Y-172623896D01*
X357800065Y-172731813D01*
X357800060Y-172731815D01*
X357796182Y-172733500D01*
X357792571Y-172735695D01*
X357792563Y-172735700D01*
X357561135Y-172876434D01*
X357561124Y-172876441D01*
X357557509Y-172878640D01*
X357554219Y-172881316D01*
X357554217Y-172881318D01*
X357344106Y-173052255D01*
X357344095Y-173052264D01*
X357340822Y-173054928D01*
X357150158Y-173259080D01*
X357147715Y-173262540D01*
X357147710Y-173262547D01*
X356991515Y-173483826D01*
X356991511Y-173483831D01*
X356989069Y-173487292D01*
X356987123Y-173491046D01*
X356987119Y-173491054D01*
X356862503Y-173731550D01*
X356862498Y-173731560D01*
X356860554Y-173735313D01*
X356859137Y-173739298D01*
X356859133Y-173739309D01*
X356768428Y-173994530D01*
X356767009Y-173998524D01*
X356766147Y-174002669D01*
X356766146Y-174002675D01*
X356711037Y-174267874D01*
X356711035Y-174267884D01*
X356710176Y-174272021D01*
X356709887Y-174276236D01*
X356709887Y-174276241D01*
X356691402Y-174546484D01*
X356691113Y-174550709D01*
X341298883Y-174550709D01*
X341279820Y-174272021D01*
X341222987Y-173998524D01*
X341129442Y-173735313D01*
X341000927Y-173487292D01*
X340839838Y-173259080D01*
X340649174Y-173054928D01*
X340645892Y-173052258D01*
X340645889Y-173052255D01*
X340535079Y-172962105D01*
X340432487Y-172878640D01*
X340428863Y-172876436D01*
X340428860Y-172876434D01*
X340197432Y-172735700D01*
X340197430Y-172735699D01*
X340193814Y-172733500D01*
X340173657Y-172724744D01*
X339941481Y-172623896D01*
X339941471Y-172623892D01*
X339937600Y-172622211D01*
X339933528Y-172621070D01*
X339672699Y-172547988D01*
X339672686Y-172547985D01*
X339668620Y-172546846D01*
X339664433Y-172546270D01*
X339664421Y-172546268D01*
X339396079Y-172509385D01*
X339396066Y-172509384D01*
X339391882Y-172508809D01*
X339112542Y-172508809D01*
X339108358Y-172509384D01*
X339108344Y-172509385D01*
X338840002Y-172546268D01*
X338839987Y-172546270D01*
X338835804Y-172546846D01*
X338831740Y-172547984D01*
X338831724Y-172547988D01*
X338570895Y-172621070D01*
X338570890Y-172621071D01*
X338566824Y-172622211D01*
X338562956Y-172623890D01*
X338562942Y-172623896D01*
X338314493Y-172731813D01*
X338314488Y-172731815D01*
X338310610Y-172733500D01*
X338306999Y-172735695D01*
X338306991Y-172735700D01*
X338075563Y-172876434D01*
X338075552Y-172876441D01*
X338071937Y-172878640D01*
X338068647Y-172881316D01*
X338068645Y-172881318D01*
X337858534Y-173052255D01*
X337858523Y-173052264D01*
X337855250Y-173054928D01*
X337664586Y-173259080D01*
X337662143Y-173262540D01*
X337662138Y-173262547D01*
X337505943Y-173483826D01*
X337505939Y-173483831D01*
X337503497Y-173487292D01*
X337501551Y-173491046D01*
X337501547Y-173491054D01*
X337376931Y-173731550D01*
X337376926Y-173731560D01*
X337374982Y-173735313D01*
X337373565Y-173739298D01*
X337373561Y-173739309D01*
X337282856Y-173994530D01*
X337281437Y-173998524D01*
X337280575Y-174002669D01*
X337280574Y-174002675D01*
X337225465Y-174267874D01*
X337225463Y-174267884D01*
X337224604Y-174272021D01*
X337224315Y-174276236D01*
X337224315Y-174276241D01*
X337205830Y-174546484D01*
X337205541Y-174550709D01*
X316784455Y-174550709D01*
X316765392Y-174272021D01*
X316708559Y-173998524D01*
X316615014Y-173735313D01*
X316486499Y-173487292D01*
X316325410Y-173259080D01*
X316134746Y-173054928D01*
X316131464Y-173052258D01*
X316131461Y-173052255D01*
X316020651Y-172962105D01*
X315918059Y-172878640D01*
X315914435Y-172876436D01*
X315914432Y-172876434D01*
X315683004Y-172735700D01*
X315683002Y-172735699D01*
X315679386Y-172733500D01*
X315659229Y-172724744D01*
X315427053Y-172623896D01*
X315427043Y-172623892D01*
X315423172Y-172622211D01*
X315419100Y-172621070D01*
X315158271Y-172547988D01*
X315158258Y-172547985D01*
X315154192Y-172546846D01*
X315150005Y-172546270D01*
X315149993Y-172546268D01*
X314881651Y-172509385D01*
X314881638Y-172509384D01*
X314877454Y-172508809D01*
X314598114Y-172508809D01*
X314593930Y-172509384D01*
X314593916Y-172509385D01*
X314325574Y-172546268D01*
X314325559Y-172546270D01*
X314321376Y-172546846D01*
X314317312Y-172547984D01*
X314317296Y-172547988D01*
X314056467Y-172621070D01*
X314056462Y-172621071D01*
X314052396Y-172622211D01*
X314048528Y-172623890D01*
X314048514Y-172623896D01*
X313800065Y-172731813D01*
X313800060Y-172731815D01*
X313796182Y-172733500D01*
X313792571Y-172735695D01*
X313792563Y-172735700D01*
X313561135Y-172876434D01*
X313561124Y-172876441D01*
X313557509Y-172878640D01*
X313554219Y-172881316D01*
X313554217Y-172881318D01*
X313344106Y-173052255D01*
X313344095Y-173052264D01*
X313340822Y-173054928D01*
X313150158Y-173259080D01*
X313147715Y-173262540D01*
X313147710Y-173262547D01*
X312991515Y-173483826D01*
X312991511Y-173483831D01*
X312989069Y-173487292D01*
X312987123Y-173491046D01*
X312987119Y-173491054D01*
X312862503Y-173731550D01*
X312862498Y-173731560D01*
X312860554Y-173735313D01*
X312859137Y-173739298D01*
X312859133Y-173739309D01*
X312768428Y-173994530D01*
X312767009Y-173998524D01*
X312766147Y-174002669D01*
X312766146Y-174002675D01*
X312711037Y-174267874D01*
X312711035Y-174267884D01*
X312710176Y-174272021D01*
X312709887Y-174276236D01*
X312709887Y-174276241D01*
X312691402Y-174546484D01*
X312691113Y-174550709D01*
X297298883Y-174550709D01*
X297279820Y-174272021D01*
X297222987Y-173998524D01*
X297129442Y-173735313D01*
X297000927Y-173487292D01*
X296839838Y-173259080D01*
X296649174Y-173054928D01*
X296645892Y-173052258D01*
X296645889Y-173052255D01*
X296535079Y-172962105D01*
X296432487Y-172878640D01*
X296428863Y-172876436D01*
X296428860Y-172876434D01*
X296197432Y-172735700D01*
X296197430Y-172735699D01*
X296193814Y-172733500D01*
X296173657Y-172724744D01*
X295941481Y-172623896D01*
X295941471Y-172623892D01*
X295937600Y-172622211D01*
X295933528Y-172621070D01*
X295672699Y-172547988D01*
X295672686Y-172547985D01*
X295668620Y-172546846D01*
X295664433Y-172546270D01*
X295664421Y-172546268D01*
X295396079Y-172509385D01*
X295396066Y-172509384D01*
X295391882Y-172508809D01*
X295112542Y-172508809D01*
X295108358Y-172509384D01*
X295108344Y-172509385D01*
X294840002Y-172546268D01*
X294839987Y-172546270D01*
X294835804Y-172546846D01*
X294831740Y-172547984D01*
X294831724Y-172547988D01*
X294570895Y-172621070D01*
X294570890Y-172621071D01*
X294566824Y-172622211D01*
X294562956Y-172623890D01*
X294562942Y-172623896D01*
X294314493Y-172731813D01*
X294314488Y-172731815D01*
X294310610Y-172733500D01*
X294306999Y-172735695D01*
X294306991Y-172735700D01*
X294075563Y-172876434D01*
X294075552Y-172876441D01*
X294071937Y-172878640D01*
X294068647Y-172881316D01*
X294068645Y-172881318D01*
X293858534Y-173052255D01*
X293858523Y-173052264D01*
X293855250Y-173054928D01*
X293664586Y-173259080D01*
X293662143Y-173262540D01*
X293662138Y-173262547D01*
X293505943Y-173483826D01*
X293505939Y-173483831D01*
X293503497Y-173487292D01*
X293501551Y-173491046D01*
X293501547Y-173491054D01*
X293376931Y-173731550D01*
X293376926Y-173731560D01*
X293374982Y-173735313D01*
X293373565Y-173739298D01*
X293373561Y-173739309D01*
X293282856Y-173994530D01*
X293281437Y-173998524D01*
X293280575Y-174002669D01*
X293280574Y-174002675D01*
X293225465Y-174267874D01*
X293225463Y-174267884D01*
X293224604Y-174272021D01*
X293224315Y-174276236D01*
X293224315Y-174276241D01*
X293205830Y-174546484D01*
X293205541Y-174550709D01*
X272784455Y-174550709D01*
X272765392Y-174272021D01*
X272708559Y-173998524D01*
X272615014Y-173735313D01*
X272486499Y-173487292D01*
X272325410Y-173259080D01*
X272134746Y-173054928D01*
X272131464Y-173052258D01*
X272131461Y-173052255D01*
X272020651Y-172962105D01*
X271918059Y-172878640D01*
X271914435Y-172876436D01*
X271914432Y-172876434D01*
X271683004Y-172735700D01*
X271683002Y-172735699D01*
X271679386Y-172733500D01*
X271659229Y-172724744D01*
X271427053Y-172623896D01*
X271427043Y-172623892D01*
X271423172Y-172622211D01*
X271419100Y-172621070D01*
X271158271Y-172547988D01*
X271158258Y-172547985D01*
X271154192Y-172546846D01*
X271150005Y-172546270D01*
X271149993Y-172546268D01*
X270881651Y-172509385D01*
X270881638Y-172509384D01*
X270877454Y-172508809D01*
X270598114Y-172508809D01*
X270593930Y-172509384D01*
X270593916Y-172509385D01*
X270325574Y-172546268D01*
X270325559Y-172546270D01*
X270321376Y-172546846D01*
X270317312Y-172547984D01*
X270317296Y-172547988D01*
X270056467Y-172621070D01*
X270056462Y-172621071D01*
X270052396Y-172622211D01*
X270048528Y-172623890D01*
X270048514Y-172623896D01*
X269800065Y-172731813D01*
X269800060Y-172731815D01*
X269796182Y-172733500D01*
X269792571Y-172735695D01*
X269792563Y-172735700D01*
X269561135Y-172876434D01*
X269561124Y-172876441D01*
X269557509Y-172878640D01*
X269554219Y-172881316D01*
X269554217Y-172881318D01*
X269344106Y-173052255D01*
X269344095Y-173052264D01*
X269340822Y-173054928D01*
X269150158Y-173259080D01*
X269147715Y-173262540D01*
X269147710Y-173262547D01*
X268991515Y-173483826D01*
X268991511Y-173483831D01*
X268989069Y-173487292D01*
X268987123Y-173491046D01*
X268987119Y-173491054D01*
X268862503Y-173731550D01*
X268862498Y-173731560D01*
X268860554Y-173735313D01*
X268859137Y-173739298D01*
X268859133Y-173739309D01*
X268768428Y-173994530D01*
X268767009Y-173998524D01*
X268766147Y-174002669D01*
X268766146Y-174002675D01*
X268711037Y-174267874D01*
X268711035Y-174267884D01*
X268710176Y-174272021D01*
X268709887Y-174276236D01*
X268709887Y-174276241D01*
X268691402Y-174546484D01*
X268691113Y-174550709D01*
X253298883Y-174550709D01*
X253279820Y-174272021D01*
X253222987Y-173998524D01*
X253129442Y-173735313D01*
X253000927Y-173487292D01*
X252839838Y-173259080D01*
X252649174Y-173054928D01*
X252645892Y-173052258D01*
X252645889Y-173052255D01*
X252535079Y-172962105D01*
X252432487Y-172878640D01*
X252428863Y-172876436D01*
X252428860Y-172876434D01*
X252197432Y-172735700D01*
X252197430Y-172735699D01*
X252193814Y-172733500D01*
X252173657Y-172724744D01*
X251941481Y-172623896D01*
X251941471Y-172623892D01*
X251937600Y-172622211D01*
X251933528Y-172621070D01*
X251672699Y-172547988D01*
X251672686Y-172547985D01*
X251668620Y-172546846D01*
X251664433Y-172546270D01*
X251664421Y-172546268D01*
X251396079Y-172509385D01*
X251396066Y-172509384D01*
X251391882Y-172508809D01*
X251112542Y-172508809D01*
X251108358Y-172509384D01*
X251108344Y-172509385D01*
X250840002Y-172546268D01*
X250839987Y-172546270D01*
X250835804Y-172546846D01*
X250831740Y-172547984D01*
X250831724Y-172547988D01*
X250570895Y-172621070D01*
X250570890Y-172621071D01*
X250566824Y-172622211D01*
X250562956Y-172623890D01*
X250562942Y-172623896D01*
X250314493Y-172731813D01*
X250314488Y-172731815D01*
X250310610Y-172733500D01*
X250306999Y-172735695D01*
X250306991Y-172735700D01*
X250075563Y-172876434D01*
X250075552Y-172876441D01*
X250071937Y-172878640D01*
X250068647Y-172881316D01*
X250068645Y-172881318D01*
X249858534Y-173052255D01*
X249858523Y-173052264D01*
X249855250Y-173054928D01*
X249664586Y-173259080D01*
X249662143Y-173262540D01*
X249662138Y-173262547D01*
X249505943Y-173483826D01*
X249505939Y-173483831D01*
X249503497Y-173487292D01*
X249501551Y-173491046D01*
X249501547Y-173491054D01*
X249376931Y-173731550D01*
X249376926Y-173731560D01*
X249374982Y-173735313D01*
X249373565Y-173739298D01*
X249373561Y-173739309D01*
X249282856Y-173994530D01*
X249281437Y-173998524D01*
X249280575Y-174002669D01*
X249280574Y-174002675D01*
X249225465Y-174267874D01*
X249225463Y-174267884D01*
X249224604Y-174272021D01*
X249224315Y-174276236D01*
X249224315Y-174276241D01*
X249205830Y-174546484D01*
X249205541Y-174550709D01*
X228784455Y-174550709D01*
X228765392Y-174272021D01*
X228708559Y-173998524D01*
X228615014Y-173735313D01*
X228486499Y-173487292D01*
X228325410Y-173259080D01*
X228134746Y-173054928D01*
X228131464Y-173052258D01*
X228131461Y-173052255D01*
X228020651Y-172962105D01*
X227918059Y-172878640D01*
X227914435Y-172876436D01*
X227914432Y-172876434D01*
X227683004Y-172735700D01*
X227683002Y-172735699D01*
X227679386Y-172733500D01*
X227659229Y-172724744D01*
X227427053Y-172623896D01*
X227427043Y-172623892D01*
X227423172Y-172622211D01*
X227419100Y-172621070D01*
X227158271Y-172547988D01*
X227158258Y-172547985D01*
X227154192Y-172546846D01*
X227150005Y-172546270D01*
X227149993Y-172546268D01*
X226881651Y-172509385D01*
X226881638Y-172509384D01*
X226877454Y-172508809D01*
X226598114Y-172508809D01*
X226593930Y-172509384D01*
X226593916Y-172509385D01*
X226325574Y-172546268D01*
X226325559Y-172546270D01*
X226321376Y-172546846D01*
X226317312Y-172547984D01*
X226317296Y-172547988D01*
X226056467Y-172621070D01*
X226056462Y-172621071D01*
X226052396Y-172622211D01*
X226048528Y-172623890D01*
X226048514Y-172623896D01*
X225800065Y-172731813D01*
X225800060Y-172731815D01*
X225796182Y-172733500D01*
X225792571Y-172735695D01*
X225792563Y-172735700D01*
X225561135Y-172876434D01*
X225561124Y-172876441D01*
X225557509Y-172878640D01*
X225554219Y-172881316D01*
X225554217Y-172881318D01*
X225344106Y-173052255D01*
X225344095Y-173052264D01*
X225340822Y-173054928D01*
X225150158Y-173259080D01*
X225147715Y-173262540D01*
X225147710Y-173262547D01*
X224991515Y-173483826D01*
X224991511Y-173483831D01*
X224989069Y-173487292D01*
X224987123Y-173491046D01*
X224987119Y-173491054D01*
X224862503Y-173731550D01*
X224862498Y-173731560D01*
X224860554Y-173735313D01*
X224859137Y-173739298D01*
X224859133Y-173739309D01*
X224768428Y-173994530D01*
X224767009Y-173998524D01*
X224766147Y-174002669D01*
X224766146Y-174002675D01*
X224711037Y-174267874D01*
X224711035Y-174267884D01*
X224710176Y-174272021D01*
X224709887Y-174276236D01*
X224709887Y-174276241D01*
X224691401Y-174546484D01*
X224691401Y-174546498D01*
X224691113Y-174550709D01*
X209298883Y-174550709D01*
X209279820Y-174272021D01*
X209222987Y-173998524D01*
X209129442Y-173735313D01*
X209000927Y-173487292D01*
X208839838Y-173259080D01*
X208649174Y-173054928D01*
X208645892Y-173052258D01*
X208645889Y-173052255D01*
X208535079Y-172962105D01*
X208432487Y-172878640D01*
X208428863Y-172876436D01*
X208428860Y-172876434D01*
X208197432Y-172735700D01*
X208197430Y-172735699D01*
X208193814Y-172733500D01*
X208173657Y-172724744D01*
X207941481Y-172623896D01*
X207941471Y-172623892D01*
X207937600Y-172622211D01*
X207933528Y-172621070D01*
X207672699Y-172547988D01*
X207672686Y-172547985D01*
X207668620Y-172546846D01*
X207664433Y-172546270D01*
X207664421Y-172546268D01*
X207396079Y-172509385D01*
X207396066Y-172509384D01*
X207391882Y-172508809D01*
X207112542Y-172508809D01*
X207108358Y-172509384D01*
X207108344Y-172509385D01*
X206840002Y-172546268D01*
X206839987Y-172546270D01*
X206835804Y-172546846D01*
X206831740Y-172547984D01*
X206831724Y-172547988D01*
X206570895Y-172621070D01*
X206570890Y-172621071D01*
X206566824Y-172622211D01*
X206562956Y-172623890D01*
X206562942Y-172623896D01*
X206314493Y-172731813D01*
X206314488Y-172731815D01*
X206310610Y-172733500D01*
X206306999Y-172735695D01*
X206306991Y-172735700D01*
X206075563Y-172876434D01*
X206075552Y-172876441D01*
X206071937Y-172878640D01*
X206068647Y-172881316D01*
X206068645Y-172881318D01*
X205858534Y-173052255D01*
X205858523Y-173052264D01*
X205855250Y-173054928D01*
X205664586Y-173259080D01*
X205662143Y-173262540D01*
X205662138Y-173262547D01*
X205505943Y-173483826D01*
X205505939Y-173483831D01*
X205503497Y-173487292D01*
X205501551Y-173491046D01*
X205501547Y-173491054D01*
X205376931Y-173731550D01*
X205376926Y-173731560D01*
X205374982Y-173735313D01*
X205373565Y-173739298D01*
X205373561Y-173739309D01*
X205282856Y-173994530D01*
X205281437Y-173998524D01*
X205280575Y-174002669D01*
X205280574Y-174002675D01*
X205225465Y-174267874D01*
X205225463Y-174267884D01*
X205224604Y-174272021D01*
X205224315Y-174276236D01*
X205224315Y-174276241D01*
X205205830Y-174546484D01*
X205205541Y-174550709D01*
X184784455Y-174550709D01*
X184765392Y-174272021D01*
X184708559Y-173998524D01*
X184615014Y-173735313D01*
X184486499Y-173487292D01*
X184325410Y-173259080D01*
X184134746Y-173054928D01*
X184131464Y-173052258D01*
X184131461Y-173052255D01*
X184020651Y-172962105D01*
X183918059Y-172878640D01*
X183914435Y-172876436D01*
X183914432Y-172876434D01*
X183683004Y-172735700D01*
X183683002Y-172735699D01*
X183679386Y-172733500D01*
X183659229Y-172724744D01*
X183427053Y-172623896D01*
X183427043Y-172623892D01*
X183423172Y-172622211D01*
X183419100Y-172621070D01*
X183158271Y-172547988D01*
X183158258Y-172547985D01*
X183154192Y-172546846D01*
X183150005Y-172546270D01*
X183149993Y-172546268D01*
X182881651Y-172509385D01*
X182881638Y-172509384D01*
X182877454Y-172508809D01*
X182598114Y-172508809D01*
X182593930Y-172509384D01*
X182593916Y-172509385D01*
X182325574Y-172546268D01*
X182325559Y-172546270D01*
X182321376Y-172546846D01*
X182317312Y-172547984D01*
X182317296Y-172547988D01*
X182056467Y-172621070D01*
X182056462Y-172621071D01*
X182052396Y-172622211D01*
X182048528Y-172623890D01*
X182048514Y-172623896D01*
X181800065Y-172731813D01*
X181800060Y-172731815D01*
X181796182Y-172733500D01*
X181792571Y-172735695D01*
X181792563Y-172735700D01*
X181561135Y-172876434D01*
X181561124Y-172876441D01*
X181557509Y-172878640D01*
X181554219Y-172881316D01*
X181554217Y-172881318D01*
X181344106Y-173052255D01*
X181344095Y-173052264D01*
X181340822Y-173054928D01*
X181150158Y-173259080D01*
X181147715Y-173262540D01*
X181147710Y-173262547D01*
X180991515Y-173483826D01*
X180991511Y-173483831D01*
X180989069Y-173487292D01*
X180987123Y-173491046D01*
X180987119Y-173491054D01*
X180862503Y-173731550D01*
X180862498Y-173731560D01*
X180860554Y-173735313D01*
X180859137Y-173739298D01*
X180859133Y-173739309D01*
X180768428Y-173994530D01*
X180767009Y-173998524D01*
X180766147Y-174002669D01*
X180766146Y-174002675D01*
X180711037Y-174267874D01*
X180711035Y-174267884D01*
X180710176Y-174272021D01*
X180709887Y-174276236D01*
X180709887Y-174276241D01*
X180691402Y-174546484D01*
X180691113Y-174550709D01*
X165298883Y-174550709D01*
X165279820Y-174272021D01*
X165222987Y-173998524D01*
X165129442Y-173735313D01*
X165000927Y-173487292D01*
X164839838Y-173259080D01*
X164649174Y-173054928D01*
X164645892Y-173052258D01*
X164645889Y-173052255D01*
X164535079Y-172962105D01*
X164432487Y-172878640D01*
X164428863Y-172876436D01*
X164428860Y-172876434D01*
X164197432Y-172735700D01*
X164197430Y-172735699D01*
X164193814Y-172733500D01*
X164173657Y-172724744D01*
X163941481Y-172623896D01*
X163941471Y-172623892D01*
X163937600Y-172622211D01*
X163933528Y-172621070D01*
X163672699Y-172547988D01*
X163672686Y-172547985D01*
X163668620Y-172546846D01*
X163664433Y-172546270D01*
X163664421Y-172546268D01*
X163396079Y-172509385D01*
X163396066Y-172509384D01*
X163391882Y-172508809D01*
X163112542Y-172508809D01*
X163108358Y-172509384D01*
X163108344Y-172509385D01*
X162840002Y-172546268D01*
X162839987Y-172546270D01*
X162835804Y-172546846D01*
X162831740Y-172547984D01*
X162831724Y-172547988D01*
X162570895Y-172621070D01*
X162570890Y-172621071D01*
X162566824Y-172622211D01*
X162562956Y-172623890D01*
X162562942Y-172623896D01*
X162314493Y-172731813D01*
X162314488Y-172731815D01*
X162310610Y-172733500D01*
X162306999Y-172735695D01*
X162306991Y-172735700D01*
X162075563Y-172876434D01*
X162075552Y-172876441D01*
X162071937Y-172878640D01*
X162068647Y-172881316D01*
X162068645Y-172881318D01*
X161858534Y-173052255D01*
X161858523Y-173052264D01*
X161855250Y-173054928D01*
X161664586Y-173259080D01*
X161662143Y-173262540D01*
X161662138Y-173262547D01*
X161505943Y-173483826D01*
X161505939Y-173483831D01*
X161503497Y-173487292D01*
X161501551Y-173491046D01*
X161501547Y-173491054D01*
X161376931Y-173731550D01*
X161376926Y-173731560D01*
X161374982Y-173735313D01*
X161373565Y-173739298D01*
X161373561Y-173739309D01*
X161282856Y-173994530D01*
X161281437Y-173998524D01*
X161280575Y-174002669D01*
X161280574Y-174002675D01*
X161225465Y-174267874D01*
X161225463Y-174267884D01*
X161224604Y-174272021D01*
X161224315Y-174276236D01*
X161224315Y-174276241D01*
X161205830Y-174546484D01*
X161205541Y-174550709D01*
X105000500Y-174550709D01*
X105000500Y-140064314D01*
X486120500Y-140064314D01*
X486120501Y-140067036D01*
X486120742Y-140069751D01*
X486120743Y-140069765D01*
X486131114Y-140186417D01*
X486187091Y-140382050D01*
X486281301Y-140562406D01*
X486281302Y-140562407D01*
X486409891Y-140720109D01*
X486567593Y-140848698D01*
X486747951Y-140942909D01*
X486943582Y-140998886D01*
X487062963Y-141009500D01*
X505467036Y-141009499D01*
X505586418Y-140998886D01*
X505782049Y-140942909D01*
X505962407Y-140848698D01*
X506120109Y-140720109D01*
X506248698Y-140562407D01*
X506342909Y-140382049D01*
X506398886Y-140186418D01*
X506409500Y-140067037D01*
X506409499Y-121662964D01*
X506398886Y-121543582D01*
X506342909Y-121347951D01*
X506248698Y-121167593D01*
X506120109Y-121009891D01*
X505962407Y-120881302D01*
X505962406Y-120881301D01*
X505782050Y-120787091D01*
X505644782Y-120747814D01*
X505586418Y-120731114D01*
X505567306Y-120729414D01*
X505469764Y-120720742D01*
X505469753Y-120720741D01*
X505467037Y-120720500D01*
X505464293Y-120720500D01*
X487065707Y-120720500D01*
X487065684Y-120720500D01*
X487062964Y-120720501D01*
X487060249Y-120720742D01*
X487060234Y-120720743D01*
X486943582Y-120731114D01*
X486747949Y-120787091D01*
X486567593Y-120881301D01*
X486409891Y-121009891D01*
X486281301Y-121167593D01*
X486187091Y-121347949D01*
X486131114Y-121543582D01*
X486120742Y-121660235D01*
X486120741Y-121660247D01*
X486120500Y-121662963D01*
X486120500Y-121665705D01*
X486120500Y-121665706D01*
X486120500Y-140064292D01*
X486120500Y-140064314D01*
X105000500Y-140064314D01*
X105000500Y-125120409D01*
X139205541Y-125120409D01*
X139224604Y-125399097D01*
X139225463Y-125403235D01*
X139225465Y-125403243D01*
X139280574Y-125668442D01*
X139281437Y-125672594D01*
X139282855Y-125676585D01*
X139282856Y-125676587D01*
X139312000Y-125758592D01*
X139374982Y-125935805D01*
X139376929Y-125939563D01*
X139376931Y-125939567D01*
X139501547Y-126180063D01*
X139503497Y-126183826D01*
X139664586Y-126412038D01*
X139855250Y-126616190D01*
X140071937Y-126792478D01*
X140310610Y-126937618D01*
X140505999Y-127022487D01*
X140522038Y-127029454D01*
X140566824Y-127048907D01*
X140778002Y-127108076D01*
X140831724Y-127123129D01*
X140831726Y-127123129D01*
X140835804Y-127124272D01*
X141112542Y-127162309D01*
X141116779Y-127162309D01*
X141387645Y-127162309D01*
X141391882Y-127162309D01*
X141668620Y-127124272D01*
X141937600Y-127048907D01*
X142193814Y-126937618D01*
X142432487Y-126792478D01*
X142649174Y-126616190D01*
X142839838Y-126412038D01*
X143000927Y-126183826D01*
X143129442Y-125935805D01*
X143222987Y-125672594D01*
X143279820Y-125399097D01*
X143298883Y-125120409D01*
X158691113Y-125120409D01*
X158710176Y-125399097D01*
X158711035Y-125403235D01*
X158711037Y-125403243D01*
X158766146Y-125668442D01*
X158767009Y-125672594D01*
X158768427Y-125676585D01*
X158768428Y-125676587D01*
X158797572Y-125758592D01*
X158860554Y-125935805D01*
X158862501Y-125939563D01*
X158862503Y-125939567D01*
X158987119Y-126180063D01*
X158989069Y-126183826D01*
X159150158Y-126412038D01*
X159340822Y-126616190D01*
X159557509Y-126792478D01*
X159796182Y-126937618D01*
X159991571Y-127022487D01*
X160007610Y-127029454D01*
X160052396Y-127048907D01*
X160263574Y-127108076D01*
X160317296Y-127123129D01*
X160317298Y-127123129D01*
X160321376Y-127124272D01*
X160598114Y-127162309D01*
X160602351Y-127162309D01*
X160873217Y-127162309D01*
X160877454Y-127162309D01*
X161154192Y-127124272D01*
X161423172Y-127048907D01*
X161679386Y-126937618D01*
X161918059Y-126792478D01*
X162134746Y-126616190D01*
X162325410Y-126412038D01*
X162486499Y-126183826D01*
X162615014Y-125935805D01*
X162708559Y-125672594D01*
X162765392Y-125399097D01*
X162784455Y-125120409D01*
X183205541Y-125120409D01*
X183224604Y-125399097D01*
X183225463Y-125403235D01*
X183225465Y-125403243D01*
X183280574Y-125668442D01*
X183281437Y-125672594D01*
X183282855Y-125676585D01*
X183282856Y-125676587D01*
X183312000Y-125758592D01*
X183374982Y-125935805D01*
X183376929Y-125939563D01*
X183376931Y-125939567D01*
X183501547Y-126180063D01*
X183503497Y-126183826D01*
X183664586Y-126412038D01*
X183855250Y-126616190D01*
X184071937Y-126792478D01*
X184310610Y-126937618D01*
X184505999Y-127022487D01*
X184522038Y-127029454D01*
X184566824Y-127048907D01*
X184778002Y-127108076D01*
X184831724Y-127123129D01*
X184831726Y-127123129D01*
X184835804Y-127124272D01*
X185112542Y-127162309D01*
X185116779Y-127162309D01*
X185387645Y-127162309D01*
X185391882Y-127162309D01*
X185668620Y-127124272D01*
X185937600Y-127048907D01*
X186193814Y-126937618D01*
X186432487Y-126792478D01*
X186649174Y-126616190D01*
X186839838Y-126412038D01*
X187000927Y-126183826D01*
X187129442Y-125935805D01*
X187222987Y-125672594D01*
X187279820Y-125399097D01*
X187298883Y-125120409D01*
X202691113Y-125120409D01*
X202710176Y-125399097D01*
X202711035Y-125403235D01*
X202711037Y-125403243D01*
X202766146Y-125668442D01*
X202767009Y-125672594D01*
X202768427Y-125676585D01*
X202768428Y-125676587D01*
X202797572Y-125758592D01*
X202860554Y-125935805D01*
X202862501Y-125939563D01*
X202862503Y-125939567D01*
X202987119Y-126180063D01*
X202989069Y-126183826D01*
X203150158Y-126412038D01*
X203340822Y-126616190D01*
X203557509Y-126792478D01*
X203796182Y-126937618D01*
X203991571Y-127022487D01*
X204007610Y-127029454D01*
X204052396Y-127048907D01*
X204263574Y-127108076D01*
X204317296Y-127123129D01*
X204317298Y-127123129D01*
X204321376Y-127124272D01*
X204598114Y-127162309D01*
X204602351Y-127162309D01*
X204873217Y-127162309D01*
X204877454Y-127162309D01*
X205154192Y-127124272D01*
X205423172Y-127048907D01*
X205679386Y-126937618D01*
X205918059Y-126792478D01*
X206134746Y-126616190D01*
X206325410Y-126412038D01*
X206486499Y-126183826D01*
X206615014Y-125935805D01*
X206708559Y-125672594D01*
X206765392Y-125399097D01*
X206784455Y-125120409D01*
X227205541Y-125120409D01*
X227224604Y-125399097D01*
X227225463Y-125403235D01*
X227225465Y-125403243D01*
X227280574Y-125668442D01*
X227281437Y-125672594D01*
X227282855Y-125676585D01*
X227282856Y-125676587D01*
X227312000Y-125758592D01*
X227374982Y-125935805D01*
X227376929Y-125939563D01*
X227376931Y-125939567D01*
X227501547Y-126180063D01*
X227503497Y-126183826D01*
X227664586Y-126412038D01*
X227855250Y-126616190D01*
X228071937Y-126792478D01*
X228310610Y-126937618D01*
X228505999Y-127022487D01*
X228522038Y-127029454D01*
X228566824Y-127048907D01*
X228778002Y-127108076D01*
X228831724Y-127123129D01*
X228831726Y-127123129D01*
X228835804Y-127124272D01*
X229112542Y-127162309D01*
X229116779Y-127162309D01*
X229387645Y-127162309D01*
X229391882Y-127162309D01*
X229668620Y-127124272D01*
X229937600Y-127048907D01*
X230193814Y-126937618D01*
X230432487Y-126792478D01*
X230649174Y-126616190D01*
X230839838Y-126412038D01*
X231000927Y-126183826D01*
X231129442Y-125935805D01*
X231222987Y-125672594D01*
X231279820Y-125399097D01*
X231298883Y-125120409D01*
X246691113Y-125120409D01*
X246691401Y-125124619D01*
X246691401Y-125124633D01*
X246696990Y-125206334D01*
X246710176Y-125399097D01*
X246711035Y-125403235D01*
X246711037Y-125403243D01*
X246766146Y-125668442D01*
X246767009Y-125672594D01*
X246768427Y-125676585D01*
X246768428Y-125676587D01*
X246797572Y-125758592D01*
X246860554Y-125935805D01*
X246862501Y-125939563D01*
X246862503Y-125939567D01*
X246987119Y-126180063D01*
X246989069Y-126183826D01*
X247150158Y-126412038D01*
X247340822Y-126616190D01*
X247557509Y-126792478D01*
X247796182Y-126937618D01*
X247991571Y-127022487D01*
X248007610Y-127029454D01*
X248052396Y-127048907D01*
X248263574Y-127108076D01*
X248317296Y-127123129D01*
X248317298Y-127123129D01*
X248321376Y-127124272D01*
X248598114Y-127162309D01*
X248602351Y-127162309D01*
X248873217Y-127162309D01*
X248877454Y-127162309D01*
X249154192Y-127124272D01*
X249423172Y-127048907D01*
X249679386Y-126937618D01*
X249918059Y-126792478D01*
X250134746Y-126616190D01*
X250325410Y-126412038D01*
X250486499Y-126183826D01*
X250615014Y-125935805D01*
X250708559Y-125672594D01*
X250765392Y-125399097D01*
X250784455Y-125120409D01*
X271205541Y-125120409D01*
X271224604Y-125399097D01*
X271225463Y-125403235D01*
X271225465Y-125403243D01*
X271280574Y-125668442D01*
X271281437Y-125672594D01*
X271282855Y-125676585D01*
X271282856Y-125676587D01*
X271312000Y-125758592D01*
X271374982Y-125935805D01*
X271376929Y-125939563D01*
X271376931Y-125939567D01*
X271501547Y-126180063D01*
X271503497Y-126183826D01*
X271664586Y-126412038D01*
X271855250Y-126616190D01*
X272071937Y-126792478D01*
X272310610Y-126937618D01*
X272505999Y-127022487D01*
X272522038Y-127029454D01*
X272566824Y-127048907D01*
X272778002Y-127108076D01*
X272831724Y-127123129D01*
X272831726Y-127123129D01*
X272835804Y-127124272D01*
X273112542Y-127162309D01*
X273116779Y-127162309D01*
X273387645Y-127162309D01*
X273391882Y-127162309D01*
X273668620Y-127124272D01*
X273937600Y-127048907D01*
X274193814Y-126937618D01*
X274432487Y-126792478D01*
X274649174Y-126616190D01*
X274839838Y-126412038D01*
X275000927Y-126183826D01*
X275129442Y-125935805D01*
X275222987Y-125672594D01*
X275279820Y-125399097D01*
X275298883Y-125120409D01*
X290691113Y-125120409D01*
X290710176Y-125399097D01*
X290711035Y-125403235D01*
X290711037Y-125403243D01*
X290766146Y-125668442D01*
X290767009Y-125672594D01*
X290768427Y-125676585D01*
X290768428Y-125676587D01*
X290797572Y-125758592D01*
X290860554Y-125935805D01*
X290862501Y-125939563D01*
X290862503Y-125939567D01*
X290987119Y-126180063D01*
X290989069Y-126183826D01*
X291150158Y-126412038D01*
X291340822Y-126616190D01*
X291557509Y-126792478D01*
X291796182Y-126937618D01*
X291991571Y-127022487D01*
X292007610Y-127029454D01*
X292052396Y-127048907D01*
X292263574Y-127108076D01*
X292317296Y-127123129D01*
X292317298Y-127123129D01*
X292321376Y-127124272D01*
X292598114Y-127162309D01*
X292602351Y-127162309D01*
X292873217Y-127162309D01*
X292877454Y-127162309D01*
X293154192Y-127124272D01*
X293423172Y-127048907D01*
X293679386Y-126937618D01*
X293918059Y-126792478D01*
X294134746Y-126616190D01*
X294325410Y-126412038D01*
X294486499Y-126183826D01*
X294615014Y-125935805D01*
X294708559Y-125672594D01*
X294765392Y-125399097D01*
X294784455Y-125120409D01*
X315205541Y-125120409D01*
X315224604Y-125399097D01*
X315225463Y-125403235D01*
X315225465Y-125403243D01*
X315280574Y-125668442D01*
X315281437Y-125672594D01*
X315282855Y-125676585D01*
X315282856Y-125676587D01*
X315312000Y-125758592D01*
X315374982Y-125935805D01*
X315376929Y-125939563D01*
X315376931Y-125939567D01*
X315501547Y-126180063D01*
X315503497Y-126183826D01*
X315664586Y-126412038D01*
X315855250Y-126616190D01*
X316071937Y-126792478D01*
X316310610Y-126937618D01*
X316505999Y-127022487D01*
X316522038Y-127029454D01*
X316566824Y-127048907D01*
X316778002Y-127108076D01*
X316831724Y-127123129D01*
X316831726Y-127123129D01*
X316835804Y-127124272D01*
X317112542Y-127162309D01*
X317116779Y-127162309D01*
X317387645Y-127162309D01*
X317391882Y-127162309D01*
X317668620Y-127124272D01*
X317937600Y-127048907D01*
X318193814Y-126937618D01*
X318432487Y-126792478D01*
X318649174Y-126616190D01*
X318839838Y-126412038D01*
X319000927Y-126183826D01*
X319129442Y-125935805D01*
X319222987Y-125672594D01*
X319279820Y-125399097D01*
X319298883Y-125120409D01*
X334691113Y-125120409D01*
X334710176Y-125399097D01*
X334711035Y-125403235D01*
X334711037Y-125403243D01*
X334766146Y-125668442D01*
X334767009Y-125672594D01*
X334768427Y-125676585D01*
X334768428Y-125676587D01*
X334797572Y-125758592D01*
X334860554Y-125935805D01*
X334862501Y-125939563D01*
X334862503Y-125939567D01*
X334987119Y-126180063D01*
X334989069Y-126183826D01*
X335150158Y-126412038D01*
X335340822Y-126616190D01*
X335557509Y-126792478D01*
X335796182Y-126937618D01*
X335991571Y-127022487D01*
X336007610Y-127029454D01*
X336052396Y-127048907D01*
X336263574Y-127108076D01*
X336317296Y-127123129D01*
X336317298Y-127123129D01*
X336321376Y-127124272D01*
X336598114Y-127162309D01*
X336602351Y-127162309D01*
X336873217Y-127162309D01*
X336877454Y-127162309D01*
X337154192Y-127124272D01*
X337423172Y-127048907D01*
X337679386Y-126937618D01*
X337918059Y-126792478D01*
X338134746Y-126616190D01*
X338325410Y-126412038D01*
X338486499Y-126183826D01*
X338615014Y-125935805D01*
X338708559Y-125672594D01*
X338765392Y-125399097D01*
X338778289Y-125210559D01*
X359205541Y-125210559D01*
X359205830Y-125214783D01*
X359218437Y-125399097D01*
X359224604Y-125489247D01*
X359225463Y-125493385D01*
X359225465Y-125493393D01*
X359263533Y-125676587D01*
X359281437Y-125762744D01*
X359282855Y-125766735D01*
X359282856Y-125766737D01*
X359344279Y-125939567D01*
X359374982Y-126025955D01*
X359376929Y-126029713D01*
X359376931Y-126029717D01*
X359458580Y-126187291D01*
X359503497Y-126273976D01*
X359664586Y-126502188D01*
X359855250Y-126706340D01*
X360071937Y-126882628D01*
X360310610Y-127027768D01*
X360566824Y-127139057D01*
X360778002Y-127198226D01*
X360831724Y-127213279D01*
X360831726Y-127213279D01*
X360835804Y-127214422D01*
X361112542Y-127252459D01*
X361116779Y-127252459D01*
X361387645Y-127252459D01*
X361391882Y-127252459D01*
X361668620Y-127214422D01*
X361937600Y-127139057D01*
X362193814Y-127027768D01*
X362432487Y-126882628D01*
X362649174Y-126706340D01*
X362839838Y-126502188D01*
X363000927Y-126273976D01*
X363129442Y-126025955D01*
X363222987Y-125762744D01*
X363279820Y-125489247D01*
X363298883Y-125210559D01*
X378691113Y-125210559D01*
X378691402Y-125214783D01*
X378704009Y-125399097D01*
X378710176Y-125489247D01*
X378711035Y-125493385D01*
X378711037Y-125493393D01*
X378749105Y-125676587D01*
X378767009Y-125762744D01*
X378768427Y-125766735D01*
X378768428Y-125766737D01*
X378829851Y-125939567D01*
X378860554Y-126025955D01*
X378862501Y-126029713D01*
X378862503Y-126029717D01*
X378944152Y-126187291D01*
X378989069Y-126273976D01*
X379150158Y-126502188D01*
X379340822Y-126706340D01*
X379557509Y-126882628D01*
X379796182Y-127027768D01*
X380052396Y-127139057D01*
X380263574Y-127198226D01*
X380317296Y-127213279D01*
X380317298Y-127213279D01*
X380321376Y-127214422D01*
X380598114Y-127252459D01*
X380602351Y-127252459D01*
X380873217Y-127252459D01*
X380877454Y-127252459D01*
X381154192Y-127214422D01*
X381423172Y-127139057D01*
X381679386Y-127027768D01*
X381918059Y-126882628D01*
X382134746Y-126706340D01*
X382325410Y-126502188D01*
X382486499Y-126273976D01*
X382615014Y-126025955D01*
X382708559Y-125762744D01*
X382765392Y-125489247D01*
X382784455Y-125210559D01*
X403205541Y-125210559D01*
X403205830Y-125214783D01*
X403218437Y-125399097D01*
X403224604Y-125489247D01*
X403225463Y-125493385D01*
X403225465Y-125493393D01*
X403263533Y-125676587D01*
X403281437Y-125762744D01*
X403282855Y-125766735D01*
X403282856Y-125766737D01*
X403344279Y-125939567D01*
X403374982Y-126025955D01*
X403376929Y-126029713D01*
X403376931Y-126029717D01*
X403458580Y-126187291D01*
X403503497Y-126273976D01*
X403664586Y-126502188D01*
X403855250Y-126706340D01*
X404071937Y-126882628D01*
X404310610Y-127027768D01*
X404566824Y-127139057D01*
X404778002Y-127198226D01*
X404831724Y-127213279D01*
X404831726Y-127213279D01*
X404835804Y-127214422D01*
X405112542Y-127252459D01*
X405116779Y-127252459D01*
X405387645Y-127252459D01*
X405391882Y-127252459D01*
X405668620Y-127214422D01*
X405937600Y-127139057D01*
X406193814Y-127027768D01*
X406432487Y-126882628D01*
X406649174Y-126706340D01*
X406839838Y-126502188D01*
X407000927Y-126273976D01*
X407129442Y-126025955D01*
X407222987Y-125762744D01*
X407279820Y-125489247D01*
X407298883Y-125210559D01*
X422691113Y-125210559D01*
X422691402Y-125214783D01*
X422704009Y-125399097D01*
X422710176Y-125489247D01*
X422711035Y-125493385D01*
X422711037Y-125493393D01*
X422749105Y-125676587D01*
X422767009Y-125762744D01*
X422768427Y-125766735D01*
X422768428Y-125766737D01*
X422829851Y-125939567D01*
X422860554Y-126025955D01*
X422862501Y-126029713D01*
X422862503Y-126029717D01*
X422944152Y-126187291D01*
X422989069Y-126273976D01*
X423150158Y-126502188D01*
X423340822Y-126706340D01*
X423557509Y-126882628D01*
X423796182Y-127027768D01*
X424052396Y-127139057D01*
X424263574Y-127198226D01*
X424317296Y-127213279D01*
X424317298Y-127213279D01*
X424321376Y-127214422D01*
X424598114Y-127252459D01*
X424602351Y-127252459D01*
X424873217Y-127252459D01*
X424877454Y-127252459D01*
X425154192Y-127214422D01*
X425423172Y-127139057D01*
X425679386Y-127027768D01*
X425918059Y-126882628D01*
X426134746Y-126706340D01*
X426325410Y-126502188D01*
X426486499Y-126273976D01*
X426615014Y-126025955D01*
X426708559Y-125762744D01*
X426765392Y-125489247D01*
X426784455Y-125210559D01*
X447205541Y-125210559D01*
X447205830Y-125214783D01*
X447218437Y-125399097D01*
X447224604Y-125489247D01*
X447225463Y-125493385D01*
X447225465Y-125493393D01*
X447263533Y-125676587D01*
X447281437Y-125762744D01*
X447282855Y-125766735D01*
X447282856Y-125766737D01*
X447344279Y-125939567D01*
X447374982Y-126025955D01*
X447376929Y-126029713D01*
X447376931Y-126029717D01*
X447458580Y-126187291D01*
X447503497Y-126273976D01*
X447664586Y-126502188D01*
X447855250Y-126706340D01*
X448071937Y-126882628D01*
X448310610Y-127027768D01*
X448566824Y-127139057D01*
X448778002Y-127198226D01*
X448831724Y-127213279D01*
X448831726Y-127213279D01*
X448835804Y-127214422D01*
X449112542Y-127252459D01*
X449116779Y-127252459D01*
X449387645Y-127252459D01*
X449391882Y-127252459D01*
X449668620Y-127214422D01*
X449937600Y-127139057D01*
X450193814Y-127027768D01*
X450432487Y-126882628D01*
X450649174Y-126706340D01*
X450839838Y-126502188D01*
X451000927Y-126273976D01*
X451129442Y-126025955D01*
X451222987Y-125762744D01*
X451279820Y-125489247D01*
X451298883Y-125210559D01*
X466691113Y-125210559D01*
X466691401Y-125214783D01*
X466691402Y-125214783D01*
X466704009Y-125399097D01*
X466710176Y-125489247D01*
X466711035Y-125493385D01*
X466711037Y-125493393D01*
X466749105Y-125676587D01*
X466767009Y-125762744D01*
X466768427Y-125766735D01*
X466768428Y-125766737D01*
X466829851Y-125939567D01*
X466860554Y-126025955D01*
X466862501Y-126029713D01*
X466862503Y-126029717D01*
X466944152Y-126187291D01*
X466989069Y-126273976D01*
X467150158Y-126502188D01*
X467340822Y-126706340D01*
X467557509Y-126882628D01*
X467796182Y-127027768D01*
X468052396Y-127139057D01*
X468263574Y-127198226D01*
X468317296Y-127213279D01*
X468317298Y-127213279D01*
X468321376Y-127214422D01*
X468598114Y-127252459D01*
X468602351Y-127252459D01*
X468873217Y-127252459D01*
X468877454Y-127252459D01*
X469154192Y-127214422D01*
X469423172Y-127139057D01*
X469679386Y-127027768D01*
X469918059Y-126882628D01*
X470134746Y-126706340D01*
X470325410Y-126502188D01*
X470486499Y-126273976D01*
X470615014Y-126025955D01*
X470708559Y-125762744D01*
X470765392Y-125489247D01*
X470784455Y-125210559D01*
X470765392Y-124931871D01*
X470708559Y-124658374D01*
X470615014Y-124395163D01*
X470486499Y-124147142D01*
X470325410Y-123918930D01*
X470134746Y-123714778D01*
X470131464Y-123712108D01*
X470131461Y-123712105D01*
X470020651Y-123621955D01*
X469918059Y-123538490D01*
X469914435Y-123536286D01*
X469914432Y-123536284D01*
X469683004Y-123395550D01*
X469683002Y-123395549D01*
X469679386Y-123393350D01*
X469659229Y-123384594D01*
X469427053Y-123283746D01*
X469427043Y-123283742D01*
X469423172Y-123282061D01*
X469419100Y-123280920D01*
X469158271Y-123207838D01*
X469158258Y-123207835D01*
X469154192Y-123206696D01*
X469150005Y-123206120D01*
X469149993Y-123206118D01*
X468881651Y-123169235D01*
X468881638Y-123169234D01*
X468877454Y-123168659D01*
X468598114Y-123168659D01*
X468593930Y-123169234D01*
X468593916Y-123169235D01*
X468325574Y-123206118D01*
X468325559Y-123206120D01*
X468321376Y-123206696D01*
X468317312Y-123207834D01*
X468317296Y-123207838D01*
X468056467Y-123280920D01*
X468056462Y-123280921D01*
X468052396Y-123282061D01*
X468048528Y-123283740D01*
X468048514Y-123283746D01*
X467800065Y-123391663D01*
X467800060Y-123391665D01*
X467796182Y-123393350D01*
X467792571Y-123395545D01*
X467792563Y-123395550D01*
X467561135Y-123536284D01*
X467561124Y-123536291D01*
X467557509Y-123538490D01*
X467554219Y-123541166D01*
X467554217Y-123541168D01*
X467344106Y-123712105D01*
X467344095Y-123712114D01*
X467340822Y-123714778D01*
X467150158Y-123918930D01*
X467147715Y-123922390D01*
X467147710Y-123922397D01*
X466991515Y-124143676D01*
X466991511Y-124143681D01*
X466989069Y-124147142D01*
X466987123Y-124150896D01*
X466987119Y-124150904D01*
X466862503Y-124391400D01*
X466862498Y-124391410D01*
X466860554Y-124395163D01*
X466859137Y-124399148D01*
X466859133Y-124399159D01*
X466768428Y-124654380D01*
X466767009Y-124658374D01*
X466766147Y-124662519D01*
X466766146Y-124662525D01*
X466711037Y-124927724D01*
X466711035Y-124927734D01*
X466710176Y-124931871D01*
X466709887Y-124936086D01*
X466709887Y-124936091D01*
X466691402Y-125206334D01*
X466691113Y-125210559D01*
X451298883Y-125210559D01*
X451279820Y-124931871D01*
X451222987Y-124658374D01*
X451129442Y-124395163D01*
X451000927Y-124147142D01*
X450839838Y-123918930D01*
X450649174Y-123714778D01*
X450645892Y-123712108D01*
X450645889Y-123712105D01*
X450535079Y-123621955D01*
X450432487Y-123538490D01*
X450428863Y-123536286D01*
X450428860Y-123536284D01*
X450197432Y-123395550D01*
X450197430Y-123395549D01*
X450193814Y-123393350D01*
X450173657Y-123384594D01*
X449941481Y-123283746D01*
X449941471Y-123283742D01*
X449937600Y-123282061D01*
X449933528Y-123280920D01*
X449672699Y-123207838D01*
X449672686Y-123207835D01*
X449668620Y-123206696D01*
X449664433Y-123206120D01*
X449664421Y-123206118D01*
X449396079Y-123169235D01*
X449396066Y-123169234D01*
X449391882Y-123168659D01*
X449112542Y-123168659D01*
X449108358Y-123169234D01*
X449108344Y-123169235D01*
X448840002Y-123206118D01*
X448839987Y-123206120D01*
X448835804Y-123206696D01*
X448831740Y-123207834D01*
X448831724Y-123207838D01*
X448570895Y-123280920D01*
X448570890Y-123280921D01*
X448566824Y-123282061D01*
X448562956Y-123283740D01*
X448562942Y-123283746D01*
X448314493Y-123391663D01*
X448314488Y-123391665D01*
X448310610Y-123393350D01*
X448306999Y-123395545D01*
X448306991Y-123395550D01*
X448075563Y-123536284D01*
X448075552Y-123536291D01*
X448071937Y-123538490D01*
X448068647Y-123541166D01*
X448068645Y-123541168D01*
X447858534Y-123712105D01*
X447858523Y-123712114D01*
X447855250Y-123714778D01*
X447664586Y-123918930D01*
X447662143Y-123922390D01*
X447662138Y-123922397D01*
X447505943Y-124143676D01*
X447505939Y-124143681D01*
X447503497Y-124147142D01*
X447501551Y-124150896D01*
X447501547Y-124150904D01*
X447376931Y-124391400D01*
X447376926Y-124391410D01*
X447374982Y-124395163D01*
X447373565Y-124399148D01*
X447373561Y-124399159D01*
X447282856Y-124654380D01*
X447281437Y-124658374D01*
X447280575Y-124662519D01*
X447280574Y-124662525D01*
X447225465Y-124927724D01*
X447225463Y-124927734D01*
X447224604Y-124931871D01*
X447224315Y-124936086D01*
X447224315Y-124936091D01*
X447205830Y-125206334D01*
X447205541Y-125210559D01*
X426784455Y-125210559D01*
X426765392Y-124931871D01*
X426708559Y-124658374D01*
X426615014Y-124395163D01*
X426486499Y-124147142D01*
X426325410Y-123918930D01*
X426134746Y-123714778D01*
X426131464Y-123712108D01*
X426131461Y-123712105D01*
X426020651Y-123621955D01*
X425918059Y-123538490D01*
X425914435Y-123536286D01*
X425914432Y-123536284D01*
X425683004Y-123395550D01*
X425683002Y-123395549D01*
X425679386Y-123393350D01*
X425659229Y-123384594D01*
X425427053Y-123283746D01*
X425427043Y-123283742D01*
X425423172Y-123282061D01*
X425419100Y-123280920D01*
X425158271Y-123207838D01*
X425158258Y-123207835D01*
X425154192Y-123206696D01*
X425150005Y-123206120D01*
X425149993Y-123206118D01*
X424881651Y-123169235D01*
X424881638Y-123169234D01*
X424877454Y-123168659D01*
X424598114Y-123168659D01*
X424593930Y-123169234D01*
X424593916Y-123169235D01*
X424325574Y-123206118D01*
X424325559Y-123206120D01*
X424321376Y-123206696D01*
X424317312Y-123207834D01*
X424317296Y-123207838D01*
X424056467Y-123280920D01*
X424056462Y-123280921D01*
X424052396Y-123282061D01*
X424048528Y-123283740D01*
X424048514Y-123283746D01*
X423800065Y-123391663D01*
X423800060Y-123391665D01*
X423796182Y-123393350D01*
X423792571Y-123395545D01*
X423792563Y-123395550D01*
X423561135Y-123536284D01*
X423561124Y-123536291D01*
X423557509Y-123538490D01*
X423554219Y-123541166D01*
X423554217Y-123541168D01*
X423344106Y-123712105D01*
X423344095Y-123712114D01*
X423340822Y-123714778D01*
X423150158Y-123918930D01*
X423147715Y-123922390D01*
X423147710Y-123922397D01*
X422991515Y-124143676D01*
X422991511Y-124143681D01*
X422989069Y-124147142D01*
X422987123Y-124150896D01*
X422987119Y-124150904D01*
X422862503Y-124391400D01*
X422862498Y-124391410D01*
X422860554Y-124395163D01*
X422859137Y-124399148D01*
X422859133Y-124399159D01*
X422768428Y-124654380D01*
X422767009Y-124658374D01*
X422766147Y-124662519D01*
X422766146Y-124662525D01*
X422711037Y-124927724D01*
X422711035Y-124927734D01*
X422710176Y-124931871D01*
X422709887Y-124936086D01*
X422709887Y-124936091D01*
X422691402Y-125206334D01*
X422691113Y-125210559D01*
X407298883Y-125210559D01*
X407279820Y-124931871D01*
X407222987Y-124658374D01*
X407129442Y-124395163D01*
X407000927Y-124147142D01*
X406839838Y-123918930D01*
X406649174Y-123714778D01*
X406645892Y-123712108D01*
X406645889Y-123712105D01*
X406535079Y-123621955D01*
X406432487Y-123538490D01*
X406428863Y-123536286D01*
X406428860Y-123536284D01*
X406197432Y-123395550D01*
X406197430Y-123395549D01*
X406193814Y-123393350D01*
X406173657Y-123384594D01*
X405941481Y-123283746D01*
X405941471Y-123283742D01*
X405937600Y-123282061D01*
X405933528Y-123280920D01*
X405672699Y-123207838D01*
X405672686Y-123207835D01*
X405668620Y-123206696D01*
X405664433Y-123206120D01*
X405664421Y-123206118D01*
X405396079Y-123169235D01*
X405396066Y-123169234D01*
X405391882Y-123168659D01*
X405112542Y-123168659D01*
X405108358Y-123169234D01*
X405108344Y-123169235D01*
X404840002Y-123206118D01*
X404839987Y-123206120D01*
X404835804Y-123206696D01*
X404831740Y-123207834D01*
X404831724Y-123207838D01*
X404570895Y-123280920D01*
X404570890Y-123280921D01*
X404566824Y-123282061D01*
X404562956Y-123283740D01*
X404562942Y-123283746D01*
X404314493Y-123391663D01*
X404314488Y-123391665D01*
X404310610Y-123393350D01*
X404306999Y-123395545D01*
X404306991Y-123395550D01*
X404075563Y-123536284D01*
X404075552Y-123536291D01*
X404071937Y-123538490D01*
X404068647Y-123541166D01*
X404068645Y-123541168D01*
X403858534Y-123712105D01*
X403858523Y-123712114D01*
X403855250Y-123714778D01*
X403664586Y-123918930D01*
X403662143Y-123922390D01*
X403662138Y-123922397D01*
X403505943Y-124143676D01*
X403505939Y-124143681D01*
X403503497Y-124147142D01*
X403501551Y-124150896D01*
X403501547Y-124150904D01*
X403376931Y-124391400D01*
X403376926Y-124391410D01*
X403374982Y-124395163D01*
X403373565Y-124399148D01*
X403373561Y-124399159D01*
X403282856Y-124654380D01*
X403281437Y-124658374D01*
X403280575Y-124662519D01*
X403280574Y-124662525D01*
X403225465Y-124927724D01*
X403225463Y-124927734D01*
X403224604Y-124931871D01*
X403224315Y-124936086D01*
X403224315Y-124936091D01*
X403205830Y-125206334D01*
X403205541Y-125210559D01*
X382784455Y-125210559D01*
X382765392Y-124931871D01*
X382708559Y-124658374D01*
X382615014Y-124395163D01*
X382486499Y-124147142D01*
X382325410Y-123918930D01*
X382134746Y-123714778D01*
X382131464Y-123712108D01*
X382131461Y-123712105D01*
X382020651Y-123621955D01*
X381918059Y-123538490D01*
X381914435Y-123536286D01*
X381914432Y-123536284D01*
X381683004Y-123395550D01*
X381683002Y-123395549D01*
X381679386Y-123393350D01*
X381659229Y-123384594D01*
X381427053Y-123283746D01*
X381427043Y-123283742D01*
X381423172Y-123282061D01*
X381419100Y-123280920D01*
X381158271Y-123207838D01*
X381158258Y-123207835D01*
X381154192Y-123206696D01*
X381150005Y-123206120D01*
X381149993Y-123206118D01*
X380881651Y-123169235D01*
X380881638Y-123169234D01*
X380877454Y-123168659D01*
X380598114Y-123168659D01*
X380593930Y-123169234D01*
X380593916Y-123169235D01*
X380325574Y-123206118D01*
X380325559Y-123206120D01*
X380321376Y-123206696D01*
X380317312Y-123207834D01*
X380317296Y-123207838D01*
X380056467Y-123280920D01*
X380056462Y-123280921D01*
X380052396Y-123282061D01*
X380048528Y-123283740D01*
X380048514Y-123283746D01*
X379800065Y-123391663D01*
X379800060Y-123391665D01*
X379796182Y-123393350D01*
X379792571Y-123395545D01*
X379792563Y-123395550D01*
X379561135Y-123536284D01*
X379561124Y-123536291D01*
X379557509Y-123538490D01*
X379554219Y-123541166D01*
X379554217Y-123541168D01*
X379344106Y-123712105D01*
X379344095Y-123712114D01*
X379340822Y-123714778D01*
X379150158Y-123918930D01*
X379147715Y-123922390D01*
X379147710Y-123922397D01*
X378991515Y-124143676D01*
X378991511Y-124143681D01*
X378989069Y-124147142D01*
X378987123Y-124150896D01*
X378987119Y-124150904D01*
X378862503Y-124391400D01*
X378862498Y-124391410D01*
X378860554Y-124395163D01*
X378859137Y-124399148D01*
X378859133Y-124399159D01*
X378768428Y-124654380D01*
X378767009Y-124658374D01*
X378766147Y-124662519D01*
X378766146Y-124662525D01*
X378711037Y-124927724D01*
X378711035Y-124927734D01*
X378710176Y-124931871D01*
X378709887Y-124936086D01*
X378709887Y-124936091D01*
X378691402Y-125206334D01*
X378691113Y-125210559D01*
X363298883Y-125210559D01*
X363279820Y-124931871D01*
X363222987Y-124658374D01*
X363129442Y-124395163D01*
X363000927Y-124147142D01*
X362839838Y-123918930D01*
X362649174Y-123714778D01*
X362645892Y-123712108D01*
X362645889Y-123712105D01*
X362535079Y-123621955D01*
X362432487Y-123538490D01*
X362428863Y-123536286D01*
X362428860Y-123536284D01*
X362197432Y-123395550D01*
X362197430Y-123395549D01*
X362193814Y-123393350D01*
X362173657Y-123384594D01*
X361941481Y-123283746D01*
X361941471Y-123283742D01*
X361937600Y-123282061D01*
X361933528Y-123280920D01*
X361672699Y-123207838D01*
X361672686Y-123207835D01*
X361668620Y-123206696D01*
X361664433Y-123206120D01*
X361664421Y-123206118D01*
X361396079Y-123169235D01*
X361396066Y-123169234D01*
X361391882Y-123168659D01*
X361112542Y-123168659D01*
X361108358Y-123169234D01*
X361108344Y-123169235D01*
X360840002Y-123206118D01*
X360839987Y-123206120D01*
X360835804Y-123206696D01*
X360831740Y-123207834D01*
X360831724Y-123207838D01*
X360570895Y-123280920D01*
X360570890Y-123280921D01*
X360566824Y-123282061D01*
X360562956Y-123283740D01*
X360562942Y-123283746D01*
X360314493Y-123391663D01*
X360314488Y-123391665D01*
X360310610Y-123393350D01*
X360306999Y-123395545D01*
X360306991Y-123395550D01*
X360075563Y-123536284D01*
X360075552Y-123536291D01*
X360071937Y-123538490D01*
X360068647Y-123541166D01*
X360068645Y-123541168D01*
X359858534Y-123712105D01*
X359858523Y-123712114D01*
X359855250Y-123714778D01*
X359664586Y-123918930D01*
X359662143Y-123922390D01*
X359662138Y-123922397D01*
X359505943Y-124143676D01*
X359505939Y-124143681D01*
X359503497Y-124147142D01*
X359501551Y-124150896D01*
X359501547Y-124150904D01*
X359376931Y-124391400D01*
X359376926Y-124391410D01*
X359374982Y-124395163D01*
X359373565Y-124399148D01*
X359373561Y-124399159D01*
X359282856Y-124654380D01*
X359281437Y-124658374D01*
X359280575Y-124662519D01*
X359280574Y-124662525D01*
X359225465Y-124927724D01*
X359225463Y-124927734D01*
X359224604Y-124931871D01*
X359224315Y-124936086D01*
X359224315Y-124936091D01*
X359205830Y-125206334D01*
X359205541Y-125210559D01*
X338778289Y-125210559D01*
X338784455Y-125120409D01*
X338765392Y-124841721D01*
X338708559Y-124568224D01*
X338615014Y-124305013D01*
X338486499Y-124056992D01*
X338325410Y-123828780D01*
X338134746Y-123624628D01*
X338131464Y-123621958D01*
X338131461Y-123621955D01*
X338026157Y-123536284D01*
X337918059Y-123448340D01*
X337914435Y-123446136D01*
X337914432Y-123446134D01*
X337683004Y-123305400D01*
X337683002Y-123305399D01*
X337679386Y-123303200D01*
X337628092Y-123280920D01*
X337427053Y-123193596D01*
X337427043Y-123193592D01*
X337423172Y-123191911D01*
X337419100Y-123190770D01*
X337158271Y-123117688D01*
X337158258Y-123117685D01*
X337154192Y-123116546D01*
X337150005Y-123115970D01*
X337149993Y-123115968D01*
X336881651Y-123079085D01*
X336881638Y-123079084D01*
X336877454Y-123078509D01*
X336598114Y-123078509D01*
X336593930Y-123079084D01*
X336593916Y-123079085D01*
X336325574Y-123115968D01*
X336325559Y-123115970D01*
X336321376Y-123116546D01*
X336317312Y-123117684D01*
X336317296Y-123117688D01*
X336056467Y-123190770D01*
X336056462Y-123190771D01*
X336052396Y-123191911D01*
X336048528Y-123193590D01*
X336048514Y-123193596D01*
X335800065Y-123301513D01*
X335800060Y-123301515D01*
X335796182Y-123303200D01*
X335792571Y-123305395D01*
X335792563Y-123305400D01*
X335561135Y-123446134D01*
X335561124Y-123446141D01*
X335557509Y-123448340D01*
X335554219Y-123451016D01*
X335554217Y-123451018D01*
X335344106Y-123621955D01*
X335344095Y-123621964D01*
X335340822Y-123624628D01*
X335337934Y-123627719D01*
X335337931Y-123627723D01*
X335153053Y-123825680D01*
X335150158Y-123828780D01*
X335147715Y-123832240D01*
X335147710Y-123832247D01*
X334991515Y-124053526D01*
X334991511Y-124053531D01*
X334989069Y-124056992D01*
X334987123Y-124060746D01*
X334987119Y-124060754D01*
X334862503Y-124301250D01*
X334862498Y-124301260D01*
X334860554Y-124305013D01*
X334859137Y-124308998D01*
X334859133Y-124309009D01*
X334768428Y-124564230D01*
X334767009Y-124568224D01*
X334766147Y-124572369D01*
X334766146Y-124572375D01*
X334711037Y-124837574D01*
X334711035Y-124837584D01*
X334710176Y-124841721D01*
X334709887Y-124845936D01*
X334709887Y-124845941D01*
X334703721Y-124936091D01*
X334691113Y-125120409D01*
X319298883Y-125120409D01*
X319279820Y-124841721D01*
X319222987Y-124568224D01*
X319129442Y-124305013D01*
X319000927Y-124056992D01*
X318839838Y-123828780D01*
X318649174Y-123624628D01*
X318645892Y-123621958D01*
X318645889Y-123621955D01*
X318540585Y-123536284D01*
X318432487Y-123448340D01*
X318428863Y-123446136D01*
X318428860Y-123446134D01*
X318197432Y-123305400D01*
X318197430Y-123305399D01*
X318193814Y-123303200D01*
X318142520Y-123280920D01*
X317941481Y-123193596D01*
X317941471Y-123193592D01*
X317937600Y-123191911D01*
X317933528Y-123190770D01*
X317672699Y-123117688D01*
X317672686Y-123117685D01*
X317668620Y-123116546D01*
X317664433Y-123115970D01*
X317664421Y-123115968D01*
X317396079Y-123079085D01*
X317396066Y-123079084D01*
X317391882Y-123078509D01*
X317112542Y-123078509D01*
X317108358Y-123079084D01*
X317108344Y-123079085D01*
X316840002Y-123115968D01*
X316839987Y-123115970D01*
X316835804Y-123116546D01*
X316831740Y-123117684D01*
X316831724Y-123117688D01*
X316570895Y-123190770D01*
X316570890Y-123190771D01*
X316566824Y-123191911D01*
X316562956Y-123193590D01*
X316562942Y-123193596D01*
X316314493Y-123301513D01*
X316314488Y-123301515D01*
X316310610Y-123303200D01*
X316306999Y-123305395D01*
X316306991Y-123305400D01*
X316075563Y-123446134D01*
X316075552Y-123446141D01*
X316071937Y-123448340D01*
X316068647Y-123451016D01*
X316068645Y-123451018D01*
X315858534Y-123621955D01*
X315858523Y-123621964D01*
X315855250Y-123624628D01*
X315852362Y-123627719D01*
X315852359Y-123627723D01*
X315667481Y-123825680D01*
X315664586Y-123828780D01*
X315662143Y-123832240D01*
X315662138Y-123832247D01*
X315505943Y-124053526D01*
X315505939Y-124053531D01*
X315503497Y-124056992D01*
X315501551Y-124060746D01*
X315501547Y-124060754D01*
X315376931Y-124301250D01*
X315376926Y-124301260D01*
X315374982Y-124305013D01*
X315373565Y-124308998D01*
X315373561Y-124309009D01*
X315282856Y-124564230D01*
X315281437Y-124568224D01*
X315280575Y-124572369D01*
X315280574Y-124572375D01*
X315225465Y-124837574D01*
X315225463Y-124837584D01*
X315224604Y-124841721D01*
X315224315Y-124845936D01*
X315224315Y-124845941D01*
X315218149Y-124936091D01*
X315205541Y-125120409D01*
X294784455Y-125120409D01*
X294765392Y-124841721D01*
X294708559Y-124568224D01*
X294615014Y-124305013D01*
X294486499Y-124056992D01*
X294325410Y-123828780D01*
X294134746Y-123624628D01*
X294131464Y-123621958D01*
X294131461Y-123621955D01*
X294026157Y-123536284D01*
X293918059Y-123448340D01*
X293914435Y-123446136D01*
X293914432Y-123446134D01*
X293683004Y-123305400D01*
X293683002Y-123305399D01*
X293679386Y-123303200D01*
X293628092Y-123280920D01*
X293427053Y-123193596D01*
X293427043Y-123193592D01*
X293423172Y-123191911D01*
X293419100Y-123190770D01*
X293158271Y-123117688D01*
X293158258Y-123117685D01*
X293154192Y-123116546D01*
X293150005Y-123115970D01*
X293149993Y-123115968D01*
X292881651Y-123079085D01*
X292881638Y-123079084D01*
X292877454Y-123078509D01*
X292598114Y-123078509D01*
X292593930Y-123079084D01*
X292593916Y-123079085D01*
X292325574Y-123115968D01*
X292325559Y-123115970D01*
X292321376Y-123116546D01*
X292317312Y-123117684D01*
X292317296Y-123117688D01*
X292056467Y-123190770D01*
X292056462Y-123190771D01*
X292052396Y-123191911D01*
X292048528Y-123193590D01*
X292048514Y-123193596D01*
X291800065Y-123301513D01*
X291800060Y-123301515D01*
X291796182Y-123303200D01*
X291792571Y-123305395D01*
X291792563Y-123305400D01*
X291561135Y-123446134D01*
X291561124Y-123446141D01*
X291557509Y-123448340D01*
X291554219Y-123451016D01*
X291554217Y-123451018D01*
X291344106Y-123621955D01*
X291344095Y-123621964D01*
X291340822Y-123624628D01*
X291337934Y-123627719D01*
X291337931Y-123627723D01*
X291153053Y-123825680D01*
X291150158Y-123828780D01*
X291147715Y-123832240D01*
X291147710Y-123832247D01*
X290991515Y-124053526D01*
X290991511Y-124053531D01*
X290989069Y-124056992D01*
X290987123Y-124060746D01*
X290987119Y-124060754D01*
X290862503Y-124301250D01*
X290862498Y-124301260D01*
X290860554Y-124305013D01*
X290859137Y-124308998D01*
X290859133Y-124309009D01*
X290768428Y-124564230D01*
X290767009Y-124568224D01*
X290766147Y-124572369D01*
X290766146Y-124572375D01*
X290711037Y-124837574D01*
X290711035Y-124837584D01*
X290710176Y-124841721D01*
X290709887Y-124845936D01*
X290709887Y-124845941D01*
X290703721Y-124936091D01*
X290691113Y-125120409D01*
X275298883Y-125120409D01*
X275279820Y-124841721D01*
X275222987Y-124568224D01*
X275129442Y-124305013D01*
X275000927Y-124056992D01*
X274839838Y-123828780D01*
X274649174Y-123624628D01*
X274645892Y-123621958D01*
X274645889Y-123621955D01*
X274540585Y-123536284D01*
X274432487Y-123448340D01*
X274428863Y-123446136D01*
X274428860Y-123446134D01*
X274197432Y-123305400D01*
X274197430Y-123305399D01*
X274193814Y-123303200D01*
X274142520Y-123280920D01*
X273941481Y-123193596D01*
X273941471Y-123193592D01*
X273937600Y-123191911D01*
X273933528Y-123190770D01*
X273672699Y-123117688D01*
X273672686Y-123117685D01*
X273668620Y-123116546D01*
X273664433Y-123115970D01*
X273664421Y-123115968D01*
X273396079Y-123079085D01*
X273396066Y-123079084D01*
X273391882Y-123078509D01*
X273112542Y-123078509D01*
X273108358Y-123079084D01*
X273108344Y-123079085D01*
X272840002Y-123115968D01*
X272839987Y-123115970D01*
X272835804Y-123116546D01*
X272831740Y-123117684D01*
X272831724Y-123117688D01*
X272570895Y-123190770D01*
X272570890Y-123190771D01*
X272566824Y-123191911D01*
X272562956Y-123193590D01*
X272562942Y-123193596D01*
X272314493Y-123301513D01*
X272314488Y-123301515D01*
X272310610Y-123303200D01*
X272306999Y-123305395D01*
X272306991Y-123305400D01*
X272075563Y-123446134D01*
X272075552Y-123446141D01*
X272071937Y-123448340D01*
X272068647Y-123451016D01*
X272068645Y-123451018D01*
X271858534Y-123621955D01*
X271858523Y-123621964D01*
X271855250Y-123624628D01*
X271852362Y-123627719D01*
X271852359Y-123627723D01*
X271667481Y-123825680D01*
X271664586Y-123828780D01*
X271662143Y-123832240D01*
X271662138Y-123832247D01*
X271505943Y-124053526D01*
X271505939Y-124053531D01*
X271503497Y-124056992D01*
X271501551Y-124060746D01*
X271501547Y-124060754D01*
X271376931Y-124301250D01*
X271376926Y-124301260D01*
X271374982Y-124305013D01*
X271373565Y-124308998D01*
X271373561Y-124309009D01*
X271282856Y-124564230D01*
X271281437Y-124568224D01*
X271280575Y-124572369D01*
X271280574Y-124572375D01*
X271225465Y-124837574D01*
X271225463Y-124837584D01*
X271224604Y-124841721D01*
X271224315Y-124845936D01*
X271224315Y-124845941D01*
X271218149Y-124936091D01*
X271205541Y-125120409D01*
X250784455Y-125120409D01*
X250765392Y-124841721D01*
X250708559Y-124568224D01*
X250615014Y-124305013D01*
X250486499Y-124056992D01*
X250325410Y-123828780D01*
X250134746Y-123624628D01*
X250131464Y-123621958D01*
X250131461Y-123621955D01*
X250026157Y-123536284D01*
X249918059Y-123448340D01*
X249914435Y-123446136D01*
X249914432Y-123446134D01*
X249683004Y-123305400D01*
X249683002Y-123305399D01*
X249679386Y-123303200D01*
X249628092Y-123280920D01*
X249427053Y-123193596D01*
X249427043Y-123193592D01*
X249423172Y-123191911D01*
X249419100Y-123190770D01*
X249158271Y-123117688D01*
X249158258Y-123117685D01*
X249154192Y-123116546D01*
X249150005Y-123115970D01*
X249149993Y-123115968D01*
X248881651Y-123079085D01*
X248881638Y-123079084D01*
X248877454Y-123078509D01*
X248598114Y-123078509D01*
X248593930Y-123079084D01*
X248593916Y-123079085D01*
X248325574Y-123115968D01*
X248325559Y-123115970D01*
X248321376Y-123116546D01*
X248317312Y-123117684D01*
X248317296Y-123117688D01*
X248056467Y-123190770D01*
X248056462Y-123190771D01*
X248052396Y-123191911D01*
X248048528Y-123193590D01*
X248048514Y-123193596D01*
X247800065Y-123301513D01*
X247800060Y-123301515D01*
X247796182Y-123303200D01*
X247792571Y-123305395D01*
X247792563Y-123305400D01*
X247561135Y-123446134D01*
X247561124Y-123446141D01*
X247557509Y-123448340D01*
X247554219Y-123451016D01*
X247554217Y-123451018D01*
X247344106Y-123621955D01*
X247344095Y-123621964D01*
X247340822Y-123624628D01*
X247337934Y-123627719D01*
X247337931Y-123627723D01*
X247153053Y-123825680D01*
X247150158Y-123828780D01*
X247147715Y-123832240D01*
X247147710Y-123832247D01*
X246991515Y-124053526D01*
X246991511Y-124053531D01*
X246989069Y-124056992D01*
X246987123Y-124060746D01*
X246987119Y-124060754D01*
X246862503Y-124301250D01*
X246862498Y-124301260D01*
X246860554Y-124305013D01*
X246859137Y-124308998D01*
X246859133Y-124309009D01*
X246768428Y-124564230D01*
X246767009Y-124568224D01*
X246766147Y-124572369D01*
X246766146Y-124572375D01*
X246711037Y-124837574D01*
X246711035Y-124837584D01*
X246710176Y-124841721D01*
X246709887Y-124845936D01*
X246709887Y-124845941D01*
X246691401Y-125116184D01*
X246691401Y-125116198D01*
X246691113Y-125120409D01*
X231298883Y-125120409D01*
X231279820Y-124841721D01*
X231222987Y-124568224D01*
X231129442Y-124305013D01*
X231000927Y-124056992D01*
X230839838Y-123828780D01*
X230649174Y-123624628D01*
X230645892Y-123621958D01*
X230645889Y-123621955D01*
X230540585Y-123536284D01*
X230432487Y-123448340D01*
X230428863Y-123446136D01*
X230428860Y-123446134D01*
X230197432Y-123305400D01*
X230197430Y-123305399D01*
X230193814Y-123303200D01*
X230142520Y-123280920D01*
X229941481Y-123193596D01*
X229941471Y-123193592D01*
X229937600Y-123191911D01*
X229933528Y-123190770D01*
X229672699Y-123117688D01*
X229672686Y-123117685D01*
X229668620Y-123116546D01*
X229664433Y-123115970D01*
X229664421Y-123115968D01*
X229396079Y-123079085D01*
X229396066Y-123079084D01*
X229391882Y-123078509D01*
X229112542Y-123078509D01*
X229108358Y-123079084D01*
X229108344Y-123079085D01*
X228840002Y-123115968D01*
X228839987Y-123115970D01*
X228835804Y-123116546D01*
X228831740Y-123117684D01*
X228831724Y-123117688D01*
X228570895Y-123190770D01*
X228570890Y-123190771D01*
X228566824Y-123191911D01*
X228562956Y-123193590D01*
X228562942Y-123193596D01*
X228314493Y-123301513D01*
X228314488Y-123301515D01*
X228310610Y-123303200D01*
X228306999Y-123305395D01*
X228306991Y-123305400D01*
X228075563Y-123446134D01*
X228075552Y-123446141D01*
X228071937Y-123448340D01*
X228068647Y-123451016D01*
X228068645Y-123451018D01*
X227858534Y-123621955D01*
X227858523Y-123621964D01*
X227855250Y-123624628D01*
X227852362Y-123627719D01*
X227852359Y-123627723D01*
X227667481Y-123825680D01*
X227664586Y-123828780D01*
X227662143Y-123832240D01*
X227662138Y-123832247D01*
X227505943Y-124053526D01*
X227505939Y-124053531D01*
X227503497Y-124056992D01*
X227501551Y-124060746D01*
X227501547Y-124060754D01*
X227376931Y-124301250D01*
X227376926Y-124301260D01*
X227374982Y-124305013D01*
X227373565Y-124308998D01*
X227373561Y-124309009D01*
X227282856Y-124564230D01*
X227281437Y-124568224D01*
X227280575Y-124572369D01*
X227280574Y-124572375D01*
X227225465Y-124837574D01*
X227225463Y-124837584D01*
X227224604Y-124841721D01*
X227224315Y-124845936D01*
X227224315Y-124845941D01*
X227218149Y-124936091D01*
X227205541Y-125120409D01*
X206784455Y-125120409D01*
X206765392Y-124841721D01*
X206708559Y-124568224D01*
X206615014Y-124305013D01*
X206486499Y-124056992D01*
X206325410Y-123828780D01*
X206134746Y-123624628D01*
X206131464Y-123621958D01*
X206131461Y-123621955D01*
X206026157Y-123536284D01*
X205918059Y-123448340D01*
X205914435Y-123446136D01*
X205914432Y-123446134D01*
X205683004Y-123305400D01*
X205683002Y-123305399D01*
X205679386Y-123303200D01*
X205628092Y-123280920D01*
X205427053Y-123193596D01*
X205427043Y-123193592D01*
X205423172Y-123191911D01*
X205419100Y-123190770D01*
X205158271Y-123117688D01*
X205158258Y-123117685D01*
X205154192Y-123116546D01*
X205150005Y-123115970D01*
X205149993Y-123115968D01*
X204881651Y-123079085D01*
X204881638Y-123079084D01*
X204877454Y-123078509D01*
X204598114Y-123078509D01*
X204593930Y-123079084D01*
X204593916Y-123079085D01*
X204325574Y-123115968D01*
X204325559Y-123115970D01*
X204321376Y-123116546D01*
X204317312Y-123117684D01*
X204317296Y-123117688D01*
X204056467Y-123190770D01*
X204056462Y-123190771D01*
X204052396Y-123191911D01*
X204048528Y-123193590D01*
X204048514Y-123193596D01*
X203800065Y-123301513D01*
X203800060Y-123301515D01*
X203796182Y-123303200D01*
X203792571Y-123305395D01*
X203792563Y-123305400D01*
X203561135Y-123446134D01*
X203561124Y-123446141D01*
X203557509Y-123448340D01*
X203554219Y-123451016D01*
X203554217Y-123451018D01*
X203344106Y-123621955D01*
X203344095Y-123621964D01*
X203340822Y-123624628D01*
X203337934Y-123627719D01*
X203337931Y-123627723D01*
X203153053Y-123825680D01*
X203150158Y-123828780D01*
X203147715Y-123832240D01*
X203147710Y-123832247D01*
X202991515Y-124053526D01*
X202991511Y-124053531D01*
X202989069Y-124056992D01*
X202987123Y-124060746D01*
X202987119Y-124060754D01*
X202862503Y-124301250D01*
X202862498Y-124301260D01*
X202860554Y-124305013D01*
X202859137Y-124308998D01*
X202859133Y-124309009D01*
X202768428Y-124564230D01*
X202767009Y-124568224D01*
X202766147Y-124572369D01*
X202766146Y-124572375D01*
X202711037Y-124837574D01*
X202711035Y-124837584D01*
X202710176Y-124841721D01*
X202709887Y-124845936D01*
X202709887Y-124845941D01*
X202703721Y-124936091D01*
X202691113Y-125120409D01*
X187298883Y-125120409D01*
X187279820Y-124841721D01*
X187222987Y-124568224D01*
X187129442Y-124305013D01*
X187000927Y-124056992D01*
X186839838Y-123828780D01*
X186649174Y-123624628D01*
X186645892Y-123621958D01*
X186645889Y-123621955D01*
X186540585Y-123536284D01*
X186432487Y-123448340D01*
X186428863Y-123446136D01*
X186428860Y-123446134D01*
X186197432Y-123305400D01*
X186197430Y-123305399D01*
X186193814Y-123303200D01*
X186142520Y-123280920D01*
X185941481Y-123193596D01*
X185941471Y-123193592D01*
X185937600Y-123191911D01*
X185933528Y-123190770D01*
X185672699Y-123117688D01*
X185672686Y-123117685D01*
X185668620Y-123116546D01*
X185664433Y-123115970D01*
X185664421Y-123115968D01*
X185396079Y-123079085D01*
X185396066Y-123079084D01*
X185391882Y-123078509D01*
X185112542Y-123078509D01*
X185108358Y-123079084D01*
X185108344Y-123079085D01*
X184840002Y-123115968D01*
X184839987Y-123115970D01*
X184835804Y-123116546D01*
X184831740Y-123117684D01*
X184831724Y-123117688D01*
X184570895Y-123190770D01*
X184570890Y-123190771D01*
X184566824Y-123191911D01*
X184562956Y-123193590D01*
X184562942Y-123193596D01*
X184314493Y-123301513D01*
X184314488Y-123301515D01*
X184310610Y-123303200D01*
X184306999Y-123305395D01*
X184306991Y-123305400D01*
X184075563Y-123446134D01*
X184075552Y-123446141D01*
X184071937Y-123448340D01*
X184068647Y-123451016D01*
X184068645Y-123451018D01*
X183858534Y-123621955D01*
X183858523Y-123621964D01*
X183855250Y-123624628D01*
X183852362Y-123627719D01*
X183852359Y-123627723D01*
X183667481Y-123825680D01*
X183664586Y-123828780D01*
X183662143Y-123832240D01*
X183662138Y-123832247D01*
X183505943Y-124053526D01*
X183505939Y-124053531D01*
X183503497Y-124056992D01*
X183501551Y-124060746D01*
X183501547Y-124060754D01*
X183376931Y-124301250D01*
X183376926Y-124301260D01*
X183374982Y-124305013D01*
X183373565Y-124308998D01*
X183373561Y-124309009D01*
X183282856Y-124564230D01*
X183281437Y-124568224D01*
X183280575Y-124572369D01*
X183280574Y-124572375D01*
X183225465Y-124837574D01*
X183225463Y-124837584D01*
X183224604Y-124841721D01*
X183224315Y-124845936D01*
X183224315Y-124845941D01*
X183218149Y-124936091D01*
X183205541Y-125120409D01*
X162784455Y-125120409D01*
X162765392Y-124841721D01*
X162708559Y-124568224D01*
X162615014Y-124305013D01*
X162486499Y-124056992D01*
X162325410Y-123828780D01*
X162134746Y-123624628D01*
X162131464Y-123621958D01*
X162131461Y-123621955D01*
X162026157Y-123536284D01*
X161918059Y-123448340D01*
X161914435Y-123446136D01*
X161914432Y-123446134D01*
X161683004Y-123305400D01*
X161683002Y-123305399D01*
X161679386Y-123303200D01*
X161628092Y-123280920D01*
X161427053Y-123193596D01*
X161427043Y-123193592D01*
X161423172Y-123191911D01*
X161419100Y-123190770D01*
X161158271Y-123117688D01*
X161158258Y-123117685D01*
X161154192Y-123116546D01*
X161150005Y-123115970D01*
X161149993Y-123115968D01*
X160881651Y-123079085D01*
X160881638Y-123079084D01*
X160877454Y-123078509D01*
X160598114Y-123078509D01*
X160593930Y-123079084D01*
X160593916Y-123079085D01*
X160325574Y-123115968D01*
X160325559Y-123115970D01*
X160321376Y-123116546D01*
X160317312Y-123117684D01*
X160317296Y-123117688D01*
X160056467Y-123190770D01*
X160056462Y-123190771D01*
X160052396Y-123191911D01*
X160048528Y-123193590D01*
X160048514Y-123193596D01*
X159800065Y-123301513D01*
X159800060Y-123301515D01*
X159796182Y-123303200D01*
X159792571Y-123305395D01*
X159792563Y-123305400D01*
X159561135Y-123446134D01*
X159561124Y-123446141D01*
X159557509Y-123448340D01*
X159554219Y-123451016D01*
X159554217Y-123451018D01*
X159344106Y-123621955D01*
X159344095Y-123621964D01*
X159340822Y-123624628D01*
X159337934Y-123627719D01*
X159337931Y-123627723D01*
X159153053Y-123825680D01*
X159150158Y-123828780D01*
X159147715Y-123832240D01*
X159147710Y-123832247D01*
X158991515Y-124053526D01*
X158991511Y-124053531D01*
X158989069Y-124056992D01*
X158987123Y-124060746D01*
X158987119Y-124060754D01*
X158862503Y-124301250D01*
X158862498Y-124301260D01*
X158860554Y-124305013D01*
X158859137Y-124308998D01*
X158859133Y-124309009D01*
X158768428Y-124564230D01*
X158767009Y-124568224D01*
X158766147Y-124572369D01*
X158766146Y-124572375D01*
X158711037Y-124837574D01*
X158711035Y-124837584D01*
X158710176Y-124841721D01*
X158709887Y-124845936D01*
X158709887Y-124845941D01*
X158703721Y-124936091D01*
X158691113Y-125120409D01*
X143298883Y-125120409D01*
X143279820Y-124841721D01*
X143222987Y-124568224D01*
X143129442Y-124305013D01*
X143000927Y-124056992D01*
X142839838Y-123828780D01*
X142649174Y-123624628D01*
X142645892Y-123621958D01*
X142645889Y-123621955D01*
X142540585Y-123536284D01*
X142432487Y-123448340D01*
X142428863Y-123446136D01*
X142428860Y-123446134D01*
X142197432Y-123305400D01*
X142197430Y-123305399D01*
X142193814Y-123303200D01*
X142142520Y-123280920D01*
X141941481Y-123193596D01*
X141941471Y-123193592D01*
X141937600Y-123191911D01*
X141933528Y-123190770D01*
X141672699Y-123117688D01*
X141672686Y-123117685D01*
X141668620Y-123116546D01*
X141664433Y-123115970D01*
X141664421Y-123115968D01*
X141396079Y-123079085D01*
X141396066Y-123079084D01*
X141391882Y-123078509D01*
X141112542Y-123078509D01*
X141108358Y-123079084D01*
X141108344Y-123079085D01*
X140840002Y-123115968D01*
X140839987Y-123115970D01*
X140835804Y-123116546D01*
X140831740Y-123117684D01*
X140831724Y-123117688D01*
X140570895Y-123190770D01*
X140570890Y-123190771D01*
X140566824Y-123191911D01*
X140562956Y-123193590D01*
X140562942Y-123193596D01*
X140314493Y-123301513D01*
X140314488Y-123301515D01*
X140310610Y-123303200D01*
X140306999Y-123305395D01*
X140306991Y-123305400D01*
X140075563Y-123446134D01*
X140075552Y-123446141D01*
X140071937Y-123448340D01*
X140068647Y-123451016D01*
X140068645Y-123451018D01*
X139858534Y-123621955D01*
X139858523Y-123621964D01*
X139855250Y-123624628D01*
X139852362Y-123627719D01*
X139852359Y-123627723D01*
X139667481Y-123825680D01*
X139664586Y-123828780D01*
X139662143Y-123832240D01*
X139662138Y-123832247D01*
X139505943Y-124053526D01*
X139505939Y-124053531D01*
X139503497Y-124056992D01*
X139501551Y-124060746D01*
X139501547Y-124060754D01*
X139376931Y-124301250D01*
X139376926Y-124301260D01*
X139374982Y-124305013D01*
X139373565Y-124308998D01*
X139373561Y-124309009D01*
X139282856Y-124564230D01*
X139281437Y-124568224D01*
X139280575Y-124572369D01*
X139280574Y-124572375D01*
X139225465Y-124837574D01*
X139225463Y-124837584D01*
X139224604Y-124841721D01*
X139224315Y-124845936D01*
X139224315Y-124845941D01*
X139218149Y-124936091D01*
X139205541Y-125120409D01*
X105000500Y-125120409D01*
X105000500Y-119830000D01*
X117708594Y-119830000D01*
X117708859Y-119834043D01*
X117708859Y-119834044D01*
X117715938Y-119942056D01*
X117714502Y-119948468D01*
X117717558Y-119971186D01*
X117718398Y-119979597D01*
X117718839Y-119986320D01*
X117719105Y-119994436D01*
X117719105Y-120012949D01*
X117721060Y-120020199D01*
X117728197Y-120129089D01*
X117728986Y-120133058D01*
X117728988Y-120133069D01*
X117750727Y-120242356D01*
X117750063Y-120249766D01*
X117756708Y-120274023D01*
X117758730Y-120282587D01*
X117760154Y-120289745D01*
X117761430Y-120297410D01*
X117763567Y-120313302D01*
X117765999Y-120319133D01*
X117786672Y-120423060D01*
X117787972Y-120426891D01*
X117787976Y-120426904D01*
X117824823Y-120535449D01*
X117825168Y-120543745D01*
X117835765Y-120568734D01*
X117839025Y-120577288D01*
X117841738Y-120585281D01*
X117843912Y-120592375D01*
X117847396Y-120605093D01*
X117849963Y-120609510D01*
X117881709Y-120703032D01*
X117881713Y-120703042D01*
X117883017Y-120706883D01*
X117884810Y-120710519D01*
X117884813Y-120710526D01*
X117936930Y-120816208D01*
X117938498Y-120825208D01*
X117953222Y-120850067D01*
X117957748Y-120858422D01*
X117962299Y-120867652D01*
X117965242Y-120874076D01*
X117969123Y-120883227D01*
X117971487Y-120886283D01*
X118015584Y-120975703D01*
X118017835Y-120979072D01*
X118017838Y-120979077D01*
X118085098Y-121079738D01*
X118088075Y-121089245D01*
X118106959Y-121113159D01*
X118112748Y-121121120D01*
X118119835Y-121131727D01*
X118123419Y-121137419D01*
X118126584Y-121142762D01*
X118128434Y-121144596D01*
X118182105Y-121224920D01*
X118184780Y-121227970D01*
X118184786Y-121227978D01*
X118266733Y-121321420D01*
X118271268Y-121331196D01*
X118294200Y-121353374D01*
X118301226Y-121360751D01*
X118311731Y-121372730D01*
X118315816Y-121377637D01*
X118317010Y-121379149D01*
X118318054Y-121379940D01*
X118379731Y-121450269D01*
X118469718Y-121529186D01*
X118478670Y-121537036D01*
X118484868Y-121546808D01*
X118511554Y-121566470D01*
X118519761Y-121573072D01*
X118534752Y-121586219D01*
X118536756Y-121588065D01*
X118537039Y-121588225D01*
X118605080Y-121647895D01*
X118631736Y-121665706D01*
X118717200Y-121722811D01*
X118725120Y-121732288D01*
X118755174Y-121748758D01*
X118764468Y-121754394D01*
X118854297Y-121814416D01*
X118857935Y-121816210D01*
X118857937Y-121816211D01*
X118978151Y-121875494D01*
X118987808Y-121884378D01*
X119020732Y-121897059D01*
X119031010Y-121901561D01*
X119123117Y-121946983D01*
X119126965Y-121948289D01*
X119126967Y-121948290D01*
X119256973Y-121992421D01*
X119268320Y-122000399D01*
X119303495Y-122008782D01*
X119314592Y-122011980D01*
X119406940Y-122043328D01*
X119548793Y-122071544D01*
X119561743Y-122078318D01*
X119598512Y-122082017D01*
X119610276Y-122083774D01*
X119700911Y-122101803D01*
X119848488Y-122111475D01*
X119862896Y-122116751D01*
X119900533Y-122115493D01*
X119912789Y-122115690D01*
X119995943Y-122121141D01*
X119995957Y-122121141D01*
X120000000Y-122121406D01*
X120150848Y-122111519D01*
X120166519Y-122115025D01*
X120204260Y-122108660D01*
X120216773Y-122107198D01*
X120299089Y-122101803D01*
X120450580Y-122071669D01*
X120467277Y-122073163D01*
X120504364Y-122061659D01*
X120516908Y-122058475D01*
X120593060Y-122043328D01*
X120742426Y-121992624D01*
X120759869Y-121991897D01*
X120795526Y-121975351D01*
X120807847Y-121970417D01*
X120876883Y-121946983D01*
X121021307Y-121875760D01*
X121039176Y-121872646D01*
X121072660Y-121851271D01*
X121084525Y-121844585D01*
X121145703Y-121814416D01*
X121282334Y-121723121D01*
X121300283Y-121717501D01*
X121330887Y-121691627D01*
X121342032Y-121683233D01*
X121394920Y-121647895D01*
X121520937Y-121537380D01*
X121538599Y-121529186D01*
X121565691Y-121499232D01*
X121575885Y-121489192D01*
X121620269Y-121450269D01*
X121732960Y-121321768D01*
X121749945Y-121310995D01*
X121772948Y-121277487D01*
X121781951Y-121265906D01*
X121797727Y-121247917D01*
X121817895Y-121224920D01*
X121914688Y-121080058D01*
X121930612Y-121066749D01*
X121949040Y-121030282D01*
X121956612Y-121017314D01*
X121968175Y-121000009D01*
X121984416Y-120975703D01*
X122062933Y-120816485D01*
X122077408Y-120800751D01*
X122090869Y-120761986D01*
X122096790Y-120747828D01*
X122116983Y-120706883D01*
X122155938Y-120592123D01*
X148953098Y-120592123D01*
X148953099Y-120594845D01*
X148953340Y-120597560D01*
X148953341Y-120597574D01*
X148960869Y-120682251D01*
X148963712Y-120714227D01*
X148977378Y-120761986D01*
X149019689Y-120909859D01*
X149113899Y-121090215D01*
X149113900Y-121090216D01*
X149242489Y-121247918D01*
X149365170Y-121347951D01*
X149400191Y-121376507D01*
X149546518Y-121452942D01*
X149580549Y-121470718D01*
X149776180Y-121526695D01*
X149895561Y-121537309D01*
X152094434Y-121537308D01*
X152213816Y-121526695D01*
X152409447Y-121470718D01*
X152589805Y-121376507D01*
X152747507Y-121247918D01*
X152876096Y-121090216D01*
X152970307Y-120909858D01*
X153026284Y-120714227D01*
X153036898Y-120594846D01*
X153036898Y-120592123D01*
X192953098Y-120592123D01*
X192953099Y-120594845D01*
X192953340Y-120597560D01*
X192953341Y-120597574D01*
X192960869Y-120682251D01*
X192963712Y-120714227D01*
X192977378Y-120761986D01*
X193019689Y-120909859D01*
X193113899Y-121090215D01*
X193113900Y-121090216D01*
X193242489Y-121247918D01*
X193365170Y-121347951D01*
X193400191Y-121376507D01*
X193546518Y-121452942D01*
X193580549Y-121470718D01*
X193776180Y-121526695D01*
X193895561Y-121537309D01*
X196094434Y-121537308D01*
X196213816Y-121526695D01*
X196409447Y-121470718D01*
X196589805Y-121376507D01*
X196747507Y-121247918D01*
X196876096Y-121090216D01*
X196970307Y-120909858D01*
X197026284Y-120714227D01*
X197036898Y-120594846D01*
X197036898Y-120592123D01*
X236953098Y-120592123D01*
X236953099Y-120594845D01*
X236953340Y-120597560D01*
X236953341Y-120597574D01*
X236960869Y-120682251D01*
X236963712Y-120714227D01*
X236977378Y-120761986D01*
X237019689Y-120909859D01*
X237113899Y-121090215D01*
X237113900Y-121090216D01*
X237242489Y-121247918D01*
X237365170Y-121347951D01*
X237400191Y-121376507D01*
X237546518Y-121452942D01*
X237580549Y-121470718D01*
X237776180Y-121526695D01*
X237895561Y-121537309D01*
X240094434Y-121537308D01*
X240213816Y-121526695D01*
X240409447Y-121470718D01*
X240589805Y-121376507D01*
X240747507Y-121247918D01*
X240876096Y-121090216D01*
X240970307Y-120909858D01*
X241026284Y-120714227D01*
X241036898Y-120594846D01*
X241036898Y-120592123D01*
X280953098Y-120592123D01*
X280953099Y-120594845D01*
X280953340Y-120597560D01*
X280953341Y-120597574D01*
X280960869Y-120682251D01*
X280963712Y-120714227D01*
X280977378Y-120761986D01*
X281019689Y-120909859D01*
X281113899Y-121090215D01*
X281113900Y-121090216D01*
X281242489Y-121247918D01*
X281365170Y-121347951D01*
X281400191Y-121376507D01*
X281546518Y-121452942D01*
X281580549Y-121470718D01*
X281776180Y-121526695D01*
X281895561Y-121537309D01*
X284094434Y-121537308D01*
X284213816Y-121526695D01*
X284409447Y-121470718D01*
X284589805Y-121376507D01*
X284747507Y-121247918D01*
X284876096Y-121090216D01*
X284970307Y-120909858D01*
X285026284Y-120714227D01*
X285036898Y-120594846D01*
X285036898Y-120592123D01*
X324953098Y-120592123D01*
X324953099Y-120594845D01*
X324953340Y-120597560D01*
X324953341Y-120597574D01*
X324960869Y-120682251D01*
X324963712Y-120714227D01*
X324977378Y-120761986D01*
X325019689Y-120909859D01*
X325113899Y-121090215D01*
X325113900Y-121090216D01*
X325242489Y-121247918D01*
X325365170Y-121347951D01*
X325400191Y-121376507D01*
X325546518Y-121452942D01*
X325580549Y-121470718D01*
X325776180Y-121526695D01*
X325895561Y-121537309D01*
X328094434Y-121537308D01*
X328213816Y-121526695D01*
X328409447Y-121470718D01*
X328589805Y-121376507D01*
X328747507Y-121247918D01*
X328876096Y-121090216D01*
X328970307Y-120909858D01*
X329026284Y-120714227D01*
X329029125Y-120682273D01*
X368953098Y-120682273D01*
X368953099Y-120684995D01*
X368953340Y-120687710D01*
X368953341Y-120687724D01*
X368959943Y-120761986D01*
X368963712Y-120804377D01*
X368976786Y-120850067D01*
X369019689Y-121000009D01*
X369113899Y-121180365D01*
X369113900Y-121180366D01*
X369242489Y-121338068D01*
X369380093Y-121450269D01*
X369400191Y-121466657D01*
X369535447Y-121537309D01*
X369580549Y-121560868D01*
X369776180Y-121616845D01*
X369895561Y-121627459D01*
X372094434Y-121627458D01*
X372213816Y-121616845D01*
X372409447Y-121560868D01*
X372589805Y-121466657D01*
X372747507Y-121338068D01*
X372876096Y-121180366D01*
X372970307Y-121000008D01*
X373026284Y-120804377D01*
X373036898Y-120684996D01*
X373036898Y-120682273D01*
X412953098Y-120682273D01*
X412953099Y-120684995D01*
X412953340Y-120687710D01*
X412953341Y-120687724D01*
X412959943Y-120761986D01*
X412963712Y-120804377D01*
X412976786Y-120850067D01*
X413019689Y-121000009D01*
X413113899Y-121180365D01*
X413113900Y-121180366D01*
X413242489Y-121338068D01*
X413380093Y-121450269D01*
X413400191Y-121466657D01*
X413535447Y-121537309D01*
X413580549Y-121560868D01*
X413776180Y-121616845D01*
X413895561Y-121627459D01*
X416094434Y-121627458D01*
X416213816Y-121616845D01*
X416409447Y-121560868D01*
X416589805Y-121466657D01*
X416747507Y-121338068D01*
X416876096Y-121180366D01*
X416970307Y-121000008D01*
X417026284Y-120804377D01*
X417036898Y-120684996D01*
X417036898Y-120682273D01*
X456953098Y-120682273D01*
X456953099Y-120684995D01*
X456953340Y-120687710D01*
X456953341Y-120687724D01*
X456959943Y-120761986D01*
X456963712Y-120804377D01*
X456976786Y-120850067D01*
X457019689Y-121000009D01*
X457113899Y-121180365D01*
X457113900Y-121180366D01*
X457242489Y-121338068D01*
X457380093Y-121450269D01*
X457400191Y-121466657D01*
X457535447Y-121537309D01*
X457580549Y-121560868D01*
X457776180Y-121616845D01*
X457895561Y-121627459D01*
X460094434Y-121627458D01*
X460213816Y-121616845D01*
X460409447Y-121560868D01*
X460589805Y-121466657D01*
X460747507Y-121338068D01*
X460876096Y-121180366D01*
X460970307Y-121000008D01*
X461026284Y-120804377D01*
X461036898Y-120684996D01*
X461036898Y-119830000D01*
X509708594Y-119830000D01*
X509708859Y-119834043D01*
X509708859Y-119834044D01*
X509715938Y-119942056D01*
X509714502Y-119948468D01*
X509717558Y-119971186D01*
X509718398Y-119979597D01*
X509718838Y-119986305D01*
X509719104Y-119994421D01*
X509719104Y-120012944D01*
X509721060Y-120020199D01*
X509728197Y-120129089D01*
X509728986Y-120133058D01*
X509728988Y-120133069D01*
X509750727Y-120242356D01*
X509750063Y-120249766D01*
X509756708Y-120274023D01*
X509758730Y-120282587D01*
X509760154Y-120289745D01*
X509761430Y-120297410D01*
X509763567Y-120313302D01*
X509765999Y-120319133D01*
X509786672Y-120423060D01*
X509787972Y-120426891D01*
X509787976Y-120426904D01*
X509824823Y-120535449D01*
X509825168Y-120543745D01*
X509835765Y-120568734D01*
X509839025Y-120577288D01*
X509841738Y-120585281D01*
X509843912Y-120592375D01*
X509847396Y-120605093D01*
X509849963Y-120609510D01*
X509881709Y-120703032D01*
X509881713Y-120703042D01*
X509883017Y-120706883D01*
X509884810Y-120710519D01*
X509884813Y-120710526D01*
X509936930Y-120816208D01*
X509938498Y-120825208D01*
X509953222Y-120850067D01*
X509957748Y-120858422D01*
X509962299Y-120867652D01*
X509965242Y-120874076D01*
X509969123Y-120883227D01*
X509971487Y-120886283D01*
X510015584Y-120975703D01*
X510017835Y-120979072D01*
X510017838Y-120979077D01*
X510085098Y-121079738D01*
X510088075Y-121089245D01*
X510106959Y-121113159D01*
X510112748Y-121121120D01*
X510119835Y-121131727D01*
X510123419Y-121137419D01*
X510126584Y-121142762D01*
X510128434Y-121144596D01*
X510182105Y-121224920D01*
X510184780Y-121227970D01*
X510184786Y-121227978D01*
X510266733Y-121321420D01*
X510271268Y-121331196D01*
X510294200Y-121353374D01*
X510301226Y-121360751D01*
X510311731Y-121372730D01*
X510315816Y-121377637D01*
X510317010Y-121379149D01*
X510318054Y-121379940D01*
X510379731Y-121450269D01*
X510469718Y-121529186D01*
X510478670Y-121537036D01*
X510484868Y-121546808D01*
X510511554Y-121566470D01*
X510519761Y-121573072D01*
X510534752Y-121586219D01*
X510536756Y-121588065D01*
X510537039Y-121588225D01*
X510605080Y-121647895D01*
X510631736Y-121665706D01*
X510717200Y-121722811D01*
X510725120Y-121732288D01*
X510755174Y-121748758D01*
X510764468Y-121754394D01*
X510854297Y-121814416D01*
X510857935Y-121816210D01*
X510857937Y-121816211D01*
X510978151Y-121875494D01*
X510987808Y-121884378D01*
X511020732Y-121897059D01*
X511031010Y-121901561D01*
X511123117Y-121946983D01*
X511126965Y-121948289D01*
X511126967Y-121948290D01*
X511256973Y-121992421D01*
X511268320Y-122000399D01*
X511303495Y-122008782D01*
X511314592Y-122011980D01*
X511406940Y-122043328D01*
X511548793Y-122071544D01*
X511561743Y-122078318D01*
X511598512Y-122082017D01*
X511610276Y-122083774D01*
X511700911Y-122101803D01*
X511848488Y-122111475D01*
X511862896Y-122116751D01*
X511900533Y-122115493D01*
X511912789Y-122115690D01*
X511995943Y-122121141D01*
X511995957Y-122121141D01*
X512000000Y-122121406D01*
X512150848Y-122111519D01*
X512166519Y-122115025D01*
X512204260Y-122108660D01*
X512216773Y-122107198D01*
X512299089Y-122101803D01*
X512450580Y-122071669D01*
X512467277Y-122073163D01*
X512504364Y-122061659D01*
X512516908Y-122058475D01*
X512593060Y-122043328D01*
X512742426Y-121992624D01*
X512759869Y-121991897D01*
X512795526Y-121975351D01*
X512807847Y-121970417D01*
X512876883Y-121946983D01*
X513021307Y-121875760D01*
X513039176Y-121872646D01*
X513072660Y-121851271D01*
X513084525Y-121844585D01*
X513145703Y-121814416D01*
X513282334Y-121723121D01*
X513300283Y-121717501D01*
X513330887Y-121691627D01*
X513342032Y-121683233D01*
X513394920Y-121647895D01*
X513520937Y-121537380D01*
X513538599Y-121529186D01*
X513565691Y-121499232D01*
X513575885Y-121489192D01*
X513620269Y-121450269D01*
X513732960Y-121321768D01*
X513749945Y-121310995D01*
X513772948Y-121277487D01*
X513781951Y-121265906D01*
X513797727Y-121247917D01*
X513817895Y-121224920D01*
X513914688Y-121080058D01*
X513930612Y-121066749D01*
X513949040Y-121030282D01*
X513956612Y-121017314D01*
X513968175Y-121000009D01*
X513984416Y-120975703D01*
X514062933Y-120816485D01*
X514077408Y-120800751D01*
X514090869Y-120761986D01*
X514096790Y-120747828D01*
X514116983Y-120706883D01*
X514175106Y-120535655D01*
X514187762Y-120517657D01*
X514195964Y-120477305D01*
X514200054Y-120462162D01*
X514213328Y-120423060D01*
X514271803Y-120129089D01*
X514291406Y-119830000D01*
X514271803Y-119530911D01*
X514213328Y-119236940D01*
X514200056Y-119197842D01*
X514195963Y-119182692D01*
X514189243Y-119149633D01*
X514175108Y-119124348D01*
X514118290Y-118956967D01*
X514118289Y-118956965D01*
X514116983Y-118953117D01*
X514096791Y-118912173D01*
X514090871Y-118898017D01*
X514079781Y-118866080D01*
X514062933Y-118843514D01*
X513986211Y-118687936D01*
X513986207Y-118687930D01*
X513984416Y-118684297D01*
X513956610Y-118642683D01*
X513949042Y-118629721D01*
X513933778Y-118599514D01*
X513914688Y-118579941D01*
X513820154Y-118438461D01*
X513817895Y-118435080D01*
X513781948Y-118394090D01*
X513772950Y-118382515D01*
X513753795Y-118354610D01*
X513732961Y-118338231D01*
X513622942Y-118212779D01*
X513620269Y-118209731D01*
X513575903Y-118170823D01*
X513565698Y-118160773D01*
X513543016Y-118135695D01*
X513520938Y-118122620D01*
X513397978Y-118014786D01*
X513397970Y-118014780D01*
X513394920Y-118012105D01*
X513342060Y-117976785D01*
X513330895Y-117968377D01*
X513305138Y-117946601D01*
X513282333Y-117936877D01*
X513149077Y-117847838D01*
X513149072Y-117847835D01*
X513145703Y-117845584D01*
X513142067Y-117843791D01*
X513142062Y-117843788D01*
X513084547Y-117815425D01*
X513072669Y-117808732D01*
X513044351Y-117790655D01*
X513021309Y-117784240D01*
X512880525Y-117714813D01*
X512880524Y-117714812D01*
X512876883Y-117713017D01*
X512873036Y-117711711D01*
X512807871Y-117689590D01*
X512795535Y-117684651D01*
X512765223Y-117670585D01*
X512742426Y-117667375D01*
X512596904Y-117617976D01*
X512596891Y-117617972D01*
X512593060Y-117616672D01*
X512589083Y-117615881D01*
X512589076Y-117615879D01*
X512531408Y-117604408D01*
X512516923Y-117601527D01*
X512504379Y-117598344D01*
X512472690Y-117588514D01*
X512450579Y-117588330D01*
X512303068Y-117558988D01*
X512303060Y-117558987D01*
X512299089Y-117558197D01*
X512295046Y-117557932D01*
X512295031Y-117557930D01*
X512216788Y-117552801D01*
X512204276Y-117551340D01*
X512171878Y-117545875D01*
X512150849Y-117548481D01*
X512000000Y-117538594D01*
X511995957Y-117538859D01*
X511995956Y-117538859D01*
X511912798Y-117544309D01*
X511900546Y-117544505D01*
X511868078Y-117543419D01*
X511848489Y-117548523D01*
X511704968Y-117557930D01*
X511704951Y-117557932D01*
X511700911Y-117558197D01*
X511696943Y-117558986D01*
X511696930Y-117558988D01*
X511610301Y-117576220D01*
X511598523Y-117577980D01*
X511566651Y-117581186D01*
X511548793Y-117588455D01*
X511410920Y-117615880D01*
X511410915Y-117615881D01*
X511406940Y-117616672D01*
X511403106Y-117617973D01*
X511403104Y-117617974D01*
X511314624Y-117648009D01*
X511303513Y-117651211D01*
X511272877Y-117658512D01*
X511256976Y-117667577D01*
X511126963Y-117711711D01*
X511126956Y-117711713D01*
X511123117Y-117713017D01*
X511119487Y-117714807D01*
X511119480Y-117714810D01*
X511031012Y-117758438D01*
X511020737Y-117762939D01*
X510991941Y-117774029D01*
X510978154Y-117784504D01*
X510871939Y-117836883D01*
X510854297Y-117845584D01*
X510850923Y-117847838D01*
X510850915Y-117847843D01*
X510764478Y-117905598D01*
X510755181Y-117911237D01*
X510728774Y-117925708D01*
X510717201Y-117937187D01*
X510608462Y-118009845D01*
X510605080Y-118012105D01*
X510602029Y-118014780D01*
X510602022Y-118014786D01*
X510537040Y-118071774D01*
X510536819Y-118071876D01*
X510534736Y-118073795D01*
X510519764Y-118086924D01*
X510511565Y-118093519D01*
X510488015Y-118110871D01*
X510478671Y-118122962D01*
X510382779Y-118207057D01*
X510382771Y-118207064D01*
X510379731Y-118209731D01*
X510377064Y-118212771D01*
X510377056Y-118212780D01*
X510318053Y-118280060D01*
X510317209Y-118280595D01*
X510315795Y-118282386D01*
X510311712Y-118287291D01*
X510301226Y-118299248D01*
X510294202Y-118306623D01*
X510273881Y-118326275D01*
X510266735Y-118338577D01*
X510184786Y-118432022D01*
X510184780Y-118432029D01*
X510182105Y-118435080D01*
X510179846Y-118438459D01*
X510179845Y-118438462D01*
X510128434Y-118515403D01*
X510126918Y-118516669D01*
X510123403Y-118522604D01*
X510119822Y-118528291D01*
X510112758Y-118538864D01*
X510106969Y-118546826D01*
X510090158Y-118568113D01*
X510085099Y-118580259D01*
X510017836Y-118680925D01*
X510017829Y-118680937D01*
X510015584Y-118684297D01*
X510008059Y-118699556D01*
X509971487Y-118773716D01*
X509969504Y-118775870D01*
X509965238Y-118785931D01*
X509962294Y-118792356D01*
X509957752Y-118801567D01*
X509953229Y-118809917D01*
X509940067Y-118832139D01*
X509936931Y-118843788D01*
X509884816Y-118949467D01*
X509884810Y-118949479D01*
X509883017Y-118953117D01*
X509881713Y-118956956D01*
X509881711Y-118956963D01*
X509849963Y-119050489D01*
X509847739Y-119053651D01*
X509843909Y-119067632D01*
X509841735Y-119074728D01*
X509839025Y-119082711D01*
X509835768Y-119091257D01*
X509826261Y-119113676D01*
X509824824Y-119124548D01*
X509787976Y-119233100D01*
X509786672Y-119236940D01*
X509785882Y-119240907D01*
X509785880Y-119240918D01*
X509765999Y-119340866D01*
X509763782Y-119345102D01*
X509761431Y-119362590D01*
X509760153Y-119370259D01*
X509758730Y-119377411D01*
X509756709Y-119385972D01*
X509750725Y-119407815D01*
X509750727Y-119417642D01*
X509728988Y-119526930D01*
X509728986Y-119526943D01*
X509728197Y-119530911D01*
X509727932Y-119534951D01*
X509727930Y-119534968D01*
X509721059Y-119639799D01*
X509719104Y-119645137D01*
X509719104Y-119665578D01*
X509718838Y-119673697D01*
X509718398Y-119680403D01*
X509717558Y-119688810D01*
X509714797Y-119709336D01*
X509715938Y-119717942D01*
X509708859Y-119825955D01*
X509708594Y-119830000D01*
X461036898Y-119830000D01*
X461036897Y-118486123D01*
X461026284Y-118366741D01*
X460970307Y-118171110D01*
X460876096Y-117990752D01*
X460747507Y-117833050D01*
X460600298Y-117713017D01*
X460589804Y-117704460D01*
X460409448Y-117610250D01*
X460290517Y-117576220D01*
X460213816Y-117554273D01*
X460194704Y-117552573D01*
X460097162Y-117543901D01*
X460097151Y-117543900D01*
X460094435Y-117543659D01*
X460091691Y-117543659D01*
X457898305Y-117543659D01*
X457898282Y-117543659D01*
X457895562Y-117543660D01*
X457892847Y-117543901D01*
X457892832Y-117543902D01*
X457776180Y-117554273D01*
X457580547Y-117610250D01*
X457400191Y-117704460D01*
X457242489Y-117833050D01*
X457113899Y-117990752D01*
X457019689Y-118171108D01*
X456963712Y-118366741D01*
X456953340Y-118483394D01*
X456953339Y-118483406D01*
X456953098Y-118486122D01*
X456953098Y-118488864D01*
X456953098Y-118488865D01*
X456953098Y-120682251D01*
X456953098Y-120682273D01*
X417036898Y-120682273D01*
X417036897Y-118486123D01*
X417026284Y-118366741D01*
X416970307Y-118171110D01*
X416876096Y-117990752D01*
X416747507Y-117833050D01*
X416600298Y-117713017D01*
X416589804Y-117704460D01*
X416409448Y-117610250D01*
X416290517Y-117576220D01*
X416213816Y-117554273D01*
X416194704Y-117552573D01*
X416097162Y-117543901D01*
X416097151Y-117543900D01*
X416094435Y-117543659D01*
X416091691Y-117543659D01*
X413898305Y-117543659D01*
X413898282Y-117543659D01*
X413895562Y-117543660D01*
X413892847Y-117543901D01*
X413892832Y-117543902D01*
X413776180Y-117554273D01*
X413580547Y-117610250D01*
X413400191Y-117704460D01*
X413242489Y-117833050D01*
X413113899Y-117990752D01*
X413019689Y-118171108D01*
X412963712Y-118366741D01*
X412953340Y-118483394D01*
X412953339Y-118483406D01*
X412953098Y-118486122D01*
X412953098Y-118488864D01*
X412953098Y-118488865D01*
X412953098Y-120682251D01*
X412953098Y-120682273D01*
X373036898Y-120682273D01*
X373036897Y-118486123D01*
X373026284Y-118366741D01*
X372970307Y-118171110D01*
X372876096Y-117990752D01*
X372747507Y-117833050D01*
X372600298Y-117713017D01*
X372589804Y-117704460D01*
X372409448Y-117610250D01*
X372290517Y-117576220D01*
X372213816Y-117554273D01*
X372194704Y-117552573D01*
X372097162Y-117543901D01*
X372097151Y-117543900D01*
X372094435Y-117543659D01*
X372091691Y-117543659D01*
X369898305Y-117543659D01*
X369898282Y-117543659D01*
X369895562Y-117543660D01*
X369892847Y-117543901D01*
X369892832Y-117543902D01*
X369776180Y-117554273D01*
X369580547Y-117610250D01*
X369400191Y-117704460D01*
X369242489Y-117833050D01*
X369113899Y-117990752D01*
X369019689Y-118171108D01*
X368963712Y-118366741D01*
X368953340Y-118483394D01*
X368953339Y-118483406D01*
X368953098Y-118486122D01*
X368953098Y-118488864D01*
X368953098Y-118488865D01*
X368953098Y-120682251D01*
X368953098Y-120682273D01*
X329029125Y-120682273D01*
X329036898Y-120594846D01*
X329036897Y-118395973D01*
X329026284Y-118276591D01*
X328970307Y-118080960D01*
X328876096Y-117900602D01*
X328747507Y-117742900D01*
X328594300Y-117617976D01*
X328589804Y-117614310D01*
X328409448Y-117520100D01*
X328311631Y-117492111D01*
X328213816Y-117464123D01*
X328194704Y-117462423D01*
X328097162Y-117453751D01*
X328097151Y-117453750D01*
X328094435Y-117453509D01*
X328091691Y-117453509D01*
X325898305Y-117453509D01*
X325898282Y-117453509D01*
X325895562Y-117453510D01*
X325892847Y-117453751D01*
X325892832Y-117453752D01*
X325776180Y-117464123D01*
X325580547Y-117520100D01*
X325400191Y-117614310D01*
X325242489Y-117742900D01*
X325113899Y-117900602D01*
X325019689Y-118080958D01*
X324963712Y-118276591D01*
X324953340Y-118393244D01*
X324953339Y-118393256D01*
X324953098Y-118395972D01*
X324953098Y-118398714D01*
X324953098Y-118398715D01*
X324953098Y-120592101D01*
X324953098Y-120592123D01*
X285036898Y-120592123D01*
X285036897Y-118395973D01*
X285026284Y-118276591D01*
X284970307Y-118080960D01*
X284876096Y-117900602D01*
X284747507Y-117742900D01*
X284594300Y-117617976D01*
X284589804Y-117614310D01*
X284409448Y-117520100D01*
X284311631Y-117492111D01*
X284213816Y-117464123D01*
X284194704Y-117462423D01*
X284097162Y-117453751D01*
X284097151Y-117453750D01*
X284094435Y-117453509D01*
X284091691Y-117453509D01*
X281898305Y-117453509D01*
X281898282Y-117453509D01*
X281895562Y-117453510D01*
X281892847Y-117453751D01*
X281892832Y-117453752D01*
X281776180Y-117464123D01*
X281580547Y-117520100D01*
X281400191Y-117614310D01*
X281242489Y-117742900D01*
X281113899Y-117900602D01*
X281019689Y-118080958D01*
X280963712Y-118276591D01*
X280953340Y-118393244D01*
X280953339Y-118393256D01*
X280953098Y-118395972D01*
X280953098Y-118398714D01*
X280953098Y-118398715D01*
X280953098Y-120592101D01*
X280953098Y-120592123D01*
X241036898Y-120592123D01*
X241036897Y-118395973D01*
X241026284Y-118276591D01*
X240970307Y-118080960D01*
X240876096Y-117900602D01*
X240747507Y-117742900D01*
X240594300Y-117617976D01*
X240589804Y-117614310D01*
X240409448Y-117520100D01*
X240311631Y-117492111D01*
X240213816Y-117464123D01*
X240194704Y-117462423D01*
X240097162Y-117453751D01*
X240097151Y-117453750D01*
X240094435Y-117453509D01*
X240091691Y-117453509D01*
X237898305Y-117453509D01*
X237898282Y-117453509D01*
X237895562Y-117453510D01*
X237892847Y-117453751D01*
X237892832Y-117453752D01*
X237776180Y-117464123D01*
X237580547Y-117520100D01*
X237400191Y-117614310D01*
X237242489Y-117742900D01*
X237113899Y-117900602D01*
X237019689Y-118080958D01*
X236963712Y-118276591D01*
X236953340Y-118393244D01*
X236953339Y-118393256D01*
X236953098Y-118395972D01*
X236953098Y-118398714D01*
X236953098Y-118398715D01*
X236953098Y-120592101D01*
X236953098Y-120592123D01*
X197036898Y-120592123D01*
X197036897Y-118395973D01*
X197026284Y-118276591D01*
X196970307Y-118080960D01*
X196876096Y-117900602D01*
X196747507Y-117742900D01*
X196594300Y-117617976D01*
X196589804Y-117614310D01*
X196409448Y-117520100D01*
X196311631Y-117492111D01*
X196213816Y-117464123D01*
X196194704Y-117462423D01*
X196097162Y-117453751D01*
X196097151Y-117453750D01*
X196094435Y-117453509D01*
X196091691Y-117453509D01*
X193898305Y-117453509D01*
X193898282Y-117453509D01*
X193895562Y-117453510D01*
X193892847Y-117453751D01*
X193892832Y-117453752D01*
X193776180Y-117464123D01*
X193580547Y-117520100D01*
X193400191Y-117614310D01*
X193242489Y-117742900D01*
X193113899Y-117900602D01*
X193019689Y-118080958D01*
X192963712Y-118276591D01*
X192953340Y-118393244D01*
X192953339Y-118393256D01*
X192953098Y-118395972D01*
X192953098Y-118398714D01*
X192953098Y-118398715D01*
X192953098Y-120592101D01*
X192953098Y-120592123D01*
X153036898Y-120592123D01*
X153036897Y-118395973D01*
X153026284Y-118276591D01*
X152970307Y-118080960D01*
X152876096Y-117900602D01*
X152747507Y-117742900D01*
X152594300Y-117617976D01*
X152589804Y-117614310D01*
X152409448Y-117520100D01*
X152311631Y-117492111D01*
X152213816Y-117464123D01*
X152194704Y-117462423D01*
X152097162Y-117453751D01*
X152097151Y-117453750D01*
X152094435Y-117453509D01*
X152091691Y-117453509D01*
X149898305Y-117453509D01*
X149898282Y-117453509D01*
X149895562Y-117453510D01*
X149892847Y-117453751D01*
X149892832Y-117453752D01*
X149776180Y-117464123D01*
X149580547Y-117520100D01*
X149400191Y-117614310D01*
X149242489Y-117742900D01*
X149113899Y-117900602D01*
X149019689Y-118080958D01*
X148963712Y-118276591D01*
X148953340Y-118393244D01*
X148953339Y-118393256D01*
X148953098Y-118395972D01*
X148953098Y-118398714D01*
X148953098Y-118398715D01*
X148953098Y-120592101D01*
X148953098Y-120592123D01*
X122155938Y-120592123D01*
X122175106Y-120535655D01*
X122187762Y-120517657D01*
X122195964Y-120477305D01*
X122200054Y-120462162D01*
X122213328Y-120423060D01*
X122271803Y-120129089D01*
X122291406Y-119830000D01*
X122271803Y-119530911D01*
X122213328Y-119236940D01*
X122200056Y-119197842D01*
X122195963Y-119182692D01*
X122189243Y-119149633D01*
X122175108Y-119124348D01*
X122118290Y-118956967D01*
X122118289Y-118956965D01*
X122116983Y-118953117D01*
X122096791Y-118912173D01*
X122090871Y-118898017D01*
X122079781Y-118866080D01*
X122062933Y-118843514D01*
X121986211Y-118687936D01*
X121986207Y-118687930D01*
X121984416Y-118684297D01*
X121956610Y-118642683D01*
X121949042Y-118629721D01*
X121933778Y-118599514D01*
X121914688Y-118579941D01*
X121820154Y-118438461D01*
X121817895Y-118435080D01*
X121781948Y-118394090D01*
X121772950Y-118382515D01*
X121753795Y-118354610D01*
X121732961Y-118338231D01*
X121622942Y-118212779D01*
X121620269Y-118209731D01*
X121575903Y-118170823D01*
X121565698Y-118160773D01*
X121543016Y-118135695D01*
X121520938Y-118122620D01*
X121397978Y-118014786D01*
X121397970Y-118014780D01*
X121394920Y-118012105D01*
X121342060Y-117976785D01*
X121330895Y-117968377D01*
X121305138Y-117946601D01*
X121282333Y-117936877D01*
X121149077Y-117847838D01*
X121149072Y-117847835D01*
X121145703Y-117845584D01*
X121142067Y-117843791D01*
X121142062Y-117843788D01*
X121084547Y-117815425D01*
X121072669Y-117808732D01*
X121044351Y-117790655D01*
X121021309Y-117784240D01*
X120880525Y-117714813D01*
X120880524Y-117714812D01*
X120876883Y-117713017D01*
X120873036Y-117711711D01*
X120807871Y-117689590D01*
X120795535Y-117684651D01*
X120765223Y-117670585D01*
X120742426Y-117667375D01*
X120596904Y-117617976D01*
X120596891Y-117617972D01*
X120593060Y-117616672D01*
X120589083Y-117615881D01*
X120589076Y-117615879D01*
X120531408Y-117604408D01*
X120516923Y-117601527D01*
X120504379Y-117598344D01*
X120472690Y-117588514D01*
X120450579Y-117588330D01*
X120303068Y-117558988D01*
X120303060Y-117558987D01*
X120299089Y-117558197D01*
X120295046Y-117557932D01*
X120295031Y-117557930D01*
X120216788Y-117552801D01*
X120204276Y-117551340D01*
X120171878Y-117545875D01*
X120150849Y-117548481D01*
X120000000Y-117538594D01*
X119995957Y-117538859D01*
X119995956Y-117538859D01*
X119912798Y-117544309D01*
X119900546Y-117544505D01*
X119868078Y-117543419D01*
X119848489Y-117548523D01*
X119704968Y-117557930D01*
X119704951Y-117557932D01*
X119700911Y-117558197D01*
X119696943Y-117558986D01*
X119696930Y-117558988D01*
X119610301Y-117576220D01*
X119598523Y-117577980D01*
X119566651Y-117581186D01*
X119548793Y-117588455D01*
X119410920Y-117615880D01*
X119410915Y-117615881D01*
X119406940Y-117616672D01*
X119403106Y-117617973D01*
X119403104Y-117617974D01*
X119314624Y-117648009D01*
X119303513Y-117651211D01*
X119272877Y-117658512D01*
X119256976Y-117667577D01*
X119126963Y-117711711D01*
X119126956Y-117711713D01*
X119123117Y-117713017D01*
X119119487Y-117714807D01*
X119119480Y-117714810D01*
X119031012Y-117758438D01*
X119020737Y-117762939D01*
X118991941Y-117774029D01*
X118978154Y-117784504D01*
X118871939Y-117836883D01*
X118854297Y-117845584D01*
X118850923Y-117847838D01*
X118850915Y-117847843D01*
X118764478Y-117905598D01*
X118755181Y-117911237D01*
X118728774Y-117925708D01*
X118717201Y-117937187D01*
X118608462Y-118009845D01*
X118605080Y-118012105D01*
X118602029Y-118014780D01*
X118602022Y-118014786D01*
X118537040Y-118071774D01*
X118536819Y-118071876D01*
X118534736Y-118073795D01*
X118519764Y-118086924D01*
X118511565Y-118093519D01*
X118488015Y-118110871D01*
X118478671Y-118122962D01*
X118382779Y-118207057D01*
X118382771Y-118207064D01*
X118379731Y-118209731D01*
X118377064Y-118212771D01*
X118377056Y-118212780D01*
X118318053Y-118280060D01*
X118317209Y-118280595D01*
X118315795Y-118282386D01*
X118311712Y-118287291D01*
X118301226Y-118299248D01*
X118294202Y-118306623D01*
X118273881Y-118326275D01*
X118266735Y-118338577D01*
X118184786Y-118432022D01*
X118184780Y-118432029D01*
X118182105Y-118435080D01*
X118179846Y-118438459D01*
X118179845Y-118438462D01*
X118128434Y-118515403D01*
X118126918Y-118516669D01*
X118123403Y-118522604D01*
X118119822Y-118528291D01*
X118112758Y-118538864D01*
X118106969Y-118546826D01*
X118090158Y-118568113D01*
X118085099Y-118580259D01*
X118017836Y-118680925D01*
X118017829Y-118680937D01*
X118015584Y-118684297D01*
X118008059Y-118699556D01*
X117971487Y-118773716D01*
X117969504Y-118775870D01*
X117965238Y-118785931D01*
X117962294Y-118792356D01*
X117957752Y-118801567D01*
X117953229Y-118809917D01*
X117940067Y-118832139D01*
X117936931Y-118843788D01*
X117884816Y-118949467D01*
X117884810Y-118949479D01*
X117883017Y-118953117D01*
X117881713Y-118956956D01*
X117881711Y-118956963D01*
X117849963Y-119050489D01*
X117847739Y-119053651D01*
X117843909Y-119067632D01*
X117841735Y-119074728D01*
X117839025Y-119082711D01*
X117835768Y-119091257D01*
X117826261Y-119113676D01*
X117824824Y-119124548D01*
X117787976Y-119233100D01*
X117786672Y-119236940D01*
X117785882Y-119240907D01*
X117785880Y-119240918D01*
X117765999Y-119340866D01*
X117763782Y-119345102D01*
X117761431Y-119362590D01*
X117760153Y-119370259D01*
X117758730Y-119377411D01*
X117756709Y-119385972D01*
X117750725Y-119407815D01*
X117750727Y-119417642D01*
X117728988Y-119526930D01*
X117728986Y-119526943D01*
X117728197Y-119530911D01*
X117727932Y-119534951D01*
X117727930Y-119534968D01*
X117721059Y-119639798D01*
X117719105Y-119645133D01*
X117719105Y-119665563D01*
X117718839Y-119673682D01*
X117718398Y-119680403D01*
X117717558Y-119688810D01*
X117714797Y-119709336D01*
X117715938Y-119717942D01*
X117708859Y-119825955D01*
X117708594Y-119830000D01*
X105000500Y-119830000D01*
X105000500Y-110002561D01*
X105000606Y-109997437D01*
X105009493Y-109782569D01*
X105018052Y-109586542D01*
X105018881Y-109576671D01*
X105045487Y-109363223D01*
X105071581Y-109165024D01*
X105073146Y-109155842D01*
X105117195Y-108945759D01*
X105160687Y-108749586D01*
X105162882Y-108741124D01*
X105224112Y-108535457D01*
X105284708Y-108343273D01*
X105287421Y-108335571D01*
X105365074Y-108136564D01*
X105365883Y-108134553D01*
X105442762Y-107948951D01*
X105445874Y-107942051D01*
X105539587Y-107750357D01*
X105540945Y-107747667D01*
X105633667Y-107569551D01*
X105637118Y-107563362D01*
X105746295Y-107380139D01*
X105748150Y-107377129D01*
X105856090Y-107207697D01*
X105859721Y-107202316D01*
X105983635Y-107028764D01*
X105986102Y-107025433D01*
X106108401Y-106866048D01*
X106112114Y-106861445D01*
X106249903Y-106698758D01*
X106253027Y-106695211D01*
X106388811Y-106547028D01*
X106392440Y-106543238D01*
X106543238Y-106392440D01*
X106547028Y-106388811D01*
X106695211Y-106253027D01*
X106698758Y-106249903D01*
X106861445Y-106112114D01*
X106866048Y-106108401D01*
X107025433Y-105986102D01*
X107028764Y-105983635D01*
X107202316Y-105859721D01*
X107207697Y-105856090D01*
X107377129Y-105748150D01*
X107380139Y-105746295D01*
X107563373Y-105637111D01*
X107569551Y-105633667D01*
X107747667Y-105540945D01*
X107750357Y-105539587D01*
X107942051Y-105445874D01*
X107948951Y-105442762D01*
X108134553Y-105365883D01*
X108136564Y-105365074D01*
X108335565Y-105287423D01*
X108343293Y-105284701D01*
X108535437Y-105224118D01*
X108741104Y-105162888D01*
X108749605Y-105160682D01*
X108945797Y-105117187D01*
X109155833Y-105073148D01*
X109165041Y-105071579D01*
X109363223Y-105045487D01*
X109576669Y-105018881D01*
X109586540Y-105018052D01*
X109782569Y-105009493D01*
X109997437Y-105000605D01*
X110002561Y-105000500D01*
X521997439Y-105000500D01*
X522002562Y-105000605D01*
G37*
G04 #@! TD.AperFunction*
M02*
