G04 #@! TF.GenerationSoftware,KiCad,Pcbnew,7.0.2*
G04 #@! TF.CreationDate,2024-02-27T13:18:42-06:00*
G04 #@! TF.ProjectId,CapBankBreakout,43617042-616e-46b4-9272-65616b6f7574,rev?*
G04 #@! TF.SameCoordinates,Original*
G04 #@! TF.FileFunction,Legend,Top*
G04 #@! TF.FilePolarity,Positive*
%FSLAX46Y46*%
G04 Gerber Fmt 4.6, Leading zero omitted, Abs format (unit mm)*
G04 Created by KiCad (PCBNEW 7.0.2) date 2024-02-27 13:18:42*
%MOMM*%
%LPD*%
G01*
G04 APERTURE LIST*
%ADD10C,1.016000*%
%ADD11C,0.500000*%
%ADD12C,0.150000*%
%ADD13C,0.100000*%
%ADD14C,0.010000*%
%ADD15C,1.270000*%
%ADD16C,0.381000*%
%ADD17C,0.152400*%
%ADD18R,18.288000X18.288000*%
%ADD19R,2.082800X2.082800*%
%ADD20C,2.082800*%
G04 APERTURE END LIST*
D10*
X492129523Y-115438643D02*
X493484190Y-119502643D01*
X493484190Y-119502643D02*
X494838856Y-115438643D01*
X496193524Y-117954453D02*
X499289905Y-117954453D01*
X497741714Y-119502643D02*
X497741714Y-116406262D01*
X131629523Y-152938643D02*
X132984190Y-157002643D01*
X132984190Y-157002643D02*
X134338856Y-152938643D01*
X135693524Y-155454453D02*
X138789905Y-155454453D01*
D11*
X110874761Y-169952382D02*
X110970000Y-170047620D01*
X110970000Y-170047620D02*
X111065238Y-170333334D01*
X111065238Y-170333334D02*
X111065238Y-170523810D01*
X111065238Y-170523810D02*
X110970000Y-170809525D01*
X110970000Y-170809525D02*
X110779523Y-171000001D01*
X110779523Y-171000001D02*
X110589047Y-171095239D01*
X110589047Y-171095239D02*
X110208095Y-171190477D01*
X110208095Y-171190477D02*
X109922380Y-171190477D01*
X109922380Y-171190477D02*
X109541428Y-171095239D01*
X109541428Y-171095239D02*
X109350952Y-171000001D01*
X109350952Y-171000001D02*
X109160476Y-170809525D01*
X109160476Y-170809525D02*
X109065238Y-170523810D01*
X109065238Y-170523810D02*
X109065238Y-170333334D01*
X109065238Y-170333334D02*
X109160476Y-170047620D01*
X109160476Y-170047620D02*
X109255714Y-169952382D01*
X111065238Y-168238096D02*
X110017619Y-168238096D01*
X110017619Y-168238096D02*
X109827142Y-168333334D01*
X109827142Y-168333334D02*
X109731904Y-168523810D01*
X109731904Y-168523810D02*
X109731904Y-168904763D01*
X109731904Y-168904763D02*
X109827142Y-169095239D01*
X110970000Y-168238096D02*
X111065238Y-168428572D01*
X111065238Y-168428572D02*
X111065238Y-168904763D01*
X111065238Y-168904763D02*
X110970000Y-169095239D01*
X110970000Y-169095239D02*
X110779523Y-169190477D01*
X110779523Y-169190477D02*
X110589047Y-169190477D01*
X110589047Y-169190477D02*
X110398571Y-169095239D01*
X110398571Y-169095239D02*
X110303333Y-168904763D01*
X110303333Y-168904763D02*
X110303333Y-168428572D01*
X110303333Y-168428572D02*
X110208095Y-168238096D01*
X109731904Y-167285715D02*
X111731904Y-167285715D01*
X109827142Y-167285715D02*
X109731904Y-167095239D01*
X109731904Y-167095239D02*
X109731904Y-166714286D01*
X109731904Y-166714286D02*
X109827142Y-166523810D01*
X109827142Y-166523810D02*
X109922380Y-166428572D01*
X109922380Y-166428572D02*
X110112857Y-166333334D01*
X110112857Y-166333334D02*
X110684285Y-166333334D01*
X110684285Y-166333334D02*
X110874761Y-166428572D01*
X110874761Y-166428572D02*
X110970000Y-166523810D01*
X110970000Y-166523810D02*
X111065238Y-166714286D01*
X111065238Y-166714286D02*
X111065238Y-167095239D01*
X111065238Y-167095239D02*
X110970000Y-167285715D01*
X111065238Y-164619048D02*
X110017619Y-164619048D01*
X110017619Y-164619048D02*
X109827142Y-164714286D01*
X109827142Y-164714286D02*
X109731904Y-164904762D01*
X109731904Y-164904762D02*
X109731904Y-165285715D01*
X109731904Y-165285715D02*
X109827142Y-165476191D01*
X110970000Y-164619048D02*
X111065238Y-164809524D01*
X111065238Y-164809524D02*
X111065238Y-165285715D01*
X111065238Y-165285715D02*
X110970000Y-165476191D01*
X110970000Y-165476191D02*
X110779523Y-165571429D01*
X110779523Y-165571429D02*
X110589047Y-165571429D01*
X110589047Y-165571429D02*
X110398571Y-165476191D01*
X110398571Y-165476191D02*
X110303333Y-165285715D01*
X110303333Y-165285715D02*
X110303333Y-164809524D01*
X110303333Y-164809524D02*
X110208095Y-164619048D01*
X110970000Y-162809524D02*
X111065238Y-163000000D01*
X111065238Y-163000000D02*
X111065238Y-163380953D01*
X111065238Y-163380953D02*
X110970000Y-163571429D01*
X110970000Y-163571429D02*
X110874761Y-163666667D01*
X110874761Y-163666667D02*
X110684285Y-163761905D01*
X110684285Y-163761905D02*
X110112857Y-163761905D01*
X110112857Y-163761905D02*
X109922380Y-163666667D01*
X109922380Y-163666667D02*
X109827142Y-163571429D01*
X109827142Y-163571429D02*
X109731904Y-163380953D01*
X109731904Y-163380953D02*
X109731904Y-163000000D01*
X109731904Y-163000000D02*
X109827142Y-162809524D01*
X111065238Y-161952381D02*
X109731904Y-161952381D01*
X109065238Y-161952381D02*
X109160476Y-162047619D01*
X109160476Y-162047619D02*
X109255714Y-161952381D01*
X109255714Y-161952381D02*
X109160476Y-161857143D01*
X109160476Y-161857143D02*
X109065238Y-161952381D01*
X109065238Y-161952381D02*
X109255714Y-161952381D01*
X109731904Y-161285714D02*
X109731904Y-160523810D01*
X109065238Y-161000000D02*
X110779523Y-161000000D01*
X110779523Y-161000000D02*
X110970000Y-160904762D01*
X110970000Y-160904762D02*
X111065238Y-160714286D01*
X111065238Y-160714286D02*
X111065238Y-160523810D01*
X111065238Y-159571429D02*
X110970000Y-159761905D01*
X110970000Y-159761905D02*
X110874761Y-159857143D01*
X110874761Y-159857143D02*
X110684285Y-159952381D01*
X110684285Y-159952381D02*
X110112857Y-159952381D01*
X110112857Y-159952381D02*
X109922380Y-159857143D01*
X109922380Y-159857143D02*
X109827142Y-159761905D01*
X109827142Y-159761905D02*
X109731904Y-159571429D01*
X109731904Y-159571429D02*
X109731904Y-159285714D01*
X109731904Y-159285714D02*
X109827142Y-159095238D01*
X109827142Y-159095238D02*
X109922380Y-159000000D01*
X109922380Y-159000000D02*
X110112857Y-158904762D01*
X110112857Y-158904762D02*
X110684285Y-158904762D01*
X110684285Y-158904762D02*
X110874761Y-159000000D01*
X110874761Y-159000000D02*
X110970000Y-159095238D01*
X110970000Y-159095238D02*
X111065238Y-159285714D01*
X111065238Y-159285714D02*
X111065238Y-159571429D01*
X111065238Y-158047619D02*
X109731904Y-158047619D01*
X110112857Y-158047619D02*
X109922380Y-157952381D01*
X109922380Y-157952381D02*
X109827142Y-157857143D01*
X109827142Y-157857143D02*
X109731904Y-157666667D01*
X109731904Y-157666667D02*
X109731904Y-157476190D01*
X110017619Y-154619047D02*
X110112857Y-154333333D01*
X110112857Y-154333333D02*
X110208095Y-154238095D01*
X110208095Y-154238095D02*
X110398571Y-154142857D01*
X110398571Y-154142857D02*
X110684285Y-154142857D01*
X110684285Y-154142857D02*
X110874761Y-154238095D01*
X110874761Y-154238095D02*
X110970000Y-154333333D01*
X110970000Y-154333333D02*
X111065238Y-154523809D01*
X111065238Y-154523809D02*
X111065238Y-155285714D01*
X111065238Y-155285714D02*
X109065238Y-155285714D01*
X109065238Y-155285714D02*
X109065238Y-154619047D01*
X109065238Y-154619047D02*
X109160476Y-154428571D01*
X109160476Y-154428571D02*
X109255714Y-154333333D01*
X109255714Y-154333333D02*
X109446190Y-154238095D01*
X109446190Y-154238095D02*
X109636666Y-154238095D01*
X109636666Y-154238095D02*
X109827142Y-154333333D01*
X109827142Y-154333333D02*
X109922380Y-154428571D01*
X109922380Y-154428571D02*
X110017619Y-154619047D01*
X110017619Y-154619047D02*
X110017619Y-155285714D01*
X111065238Y-152428571D02*
X110017619Y-152428571D01*
X110017619Y-152428571D02*
X109827142Y-152523809D01*
X109827142Y-152523809D02*
X109731904Y-152714285D01*
X109731904Y-152714285D02*
X109731904Y-153095238D01*
X109731904Y-153095238D02*
X109827142Y-153285714D01*
X110970000Y-152428571D02*
X111065238Y-152619047D01*
X111065238Y-152619047D02*
X111065238Y-153095238D01*
X111065238Y-153095238D02*
X110970000Y-153285714D01*
X110970000Y-153285714D02*
X110779523Y-153380952D01*
X110779523Y-153380952D02*
X110589047Y-153380952D01*
X110589047Y-153380952D02*
X110398571Y-153285714D01*
X110398571Y-153285714D02*
X110303333Y-153095238D01*
X110303333Y-153095238D02*
X110303333Y-152619047D01*
X110303333Y-152619047D02*
X110208095Y-152428571D01*
X109731904Y-151476190D02*
X111065238Y-151476190D01*
X109922380Y-151476190D02*
X109827142Y-151380952D01*
X109827142Y-151380952D02*
X109731904Y-151190476D01*
X109731904Y-151190476D02*
X109731904Y-150904761D01*
X109731904Y-150904761D02*
X109827142Y-150714285D01*
X109827142Y-150714285D02*
X110017619Y-150619047D01*
X110017619Y-150619047D02*
X111065238Y-150619047D01*
X111065238Y-149666666D02*
X109065238Y-149666666D01*
X110303333Y-149476190D02*
X111065238Y-148904761D01*
X109731904Y-148904761D02*
X110493809Y-149666666D01*
X110017619Y-145857141D02*
X110112857Y-145571427D01*
X110112857Y-145571427D02*
X110208095Y-145476189D01*
X110208095Y-145476189D02*
X110398571Y-145380951D01*
X110398571Y-145380951D02*
X110684285Y-145380951D01*
X110684285Y-145380951D02*
X110874761Y-145476189D01*
X110874761Y-145476189D02*
X110970000Y-145571427D01*
X110970000Y-145571427D02*
X111065238Y-145761903D01*
X111065238Y-145761903D02*
X111065238Y-146523808D01*
X111065238Y-146523808D02*
X109065238Y-146523808D01*
X109065238Y-146523808D02*
X109065238Y-145857141D01*
X109065238Y-145857141D02*
X109160476Y-145666665D01*
X109160476Y-145666665D02*
X109255714Y-145571427D01*
X109255714Y-145571427D02*
X109446190Y-145476189D01*
X109446190Y-145476189D02*
X109636666Y-145476189D01*
X109636666Y-145476189D02*
X109827142Y-145571427D01*
X109827142Y-145571427D02*
X109922380Y-145666665D01*
X109922380Y-145666665D02*
X110017619Y-145857141D01*
X110017619Y-145857141D02*
X110017619Y-146523808D01*
X111065238Y-144523808D02*
X109731904Y-144523808D01*
X110112857Y-144523808D02*
X109922380Y-144428570D01*
X109922380Y-144428570D02*
X109827142Y-144333332D01*
X109827142Y-144333332D02*
X109731904Y-144142856D01*
X109731904Y-144142856D02*
X109731904Y-143952379D01*
X110970000Y-142523808D02*
X111065238Y-142714284D01*
X111065238Y-142714284D02*
X111065238Y-143095237D01*
X111065238Y-143095237D02*
X110970000Y-143285713D01*
X110970000Y-143285713D02*
X110779523Y-143380951D01*
X110779523Y-143380951D02*
X110017619Y-143380951D01*
X110017619Y-143380951D02*
X109827142Y-143285713D01*
X109827142Y-143285713D02*
X109731904Y-143095237D01*
X109731904Y-143095237D02*
X109731904Y-142714284D01*
X109731904Y-142714284D02*
X109827142Y-142523808D01*
X109827142Y-142523808D02*
X110017619Y-142428570D01*
X110017619Y-142428570D02*
X110208095Y-142428570D01*
X110208095Y-142428570D02*
X110398571Y-143380951D01*
X111065238Y-140714284D02*
X110017619Y-140714284D01*
X110017619Y-140714284D02*
X109827142Y-140809522D01*
X109827142Y-140809522D02*
X109731904Y-140999998D01*
X109731904Y-140999998D02*
X109731904Y-141380951D01*
X109731904Y-141380951D02*
X109827142Y-141571427D01*
X110970000Y-140714284D02*
X111065238Y-140904760D01*
X111065238Y-140904760D02*
X111065238Y-141380951D01*
X111065238Y-141380951D02*
X110970000Y-141571427D01*
X110970000Y-141571427D02*
X110779523Y-141666665D01*
X110779523Y-141666665D02*
X110589047Y-141666665D01*
X110589047Y-141666665D02*
X110398571Y-141571427D01*
X110398571Y-141571427D02*
X110303333Y-141380951D01*
X110303333Y-141380951D02*
X110303333Y-140904760D01*
X110303333Y-140904760D02*
X110208095Y-140714284D01*
X111065238Y-139761903D02*
X109065238Y-139761903D01*
X110303333Y-139571427D02*
X111065238Y-138999998D01*
X109731904Y-138999998D02*
X110493809Y-139761903D01*
X111065238Y-137857141D02*
X110970000Y-138047617D01*
X110970000Y-138047617D02*
X110874761Y-138142855D01*
X110874761Y-138142855D02*
X110684285Y-138238093D01*
X110684285Y-138238093D02*
X110112857Y-138238093D01*
X110112857Y-138238093D02*
X109922380Y-138142855D01*
X109922380Y-138142855D02*
X109827142Y-138047617D01*
X109827142Y-138047617D02*
X109731904Y-137857141D01*
X109731904Y-137857141D02*
X109731904Y-137571426D01*
X109731904Y-137571426D02*
X109827142Y-137380950D01*
X109827142Y-137380950D02*
X109922380Y-137285712D01*
X109922380Y-137285712D02*
X110112857Y-137190474D01*
X110112857Y-137190474D02*
X110684285Y-137190474D01*
X110684285Y-137190474D02*
X110874761Y-137285712D01*
X110874761Y-137285712D02*
X110970000Y-137380950D01*
X110970000Y-137380950D02*
X111065238Y-137571426D01*
X111065238Y-137571426D02*
X111065238Y-137857141D01*
X109731904Y-135476188D02*
X111065238Y-135476188D01*
X109731904Y-136333331D02*
X110779523Y-136333331D01*
X110779523Y-136333331D02*
X110970000Y-136238093D01*
X110970000Y-136238093D02*
X111065238Y-136047617D01*
X111065238Y-136047617D02*
X111065238Y-135761902D01*
X111065238Y-135761902D02*
X110970000Y-135571426D01*
X110970000Y-135571426D02*
X110874761Y-135476188D01*
X109731904Y-134809521D02*
X109731904Y-134047617D01*
X109065238Y-134523807D02*
X110779523Y-134523807D01*
X110779523Y-134523807D02*
X110970000Y-134428569D01*
X110970000Y-134428569D02*
X111065238Y-134238093D01*
X111065238Y-134238093D02*
X111065238Y-134047617D01*
X111065238Y-130714283D02*
X110112857Y-131380950D01*
X111065238Y-131857140D02*
X109065238Y-131857140D01*
X109065238Y-131857140D02*
X109065238Y-131095235D01*
X109065238Y-131095235D02*
X109160476Y-130904759D01*
X109160476Y-130904759D02*
X109255714Y-130809521D01*
X109255714Y-130809521D02*
X109446190Y-130714283D01*
X109446190Y-130714283D02*
X109731904Y-130714283D01*
X109731904Y-130714283D02*
X109922380Y-130809521D01*
X109922380Y-130809521D02*
X110017619Y-130904759D01*
X110017619Y-130904759D02*
X110112857Y-131095235D01*
X110112857Y-131095235D02*
X110112857Y-131857140D01*
X111065238Y-128809521D02*
X111065238Y-129952378D01*
X111065238Y-129380950D02*
X109065238Y-129380950D01*
X109065238Y-129380950D02*
X109350952Y-129571426D01*
X109350952Y-129571426D02*
X109541428Y-129761902D01*
X109541428Y-129761902D02*
X109636666Y-129952378D01*
X112305238Y-162952382D02*
X112686190Y-162952382D01*
X112305238Y-162190477D02*
X112686190Y-162190477D01*
X114305238Y-161333334D02*
X112305238Y-161333334D01*
X114305238Y-160190477D02*
X113162380Y-161047620D01*
X112305238Y-160190477D02*
X113448095Y-161333334D01*
X114305238Y-159333334D02*
X112971904Y-159333334D01*
X112305238Y-159333334D02*
X112400476Y-159428572D01*
X112400476Y-159428572D02*
X112495714Y-159333334D01*
X112495714Y-159333334D02*
X112400476Y-159238096D01*
X112400476Y-159238096D02*
X112305238Y-159333334D01*
X112305238Y-159333334D02*
X112495714Y-159333334D01*
X112971904Y-158380953D02*
X114305238Y-158380953D01*
X113162380Y-158380953D02*
X113067142Y-158285715D01*
X113067142Y-158285715D02*
X112971904Y-158095239D01*
X112971904Y-158095239D02*
X112971904Y-157809524D01*
X112971904Y-157809524D02*
X113067142Y-157619048D01*
X113067142Y-157619048D02*
X113257619Y-157523810D01*
X113257619Y-157523810D02*
X114305238Y-157523810D01*
X114210000Y-155809524D02*
X114305238Y-156000000D01*
X114305238Y-156000000D02*
X114305238Y-156380953D01*
X114305238Y-156380953D02*
X114210000Y-156571429D01*
X114210000Y-156571429D02*
X114019523Y-156666667D01*
X114019523Y-156666667D02*
X113257619Y-156666667D01*
X113257619Y-156666667D02*
X113067142Y-156571429D01*
X113067142Y-156571429D02*
X112971904Y-156380953D01*
X112971904Y-156380953D02*
X112971904Y-156000000D01*
X112971904Y-156000000D02*
X113067142Y-155809524D01*
X113067142Y-155809524D02*
X113257619Y-155714286D01*
X113257619Y-155714286D02*
X113448095Y-155714286D01*
X113448095Y-155714286D02*
X113638571Y-156666667D01*
X112971904Y-155142857D02*
X112971904Y-154380953D01*
X112305238Y-154857143D02*
X114019523Y-154857143D01*
X114019523Y-154857143D02*
X114210000Y-154761905D01*
X114210000Y-154761905D02*
X114305238Y-154571429D01*
X114305238Y-154571429D02*
X114305238Y-154380953D01*
X114305238Y-153714286D02*
X112971904Y-153714286D01*
X112305238Y-153714286D02*
X112400476Y-153809524D01*
X112400476Y-153809524D02*
X112495714Y-153714286D01*
X112495714Y-153714286D02*
X112400476Y-153619048D01*
X112400476Y-153619048D02*
X112305238Y-153714286D01*
X112305238Y-153714286D02*
X112495714Y-153714286D01*
X114210000Y-151904762D02*
X114305238Y-152095238D01*
X114305238Y-152095238D02*
X114305238Y-152476191D01*
X114305238Y-152476191D02*
X114210000Y-152666667D01*
X114210000Y-152666667D02*
X114114761Y-152761905D01*
X114114761Y-152761905D02*
X113924285Y-152857143D01*
X113924285Y-152857143D02*
X113352857Y-152857143D01*
X113352857Y-152857143D02*
X113162380Y-152761905D01*
X113162380Y-152761905D02*
X113067142Y-152666667D01*
X113067142Y-152666667D02*
X112971904Y-152476191D01*
X112971904Y-152476191D02*
X112971904Y-152095238D01*
X112971904Y-152095238D02*
X113067142Y-151904762D01*
X113733809Y-149619047D02*
X113733809Y-148666666D01*
X114305238Y-149809523D02*
X112305238Y-149142857D01*
X112305238Y-149142857D02*
X114305238Y-148476190D01*
X112971904Y-147809523D02*
X114305238Y-147809523D01*
X113162380Y-147809523D02*
X113067142Y-147714285D01*
X113067142Y-147714285D02*
X112971904Y-147523809D01*
X112971904Y-147523809D02*
X112971904Y-147238094D01*
X112971904Y-147238094D02*
X113067142Y-147047618D01*
X113067142Y-147047618D02*
X113257619Y-146952380D01*
X113257619Y-146952380D02*
X114305238Y-146952380D01*
X112971904Y-146285713D02*
X112971904Y-145523809D01*
X112305238Y-145999999D02*
X114019523Y-145999999D01*
X114019523Y-145999999D02*
X114210000Y-145904761D01*
X114210000Y-145904761D02*
X114305238Y-145714285D01*
X114305238Y-145714285D02*
X114305238Y-145523809D01*
X114210000Y-144095237D02*
X114305238Y-144285713D01*
X114305238Y-144285713D02*
X114305238Y-144666666D01*
X114305238Y-144666666D02*
X114210000Y-144857142D01*
X114210000Y-144857142D02*
X114019523Y-144952380D01*
X114019523Y-144952380D02*
X113257619Y-144952380D01*
X113257619Y-144952380D02*
X113067142Y-144857142D01*
X113067142Y-144857142D02*
X112971904Y-144666666D01*
X112971904Y-144666666D02*
X112971904Y-144285713D01*
X112971904Y-144285713D02*
X113067142Y-144095237D01*
X113067142Y-144095237D02*
X113257619Y-143999999D01*
X113257619Y-143999999D02*
X113448095Y-143999999D01*
X113448095Y-143999999D02*
X113638571Y-144952380D01*
X112971904Y-143142856D02*
X114305238Y-143142856D01*
X113162380Y-143142856D02*
X113067142Y-143047618D01*
X113067142Y-143047618D02*
X112971904Y-142857142D01*
X112971904Y-142857142D02*
X112971904Y-142571427D01*
X112971904Y-142571427D02*
X113067142Y-142380951D01*
X113067142Y-142380951D02*
X113257619Y-142285713D01*
X113257619Y-142285713D02*
X114305238Y-142285713D01*
X112971904Y-141333332D02*
X114305238Y-141333332D01*
X113162380Y-141333332D02*
X113067142Y-141238094D01*
X113067142Y-141238094D02*
X112971904Y-141047618D01*
X112971904Y-141047618D02*
X112971904Y-140761903D01*
X112971904Y-140761903D02*
X113067142Y-140571427D01*
X113067142Y-140571427D02*
X113257619Y-140476189D01*
X113257619Y-140476189D02*
X114305238Y-140476189D01*
X114305238Y-138666665D02*
X113257619Y-138666665D01*
X113257619Y-138666665D02*
X113067142Y-138761903D01*
X113067142Y-138761903D02*
X112971904Y-138952379D01*
X112971904Y-138952379D02*
X112971904Y-139333332D01*
X112971904Y-139333332D02*
X113067142Y-139523808D01*
X114210000Y-138666665D02*
X114305238Y-138857141D01*
X114305238Y-138857141D02*
X114305238Y-139333332D01*
X114305238Y-139333332D02*
X114210000Y-139523808D01*
X114210000Y-139523808D02*
X114019523Y-139619046D01*
X114019523Y-139619046D02*
X113829047Y-139619046D01*
X113829047Y-139619046D02*
X113638571Y-139523808D01*
X113638571Y-139523808D02*
X113543333Y-139333332D01*
X113543333Y-139333332D02*
X113543333Y-138857141D01*
X113543333Y-138857141D02*
X113448095Y-138666665D01*
X112305238Y-137809522D02*
X112686190Y-137809522D01*
X112305238Y-137047617D02*
X112686190Y-137047617D01*
X117450000Y-165857143D02*
X117545238Y-165571429D01*
X117545238Y-165571429D02*
X117545238Y-165095238D01*
X117545238Y-165095238D02*
X117450000Y-164904762D01*
X117450000Y-164904762D02*
X117354761Y-164809524D01*
X117354761Y-164809524D02*
X117164285Y-164714286D01*
X117164285Y-164714286D02*
X116973809Y-164714286D01*
X116973809Y-164714286D02*
X116783333Y-164809524D01*
X116783333Y-164809524D02*
X116688095Y-164904762D01*
X116688095Y-164904762D02*
X116592857Y-165095238D01*
X116592857Y-165095238D02*
X116497619Y-165476191D01*
X116497619Y-165476191D02*
X116402380Y-165666667D01*
X116402380Y-165666667D02*
X116307142Y-165761905D01*
X116307142Y-165761905D02*
X116116666Y-165857143D01*
X116116666Y-165857143D02*
X115926190Y-165857143D01*
X115926190Y-165857143D02*
X115735714Y-165761905D01*
X115735714Y-165761905D02*
X115640476Y-165666667D01*
X115640476Y-165666667D02*
X115545238Y-165476191D01*
X115545238Y-165476191D02*
X115545238Y-165000000D01*
X115545238Y-165000000D02*
X115640476Y-164714286D01*
X117450000Y-163095238D02*
X117545238Y-163285714D01*
X117545238Y-163285714D02*
X117545238Y-163666667D01*
X117545238Y-163666667D02*
X117450000Y-163857143D01*
X117450000Y-163857143D02*
X117259523Y-163952381D01*
X117259523Y-163952381D02*
X116497619Y-163952381D01*
X116497619Y-163952381D02*
X116307142Y-163857143D01*
X116307142Y-163857143D02*
X116211904Y-163666667D01*
X116211904Y-163666667D02*
X116211904Y-163285714D01*
X116211904Y-163285714D02*
X116307142Y-163095238D01*
X116307142Y-163095238D02*
X116497619Y-163000000D01*
X116497619Y-163000000D02*
X116688095Y-163000000D01*
X116688095Y-163000000D02*
X116878571Y-163952381D01*
X116211904Y-162142857D02*
X117545238Y-162142857D01*
X116402380Y-162142857D02*
X116307142Y-162047619D01*
X116307142Y-162047619D02*
X116211904Y-161857143D01*
X116211904Y-161857143D02*
X116211904Y-161571428D01*
X116211904Y-161571428D02*
X116307142Y-161380952D01*
X116307142Y-161380952D02*
X116497619Y-161285714D01*
X116497619Y-161285714D02*
X117545238Y-161285714D01*
X117545238Y-160333333D02*
X116211904Y-160333333D01*
X115545238Y-160333333D02*
X115640476Y-160428571D01*
X115640476Y-160428571D02*
X115735714Y-160333333D01*
X115735714Y-160333333D02*
X115640476Y-160238095D01*
X115640476Y-160238095D02*
X115545238Y-160333333D01*
X115545238Y-160333333D02*
X115735714Y-160333333D01*
X117545238Y-159095238D02*
X117450000Y-159285714D01*
X117450000Y-159285714D02*
X117354761Y-159380952D01*
X117354761Y-159380952D02*
X117164285Y-159476190D01*
X117164285Y-159476190D02*
X116592857Y-159476190D01*
X116592857Y-159476190D02*
X116402380Y-159380952D01*
X116402380Y-159380952D02*
X116307142Y-159285714D01*
X116307142Y-159285714D02*
X116211904Y-159095238D01*
X116211904Y-159095238D02*
X116211904Y-158809523D01*
X116211904Y-158809523D02*
X116307142Y-158619047D01*
X116307142Y-158619047D02*
X116402380Y-158523809D01*
X116402380Y-158523809D02*
X116592857Y-158428571D01*
X116592857Y-158428571D02*
X117164285Y-158428571D01*
X117164285Y-158428571D02*
X117354761Y-158523809D01*
X117354761Y-158523809D02*
X117450000Y-158619047D01*
X117450000Y-158619047D02*
X117545238Y-158809523D01*
X117545238Y-158809523D02*
X117545238Y-159095238D01*
X117545238Y-157571428D02*
X116211904Y-157571428D01*
X116592857Y-157571428D02*
X116402380Y-157476190D01*
X116402380Y-157476190D02*
X116307142Y-157380952D01*
X116307142Y-157380952D02*
X116211904Y-157190476D01*
X116211904Y-157190476D02*
X116211904Y-156999999D01*
X117545238Y-154809523D02*
X115545238Y-154809523D01*
X115545238Y-154809523D02*
X115545238Y-154333333D01*
X115545238Y-154333333D02*
X115640476Y-154047618D01*
X115640476Y-154047618D02*
X115830952Y-153857142D01*
X115830952Y-153857142D02*
X116021428Y-153761904D01*
X116021428Y-153761904D02*
X116402380Y-153666666D01*
X116402380Y-153666666D02*
X116688095Y-153666666D01*
X116688095Y-153666666D02*
X117069047Y-153761904D01*
X117069047Y-153761904D02*
X117259523Y-153857142D01*
X117259523Y-153857142D02*
X117450000Y-154047618D01*
X117450000Y-154047618D02*
X117545238Y-154333333D01*
X117545238Y-154333333D02*
X117545238Y-154809523D01*
X117450000Y-152047618D02*
X117545238Y-152238094D01*
X117545238Y-152238094D02*
X117545238Y-152619047D01*
X117545238Y-152619047D02*
X117450000Y-152809523D01*
X117450000Y-152809523D02*
X117259523Y-152904761D01*
X117259523Y-152904761D02*
X116497619Y-152904761D01*
X116497619Y-152904761D02*
X116307142Y-152809523D01*
X116307142Y-152809523D02*
X116211904Y-152619047D01*
X116211904Y-152619047D02*
X116211904Y-152238094D01*
X116211904Y-152238094D02*
X116307142Y-152047618D01*
X116307142Y-152047618D02*
X116497619Y-151952380D01*
X116497619Y-151952380D02*
X116688095Y-151952380D01*
X116688095Y-151952380D02*
X116878571Y-152904761D01*
X117450000Y-151190475D02*
X117545238Y-150999999D01*
X117545238Y-150999999D02*
X117545238Y-150619047D01*
X117545238Y-150619047D02*
X117450000Y-150428570D01*
X117450000Y-150428570D02*
X117259523Y-150333332D01*
X117259523Y-150333332D02*
X117164285Y-150333332D01*
X117164285Y-150333332D02*
X116973809Y-150428570D01*
X116973809Y-150428570D02*
X116878571Y-150619047D01*
X116878571Y-150619047D02*
X116878571Y-150904761D01*
X116878571Y-150904761D02*
X116783333Y-151095237D01*
X116783333Y-151095237D02*
X116592857Y-151190475D01*
X116592857Y-151190475D02*
X116497619Y-151190475D01*
X116497619Y-151190475D02*
X116307142Y-151095237D01*
X116307142Y-151095237D02*
X116211904Y-150904761D01*
X116211904Y-150904761D02*
X116211904Y-150619047D01*
X116211904Y-150619047D02*
X116307142Y-150428570D01*
X117545238Y-149476189D02*
X116211904Y-149476189D01*
X115545238Y-149476189D02*
X115640476Y-149571427D01*
X115640476Y-149571427D02*
X115735714Y-149476189D01*
X115735714Y-149476189D02*
X115640476Y-149380951D01*
X115640476Y-149380951D02*
X115545238Y-149476189D01*
X115545238Y-149476189D02*
X115735714Y-149476189D01*
X116211904Y-147666665D02*
X117830952Y-147666665D01*
X117830952Y-147666665D02*
X118021428Y-147761903D01*
X118021428Y-147761903D02*
X118116666Y-147857141D01*
X118116666Y-147857141D02*
X118211904Y-148047618D01*
X118211904Y-148047618D02*
X118211904Y-148333332D01*
X118211904Y-148333332D02*
X118116666Y-148523808D01*
X117450000Y-147666665D02*
X117545238Y-147857141D01*
X117545238Y-147857141D02*
X117545238Y-148238094D01*
X117545238Y-148238094D02*
X117450000Y-148428570D01*
X117450000Y-148428570D02*
X117354761Y-148523808D01*
X117354761Y-148523808D02*
X117164285Y-148619046D01*
X117164285Y-148619046D02*
X116592857Y-148619046D01*
X116592857Y-148619046D02*
X116402380Y-148523808D01*
X116402380Y-148523808D02*
X116307142Y-148428570D01*
X116307142Y-148428570D02*
X116211904Y-148238094D01*
X116211904Y-148238094D02*
X116211904Y-147857141D01*
X116211904Y-147857141D02*
X116307142Y-147666665D01*
X116211904Y-146714284D02*
X117545238Y-146714284D01*
X116402380Y-146714284D02*
X116307142Y-146619046D01*
X116307142Y-146619046D02*
X116211904Y-146428570D01*
X116211904Y-146428570D02*
X116211904Y-146142855D01*
X116211904Y-146142855D02*
X116307142Y-145952379D01*
X116307142Y-145952379D02*
X116497619Y-145857141D01*
X116497619Y-145857141D02*
X117545238Y-145857141D01*
X115735714Y-143476188D02*
X115640476Y-143380950D01*
X115640476Y-143380950D02*
X115545238Y-143190474D01*
X115545238Y-143190474D02*
X115545238Y-142714283D01*
X115545238Y-142714283D02*
X115640476Y-142523807D01*
X115640476Y-142523807D02*
X115735714Y-142428569D01*
X115735714Y-142428569D02*
X115926190Y-142333331D01*
X115926190Y-142333331D02*
X116116666Y-142333331D01*
X116116666Y-142333331D02*
X116402380Y-142428569D01*
X116402380Y-142428569D02*
X117545238Y-143571426D01*
X117545238Y-143571426D02*
X117545238Y-142333331D01*
X115545238Y-141666664D02*
X115545238Y-140428569D01*
X115545238Y-140428569D02*
X116307142Y-141095236D01*
X116307142Y-141095236D02*
X116307142Y-140809521D01*
X116307142Y-140809521D02*
X116402380Y-140619045D01*
X116402380Y-140619045D02*
X116497619Y-140523807D01*
X116497619Y-140523807D02*
X116688095Y-140428569D01*
X116688095Y-140428569D02*
X117164285Y-140428569D01*
X117164285Y-140428569D02*
X117354761Y-140523807D01*
X117354761Y-140523807D02*
X117450000Y-140619045D01*
X117450000Y-140619045D02*
X117545238Y-140809521D01*
X117545238Y-140809521D02*
X117545238Y-141380950D01*
X117545238Y-141380950D02*
X117450000Y-141571426D01*
X117450000Y-141571426D02*
X117354761Y-141666664D01*
X116783333Y-139571426D02*
X116783333Y-138047617D01*
X115735714Y-137190474D02*
X115640476Y-137095236D01*
X115640476Y-137095236D02*
X115545238Y-136904760D01*
X115545238Y-136904760D02*
X115545238Y-136428569D01*
X115545238Y-136428569D02*
X115640476Y-136238093D01*
X115640476Y-136238093D02*
X115735714Y-136142855D01*
X115735714Y-136142855D02*
X115926190Y-136047617D01*
X115926190Y-136047617D02*
X116116666Y-136047617D01*
X116116666Y-136047617D02*
X116402380Y-136142855D01*
X116402380Y-136142855D02*
X117545238Y-137285712D01*
X117545238Y-137285712D02*
X117545238Y-136047617D01*
X116211904Y-134333331D02*
X117545238Y-134333331D01*
X115450000Y-134809522D02*
X116878571Y-135285712D01*
X116878571Y-135285712D02*
X116878571Y-134047617D01*
X120785238Y-172238096D02*
X118785238Y-172238096D01*
X118785238Y-172238096D02*
X120213809Y-171571429D01*
X120213809Y-171571429D02*
X118785238Y-170904763D01*
X118785238Y-170904763D02*
X120785238Y-170904763D01*
X120785238Y-169952382D02*
X119451904Y-169952382D01*
X118785238Y-169952382D02*
X118880476Y-170047620D01*
X118880476Y-170047620D02*
X118975714Y-169952382D01*
X118975714Y-169952382D02*
X118880476Y-169857144D01*
X118880476Y-169857144D02*
X118785238Y-169952382D01*
X118785238Y-169952382D02*
X118975714Y-169952382D01*
X120690000Y-169095239D02*
X120785238Y-168904763D01*
X120785238Y-168904763D02*
X120785238Y-168523811D01*
X120785238Y-168523811D02*
X120690000Y-168333334D01*
X120690000Y-168333334D02*
X120499523Y-168238096D01*
X120499523Y-168238096D02*
X120404285Y-168238096D01*
X120404285Y-168238096D02*
X120213809Y-168333334D01*
X120213809Y-168333334D02*
X120118571Y-168523811D01*
X120118571Y-168523811D02*
X120118571Y-168809525D01*
X120118571Y-168809525D02*
X120023333Y-169000001D01*
X120023333Y-169000001D02*
X119832857Y-169095239D01*
X119832857Y-169095239D02*
X119737619Y-169095239D01*
X119737619Y-169095239D02*
X119547142Y-169000001D01*
X119547142Y-169000001D02*
X119451904Y-168809525D01*
X119451904Y-168809525D02*
X119451904Y-168523811D01*
X119451904Y-168523811D02*
X119547142Y-168333334D01*
X120690000Y-167476191D02*
X120785238Y-167285715D01*
X120785238Y-167285715D02*
X120785238Y-166904763D01*
X120785238Y-166904763D02*
X120690000Y-166714286D01*
X120690000Y-166714286D02*
X120499523Y-166619048D01*
X120499523Y-166619048D02*
X120404285Y-166619048D01*
X120404285Y-166619048D02*
X120213809Y-166714286D01*
X120213809Y-166714286D02*
X120118571Y-166904763D01*
X120118571Y-166904763D02*
X120118571Y-167190477D01*
X120118571Y-167190477D02*
X120023333Y-167380953D01*
X120023333Y-167380953D02*
X119832857Y-167476191D01*
X119832857Y-167476191D02*
X119737619Y-167476191D01*
X119737619Y-167476191D02*
X119547142Y-167380953D01*
X119547142Y-167380953D02*
X119451904Y-167190477D01*
X119451904Y-167190477D02*
X119451904Y-166904763D01*
X119451904Y-166904763D02*
X119547142Y-166714286D01*
X120785238Y-165476191D02*
X120690000Y-165666667D01*
X120690000Y-165666667D02*
X120594761Y-165761905D01*
X120594761Y-165761905D02*
X120404285Y-165857143D01*
X120404285Y-165857143D02*
X119832857Y-165857143D01*
X119832857Y-165857143D02*
X119642380Y-165761905D01*
X119642380Y-165761905D02*
X119547142Y-165666667D01*
X119547142Y-165666667D02*
X119451904Y-165476191D01*
X119451904Y-165476191D02*
X119451904Y-165190476D01*
X119451904Y-165190476D02*
X119547142Y-165000000D01*
X119547142Y-165000000D02*
X119642380Y-164904762D01*
X119642380Y-164904762D02*
X119832857Y-164809524D01*
X119832857Y-164809524D02*
X120404285Y-164809524D01*
X120404285Y-164809524D02*
X120594761Y-164904762D01*
X120594761Y-164904762D02*
X120690000Y-165000000D01*
X120690000Y-165000000D02*
X120785238Y-165190476D01*
X120785238Y-165190476D02*
X120785238Y-165476191D01*
X119451904Y-163095238D02*
X120785238Y-163095238D01*
X119451904Y-163952381D02*
X120499523Y-163952381D01*
X120499523Y-163952381D02*
X120690000Y-163857143D01*
X120690000Y-163857143D02*
X120785238Y-163666667D01*
X120785238Y-163666667D02*
X120785238Y-163380952D01*
X120785238Y-163380952D02*
X120690000Y-163190476D01*
X120690000Y-163190476D02*
X120594761Y-163095238D01*
X120785238Y-162142857D02*
X119451904Y-162142857D01*
X119832857Y-162142857D02*
X119642380Y-162047619D01*
X119642380Y-162047619D02*
X119547142Y-161952381D01*
X119547142Y-161952381D02*
X119451904Y-161761905D01*
X119451904Y-161761905D02*
X119451904Y-161571428D01*
X120785238Y-160904762D02*
X119451904Y-160904762D01*
X118785238Y-160904762D02*
X118880476Y-161000000D01*
X118880476Y-161000000D02*
X118975714Y-160904762D01*
X118975714Y-160904762D02*
X118880476Y-160809524D01*
X118880476Y-160809524D02*
X118785238Y-160904762D01*
X118785238Y-160904762D02*
X118975714Y-160904762D01*
X120690000Y-158523809D02*
X120785238Y-158238095D01*
X120785238Y-158238095D02*
X120785238Y-157761904D01*
X120785238Y-157761904D02*
X120690000Y-157571428D01*
X120690000Y-157571428D02*
X120594761Y-157476190D01*
X120594761Y-157476190D02*
X120404285Y-157380952D01*
X120404285Y-157380952D02*
X120213809Y-157380952D01*
X120213809Y-157380952D02*
X120023333Y-157476190D01*
X120023333Y-157476190D02*
X119928095Y-157571428D01*
X119928095Y-157571428D02*
X119832857Y-157761904D01*
X119832857Y-157761904D02*
X119737619Y-158142857D01*
X119737619Y-158142857D02*
X119642380Y-158333333D01*
X119642380Y-158333333D02*
X119547142Y-158428571D01*
X119547142Y-158428571D02*
X119356666Y-158523809D01*
X119356666Y-158523809D02*
X119166190Y-158523809D01*
X119166190Y-158523809D02*
X118975714Y-158428571D01*
X118975714Y-158428571D02*
X118880476Y-158333333D01*
X118880476Y-158333333D02*
X118785238Y-158142857D01*
X118785238Y-158142857D02*
X118785238Y-157666666D01*
X118785238Y-157666666D02*
X118880476Y-157380952D01*
X120785238Y-154904761D02*
X120785238Y-155000000D01*
X120785238Y-155000000D02*
X120690000Y-155190476D01*
X120690000Y-155190476D02*
X120404285Y-155476190D01*
X120404285Y-155476190D02*
X119832857Y-155952380D01*
X119832857Y-155952380D02*
X119547142Y-156142857D01*
X119547142Y-156142857D02*
X119261428Y-156238095D01*
X119261428Y-156238095D02*
X119070952Y-156238095D01*
X119070952Y-156238095D02*
X118880476Y-156142857D01*
X118880476Y-156142857D02*
X118785238Y-155952380D01*
X118785238Y-155952380D02*
X118785238Y-155857142D01*
X118785238Y-155857142D02*
X118880476Y-155666666D01*
X118880476Y-155666666D02*
X119070952Y-155571428D01*
X119070952Y-155571428D02*
X119166190Y-155571428D01*
X119166190Y-155571428D02*
X119356666Y-155666666D01*
X119356666Y-155666666D02*
X119451904Y-155761904D01*
X119451904Y-155761904D02*
X119832857Y-156333333D01*
X119832857Y-156333333D02*
X119928095Y-156428571D01*
X119928095Y-156428571D02*
X120118571Y-156523809D01*
X120118571Y-156523809D02*
X120404285Y-156523809D01*
X120404285Y-156523809D02*
X120594761Y-156428571D01*
X120594761Y-156428571D02*
X120690000Y-156333333D01*
X120690000Y-156333333D02*
X120785238Y-156142857D01*
X120785238Y-156142857D02*
X120785238Y-155857142D01*
X120785238Y-155857142D02*
X120690000Y-155666666D01*
X120690000Y-155666666D02*
X120594761Y-155571428D01*
X120594761Y-155571428D02*
X120213809Y-155285714D01*
X120213809Y-155285714D02*
X119928095Y-155190476D01*
X119928095Y-155190476D02*
X119737619Y-155190476D01*
X118785238Y-154333333D02*
X118785238Y-153190476D01*
X120785238Y-153761905D02*
X118785238Y-153761905D01*
X119737619Y-150999999D02*
X119737619Y-150333332D01*
X120785238Y-150047618D02*
X120785238Y-150999999D01*
X120785238Y-150999999D02*
X118785238Y-150999999D01*
X118785238Y-150999999D02*
X118785238Y-150047618D01*
X120594761Y-148047618D02*
X120690000Y-148142856D01*
X120690000Y-148142856D02*
X120785238Y-148428570D01*
X120785238Y-148428570D02*
X120785238Y-148619046D01*
X120785238Y-148619046D02*
X120690000Y-148904761D01*
X120690000Y-148904761D02*
X120499523Y-149095237D01*
X120499523Y-149095237D02*
X120309047Y-149190475D01*
X120309047Y-149190475D02*
X119928095Y-149285713D01*
X119928095Y-149285713D02*
X119642380Y-149285713D01*
X119642380Y-149285713D02*
X119261428Y-149190475D01*
X119261428Y-149190475D02*
X119070952Y-149095237D01*
X119070952Y-149095237D02*
X118880476Y-148904761D01*
X118880476Y-148904761D02*
X118785238Y-148619046D01*
X118785238Y-148619046D02*
X118785238Y-148428570D01*
X118785238Y-148428570D02*
X118880476Y-148142856D01*
X118880476Y-148142856D02*
X118975714Y-148047618D01*
X119737619Y-147190475D02*
X119737619Y-146523808D01*
X120785238Y-146238094D02*
X120785238Y-147190475D01*
X120785238Y-147190475D02*
X118785238Y-147190475D01*
X118785238Y-147190475D02*
X118785238Y-146238094D01*
X120785238Y-143857141D02*
X118785238Y-143857141D01*
X118785238Y-143857141D02*
X118785238Y-143380951D01*
X118785238Y-143380951D02*
X118880476Y-143095236D01*
X118880476Y-143095236D02*
X119070952Y-142904760D01*
X119070952Y-142904760D02*
X119261428Y-142809522D01*
X119261428Y-142809522D02*
X119642380Y-142714284D01*
X119642380Y-142714284D02*
X119928095Y-142714284D01*
X119928095Y-142714284D02*
X120309047Y-142809522D01*
X120309047Y-142809522D02*
X120499523Y-142904760D01*
X120499523Y-142904760D02*
X120690000Y-143095236D01*
X120690000Y-143095236D02*
X120785238Y-143380951D01*
X120785238Y-143380951D02*
X120785238Y-143857141D01*
X120690000Y-141095236D02*
X120785238Y-141285712D01*
X120785238Y-141285712D02*
X120785238Y-141666665D01*
X120785238Y-141666665D02*
X120690000Y-141857141D01*
X120690000Y-141857141D02*
X120499523Y-141952379D01*
X120499523Y-141952379D02*
X119737619Y-141952379D01*
X119737619Y-141952379D02*
X119547142Y-141857141D01*
X119547142Y-141857141D02*
X119451904Y-141666665D01*
X119451904Y-141666665D02*
X119451904Y-141285712D01*
X119451904Y-141285712D02*
X119547142Y-141095236D01*
X119547142Y-141095236D02*
X119737619Y-140999998D01*
X119737619Y-140999998D02*
X119928095Y-140999998D01*
X119928095Y-140999998D02*
X120118571Y-141952379D01*
X119451904Y-140142855D02*
X121451904Y-140142855D01*
X119547142Y-140142855D02*
X119451904Y-139952379D01*
X119451904Y-139952379D02*
X119451904Y-139571426D01*
X119451904Y-139571426D02*
X119547142Y-139380950D01*
X119547142Y-139380950D02*
X119642380Y-139285712D01*
X119642380Y-139285712D02*
X119832857Y-139190474D01*
X119832857Y-139190474D02*
X120404285Y-139190474D01*
X120404285Y-139190474D02*
X120594761Y-139285712D01*
X120594761Y-139285712D02*
X120690000Y-139380950D01*
X120690000Y-139380950D02*
X120785238Y-139571426D01*
X120785238Y-139571426D02*
X120785238Y-139952379D01*
X120785238Y-139952379D02*
X120690000Y-140142855D01*
X120785238Y-137476188D02*
X119737619Y-137476188D01*
X119737619Y-137476188D02*
X119547142Y-137571426D01*
X119547142Y-137571426D02*
X119451904Y-137761902D01*
X119451904Y-137761902D02*
X119451904Y-138142855D01*
X119451904Y-138142855D02*
X119547142Y-138333331D01*
X120690000Y-137476188D02*
X120785238Y-137666664D01*
X120785238Y-137666664D02*
X120785238Y-138142855D01*
X120785238Y-138142855D02*
X120690000Y-138333331D01*
X120690000Y-138333331D02*
X120499523Y-138428569D01*
X120499523Y-138428569D02*
X120309047Y-138428569D01*
X120309047Y-138428569D02*
X120118571Y-138333331D01*
X120118571Y-138333331D02*
X120023333Y-138142855D01*
X120023333Y-138142855D02*
X120023333Y-137666664D01*
X120023333Y-137666664D02*
X119928095Y-137476188D01*
X120785238Y-136523807D02*
X119451904Y-136523807D01*
X119832857Y-136523807D02*
X119642380Y-136428569D01*
X119642380Y-136428569D02*
X119547142Y-136333331D01*
X119547142Y-136333331D02*
X119451904Y-136142855D01*
X119451904Y-136142855D02*
X119451904Y-135952378D01*
X119451904Y-135571426D02*
X119451904Y-134809522D01*
X118785238Y-135285712D02*
X120499523Y-135285712D01*
X120499523Y-135285712D02*
X120690000Y-135190474D01*
X120690000Y-135190474D02*
X120785238Y-134999998D01*
X120785238Y-134999998D02*
X120785238Y-134809522D01*
X120785238Y-134142855D02*
X119451904Y-134142855D01*
X119642380Y-134142855D02*
X119547142Y-134047617D01*
X119547142Y-134047617D02*
X119451904Y-133857141D01*
X119451904Y-133857141D02*
X119451904Y-133571426D01*
X119451904Y-133571426D02*
X119547142Y-133380950D01*
X119547142Y-133380950D02*
X119737619Y-133285712D01*
X119737619Y-133285712D02*
X120785238Y-133285712D01*
X119737619Y-133285712D02*
X119547142Y-133190474D01*
X119547142Y-133190474D02*
X119451904Y-132999998D01*
X119451904Y-132999998D02*
X119451904Y-132714284D01*
X119451904Y-132714284D02*
X119547142Y-132523807D01*
X119547142Y-132523807D02*
X119737619Y-132428569D01*
X119737619Y-132428569D02*
X120785238Y-132428569D01*
X120690000Y-130714283D02*
X120785238Y-130904759D01*
X120785238Y-130904759D02*
X120785238Y-131285712D01*
X120785238Y-131285712D02*
X120690000Y-131476188D01*
X120690000Y-131476188D02*
X120499523Y-131571426D01*
X120499523Y-131571426D02*
X119737619Y-131571426D01*
X119737619Y-131571426D02*
X119547142Y-131476188D01*
X119547142Y-131476188D02*
X119451904Y-131285712D01*
X119451904Y-131285712D02*
X119451904Y-130904759D01*
X119451904Y-130904759D02*
X119547142Y-130714283D01*
X119547142Y-130714283D02*
X119737619Y-130619045D01*
X119737619Y-130619045D02*
X119928095Y-130619045D01*
X119928095Y-130619045D02*
X120118571Y-131571426D01*
X119451904Y-129761902D02*
X120785238Y-129761902D01*
X119642380Y-129761902D02*
X119547142Y-129666664D01*
X119547142Y-129666664D02*
X119451904Y-129476188D01*
X119451904Y-129476188D02*
X119451904Y-129190473D01*
X119451904Y-129190473D02*
X119547142Y-128999997D01*
X119547142Y-128999997D02*
X119737619Y-128904759D01*
X119737619Y-128904759D02*
X120785238Y-128904759D01*
X119451904Y-128238092D02*
X119451904Y-127476188D01*
X118785238Y-127952378D02*
X120499523Y-127952378D01*
X120499523Y-127952378D02*
X120690000Y-127857140D01*
X120690000Y-127857140D02*
X120785238Y-127666664D01*
X120785238Y-127666664D02*
X120785238Y-127476188D01*
D12*
X515238095Y-193877619D02*
X515238095Y-192877619D01*
X515238095Y-192877619D02*
X515571428Y-193591904D01*
X515571428Y-193591904D02*
X515904761Y-192877619D01*
X515904761Y-192877619D02*
X515904761Y-193877619D01*
X516666666Y-192877619D02*
X516666666Y-193591904D01*
X516666666Y-193591904D02*
X516619047Y-193734761D01*
X516619047Y-193734761D02*
X516523809Y-193830000D01*
X516523809Y-193830000D02*
X516380952Y-193877619D01*
X516380952Y-193877619D02*
X516285714Y-193877619D01*
X517714285Y-193877619D02*
X517380952Y-193401428D01*
X517142857Y-193877619D02*
X517142857Y-192877619D01*
X517142857Y-192877619D02*
X517523809Y-192877619D01*
X517523809Y-192877619D02*
X517619047Y-192925238D01*
X517619047Y-192925238D02*
X517666666Y-192972857D01*
X517666666Y-192972857D02*
X517714285Y-193068095D01*
X517714285Y-193068095D02*
X517714285Y-193210952D01*
X517714285Y-193210952D02*
X517666666Y-193306190D01*
X517666666Y-193306190D02*
X517619047Y-193353809D01*
X517619047Y-193353809D02*
X517523809Y-193401428D01*
X517523809Y-193401428D02*
X517142857Y-193401428D01*
X518190476Y-193830000D02*
X518190476Y-193877619D01*
X518190476Y-193877619D02*
X518142857Y-193972857D01*
X518142857Y-193972857D02*
X518095238Y-194020476D01*
X519333333Y-192972857D02*
X519380952Y-192925238D01*
X519380952Y-192925238D02*
X519476190Y-192877619D01*
X519476190Y-192877619D02*
X519714285Y-192877619D01*
X519714285Y-192877619D02*
X519809523Y-192925238D01*
X519809523Y-192925238D02*
X519857142Y-192972857D01*
X519857142Y-192972857D02*
X519904761Y-193068095D01*
X519904761Y-193068095D02*
X519904761Y-193163333D01*
X519904761Y-193163333D02*
X519857142Y-193306190D01*
X519857142Y-193306190D02*
X519285714Y-193877619D01*
X519285714Y-193877619D02*
X519904761Y-193877619D01*
X520523809Y-192877619D02*
X520619047Y-192877619D01*
X520619047Y-192877619D02*
X520714285Y-192925238D01*
X520714285Y-192925238D02*
X520761904Y-192972857D01*
X520761904Y-192972857D02*
X520809523Y-193068095D01*
X520809523Y-193068095D02*
X520857142Y-193258571D01*
X520857142Y-193258571D02*
X520857142Y-193496666D01*
X520857142Y-193496666D02*
X520809523Y-193687142D01*
X520809523Y-193687142D02*
X520761904Y-193782380D01*
X520761904Y-193782380D02*
X520714285Y-193830000D01*
X520714285Y-193830000D02*
X520619047Y-193877619D01*
X520619047Y-193877619D02*
X520523809Y-193877619D01*
X520523809Y-193877619D02*
X520428571Y-193830000D01*
X520428571Y-193830000D02*
X520380952Y-193782380D01*
X520380952Y-193782380D02*
X520333333Y-193687142D01*
X520333333Y-193687142D02*
X520285714Y-193496666D01*
X520285714Y-193496666D02*
X520285714Y-193258571D01*
X520285714Y-193258571D02*
X520333333Y-193068095D01*
X520333333Y-193068095D02*
X520380952Y-192972857D01*
X520380952Y-192972857D02*
X520428571Y-192925238D01*
X520428571Y-192925238D02*
X520523809Y-192877619D01*
X521238095Y-192972857D02*
X521285714Y-192925238D01*
X521285714Y-192925238D02*
X521380952Y-192877619D01*
X521380952Y-192877619D02*
X521619047Y-192877619D01*
X521619047Y-192877619D02*
X521714285Y-192925238D01*
X521714285Y-192925238D02*
X521761904Y-192972857D01*
X521761904Y-192972857D02*
X521809523Y-193068095D01*
X521809523Y-193068095D02*
X521809523Y-193163333D01*
X521809523Y-193163333D02*
X521761904Y-193306190D01*
X521761904Y-193306190D02*
X521190476Y-193877619D01*
X521190476Y-193877619D02*
X521809523Y-193877619D01*
X522666666Y-193210952D02*
X522666666Y-193877619D01*
X522428571Y-192830000D02*
X522190476Y-193544285D01*
X522190476Y-193544285D02*
X522809523Y-193544285D01*
D13*
X134166666Y-192177619D02*
X133833333Y-191701428D01*
X133595238Y-192177619D02*
X133595238Y-191177619D01*
X133595238Y-191177619D02*
X133976190Y-191177619D01*
X133976190Y-191177619D02*
X134071428Y-191225238D01*
X134071428Y-191225238D02*
X134119047Y-191272857D01*
X134119047Y-191272857D02*
X134166666Y-191368095D01*
X134166666Y-191368095D02*
X134166666Y-191510952D01*
X134166666Y-191510952D02*
X134119047Y-191606190D01*
X134119047Y-191606190D02*
X134071428Y-191653809D01*
X134071428Y-191653809D02*
X133976190Y-191701428D01*
X133976190Y-191701428D02*
X133595238Y-191701428D01*
X134595238Y-191653809D02*
X134928571Y-191653809D01*
X135071428Y-192177619D02*
X134595238Y-192177619D01*
X134595238Y-192177619D02*
X134595238Y-191177619D01*
X134595238Y-191177619D02*
X135071428Y-191177619D01*
X135833333Y-191653809D02*
X135500000Y-191653809D01*
X135500000Y-192177619D02*
X135500000Y-191177619D01*
X135500000Y-191177619D02*
X135976190Y-191177619D01*
X136500000Y-191177619D02*
X136500000Y-191415714D01*
X136261905Y-191320476D02*
X136500000Y-191415714D01*
X136500000Y-191415714D02*
X136738095Y-191320476D01*
X136357143Y-191606190D02*
X136500000Y-191415714D01*
X136500000Y-191415714D02*
X136642857Y-191606190D01*
X137261905Y-191177619D02*
X137261905Y-191415714D01*
X137023810Y-191320476D02*
X137261905Y-191415714D01*
X137261905Y-191415714D02*
X137500000Y-191320476D01*
X137119048Y-191606190D02*
X137261905Y-191415714D01*
X137261905Y-191415714D02*
X137404762Y-191606190D01*
D12*
X217637855Y-168558328D02*
X217685474Y-168510709D01*
X217685474Y-168510709D02*
X217828331Y-168463089D01*
X217828331Y-168463089D02*
X217923569Y-168463089D01*
X217923569Y-168463089D02*
X218066426Y-168510709D01*
X218066426Y-168510709D02*
X218161664Y-168605947D01*
X218161664Y-168605947D02*
X218209283Y-168701185D01*
X218209283Y-168701185D02*
X218256902Y-168891661D01*
X218256902Y-168891661D02*
X218256902Y-169034518D01*
X218256902Y-169034518D02*
X218209283Y-169224994D01*
X218209283Y-169224994D02*
X218161664Y-169320232D01*
X218161664Y-169320232D02*
X218066426Y-169415470D01*
X218066426Y-169415470D02*
X217923569Y-169463089D01*
X217923569Y-169463089D02*
X217828331Y-169463089D01*
X217828331Y-169463089D02*
X217685474Y-169415470D01*
X217685474Y-169415470D02*
X217637855Y-169367851D01*
X216685474Y-168463089D02*
X217256902Y-168463089D01*
X216971188Y-168463089D02*
X216971188Y-169463089D01*
X216971188Y-169463089D02*
X217066426Y-169320232D01*
X217066426Y-169320232D02*
X217161664Y-169224994D01*
X217161664Y-169224994D02*
X217256902Y-169177375D01*
X216304521Y-169367851D02*
X216256902Y-169415470D01*
X216256902Y-169415470D02*
X216161664Y-169463089D01*
X216161664Y-169463089D02*
X215923569Y-169463089D01*
X215923569Y-169463089D02*
X215828331Y-169415470D01*
X215828331Y-169415470D02*
X215780712Y-169367851D01*
X215780712Y-169367851D02*
X215733093Y-169272613D01*
X215733093Y-169272613D02*
X215733093Y-169177375D01*
X215733093Y-169177375D02*
X215780712Y-169034518D01*
X215780712Y-169034518D02*
X216352140Y-168463089D01*
X216352140Y-168463089D02*
X215733093Y-168463089D01*
X282352140Y-131112789D02*
X282304521Y-131160409D01*
X282304521Y-131160409D02*
X282161664Y-131208028D01*
X282161664Y-131208028D02*
X282066426Y-131208028D01*
X282066426Y-131208028D02*
X281923569Y-131160409D01*
X281923569Y-131160409D02*
X281828331Y-131065170D01*
X281828331Y-131065170D02*
X281780712Y-130969932D01*
X281780712Y-130969932D02*
X281733093Y-130779456D01*
X281733093Y-130779456D02*
X281733093Y-130636599D01*
X281733093Y-130636599D02*
X281780712Y-130446123D01*
X281780712Y-130446123D02*
X281828331Y-130350885D01*
X281828331Y-130350885D02*
X281923569Y-130255647D01*
X281923569Y-130255647D02*
X282066426Y-130208028D01*
X282066426Y-130208028D02*
X282161664Y-130208028D01*
X282161664Y-130208028D02*
X282304521Y-130255647D01*
X282304521Y-130255647D02*
X282352140Y-130303266D01*
X282685474Y-130208028D02*
X283304521Y-130208028D01*
X283304521Y-130208028D02*
X282971188Y-130588980D01*
X282971188Y-130588980D02*
X283114045Y-130588980D01*
X283114045Y-130588980D02*
X283209283Y-130636599D01*
X283209283Y-130636599D02*
X283256902Y-130684218D01*
X283256902Y-130684218D02*
X283304521Y-130779456D01*
X283304521Y-130779456D02*
X283304521Y-131017551D01*
X283304521Y-131017551D02*
X283256902Y-131112789D01*
X283256902Y-131112789D02*
X283209283Y-131160409D01*
X283209283Y-131160409D02*
X283114045Y-131208028D01*
X283114045Y-131208028D02*
X282828331Y-131208028D01*
X282828331Y-131208028D02*
X282733093Y-131160409D01*
X282733093Y-131160409D02*
X282685474Y-131112789D01*
X284256902Y-131208028D02*
X283685474Y-131208028D01*
X283971188Y-131208028D02*
X283971188Y-130208028D01*
X283971188Y-130208028D02*
X283875950Y-130350885D01*
X283875950Y-130350885D02*
X283780712Y-130446123D01*
X283780712Y-130446123D02*
X283685474Y-130493742D01*
X173637855Y-168558328D02*
X173685474Y-168510709D01*
X173685474Y-168510709D02*
X173828331Y-168463089D01*
X173828331Y-168463089D02*
X173923569Y-168463089D01*
X173923569Y-168463089D02*
X174066426Y-168510709D01*
X174066426Y-168510709D02*
X174161664Y-168605947D01*
X174161664Y-168605947D02*
X174209283Y-168701185D01*
X174209283Y-168701185D02*
X174256902Y-168891661D01*
X174256902Y-168891661D02*
X174256902Y-169034518D01*
X174256902Y-169034518D02*
X174209283Y-169224994D01*
X174209283Y-169224994D02*
X174161664Y-169320232D01*
X174161664Y-169320232D02*
X174066426Y-169415470D01*
X174066426Y-169415470D02*
X173923569Y-169463089D01*
X173923569Y-169463089D02*
X173828331Y-169463089D01*
X173828331Y-169463089D02*
X173685474Y-169415470D01*
X173685474Y-169415470D02*
X173637855Y-169367851D01*
X172685474Y-168463089D02*
X173256902Y-168463089D01*
X172971188Y-168463089D02*
X172971188Y-169463089D01*
X172971188Y-169463089D02*
X173066426Y-169320232D01*
X173066426Y-169320232D02*
X173161664Y-169224994D01*
X173161664Y-169224994D02*
X173256902Y-169177375D01*
X172066426Y-169463089D02*
X171971188Y-169463089D01*
X171971188Y-169463089D02*
X171875950Y-169415470D01*
X171875950Y-169415470D02*
X171828331Y-169367851D01*
X171828331Y-169367851D02*
X171780712Y-169272613D01*
X171780712Y-169272613D02*
X171733093Y-169082137D01*
X171733093Y-169082137D02*
X171733093Y-168844042D01*
X171733093Y-168844042D02*
X171780712Y-168653566D01*
X171780712Y-168653566D02*
X171828331Y-168558328D01*
X171828331Y-168558328D02*
X171875950Y-168510709D01*
X171875950Y-168510709D02*
X171971188Y-168463089D01*
X171971188Y-168463089D02*
X172066426Y-168463089D01*
X172066426Y-168463089D02*
X172161664Y-168510709D01*
X172161664Y-168510709D02*
X172209283Y-168558328D01*
X172209283Y-168558328D02*
X172256902Y-168653566D01*
X172256902Y-168653566D02*
X172304521Y-168844042D01*
X172304521Y-168844042D02*
X172304521Y-169082137D01*
X172304521Y-169082137D02*
X172256902Y-169272613D01*
X172256902Y-169272613D02*
X172209283Y-169367851D01*
X172209283Y-169367851D02*
X172161664Y-169415470D01*
X172161664Y-169415470D02*
X172066426Y-169463089D01*
X437161664Y-168558328D02*
X437209283Y-168510709D01*
X437209283Y-168510709D02*
X437352140Y-168463089D01*
X437352140Y-168463089D02*
X437447378Y-168463089D01*
X437447378Y-168463089D02*
X437590235Y-168510709D01*
X437590235Y-168510709D02*
X437685473Y-168605947D01*
X437685473Y-168605947D02*
X437733092Y-168701185D01*
X437733092Y-168701185D02*
X437780711Y-168891661D01*
X437780711Y-168891661D02*
X437780711Y-169034518D01*
X437780711Y-169034518D02*
X437733092Y-169224994D01*
X437733092Y-169224994D02*
X437685473Y-169320232D01*
X437685473Y-169320232D02*
X437590235Y-169415470D01*
X437590235Y-169415470D02*
X437447378Y-169463089D01*
X437447378Y-169463089D02*
X437352140Y-169463089D01*
X437352140Y-169463089D02*
X437209283Y-169415470D01*
X437209283Y-169415470D02*
X437161664Y-169367851D01*
X436304521Y-169129756D02*
X436304521Y-168463089D01*
X436542616Y-169510709D02*
X436780711Y-168796423D01*
X436780711Y-168796423D02*
X436161664Y-168796423D01*
X458828331Y-131202939D02*
X458780712Y-131250559D01*
X458780712Y-131250559D02*
X458637855Y-131298178D01*
X458637855Y-131298178D02*
X458542617Y-131298178D01*
X458542617Y-131298178D02*
X458399760Y-131250559D01*
X458399760Y-131250559D02*
X458304522Y-131155320D01*
X458304522Y-131155320D02*
X458256903Y-131060082D01*
X458256903Y-131060082D02*
X458209284Y-130869606D01*
X458209284Y-130869606D02*
X458209284Y-130726749D01*
X458209284Y-130726749D02*
X458256903Y-130536273D01*
X458256903Y-130536273D02*
X458304522Y-130441035D01*
X458304522Y-130441035D02*
X458399760Y-130345797D01*
X458399760Y-130345797D02*
X458542617Y-130298178D01*
X458542617Y-130298178D02*
X458637855Y-130298178D01*
X458637855Y-130298178D02*
X458780712Y-130345797D01*
X458780712Y-130345797D02*
X458828331Y-130393416D01*
X459161665Y-130298178D02*
X459828331Y-130298178D01*
X459828331Y-130298178D02*
X459399760Y-131298178D01*
D13*
X518677619Y-151333333D02*
X518201428Y-151666666D01*
X518677619Y-151904761D02*
X517677619Y-151904761D01*
X517677619Y-151904761D02*
X517677619Y-151523809D01*
X517677619Y-151523809D02*
X517725238Y-151428571D01*
X517725238Y-151428571D02*
X517772857Y-151380952D01*
X517772857Y-151380952D02*
X517868095Y-151333333D01*
X517868095Y-151333333D02*
X518010952Y-151333333D01*
X518010952Y-151333333D02*
X518106190Y-151380952D01*
X518106190Y-151380952D02*
X518153809Y-151428571D01*
X518153809Y-151428571D02*
X518201428Y-151523809D01*
X518201428Y-151523809D02*
X518201428Y-151904761D01*
X518153809Y-150904761D02*
X518153809Y-150571428D01*
X518677619Y-150428571D02*
X518677619Y-150904761D01*
X518677619Y-150904761D02*
X517677619Y-150904761D01*
X517677619Y-150904761D02*
X517677619Y-150428571D01*
X518153809Y-149666666D02*
X518153809Y-149999999D01*
X518677619Y-149999999D02*
X517677619Y-149999999D01*
X517677619Y-149999999D02*
X517677619Y-149523809D01*
X517677619Y-148999999D02*
X517915714Y-148999999D01*
X517820476Y-149238094D02*
X517915714Y-148999999D01*
X517915714Y-148999999D02*
X517820476Y-148761904D01*
X518106190Y-149142856D02*
X517915714Y-148999999D01*
X517915714Y-148999999D02*
X518106190Y-148857142D01*
X517677619Y-148238094D02*
X517915714Y-148238094D01*
X517820476Y-148476189D02*
X517915714Y-148238094D01*
X517915714Y-148238094D02*
X517820476Y-147999999D01*
X518106190Y-148380951D02*
X517915714Y-148238094D01*
X517915714Y-148238094D02*
X518106190Y-148095237D01*
D12*
X150828331Y-131112789D02*
X150780712Y-131160409D01*
X150780712Y-131160409D02*
X150637855Y-131208028D01*
X150637855Y-131208028D02*
X150542617Y-131208028D01*
X150542617Y-131208028D02*
X150399760Y-131160409D01*
X150399760Y-131160409D02*
X150304522Y-131065170D01*
X150304522Y-131065170D02*
X150256903Y-130969932D01*
X150256903Y-130969932D02*
X150209284Y-130779456D01*
X150209284Y-130779456D02*
X150209284Y-130636599D01*
X150209284Y-130636599D02*
X150256903Y-130446123D01*
X150256903Y-130446123D02*
X150304522Y-130350885D01*
X150304522Y-130350885D02*
X150399760Y-130255647D01*
X150399760Y-130255647D02*
X150542617Y-130208028D01*
X150542617Y-130208028D02*
X150637855Y-130208028D01*
X150637855Y-130208028D02*
X150780712Y-130255647D01*
X150780712Y-130255647D02*
X150828331Y-130303266D01*
X151304522Y-131208028D02*
X151494998Y-131208028D01*
X151494998Y-131208028D02*
X151590236Y-131160409D01*
X151590236Y-131160409D02*
X151637855Y-131112789D01*
X151637855Y-131112789D02*
X151733093Y-130969932D01*
X151733093Y-130969932D02*
X151780712Y-130779456D01*
X151780712Y-130779456D02*
X151780712Y-130398504D01*
X151780712Y-130398504D02*
X151733093Y-130303266D01*
X151733093Y-130303266D02*
X151685474Y-130255647D01*
X151685474Y-130255647D02*
X151590236Y-130208028D01*
X151590236Y-130208028D02*
X151399760Y-130208028D01*
X151399760Y-130208028D02*
X151304522Y-130255647D01*
X151304522Y-130255647D02*
X151256903Y-130303266D01*
X151256903Y-130303266D02*
X151209284Y-130398504D01*
X151209284Y-130398504D02*
X151209284Y-130636599D01*
X151209284Y-130636599D02*
X151256903Y-130731837D01*
X151256903Y-130731837D02*
X151304522Y-130779456D01*
X151304522Y-130779456D02*
X151399760Y-130827075D01*
X151399760Y-130827075D02*
X151590236Y-130827075D01*
X151590236Y-130827075D02*
X151685474Y-130779456D01*
X151685474Y-130779456D02*
X151733093Y-130731837D01*
X151733093Y-130731837D02*
X151780712Y-130636599D01*
X326828331Y-131112789D02*
X326780712Y-131160409D01*
X326780712Y-131160409D02*
X326637855Y-131208028D01*
X326637855Y-131208028D02*
X326542617Y-131208028D01*
X326542617Y-131208028D02*
X326399760Y-131160409D01*
X326399760Y-131160409D02*
X326304522Y-131065170D01*
X326304522Y-131065170D02*
X326256903Y-130969932D01*
X326256903Y-130969932D02*
X326209284Y-130779456D01*
X326209284Y-130779456D02*
X326209284Y-130636599D01*
X326209284Y-130636599D02*
X326256903Y-130446123D01*
X326256903Y-130446123D02*
X326304522Y-130350885D01*
X326304522Y-130350885D02*
X326399760Y-130255647D01*
X326399760Y-130255647D02*
X326542617Y-130208028D01*
X326542617Y-130208028D02*
X326637855Y-130208028D01*
X326637855Y-130208028D02*
X326780712Y-130255647D01*
X326780712Y-130255647D02*
X326828331Y-130303266D01*
X327780712Y-131208028D02*
X327209284Y-131208028D01*
X327494998Y-131208028D02*
X327494998Y-130208028D01*
X327494998Y-130208028D02*
X327399760Y-130350885D01*
X327399760Y-130350885D02*
X327304522Y-130446123D01*
X327304522Y-130446123D02*
X327209284Y-130493742D01*
X393161664Y-168468178D02*
X393209283Y-168420559D01*
X393209283Y-168420559D02*
X393352140Y-168372939D01*
X393352140Y-168372939D02*
X393447378Y-168372939D01*
X393447378Y-168372939D02*
X393590235Y-168420559D01*
X393590235Y-168420559D02*
X393685473Y-168515797D01*
X393685473Y-168515797D02*
X393733092Y-168611035D01*
X393733092Y-168611035D02*
X393780711Y-168801511D01*
X393780711Y-168801511D02*
X393780711Y-168944368D01*
X393780711Y-168944368D02*
X393733092Y-169134844D01*
X393733092Y-169134844D02*
X393685473Y-169230082D01*
X393685473Y-169230082D02*
X393590235Y-169325320D01*
X393590235Y-169325320D02*
X393447378Y-169372939D01*
X393447378Y-169372939D02*
X393352140Y-169372939D01*
X393352140Y-169372939D02*
X393209283Y-169325320D01*
X393209283Y-169325320D02*
X393161664Y-169277701D01*
X392828330Y-169372939D02*
X392209283Y-169372939D01*
X392209283Y-169372939D02*
X392542616Y-168991987D01*
X392542616Y-168991987D02*
X392399759Y-168991987D01*
X392399759Y-168991987D02*
X392304521Y-168944368D01*
X392304521Y-168944368D02*
X392256902Y-168896749D01*
X392256902Y-168896749D02*
X392209283Y-168801511D01*
X392209283Y-168801511D02*
X392209283Y-168563416D01*
X392209283Y-168563416D02*
X392256902Y-168468178D01*
X392256902Y-168468178D02*
X392304521Y-168420559D01*
X392304521Y-168420559D02*
X392399759Y-168372939D01*
X392399759Y-168372939D02*
X392685473Y-168372939D01*
X392685473Y-168372939D02*
X392780711Y-168420559D01*
X392780711Y-168420559D02*
X392828330Y-168468178D01*
X370828331Y-131202939D02*
X370780712Y-131250559D01*
X370780712Y-131250559D02*
X370637855Y-131298178D01*
X370637855Y-131298178D02*
X370542617Y-131298178D01*
X370542617Y-131298178D02*
X370399760Y-131250559D01*
X370399760Y-131250559D02*
X370304522Y-131155320D01*
X370304522Y-131155320D02*
X370256903Y-131060082D01*
X370256903Y-131060082D02*
X370209284Y-130869606D01*
X370209284Y-130869606D02*
X370209284Y-130726749D01*
X370209284Y-130726749D02*
X370256903Y-130536273D01*
X370256903Y-130536273D02*
X370304522Y-130441035D01*
X370304522Y-130441035D02*
X370399760Y-130345797D01*
X370399760Y-130345797D02*
X370542617Y-130298178D01*
X370542617Y-130298178D02*
X370637855Y-130298178D01*
X370637855Y-130298178D02*
X370780712Y-130345797D01*
X370780712Y-130345797D02*
X370828331Y-130393416D01*
X371733093Y-130298178D02*
X371256903Y-130298178D01*
X371256903Y-130298178D02*
X371209284Y-130774368D01*
X371209284Y-130774368D02*
X371256903Y-130726749D01*
X371256903Y-130726749D02*
X371352141Y-130679130D01*
X371352141Y-130679130D02*
X371590236Y-130679130D01*
X371590236Y-130679130D02*
X371685474Y-130726749D01*
X371685474Y-130726749D02*
X371733093Y-130774368D01*
X371733093Y-130774368D02*
X371780712Y-130869606D01*
X371780712Y-130869606D02*
X371780712Y-131107701D01*
X371780712Y-131107701D02*
X371733093Y-131202939D01*
X371733093Y-131202939D02*
X371685474Y-131250559D01*
X371685474Y-131250559D02*
X371590236Y-131298178D01*
X371590236Y-131298178D02*
X371352141Y-131298178D01*
X371352141Y-131298178D02*
X371256903Y-131250559D01*
X371256903Y-131250559D02*
X371209284Y-131202939D01*
X238352140Y-131112789D02*
X238304521Y-131160409D01*
X238304521Y-131160409D02*
X238161664Y-131208028D01*
X238161664Y-131208028D02*
X238066426Y-131208028D01*
X238066426Y-131208028D02*
X237923569Y-131160409D01*
X237923569Y-131160409D02*
X237828331Y-131065170D01*
X237828331Y-131065170D02*
X237780712Y-130969932D01*
X237780712Y-130969932D02*
X237733093Y-130779456D01*
X237733093Y-130779456D02*
X237733093Y-130636599D01*
X237733093Y-130636599D02*
X237780712Y-130446123D01*
X237780712Y-130446123D02*
X237828331Y-130350885D01*
X237828331Y-130350885D02*
X237923569Y-130255647D01*
X237923569Y-130255647D02*
X238066426Y-130208028D01*
X238066426Y-130208028D02*
X238161664Y-130208028D01*
X238161664Y-130208028D02*
X238304521Y-130255647D01*
X238304521Y-130255647D02*
X238352140Y-130303266D01*
X239304521Y-131208028D02*
X238733093Y-131208028D01*
X239018807Y-131208028D02*
X239018807Y-130208028D01*
X239018807Y-130208028D02*
X238923569Y-130350885D01*
X238923569Y-130350885D02*
X238828331Y-130446123D01*
X238828331Y-130446123D02*
X238733093Y-130493742D01*
X239637855Y-130208028D02*
X240256902Y-130208028D01*
X240256902Y-130208028D02*
X239923569Y-130588980D01*
X239923569Y-130588980D02*
X240066426Y-130588980D01*
X240066426Y-130588980D02*
X240161664Y-130636599D01*
X240161664Y-130636599D02*
X240209283Y-130684218D01*
X240209283Y-130684218D02*
X240256902Y-130779456D01*
X240256902Y-130779456D02*
X240256902Y-131017551D01*
X240256902Y-131017551D02*
X240209283Y-131112789D01*
X240209283Y-131112789D02*
X240161664Y-131160409D01*
X240161664Y-131160409D02*
X240066426Y-131208028D01*
X240066426Y-131208028D02*
X239780712Y-131208028D01*
X239780712Y-131208028D02*
X239685474Y-131160409D01*
X239685474Y-131160409D02*
X239637855Y-131112789D01*
X481161664Y-168558328D02*
X481209283Y-168510709D01*
X481209283Y-168510709D02*
X481352140Y-168463089D01*
X481352140Y-168463089D02*
X481447378Y-168463089D01*
X481447378Y-168463089D02*
X481590235Y-168510709D01*
X481590235Y-168510709D02*
X481685473Y-168605947D01*
X481685473Y-168605947D02*
X481733092Y-168701185D01*
X481733092Y-168701185D02*
X481780711Y-168891661D01*
X481780711Y-168891661D02*
X481780711Y-169034518D01*
X481780711Y-169034518D02*
X481733092Y-169224994D01*
X481733092Y-169224994D02*
X481685473Y-169320232D01*
X481685473Y-169320232D02*
X481590235Y-169415470D01*
X481590235Y-169415470D02*
X481447378Y-169463089D01*
X481447378Y-169463089D02*
X481352140Y-169463089D01*
X481352140Y-169463089D02*
X481209283Y-169415470D01*
X481209283Y-169415470D02*
X481161664Y-169367851D01*
X480590235Y-169034518D02*
X480685473Y-169082137D01*
X480685473Y-169082137D02*
X480733092Y-169129756D01*
X480733092Y-169129756D02*
X480780711Y-169224994D01*
X480780711Y-169224994D02*
X480780711Y-169272613D01*
X480780711Y-169272613D02*
X480733092Y-169367851D01*
X480733092Y-169367851D02*
X480685473Y-169415470D01*
X480685473Y-169415470D02*
X480590235Y-169463089D01*
X480590235Y-169463089D02*
X480399759Y-169463089D01*
X480399759Y-169463089D02*
X480304521Y-169415470D01*
X480304521Y-169415470D02*
X480256902Y-169367851D01*
X480256902Y-169367851D02*
X480209283Y-169272613D01*
X480209283Y-169272613D02*
X480209283Y-169224994D01*
X480209283Y-169224994D02*
X480256902Y-169129756D01*
X480256902Y-169129756D02*
X480304521Y-169082137D01*
X480304521Y-169082137D02*
X480399759Y-169034518D01*
X480399759Y-169034518D02*
X480590235Y-169034518D01*
X480590235Y-169034518D02*
X480685473Y-168986899D01*
X480685473Y-168986899D02*
X480733092Y-168939280D01*
X480733092Y-168939280D02*
X480780711Y-168844042D01*
X480780711Y-168844042D02*
X480780711Y-168653566D01*
X480780711Y-168653566D02*
X480733092Y-168558328D01*
X480733092Y-168558328D02*
X480685473Y-168510709D01*
X480685473Y-168510709D02*
X480590235Y-168463089D01*
X480590235Y-168463089D02*
X480399759Y-168463089D01*
X480399759Y-168463089D02*
X480304521Y-168510709D01*
X480304521Y-168510709D02*
X480256902Y-168558328D01*
X480256902Y-168558328D02*
X480209283Y-168653566D01*
X480209283Y-168653566D02*
X480209283Y-168844042D01*
X480209283Y-168844042D02*
X480256902Y-168939280D01*
X480256902Y-168939280D02*
X480304521Y-168986899D01*
X480304521Y-168986899D02*
X480399759Y-169034518D01*
X305637855Y-168558328D02*
X305685474Y-168510709D01*
X305685474Y-168510709D02*
X305828331Y-168463089D01*
X305828331Y-168463089D02*
X305923569Y-168463089D01*
X305923569Y-168463089D02*
X306066426Y-168510709D01*
X306066426Y-168510709D02*
X306161664Y-168605947D01*
X306161664Y-168605947D02*
X306209283Y-168701185D01*
X306209283Y-168701185D02*
X306256902Y-168891661D01*
X306256902Y-168891661D02*
X306256902Y-169034518D01*
X306256902Y-169034518D02*
X306209283Y-169224994D01*
X306209283Y-169224994D02*
X306161664Y-169320232D01*
X306161664Y-169320232D02*
X306066426Y-169415470D01*
X306066426Y-169415470D02*
X305923569Y-169463089D01*
X305923569Y-169463089D02*
X305828331Y-169463089D01*
X305828331Y-169463089D02*
X305685474Y-169415470D01*
X305685474Y-169415470D02*
X305637855Y-169367851D01*
X305304521Y-169463089D02*
X304685474Y-169463089D01*
X304685474Y-169463089D02*
X305018807Y-169082137D01*
X305018807Y-169082137D02*
X304875950Y-169082137D01*
X304875950Y-169082137D02*
X304780712Y-169034518D01*
X304780712Y-169034518D02*
X304733093Y-168986899D01*
X304733093Y-168986899D02*
X304685474Y-168891661D01*
X304685474Y-168891661D02*
X304685474Y-168653566D01*
X304685474Y-168653566D02*
X304733093Y-168558328D01*
X304733093Y-168558328D02*
X304780712Y-168510709D01*
X304780712Y-168510709D02*
X304875950Y-168463089D01*
X304875950Y-168463089D02*
X305161664Y-168463089D01*
X305161664Y-168463089D02*
X305256902Y-168510709D01*
X305256902Y-168510709D02*
X305304521Y-168558328D01*
X304304521Y-169367851D02*
X304256902Y-169415470D01*
X304256902Y-169415470D02*
X304161664Y-169463089D01*
X304161664Y-169463089D02*
X303923569Y-169463089D01*
X303923569Y-169463089D02*
X303828331Y-169415470D01*
X303828331Y-169415470D02*
X303780712Y-169367851D01*
X303780712Y-169367851D02*
X303733093Y-169272613D01*
X303733093Y-169272613D02*
X303733093Y-169177375D01*
X303733093Y-169177375D02*
X303780712Y-169034518D01*
X303780712Y-169034518D02*
X304352140Y-168463089D01*
X304352140Y-168463089D02*
X303733093Y-168463089D01*
X261637855Y-168558328D02*
X261685474Y-168510709D01*
X261685474Y-168510709D02*
X261828331Y-168463089D01*
X261828331Y-168463089D02*
X261923569Y-168463089D01*
X261923569Y-168463089D02*
X262066426Y-168510709D01*
X262066426Y-168510709D02*
X262161664Y-168605947D01*
X262161664Y-168605947D02*
X262209283Y-168701185D01*
X262209283Y-168701185D02*
X262256902Y-168891661D01*
X262256902Y-168891661D02*
X262256902Y-169034518D01*
X262256902Y-169034518D02*
X262209283Y-169224994D01*
X262209283Y-169224994D02*
X262161664Y-169320232D01*
X262161664Y-169320232D02*
X262066426Y-169415470D01*
X262066426Y-169415470D02*
X261923569Y-169463089D01*
X261923569Y-169463089D02*
X261828331Y-169463089D01*
X261828331Y-169463089D02*
X261685474Y-169415470D01*
X261685474Y-169415470D02*
X261637855Y-169367851D01*
X260685474Y-168463089D02*
X261256902Y-168463089D01*
X260971188Y-168463089D02*
X260971188Y-169463089D01*
X260971188Y-169463089D02*
X261066426Y-169320232D01*
X261066426Y-169320232D02*
X261161664Y-169224994D01*
X261161664Y-169224994D02*
X261256902Y-169177375D01*
X259828331Y-169129756D02*
X259828331Y-168463089D01*
X260066426Y-169510709D02*
X260304521Y-168796423D01*
X260304521Y-168796423D02*
X259685474Y-168796423D01*
X194352140Y-131112789D02*
X194304521Y-131160409D01*
X194304521Y-131160409D02*
X194161664Y-131208028D01*
X194161664Y-131208028D02*
X194066426Y-131208028D01*
X194066426Y-131208028D02*
X193923569Y-131160409D01*
X193923569Y-131160409D02*
X193828331Y-131065170D01*
X193828331Y-131065170D02*
X193780712Y-130969932D01*
X193780712Y-130969932D02*
X193733093Y-130779456D01*
X193733093Y-130779456D02*
X193733093Y-130636599D01*
X193733093Y-130636599D02*
X193780712Y-130446123D01*
X193780712Y-130446123D02*
X193828331Y-130350885D01*
X193828331Y-130350885D02*
X193923569Y-130255647D01*
X193923569Y-130255647D02*
X194066426Y-130208028D01*
X194066426Y-130208028D02*
X194161664Y-130208028D01*
X194161664Y-130208028D02*
X194304521Y-130255647D01*
X194304521Y-130255647D02*
X194352140Y-130303266D01*
X195304521Y-131208028D02*
X194733093Y-131208028D01*
X195018807Y-131208028D02*
X195018807Y-130208028D01*
X195018807Y-130208028D02*
X194923569Y-130350885D01*
X194923569Y-130350885D02*
X194828331Y-130446123D01*
X194828331Y-130446123D02*
X194733093Y-130493742D01*
X196256902Y-131208028D02*
X195685474Y-131208028D01*
X195971188Y-131208028D02*
X195971188Y-130208028D01*
X195971188Y-130208028D02*
X195875950Y-130350885D01*
X195875950Y-130350885D02*
X195780712Y-130446123D01*
X195780712Y-130446123D02*
X195685474Y-130493742D01*
X349161664Y-168558328D02*
X349209283Y-168510709D01*
X349209283Y-168510709D02*
X349352140Y-168463089D01*
X349352140Y-168463089D02*
X349447378Y-168463089D01*
X349447378Y-168463089D02*
X349590235Y-168510709D01*
X349590235Y-168510709D02*
X349685473Y-168605947D01*
X349685473Y-168605947D02*
X349733092Y-168701185D01*
X349733092Y-168701185D02*
X349780711Y-168891661D01*
X349780711Y-168891661D02*
X349780711Y-169034518D01*
X349780711Y-169034518D02*
X349733092Y-169224994D01*
X349733092Y-169224994D02*
X349685473Y-169320232D01*
X349685473Y-169320232D02*
X349590235Y-169415470D01*
X349590235Y-169415470D02*
X349447378Y-169463089D01*
X349447378Y-169463089D02*
X349352140Y-169463089D01*
X349352140Y-169463089D02*
X349209283Y-169415470D01*
X349209283Y-169415470D02*
X349161664Y-169367851D01*
X348780711Y-169367851D02*
X348733092Y-169415470D01*
X348733092Y-169415470D02*
X348637854Y-169463089D01*
X348637854Y-169463089D02*
X348399759Y-169463089D01*
X348399759Y-169463089D02*
X348304521Y-169415470D01*
X348304521Y-169415470D02*
X348256902Y-169367851D01*
X348256902Y-169367851D02*
X348209283Y-169272613D01*
X348209283Y-169272613D02*
X348209283Y-169177375D01*
X348209283Y-169177375D02*
X348256902Y-169034518D01*
X348256902Y-169034518D02*
X348828330Y-168463089D01*
X348828330Y-168463089D02*
X348209283Y-168463089D01*
X414828331Y-131202939D02*
X414780712Y-131250559D01*
X414780712Y-131250559D02*
X414637855Y-131298178D01*
X414637855Y-131298178D02*
X414542617Y-131298178D01*
X414542617Y-131298178D02*
X414399760Y-131250559D01*
X414399760Y-131250559D02*
X414304522Y-131155320D01*
X414304522Y-131155320D02*
X414256903Y-131060082D01*
X414256903Y-131060082D02*
X414209284Y-130869606D01*
X414209284Y-130869606D02*
X414209284Y-130726749D01*
X414209284Y-130726749D02*
X414256903Y-130536273D01*
X414256903Y-130536273D02*
X414304522Y-130441035D01*
X414304522Y-130441035D02*
X414399760Y-130345797D01*
X414399760Y-130345797D02*
X414542617Y-130298178D01*
X414542617Y-130298178D02*
X414637855Y-130298178D01*
X414637855Y-130298178D02*
X414780712Y-130345797D01*
X414780712Y-130345797D02*
X414828331Y-130393416D01*
X415685474Y-130298178D02*
X415494998Y-130298178D01*
X415494998Y-130298178D02*
X415399760Y-130345797D01*
X415399760Y-130345797D02*
X415352141Y-130393416D01*
X415352141Y-130393416D02*
X415256903Y-130536273D01*
X415256903Y-130536273D02*
X415209284Y-130726749D01*
X415209284Y-130726749D02*
X415209284Y-131107701D01*
X415209284Y-131107701D02*
X415256903Y-131202939D01*
X415256903Y-131202939D02*
X415304522Y-131250559D01*
X415304522Y-131250559D02*
X415399760Y-131298178D01*
X415399760Y-131298178D02*
X415590236Y-131298178D01*
X415590236Y-131298178D02*
X415685474Y-131250559D01*
X415685474Y-131250559D02*
X415733093Y-131202939D01*
X415733093Y-131202939D02*
X415780712Y-131107701D01*
X415780712Y-131107701D02*
X415780712Y-130869606D01*
X415780712Y-130869606D02*
X415733093Y-130774368D01*
X415733093Y-130774368D02*
X415685474Y-130726749D01*
X415685474Y-130726749D02*
X415590236Y-130679130D01*
X415590236Y-130679130D02*
X415399760Y-130679130D01*
X415399760Y-130679130D02*
X415304522Y-130726749D01*
X415304522Y-130726749D02*
X415256903Y-130774368D01*
X415256903Y-130774368D02*
X415209284Y-130869606D01*
D14*
X508862960Y-188059105D02*
X508911837Y-188108880D01*
X508942004Y-188194350D01*
X508953719Y-188313363D01*
X508947238Y-188463766D01*
X508922820Y-188643408D01*
X508880721Y-188850137D01*
X508821198Y-189081801D01*
X508744510Y-189336249D01*
X508690981Y-189497166D01*
X508587776Y-189778606D01*
X508483101Y-190024164D01*
X508373550Y-190240245D01*
X508255720Y-190433257D01*
X508126206Y-190609605D01*
X508054017Y-190695810D01*
X507940756Y-190825538D01*
X508044819Y-191011176D01*
X508137854Y-191160262D01*
X508233090Y-191281367D01*
X508327147Y-191371237D01*
X508416648Y-191426615D01*
X508494407Y-191444312D01*
X508537047Y-191428999D01*
X508599722Y-191386670D01*
X508670083Y-191326823D01*
X508858568Y-191155092D01*
X509019512Y-191013634D01*
X509154047Y-190901576D01*
X509263303Y-190818045D01*
X509348411Y-190762168D01*
X509410502Y-190733073D01*
X509445076Y-190728592D01*
X509497479Y-190748416D01*
X509524620Y-190791292D01*
X509527696Y-190861670D01*
X509508172Y-190962958D01*
X509490890Y-191033457D01*
X509479899Y-191084502D01*
X509477413Y-191105731D01*
X509477617Y-191105833D01*
X509499842Y-191095276D01*
X509550711Y-191066506D01*
X509623047Y-191023870D01*
X509709676Y-190971717D01*
X509803421Y-190914398D01*
X509897107Y-190856259D01*
X509983557Y-190801651D01*
X510043702Y-190762761D01*
X510146947Y-190697995D01*
X510261726Y-190630678D01*
X510368859Y-190571920D01*
X510406193Y-190552845D01*
X510492363Y-190511672D01*
X510550514Y-190488690D01*
X510589546Y-190481371D01*
X510618355Y-190487186D01*
X510625365Y-190490589D01*
X510660342Y-190520049D01*
X510665312Y-190558100D01*
X510638645Y-190608623D01*
X510578711Y-190675501D01*
X510527458Y-190723864D01*
X510360074Y-190888548D01*
X510229448Y-191045978D01*
X510131752Y-191200925D01*
X510110302Y-191243416D01*
X510075715Y-191323487D01*
X510044527Y-191409420D01*
X510019658Y-191491146D01*
X510004028Y-191558594D01*
X510000560Y-191601695D01*
X510003821Y-191610543D01*
X510016190Y-191609321D01*
X510046629Y-191595994D01*
X510098003Y-191568938D01*
X510173175Y-191526528D01*
X510275010Y-191467138D01*
X510406372Y-191389144D01*
X510570124Y-191290920D01*
X510618287Y-191261911D01*
X510775645Y-191168894D01*
X510935099Y-191077965D01*
X511091237Y-190991938D01*
X511238646Y-190913625D01*
X511371914Y-190845839D01*
X511485631Y-190791393D01*
X511574384Y-190753098D01*
X511632761Y-190733768D01*
X511635662Y-190733181D01*
X511686858Y-190730323D01*
X511712178Y-190749810D01*
X511714961Y-190756080D01*
X511719015Y-190790775D01*
X511703919Y-190833707D01*
X511666202Y-190890653D01*
X511602394Y-190967391D01*
X511559154Y-191015499D01*
X511442490Y-191160817D01*
X511356176Y-191306392D01*
X511303633Y-191445815D01*
X511290190Y-191519253D01*
X511278244Y-191635000D01*
X511344664Y-191635000D01*
X511399304Y-191622453D01*
X511482775Y-191584326D01*
X511596609Y-191519885D01*
X511638667Y-191494224D01*
X511831005Y-191375550D01*
X511991132Y-191277509D01*
X512122593Y-191198068D01*
X512228932Y-191135196D01*
X512313693Y-191086860D01*
X512380422Y-191051029D01*
X512432663Y-191025671D01*
X512473959Y-191008754D01*
X512500360Y-191000249D01*
X512562145Y-190984467D01*
X512598245Y-190983183D01*
X512623502Y-190998653D01*
X512643806Y-191022051D01*
X512664148Y-191054651D01*
X512674902Y-191095281D01*
X512675776Y-191150953D01*
X512666482Y-191228682D01*
X512646729Y-191335482D01*
X512626996Y-191429120D01*
X512606990Y-191532111D01*
X512601103Y-191603387D01*
X512611362Y-191651802D01*
X512639791Y-191686210D01*
X512688415Y-191715463D01*
X512693003Y-191717730D01*
X512734854Y-191732967D01*
X512784093Y-191737138D01*
X512854115Y-191730588D01*
X512902717Y-191723138D01*
X513136551Y-191693007D01*
X513399934Y-191673452D01*
X513681320Y-191664880D01*
X513969164Y-191667696D01*
X514188857Y-191677938D01*
X514356920Y-191687903D01*
X514545851Y-191697830D01*
X514738418Y-191706892D01*
X514917387Y-191714264D01*
X515019841Y-191717806D01*
X515160622Y-191722503D01*
X515264666Y-191727075D01*
X515337564Y-191732199D01*
X515384906Y-191738551D01*
X515412282Y-191746806D01*
X515425281Y-191757642D01*
X515428852Y-191767291D01*
X515428397Y-191782064D01*
X515416215Y-191792301D01*
X515386015Y-191798816D01*
X515331506Y-191802421D01*
X515246396Y-191803928D01*
X515143344Y-191804165D01*
X515023739Y-191802368D01*
X514875645Y-191797496D01*
X514712745Y-191790147D01*
X514548723Y-191780925D01*
X514427417Y-191772715D01*
X514083396Y-191752171D01*
X513768615Y-191743383D01*
X513486760Y-191746378D01*
X513241521Y-191761188D01*
X513220917Y-191763145D01*
X513098105Y-191774404D01*
X512960424Y-191785783D01*
X512833028Y-191795228D01*
X512804249Y-191797143D01*
X512599248Y-191810337D01*
X512534374Y-191745463D01*
X512497189Y-191699679D01*
X512476037Y-191647710D01*
X512470473Y-191581589D01*
X512480056Y-191493346D01*
X512504342Y-191375014D01*
X512511981Y-191342617D01*
X512531650Y-191253527D01*
X512546427Y-191173181D01*
X512553781Y-191115764D01*
X512554167Y-191105970D01*
X512550366Y-191064181D01*
X512530216Y-191054217D01*
X512494722Y-191062337D01*
X512460483Y-191073394D01*
X512422787Y-191088768D01*
X512377100Y-191111033D01*
X512318892Y-191142762D01*
X512243629Y-191186530D01*
X512146779Y-191244909D01*
X512023811Y-191320473D01*
X511870192Y-191415796D01*
X511848267Y-191429442D01*
X511687579Y-191528307D01*
X511557678Y-191604959D01*
X511454329Y-191660964D01*
X511373296Y-191697891D01*
X511310344Y-191717308D01*
X511261237Y-191720781D01*
X511221741Y-191709880D01*
X511187620Y-191686172D01*
X511178400Y-191677399D01*
X511150493Y-191642944D01*
X511139536Y-191603912D01*
X511142043Y-191544173D01*
X511144691Y-191521467D01*
X511169917Y-191415874D01*
X511218090Y-191293817D01*
X511282528Y-191169070D01*
X511356547Y-191055405D01*
X511393291Y-191009091D01*
X511461415Y-190929713D01*
X511504934Y-190878149D01*
X511526369Y-190849710D01*
X511528241Y-190839711D01*
X511513071Y-190843463D01*
X511483381Y-190856279D01*
X511473078Y-190860738D01*
X511400415Y-190894931D01*
X511298313Y-190947331D01*
X511173496Y-191014145D01*
X511032692Y-191091576D01*
X510882626Y-191175831D01*
X510730025Y-191263113D01*
X510581614Y-191349628D01*
X510444120Y-191431581D01*
X510324269Y-191505176D01*
X510270998Y-191538983D01*
X510153994Y-191612573D01*
X510065348Y-191663465D01*
X509999311Y-191694038D01*
X509950135Y-191706672D01*
X509912072Y-191703748D01*
X509892516Y-191695698D01*
X509860293Y-191673335D01*
X509848186Y-191643103D01*
X509851158Y-191589708D01*
X509853000Y-191575765D01*
X509879962Y-191452531D01*
X509926145Y-191314258D01*
X509984582Y-191179167D01*
X510047945Y-191066022D01*
X510095406Y-191002138D01*
X510163754Y-190920422D01*
X510243189Y-190832209D01*
X510310825Y-190761875D01*
X510380030Y-190691536D01*
X510435540Y-190633474D01*
X510472067Y-190593345D01*
X510484321Y-190576805D01*
X510484022Y-190576666D01*
X510456514Y-190587235D01*
X510401009Y-190615950D01*
X510325290Y-190658327D01*
X510237136Y-190709882D01*
X510144328Y-190766129D01*
X510054646Y-190822583D01*
X510032532Y-190836918D01*
X509956343Y-190885841D01*
X509865649Y-190942830D01*
X509768058Y-191003251D01*
X509671179Y-191062473D01*
X509582619Y-191115862D01*
X509509987Y-191158787D01*
X509460892Y-191186614D01*
X509445700Y-191194217D01*
X509432643Y-191215434D01*
X509408019Y-191269289D01*
X509374849Y-191348677D01*
X509336155Y-191446496D01*
X509316694Y-191497416D01*
X509186775Y-191814540D01*
X509045763Y-192103589D01*
X508886425Y-192377324D01*
X508701524Y-192648509D01*
X508554712Y-192841500D01*
X508479159Y-192932143D01*
X508381684Y-193041425D01*
X508267330Y-193164339D01*
X508141140Y-193295878D01*
X508008155Y-193431035D01*
X507873418Y-193564804D01*
X507741970Y-193692178D01*
X507618855Y-193808150D01*
X507509115Y-193907714D01*
X507417791Y-193985862D01*
X507350650Y-194037096D01*
X507272415Y-194088661D01*
X507213914Y-194120599D01*
X507160676Y-194138227D01*
X507098227Y-194146857D01*
X507042265Y-194150342D01*
X506962503Y-194153473D01*
X506913441Y-194150776D01*
X506883531Y-194139104D01*
X506861226Y-194115309D01*
X506849225Y-194097745D01*
X506812105Y-194007544D01*
X506800261Y-193900642D01*
X506861948Y-193900642D01*
X506863437Y-193972843D01*
X506868598Y-194014546D01*
X506882783Y-194049438D01*
X506910897Y-194065252D01*
X506966529Y-194069154D01*
X506972175Y-194069166D01*
X507055074Y-194057623D01*
X507137934Y-194028724D01*
X507146397Y-194024439D01*
X507207545Y-193988368D01*
X507275506Y-193940534D01*
X507354065Y-193877649D01*
X507447009Y-193796425D01*
X507558124Y-193693572D01*
X507691195Y-193565802D01*
X507821335Y-193438174D01*
X508078199Y-193176934D01*
X508302219Y-192931788D01*
X508497071Y-192697419D01*
X508666426Y-192468507D01*
X508813960Y-192239730D01*
X508943345Y-192005771D01*
X509058257Y-191761309D01*
X509162368Y-191501024D01*
X509166093Y-191490933D01*
X509192159Y-191414461D01*
X509206979Y-191358933D01*
X509208778Y-191331751D01*
X509204448Y-191330975D01*
X509117414Y-191385119D01*
X509007451Y-191456269D01*
X508881026Y-191539982D01*
X508744611Y-191631811D01*
X508604673Y-191727314D01*
X508467682Y-191822044D01*
X508340108Y-191911557D01*
X508228420Y-191991408D01*
X508139086Y-192057154D01*
X508078576Y-192104348D01*
X508077417Y-192105312D01*
X507885457Y-192275442D01*
X507700892Y-192458619D01*
X507526837Y-192650438D01*
X507366404Y-192846495D01*
X507222711Y-193042388D01*
X507098871Y-193233712D01*
X506998000Y-193416063D01*
X506923212Y-193585039D01*
X506877623Y-193736236D01*
X506865414Y-193818754D01*
X506861948Y-193900642D01*
X506800261Y-193900642D01*
X506799324Y-193892193D01*
X506810956Y-193761230D01*
X506845621Y-193628337D01*
X506928216Y-193431710D01*
X507042810Y-193220003D01*
X507184763Y-192999335D01*
X507349432Y-192775828D01*
X507532175Y-192555602D01*
X507728352Y-192344779D01*
X507933319Y-192149479D01*
X508031198Y-192064936D01*
X508093243Y-192016346D01*
X508184365Y-191949234D01*
X508298073Y-191868032D01*
X508427875Y-191777173D01*
X508567279Y-191681093D01*
X508709796Y-191584225D01*
X508848933Y-191491001D01*
X508978200Y-191405857D01*
X509091104Y-191333226D01*
X509181156Y-191277542D01*
X509201889Y-191265302D01*
X509263440Y-191208168D01*
X509310728Y-191118711D01*
X509340396Y-191037423D01*
X509366688Y-190954518D01*
X509386803Y-190880328D01*
X509397941Y-190825183D01*
X509397303Y-190799414D01*
X509397279Y-190799390D01*
X509374890Y-190805451D01*
X509326232Y-190836300D01*
X509256139Y-190888007D01*
X509169442Y-190956640D01*
X509070976Y-191038270D01*
X508965574Y-191128967D01*
X508858069Y-191224799D01*
X508753295Y-191321837D01*
X508744167Y-191330494D01*
X508672606Y-191396602D01*
X508607729Y-191453152D01*
X508558450Y-191492545D01*
X508539183Y-191505257D01*
X508447193Y-191530313D01*
X508348513Y-191516003D01*
X508245835Y-191464242D01*
X508141851Y-191376945D01*
X508039256Y-191256025D01*
X507940740Y-191103399D01*
X507919140Y-191064380D01*
X507828558Y-190896082D01*
X507746680Y-190937853D01*
X507624865Y-190984243D01*
X507517176Y-190992452D01*
X507425361Y-190962394D01*
X507412569Y-190954240D01*
X507346614Y-190889295D01*
X507305478Y-190799582D01*
X507287629Y-190680542D01*
X507287880Y-190583297D01*
X507289147Y-190573235D01*
X507330680Y-190573235D01*
X507336491Y-190645987D01*
X507342708Y-190689509D01*
X507367371Y-190799910D01*
X507404094Y-190871111D01*
X507457127Y-190905348D01*
X507530721Y-190904863D01*
X507629128Y-190871893D01*
X507661319Y-190857329D01*
X507711203Y-190827662D01*
X507741501Y-190798259D01*
X507743407Y-190794413D01*
X507738119Y-190758054D01*
X507709000Y-190700775D01*
X507662762Y-190630969D01*
X507606116Y-190557029D01*
X507545775Y-190487349D01*
X507488451Y-190430321D01*
X507440856Y-190394338D01*
X507416923Y-190386166D01*
X507390814Y-190403969D01*
X507361858Y-190448384D01*
X507353937Y-190465541D01*
X507336230Y-190518390D01*
X507330680Y-190573235D01*
X507289147Y-190573235D01*
X507302590Y-190466507D01*
X507335418Y-190386028D01*
X507388327Y-190339042D01*
X507463276Y-190322732D01*
X507469297Y-190322666D01*
X507539791Y-190334743D01*
X507608720Y-190373756D01*
X507681418Y-190443873D01*
X507763219Y-190549267D01*
X507768269Y-190556427D01*
X507870027Y-190701326D01*
X507945149Y-190623121D01*
X508017312Y-190538287D01*
X508099338Y-190426178D01*
X508183790Y-190298156D01*
X508263229Y-190165581D01*
X508330216Y-190039815D01*
X508339196Y-190021263D01*
X508383822Y-189919386D01*
X508436449Y-189786098D01*
X508493847Y-189630804D01*
X508552786Y-189462909D01*
X508610036Y-189291819D01*
X508662366Y-189126940D01*
X508706548Y-188977677D01*
X508737238Y-188862166D01*
X508759126Y-188756991D01*
X508777527Y-188638939D01*
X508791808Y-188516589D01*
X508801332Y-188398521D01*
X508805467Y-188293314D01*
X508803576Y-188209548D01*
X508795026Y-188155802D01*
X508790245Y-188145526D01*
X508754304Y-188126957D01*
X508725815Y-188131023D01*
X508690660Y-188154583D01*
X508634789Y-188206985D01*
X508562632Y-188283013D01*
X508478619Y-188377453D01*
X508387177Y-188485088D01*
X508292738Y-188600705D01*
X508199731Y-188719089D01*
X508112585Y-188835024D01*
X508035729Y-188943295D01*
X508035083Y-188944241D01*
X507956040Y-189059881D01*
X507872202Y-189182481D01*
X507792355Y-189299196D01*
X507725283Y-189397185D01*
X507710821Y-189418302D01*
X507609926Y-189567041D01*
X507529635Y-189690323D01*
X507465703Y-189796964D01*
X507413884Y-189895780D01*
X507369931Y-189995585D01*
X507329599Y-190105194D01*
X507288641Y-190233424D01*
X507242811Y-190389089D01*
X507242206Y-190391186D01*
X507196118Y-190550100D01*
X507145226Y-190723911D01*
X507093817Y-190898088D01*
X507046177Y-191058098D01*
X507012691Y-191169333D01*
X506926772Y-191456555D01*
X506853330Y-191710884D01*
X506790495Y-191939254D01*
X506736397Y-192148598D01*
X506689166Y-192345850D01*
X506659741Y-192477883D01*
X506627534Y-192623733D01*
X506601482Y-192732967D01*
X506579871Y-192810568D01*
X506560990Y-192861517D01*
X506543126Y-192890795D01*
X506524568Y-192903383D01*
X506512930Y-192905000D01*
X506475605Y-192896321D01*
X506455792Y-192866785D01*
X506452796Y-192811145D01*
X506465920Y-192724152D01*
X506480256Y-192658909D01*
X506496093Y-192588593D01*
X506518712Y-192484189D01*
X506546550Y-192353111D01*
X506578045Y-192202773D01*
X506611635Y-192040590D01*
X506645757Y-191873977D01*
X506649161Y-191857250D01*
X506697845Y-191623902D01*
X506735697Y-191455083D01*
X506775667Y-191455083D01*
X506786250Y-191465666D01*
X506796833Y-191455083D01*
X506786250Y-191444500D01*
X506775667Y-191455083D01*
X506735697Y-191455083D01*
X506742525Y-191424632D01*
X506758607Y-191359833D01*
X506796833Y-191359833D01*
X506804578Y-191377255D01*
X506810944Y-191373944D01*
X506813478Y-191348824D01*
X506810944Y-191345722D01*
X506798361Y-191348627D01*
X506796833Y-191359833D01*
X506758607Y-191359833D01*
X506774367Y-191296333D01*
X506818000Y-191296333D01*
X506825744Y-191313755D01*
X506832111Y-191310444D01*
X506834644Y-191285324D01*
X506832111Y-191282222D01*
X506819527Y-191285127D01*
X506818000Y-191296333D01*
X506774367Y-191296333D01*
X506785457Y-191251651D01*
X506794220Y-191220486D01*
X506840838Y-191220486D01*
X506844729Y-191247939D01*
X506851955Y-191248267D01*
X506857008Y-191219938D01*
X506853626Y-191207697D01*
X506844227Y-191199680D01*
X506840838Y-191220486D01*
X506794220Y-191220486D01*
X506814557Y-191148166D01*
X506860333Y-191148166D01*
X506868078Y-191165589D01*
X506874444Y-191162277D01*
X506876978Y-191137157D01*
X506874444Y-191134055D01*
X506861861Y-191136961D01*
X506860333Y-191148166D01*
X506814557Y-191148166D01*
X506828898Y-191097169D01*
X506832916Y-191084666D01*
X506881500Y-191084666D01*
X506889244Y-191102089D01*
X506895611Y-191098777D01*
X506898144Y-191073657D01*
X506895611Y-191070555D01*
X506883027Y-191073461D01*
X506881500Y-191084666D01*
X506832916Y-191084666D01*
X506853324Y-191021166D01*
X506902667Y-191021166D01*
X506910411Y-191038589D01*
X506916778Y-191035277D01*
X506919311Y-191010157D01*
X506916778Y-191007055D01*
X506904194Y-191009961D01*
X506902667Y-191021166D01*
X506853324Y-191021166D01*
X506873733Y-190957666D01*
X506923833Y-190957666D01*
X506931578Y-190975089D01*
X506937944Y-190971777D01*
X506940478Y-190946657D01*
X506937944Y-190943555D01*
X506925361Y-190946461D01*
X506923833Y-190957666D01*
X506873733Y-190957666D01*
X506875106Y-190953396D01*
X506892799Y-190904750D01*
X506945000Y-190904750D01*
X506955583Y-190915333D01*
X506966167Y-190904750D01*
X506955583Y-190894166D01*
X506945000Y-190904750D01*
X506892799Y-190904750D01*
X506926337Y-190812542D01*
X506984847Y-190666818D01*
X507014044Y-190597833D01*
X507056445Y-190491175D01*
X507103885Y-190359322D01*
X507150917Y-190218094D01*
X507192096Y-190083311D01*
X507196743Y-190067058D01*
X507236591Y-189931168D01*
X507283592Y-189778737D01*
X507302550Y-189719416D01*
X507431833Y-189719416D01*
X507442417Y-189730000D01*
X507453000Y-189719416D01*
X507442417Y-189708833D01*
X507431833Y-189719416D01*
X507302550Y-189719416D01*
X507335923Y-189614995D01*
X507391760Y-189445174D01*
X507449277Y-189274505D01*
X507506651Y-189108220D01*
X507562058Y-188951550D01*
X507613674Y-188809726D01*
X507659674Y-188687979D01*
X507698234Y-188591541D01*
X507727530Y-188525643D01*
X507744224Y-188497041D01*
X507789948Y-188460452D01*
X507827141Y-188464023D01*
X507856165Y-188508183D01*
X507877381Y-188593361D01*
X507886714Y-188666374D01*
X507893362Y-188746527D01*
X507893060Y-188793199D01*
X507884836Y-188814820D01*
X507869004Y-188819833D01*
X507847699Y-188807847D01*
X507835165Y-188766911D01*
X507829814Y-188711323D01*
X507827343Y-188679262D01*
X507823268Y-188660814D01*
X507815929Y-188659560D01*
X507803670Y-188679082D01*
X507784832Y-188722961D01*
X507757757Y-188794778D01*
X507720787Y-188898114D01*
X507672264Y-189036551D01*
X507650971Y-189097614D01*
X507602563Y-189237109D01*
X507558323Y-189365721D01*
X507520340Y-189477286D01*
X507490705Y-189565638D01*
X507471506Y-189624613D01*
X507465340Y-189645333D01*
X507458008Y-189680363D01*
X507465518Y-189677981D01*
X507479035Y-189659204D01*
X507501454Y-189626685D01*
X507541953Y-189567982D01*
X507594559Y-189491750D01*
X507646989Y-189415788D01*
X507710009Y-189324322D01*
X507788575Y-189210036D01*
X507874354Y-189085068D01*
X507959012Y-188961552D01*
X507993481Y-188911200D01*
X508089718Y-188776049D01*
X508194011Y-188639126D01*
X508301769Y-188505643D01*
X508408405Y-188380812D01*
X508509328Y-188269843D01*
X508599948Y-188177950D01*
X508675676Y-188110343D01*
X508731923Y-188072235D01*
X508732530Y-188071945D01*
X508791041Y-188048580D01*
X508831890Y-188046716D01*
X508862960Y-188059105D01*
G36*
X508862960Y-188059105D02*
G01*
X508911837Y-188108880D01*
X508942004Y-188194350D01*
X508953719Y-188313363D01*
X508947238Y-188463766D01*
X508922820Y-188643408D01*
X508880721Y-188850137D01*
X508821198Y-189081801D01*
X508744510Y-189336249D01*
X508690981Y-189497166D01*
X508587776Y-189778606D01*
X508483101Y-190024164D01*
X508373550Y-190240245D01*
X508255720Y-190433257D01*
X508126206Y-190609605D01*
X508054017Y-190695810D01*
X507940756Y-190825538D01*
X508044819Y-191011176D01*
X508137854Y-191160262D01*
X508233090Y-191281367D01*
X508327147Y-191371237D01*
X508416648Y-191426615D01*
X508494407Y-191444312D01*
X508537047Y-191428999D01*
X508599722Y-191386670D01*
X508670083Y-191326823D01*
X508858568Y-191155092D01*
X509019512Y-191013634D01*
X509154047Y-190901576D01*
X509263303Y-190818045D01*
X509348411Y-190762168D01*
X509410502Y-190733073D01*
X509445076Y-190728592D01*
X509497479Y-190748416D01*
X509524620Y-190791292D01*
X509527696Y-190861670D01*
X509508172Y-190962958D01*
X509490890Y-191033457D01*
X509479899Y-191084502D01*
X509477413Y-191105731D01*
X509477617Y-191105833D01*
X509499842Y-191095276D01*
X509550711Y-191066506D01*
X509623047Y-191023870D01*
X509709676Y-190971717D01*
X509803421Y-190914398D01*
X509897107Y-190856259D01*
X509983557Y-190801651D01*
X510043702Y-190762761D01*
X510146947Y-190697995D01*
X510261726Y-190630678D01*
X510368859Y-190571920D01*
X510406193Y-190552845D01*
X510492363Y-190511672D01*
X510550514Y-190488690D01*
X510589546Y-190481371D01*
X510618355Y-190487186D01*
X510625365Y-190490589D01*
X510660342Y-190520049D01*
X510665312Y-190558100D01*
X510638645Y-190608623D01*
X510578711Y-190675501D01*
X510527458Y-190723864D01*
X510360074Y-190888548D01*
X510229448Y-191045978D01*
X510131752Y-191200925D01*
X510110302Y-191243416D01*
X510075715Y-191323487D01*
X510044527Y-191409420D01*
X510019658Y-191491146D01*
X510004028Y-191558594D01*
X510000560Y-191601695D01*
X510003821Y-191610543D01*
X510016190Y-191609321D01*
X510046629Y-191595994D01*
X510098003Y-191568938D01*
X510173175Y-191526528D01*
X510275010Y-191467138D01*
X510406372Y-191389144D01*
X510570124Y-191290920D01*
X510618287Y-191261911D01*
X510775645Y-191168894D01*
X510935099Y-191077965D01*
X511091237Y-190991938D01*
X511238646Y-190913625D01*
X511371914Y-190845839D01*
X511485631Y-190791393D01*
X511574384Y-190753098D01*
X511632761Y-190733768D01*
X511635662Y-190733181D01*
X511686858Y-190730323D01*
X511712178Y-190749810D01*
X511714961Y-190756080D01*
X511719015Y-190790775D01*
X511703919Y-190833707D01*
X511666202Y-190890653D01*
X511602394Y-190967391D01*
X511559154Y-191015499D01*
X511442490Y-191160817D01*
X511356176Y-191306392D01*
X511303633Y-191445815D01*
X511290190Y-191519253D01*
X511278244Y-191635000D01*
X511344664Y-191635000D01*
X511399304Y-191622453D01*
X511482775Y-191584326D01*
X511596609Y-191519885D01*
X511638667Y-191494224D01*
X511831005Y-191375550D01*
X511991132Y-191277509D01*
X512122593Y-191198068D01*
X512228932Y-191135196D01*
X512313693Y-191086860D01*
X512380422Y-191051029D01*
X512432663Y-191025671D01*
X512473959Y-191008754D01*
X512500360Y-191000249D01*
X512562145Y-190984467D01*
X512598245Y-190983183D01*
X512623502Y-190998653D01*
X512643806Y-191022051D01*
X512664148Y-191054651D01*
X512674902Y-191095281D01*
X512675776Y-191150953D01*
X512666482Y-191228682D01*
X512646729Y-191335482D01*
X512626996Y-191429120D01*
X512606990Y-191532111D01*
X512601103Y-191603387D01*
X512611362Y-191651802D01*
X512639791Y-191686210D01*
X512688415Y-191715463D01*
X512693003Y-191717730D01*
X512734854Y-191732967D01*
X512784093Y-191737138D01*
X512854115Y-191730588D01*
X512902717Y-191723138D01*
X513136551Y-191693007D01*
X513399934Y-191673452D01*
X513681320Y-191664880D01*
X513969164Y-191667696D01*
X514188857Y-191677938D01*
X514356920Y-191687903D01*
X514545851Y-191697830D01*
X514738418Y-191706892D01*
X514917387Y-191714264D01*
X515019841Y-191717806D01*
X515160622Y-191722503D01*
X515264666Y-191727075D01*
X515337564Y-191732199D01*
X515384906Y-191738551D01*
X515412282Y-191746806D01*
X515425281Y-191757642D01*
X515428852Y-191767291D01*
X515428397Y-191782064D01*
X515416215Y-191792301D01*
X515386015Y-191798816D01*
X515331506Y-191802421D01*
X515246396Y-191803928D01*
X515143344Y-191804165D01*
X515023739Y-191802368D01*
X514875645Y-191797496D01*
X514712745Y-191790147D01*
X514548723Y-191780925D01*
X514427417Y-191772715D01*
X514083396Y-191752171D01*
X513768615Y-191743383D01*
X513486760Y-191746378D01*
X513241521Y-191761188D01*
X513220917Y-191763145D01*
X513098105Y-191774404D01*
X512960424Y-191785783D01*
X512833028Y-191795228D01*
X512804249Y-191797143D01*
X512599248Y-191810337D01*
X512534374Y-191745463D01*
X512497189Y-191699679D01*
X512476037Y-191647710D01*
X512470473Y-191581589D01*
X512480056Y-191493346D01*
X512504342Y-191375014D01*
X512511981Y-191342617D01*
X512531650Y-191253527D01*
X512546427Y-191173181D01*
X512553781Y-191115764D01*
X512554167Y-191105970D01*
X512550366Y-191064181D01*
X512530216Y-191054217D01*
X512494722Y-191062337D01*
X512460483Y-191073394D01*
X512422787Y-191088768D01*
X512377100Y-191111033D01*
X512318892Y-191142762D01*
X512243629Y-191186530D01*
X512146779Y-191244909D01*
X512023811Y-191320473D01*
X511870192Y-191415796D01*
X511848267Y-191429442D01*
X511687579Y-191528307D01*
X511557678Y-191604959D01*
X511454329Y-191660964D01*
X511373296Y-191697891D01*
X511310344Y-191717308D01*
X511261237Y-191720781D01*
X511221741Y-191709880D01*
X511187620Y-191686172D01*
X511178400Y-191677399D01*
X511150493Y-191642944D01*
X511139536Y-191603912D01*
X511142043Y-191544173D01*
X511144691Y-191521467D01*
X511169917Y-191415874D01*
X511218090Y-191293817D01*
X511282528Y-191169070D01*
X511356547Y-191055405D01*
X511393291Y-191009091D01*
X511461415Y-190929713D01*
X511504934Y-190878149D01*
X511526369Y-190849710D01*
X511528241Y-190839711D01*
X511513071Y-190843463D01*
X511483381Y-190856279D01*
X511473078Y-190860738D01*
X511400415Y-190894931D01*
X511298313Y-190947331D01*
X511173496Y-191014145D01*
X511032692Y-191091576D01*
X510882626Y-191175831D01*
X510730025Y-191263113D01*
X510581614Y-191349628D01*
X510444120Y-191431581D01*
X510324269Y-191505176D01*
X510270998Y-191538983D01*
X510153994Y-191612573D01*
X510065348Y-191663465D01*
X509999311Y-191694038D01*
X509950135Y-191706672D01*
X509912072Y-191703748D01*
X509892516Y-191695698D01*
X509860293Y-191673335D01*
X509848186Y-191643103D01*
X509851158Y-191589708D01*
X509853000Y-191575765D01*
X509879962Y-191452531D01*
X509926145Y-191314258D01*
X509984582Y-191179167D01*
X510047945Y-191066022D01*
X510095406Y-191002138D01*
X510163754Y-190920422D01*
X510243189Y-190832209D01*
X510310825Y-190761875D01*
X510380030Y-190691536D01*
X510435540Y-190633474D01*
X510472067Y-190593345D01*
X510484321Y-190576805D01*
X510484022Y-190576666D01*
X510456514Y-190587235D01*
X510401009Y-190615950D01*
X510325290Y-190658327D01*
X510237136Y-190709882D01*
X510144328Y-190766129D01*
X510054646Y-190822583D01*
X510032532Y-190836918D01*
X509956343Y-190885841D01*
X509865649Y-190942830D01*
X509768058Y-191003251D01*
X509671179Y-191062473D01*
X509582619Y-191115862D01*
X509509987Y-191158787D01*
X509460892Y-191186614D01*
X509445700Y-191194217D01*
X509432643Y-191215434D01*
X509408019Y-191269289D01*
X509374849Y-191348677D01*
X509336155Y-191446496D01*
X509316694Y-191497416D01*
X509186775Y-191814540D01*
X509045763Y-192103589D01*
X508886425Y-192377324D01*
X508701524Y-192648509D01*
X508554712Y-192841500D01*
X508479159Y-192932143D01*
X508381684Y-193041425D01*
X508267330Y-193164339D01*
X508141140Y-193295878D01*
X508008155Y-193431035D01*
X507873418Y-193564804D01*
X507741970Y-193692178D01*
X507618855Y-193808150D01*
X507509115Y-193907714D01*
X507417791Y-193985862D01*
X507350650Y-194037096D01*
X507272415Y-194088661D01*
X507213914Y-194120599D01*
X507160676Y-194138227D01*
X507098227Y-194146857D01*
X507042265Y-194150342D01*
X506962503Y-194153473D01*
X506913441Y-194150776D01*
X506883531Y-194139104D01*
X506861226Y-194115309D01*
X506849225Y-194097745D01*
X506812105Y-194007544D01*
X506800261Y-193900642D01*
X506861948Y-193900642D01*
X506863437Y-193972843D01*
X506868598Y-194014546D01*
X506882783Y-194049438D01*
X506910897Y-194065252D01*
X506966529Y-194069154D01*
X506972175Y-194069166D01*
X507055074Y-194057623D01*
X507137934Y-194028724D01*
X507146397Y-194024439D01*
X507207545Y-193988368D01*
X507275506Y-193940534D01*
X507354065Y-193877649D01*
X507447009Y-193796425D01*
X507558124Y-193693572D01*
X507691195Y-193565802D01*
X507821335Y-193438174D01*
X508078199Y-193176934D01*
X508302219Y-192931788D01*
X508497071Y-192697419D01*
X508666426Y-192468507D01*
X508813960Y-192239730D01*
X508943345Y-192005771D01*
X509058257Y-191761309D01*
X509162368Y-191501024D01*
X509166093Y-191490933D01*
X509192159Y-191414461D01*
X509206979Y-191358933D01*
X509208778Y-191331751D01*
X509204448Y-191330975D01*
X509117414Y-191385119D01*
X509007451Y-191456269D01*
X508881026Y-191539982D01*
X508744611Y-191631811D01*
X508604673Y-191727314D01*
X508467682Y-191822044D01*
X508340108Y-191911557D01*
X508228420Y-191991408D01*
X508139086Y-192057154D01*
X508078576Y-192104348D01*
X508077417Y-192105312D01*
X507885457Y-192275442D01*
X507700892Y-192458619D01*
X507526837Y-192650438D01*
X507366404Y-192846495D01*
X507222711Y-193042388D01*
X507098871Y-193233712D01*
X506998000Y-193416063D01*
X506923212Y-193585039D01*
X506877623Y-193736236D01*
X506865414Y-193818754D01*
X506861948Y-193900642D01*
X506800261Y-193900642D01*
X506799324Y-193892193D01*
X506810956Y-193761230D01*
X506845621Y-193628337D01*
X506928216Y-193431710D01*
X507042810Y-193220003D01*
X507184763Y-192999335D01*
X507349432Y-192775828D01*
X507532175Y-192555602D01*
X507728352Y-192344779D01*
X507933319Y-192149479D01*
X508031198Y-192064936D01*
X508093243Y-192016346D01*
X508184365Y-191949234D01*
X508298073Y-191868032D01*
X508427875Y-191777173D01*
X508567279Y-191681093D01*
X508709796Y-191584225D01*
X508848933Y-191491001D01*
X508978200Y-191405857D01*
X509091104Y-191333226D01*
X509181156Y-191277542D01*
X509201889Y-191265302D01*
X509263440Y-191208168D01*
X509310728Y-191118711D01*
X509340396Y-191037423D01*
X509366688Y-190954518D01*
X509386803Y-190880328D01*
X509397941Y-190825183D01*
X509397303Y-190799414D01*
X509397279Y-190799390D01*
X509374890Y-190805451D01*
X509326232Y-190836300D01*
X509256139Y-190888007D01*
X509169442Y-190956640D01*
X509070976Y-191038270D01*
X508965574Y-191128967D01*
X508858069Y-191224799D01*
X508753295Y-191321837D01*
X508744167Y-191330494D01*
X508672606Y-191396602D01*
X508607729Y-191453152D01*
X508558450Y-191492545D01*
X508539183Y-191505257D01*
X508447193Y-191530313D01*
X508348513Y-191516003D01*
X508245835Y-191464242D01*
X508141851Y-191376945D01*
X508039256Y-191256025D01*
X507940740Y-191103399D01*
X507919140Y-191064380D01*
X507828558Y-190896082D01*
X507746680Y-190937853D01*
X507624865Y-190984243D01*
X507517176Y-190992452D01*
X507425361Y-190962394D01*
X507412569Y-190954240D01*
X507346614Y-190889295D01*
X507305478Y-190799582D01*
X507287629Y-190680542D01*
X507287880Y-190583297D01*
X507289147Y-190573235D01*
X507330680Y-190573235D01*
X507336491Y-190645987D01*
X507342708Y-190689509D01*
X507367371Y-190799910D01*
X507404094Y-190871111D01*
X507457127Y-190905348D01*
X507530721Y-190904863D01*
X507629128Y-190871893D01*
X507661319Y-190857329D01*
X507711203Y-190827662D01*
X507741501Y-190798259D01*
X507743407Y-190794413D01*
X507738119Y-190758054D01*
X507709000Y-190700775D01*
X507662762Y-190630969D01*
X507606116Y-190557029D01*
X507545775Y-190487349D01*
X507488451Y-190430321D01*
X507440856Y-190394338D01*
X507416923Y-190386166D01*
X507390814Y-190403969D01*
X507361858Y-190448384D01*
X507353937Y-190465541D01*
X507336230Y-190518390D01*
X507330680Y-190573235D01*
X507289147Y-190573235D01*
X507302590Y-190466507D01*
X507335418Y-190386028D01*
X507388327Y-190339042D01*
X507463276Y-190322732D01*
X507469297Y-190322666D01*
X507539791Y-190334743D01*
X507608720Y-190373756D01*
X507681418Y-190443873D01*
X507763219Y-190549267D01*
X507768269Y-190556427D01*
X507870027Y-190701326D01*
X507945149Y-190623121D01*
X508017312Y-190538287D01*
X508099338Y-190426178D01*
X508183790Y-190298156D01*
X508263229Y-190165581D01*
X508330216Y-190039815D01*
X508339196Y-190021263D01*
X508383822Y-189919386D01*
X508436449Y-189786098D01*
X508493847Y-189630804D01*
X508552786Y-189462909D01*
X508610036Y-189291819D01*
X508662366Y-189126940D01*
X508706548Y-188977677D01*
X508737238Y-188862166D01*
X508759126Y-188756991D01*
X508777527Y-188638939D01*
X508791808Y-188516589D01*
X508801332Y-188398521D01*
X508805467Y-188293314D01*
X508803576Y-188209548D01*
X508795026Y-188155802D01*
X508790245Y-188145526D01*
X508754304Y-188126957D01*
X508725815Y-188131023D01*
X508690660Y-188154583D01*
X508634789Y-188206985D01*
X508562632Y-188283013D01*
X508478619Y-188377453D01*
X508387177Y-188485088D01*
X508292738Y-188600705D01*
X508199731Y-188719089D01*
X508112585Y-188835024D01*
X508035729Y-188943295D01*
X508035083Y-188944241D01*
X507956040Y-189059881D01*
X507872202Y-189182481D01*
X507792355Y-189299196D01*
X507725283Y-189397185D01*
X507710821Y-189418302D01*
X507609926Y-189567041D01*
X507529635Y-189690323D01*
X507465703Y-189796964D01*
X507413884Y-189895780D01*
X507369931Y-189995585D01*
X507329599Y-190105194D01*
X507288641Y-190233424D01*
X507242811Y-190389089D01*
X507242206Y-190391186D01*
X507196118Y-190550100D01*
X507145226Y-190723911D01*
X507093817Y-190898088D01*
X507046177Y-191058098D01*
X507012691Y-191169333D01*
X506926772Y-191456555D01*
X506853330Y-191710884D01*
X506790495Y-191939254D01*
X506736397Y-192148598D01*
X506689166Y-192345850D01*
X506659741Y-192477883D01*
X506627534Y-192623733D01*
X506601482Y-192732967D01*
X506579871Y-192810568D01*
X506560990Y-192861517D01*
X506543126Y-192890795D01*
X506524568Y-192903383D01*
X506512930Y-192905000D01*
X506475605Y-192896321D01*
X506455792Y-192866785D01*
X506452796Y-192811145D01*
X506465920Y-192724152D01*
X506480256Y-192658909D01*
X506496093Y-192588593D01*
X506518712Y-192484189D01*
X506546550Y-192353111D01*
X506578045Y-192202773D01*
X506611635Y-192040590D01*
X506645757Y-191873977D01*
X506649161Y-191857250D01*
X506697845Y-191623902D01*
X506735697Y-191455083D01*
X506775667Y-191455083D01*
X506786250Y-191465666D01*
X506796833Y-191455083D01*
X506786250Y-191444500D01*
X506775667Y-191455083D01*
X506735697Y-191455083D01*
X506742525Y-191424632D01*
X506758607Y-191359833D01*
X506796833Y-191359833D01*
X506804578Y-191377255D01*
X506810944Y-191373944D01*
X506813478Y-191348824D01*
X506810944Y-191345722D01*
X506798361Y-191348627D01*
X506796833Y-191359833D01*
X506758607Y-191359833D01*
X506774367Y-191296333D01*
X506818000Y-191296333D01*
X506825744Y-191313755D01*
X506832111Y-191310444D01*
X506834644Y-191285324D01*
X506832111Y-191282222D01*
X506819527Y-191285127D01*
X506818000Y-191296333D01*
X506774367Y-191296333D01*
X506785457Y-191251651D01*
X506794220Y-191220486D01*
X506840838Y-191220486D01*
X506844729Y-191247939D01*
X506851955Y-191248267D01*
X506857008Y-191219938D01*
X506853626Y-191207697D01*
X506844227Y-191199680D01*
X506840838Y-191220486D01*
X506794220Y-191220486D01*
X506814557Y-191148166D01*
X506860333Y-191148166D01*
X506868078Y-191165589D01*
X506874444Y-191162277D01*
X506876978Y-191137157D01*
X506874444Y-191134055D01*
X506861861Y-191136961D01*
X506860333Y-191148166D01*
X506814557Y-191148166D01*
X506828898Y-191097169D01*
X506832916Y-191084666D01*
X506881500Y-191084666D01*
X506889244Y-191102089D01*
X506895611Y-191098777D01*
X506898144Y-191073657D01*
X506895611Y-191070555D01*
X506883027Y-191073461D01*
X506881500Y-191084666D01*
X506832916Y-191084666D01*
X506853324Y-191021166D01*
X506902667Y-191021166D01*
X506910411Y-191038589D01*
X506916778Y-191035277D01*
X506919311Y-191010157D01*
X506916778Y-191007055D01*
X506904194Y-191009961D01*
X506902667Y-191021166D01*
X506853324Y-191021166D01*
X506873733Y-190957666D01*
X506923833Y-190957666D01*
X506931578Y-190975089D01*
X506937944Y-190971777D01*
X506940478Y-190946657D01*
X506937944Y-190943555D01*
X506925361Y-190946461D01*
X506923833Y-190957666D01*
X506873733Y-190957666D01*
X506875106Y-190953396D01*
X506892799Y-190904750D01*
X506945000Y-190904750D01*
X506955583Y-190915333D01*
X506966167Y-190904750D01*
X506955583Y-190894166D01*
X506945000Y-190904750D01*
X506892799Y-190904750D01*
X506926337Y-190812542D01*
X506984847Y-190666818D01*
X507014044Y-190597833D01*
X507056445Y-190491175D01*
X507103885Y-190359322D01*
X507150917Y-190218094D01*
X507192096Y-190083311D01*
X507196743Y-190067058D01*
X507236591Y-189931168D01*
X507283592Y-189778737D01*
X507302550Y-189719416D01*
X507431833Y-189719416D01*
X507442417Y-189730000D01*
X507453000Y-189719416D01*
X507442417Y-189708833D01*
X507431833Y-189719416D01*
X507302550Y-189719416D01*
X507335923Y-189614995D01*
X507391760Y-189445174D01*
X507449277Y-189274505D01*
X507506651Y-189108220D01*
X507562058Y-188951550D01*
X507613674Y-188809726D01*
X507659674Y-188687979D01*
X507698234Y-188591541D01*
X507727530Y-188525643D01*
X507744224Y-188497041D01*
X507789948Y-188460452D01*
X507827141Y-188464023D01*
X507856165Y-188508183D01*
X507877381Y-188593361D01*
X507886714Y-188666374D01*
X507893362Y-188746527D01*
X507893060Y-188793199D01*
X507884836Y-188814820D01*
X507869004Y-188819833D01*
X507847699Y-188807847D01*
X507835165Y-188766911D01*
X507829814Y-188711323D01*
X507827343Y-188679262D01*
X507823268Y-188660814D01*
X507815929Y-188659560D01*
X507803670Y-188679082D01*
X507784832Y-188722961D01*
X507757757Y-188794778D01*
X507720787Y-188898114D01*
X507672264Y-189036551D01*
X507650971Y-189097614D01*
X507602563Y-189237109D01*
X507558323Y-189365721D01*
X507520340Y-189477286D01*
X507490705Y-189565638D01*
X507471506Y-189624613D01*
X507465340Y-189645333D01*
X507458008Y-189680363D01*
X507465518Y-189677981D01*
X507479035Y-189659204D01*
X507501454Y-189626685D01*
X507541953Y-189567982D01*
X507594559Y-189491750D01*
X507646989Y-189415788D01*
X507710009Y-189324322D01*
X507788575Y-189210036D01*
X507874354Y-189085068D01*
X507959012Y-188961552D01*
X507993481Y-188911200D01*
X508089718Y-188776049D01*
X508194011Y-188639126D01*
X508301769Y-188505643D01*
X508408405Y-188380812D01*
X508509328Y-188269843D01*
X508599948Y-188177950D01*
X508675676Y-188110343D01*
X508731923Y-188072235D01*
X508732530Y-188071945D01*
X508791041Y-188048580D01*
X508831890Y-188046716D01*
X508862960Y-188059105D01*
G37*
X505364522Y-188571913D02*
X505474059Y-188592703D01*
X505563389Y-188632030D01*
X505642865Y-188693720D01*
X505683321Y-188735449D01*
X505782861Y-188874244D01*
X505853332Y-189038753D01*
X505894889Y-189230132D01*
X505907686Y-189449538D01*
X505891877Y-189698126D01*
X505848215Y-189974023D01*
X505789520Y-190270963D01*
X505970385Y-190252644D01*
X506094177Y-190244286D01*
X506223603Y-190242769D01*
X506352064Y-190247340D01*
X506472959Y-190257242D01*
X506579690Y-190271723D01*
X506665658Y-190290026D01*
X506724261Y-190311398D01*
X506748902Y-190335085D01*
X506748904Y-190341655D01*
X506728083Y-190367655D01*
X506712388Y-190369020D01*
X506581182Y-190346611D01*
X506422745Y-190330747D01*
X506251756Y-190322003D01*
X506082894Y-190320954D01*
X505930839Y-190328174D01*
X505860963Y-190335703D01*
X505807349Y-190344805D01*
X505775213Y-190360627D01*
X505753837Y-190393873D01*
X505732503Y-190455248D01*
X505728503Y-190467994D01*
X505624342Y-190763073D01*
X505495252Y-191067326D01*
X505346581Y-191370570D01*
X505183677Y-191662619D01*
X505011890Y-191933290D01*
X504836567Y-192172398D01*
X504827376Y-192183874D01*
X504669147Y-192363170D01*
X504488626Y-192537894D01*
X504292528Y-192703296D01*
X504087566Y-192854630D01*
X503880454Y-192987146D01*
X503677907Y-193096097D01*
X503486637Y-193176734D01*
X503375361Y-193210757D01*
X503281606Y-193227717D01*
X503169639Y-193237892D01*
X503052816Y-193241109D01*
X502944493Y-193237194D01*
X502858025Y-193225972D01*
X502828083Y-193217896D01*
X502701676Y-193152972D01*
X502592454Y-193057820D01*
X502535351Y-192981909D01*
X502499209Y-192913102D01*
X502474568Y-192838164D01*
X502457045Y-192742094D01*
X502450861Y-192692775D01*
X502441302Y-192597699D01*
X502440941Y-192583807D01*
X502511415Y-192583807D01*
X502511434Y-192619250D01*
X502517250Y-192755461D01*
X502535845Y-192860759D01*
X502570811Y-192945552D01*
X502625736Y-193020252D01*
X502662733Y-193057952D01*
X502746452Y-193120912D01*
X502842843Y-193159271D01*
X502958977Y-193174370D01*
X503101925Y-193167545D01*
X503183862Y-193156609D01*
X503390524Y-193106322D01*
X503608893Y-193018668D01*
X503835444Y-192895777D01*
X504066649Y-192739780D01*
X504298983Y-192552808D01*
X504511298Y-192354666D01*
X504707649Y-192136941D01*
X504898575Y-191882457D01*
X505080851Y-191596732D01*
X505251251Y-191285285D01*
X505406546Y-190953634D01*
X505543511Y-190607297D01*
X505559682Y-190561825D01*
X505585590Y-190482325D01*
X505602644Y-190418524D01*
X505608344Y-190380359D01*
X505606830Y-190374440D01*
X505579646Y-190371931D01*
X505518788Y-190379318D01*
X505431322Y-190395009D01*
X505324318Y-190417407D01*
X505204843Y-190444919D01*
X505079967Y-190475951D01*
X504956757Y-190508908D01*
X504842283Y-190542197D01*
X504789587Y-190558773D01*
X504602490Y-190627435D01*
X504394309Y-190717349D01*
X504175780Y-190822886D01*
X503957639Y-190938419D01*
X503750624Y-191058320D01*
X503565471Y-191176961D01*
X503445089Y-191263507D01*
X503420623Y-191288531D01*
X503421633Y-191311975D01*
X503452259Y-191338754D01*
X503516639Y-191373784D01*
X503552560Y-191391108D01*
X503676399Y-191434053D01*
X503791114Y-191438214D01*
X503905270Y-191403026D01*
X503976577Y-191363099D01*
X504041442Y-191326356D01*
X504098832Y-191302106D01*
X504126395Y-191296333D01*
X504163919Y-191304677D01*
X504168860Y-191326921D01*
X504146910Y-191358883D01*
X504103762Y-191396379D01*
X504045110Y-191435227D01*
X503976646Y-191471244D01*
X503904065Y-191500247D01*
X503833058Y-191518054D01*
X503822587Y-191519540D01*
X503756064Y-191525206D01*
X503702875Y-191520047D01*
X503646089Y-191500375D01*
X503574663Y-191465541D01*
X503502505Y-191426596D01*
X503441924Y-191390749D01*
X503406636Y-191366222D01*
X503385794Y-191351986D01*
X503362959Y-191348705D01*
X503333841Y-191359566D01*
X503294150Y-191387754D01*
X503239594Y-191436455D01*
X503165885Y-191508855D01*
X503068731Y-191608140D01*
X503037774Y-191640123D01*
X502899580Y-191787322D01*
X502789557Y-191914894D01*
X502702738Y-192029554D01*
X502634157Y-192138018D01*
X502578845Y-192247004D01*
X502564265Y-192280406D01*
X502538129Y-192348978D01*
X502522087Y-192412921D01*
X502513921Y-192486457D01*
X502511415Y-192583807D01*
X502440941Y-192583807D01*
X502439497Y-192528349D01*
X502446735Y-192468616D01*
X502464305Y-192402388D01*
X502477347Y-192361865D01*
X502514595Y-192265215D01*
X502563673Y-192158513D01*
X502607090Y-192077075D01*
X502669190Y-191983542D01*
X502755243Y-191871365D01*
X502857285Y-191749709D01*
X502967355Y-191627741D01*
X503077488Y-191514628D01*
X503173808Y-191424696D01*
X503234156Y-191369794D01*
X503279718Y-191324543D01*
X503302886Y-191296632D01*
X503304333Y-191292765D01*
X503292858Y-191267327D01*
X503263164Y-191219578D01*
X503232176Y-191174673D01*
X503145076Y-191019575D01*
X503090076Y-190840794D01*
X503072653Y-190690024D01*
X503119919Y-190690024D01*
X503153688Y-190878515D01*
X503221015Y-191052952D01*
X503263004Y-191125986D01*
X503305376Y-191188621D01*
X503339837Y-191234241D01*
X503359521Y-191253821D01*
X503360413Y-191254000D01*
X503386627Y-191241656D01*
X503408500Y-191224999D01*
X503483828Y-191166574D01*
X503589380Y-191094454D01*
X503717293Y-191013423D01*
X503859704Y-190928263D01*
X504008751Y-190843760D01*
X504156569Y-190764696D01*
X504209178Y-190737879D01*
X504378589Y-190659410D01*
X504570889Y-190581460D01*
X504776084Y-190507254D01*
X504984180Y-190440015D01*
X505185185Y-190382968D01*
X505369106Y-190339336D01*
X505525948Y-190312343D01*
X505529670Y-190311880D01*
X505648923Y-190297235D01*
X505693464Y-190088054D01*
X505729101Y-189913079D01*
X505754193Y-189769410D01*
X505769793Y-189647638D01*
X505776952Y-189538355D01*
X505776724Y-189432153D01*
X505773740Y-189370166D01*
X505750462Y-189175076D01*
X505705919Y-189012823D01*
X505638551Y-188878776D01*
X505584341Y-188807466D01*
X505483508Y-188713571D01*
X505374513Y-188656660D01*
X505246522Y-188631835D01*
X505191222Y-188629798D01*
X505072339Y-188635015D01*
X504959156Y-188653370D01*
X504844256Y-188687630D01*
X504720224Y-188740562D01*
X504579642Y-188814932D01*
X504415097Y-188913508D01*
X504391890Y-188928037D01*
X504104742Y-189123984D01*
X503849974Y-189329889D01*
X503629414Y-189543703D01*
X503444893Y-189763378D01*
X503298242Y-189986864D01*
X503191290Y-190212114D01*
X503157958Y-190309021D01*
X503120934Y-190497014D01*
X503119919Y-190690024D01*
X503072653Y-190690024D01*
X503066361Y-190635578D01*
X503065653Y-190612378D01*
X503066944Y-190495156D01*
X503078849Y-190392022D01*
X503104503Y-190290795D01*
X503147042Y-190179292D01*
X503209602Y-190045330D01*
X503213762Y-190036916D01*
X503339287Y-189822164D01*
X503501346Y-189607424D01*
X503694528Y-189398429D01*
X503913421Y-189200912D01*
X504152615Y-189020606D01*
X504208280Y-188983257D01*
X504346887Y-188892845D01*
X504457462Y-188822373D01*
X504546978Y-188767974D01*
X504622407Y-188725783D01*
X504690723Y-188691932D01*
X504758899Y-188662557D01*
X504833909Y-188633790D01*
X504847700Y-188628734D01*
X504942080Y-188596887D01*
X505022280Y-188577822D01*
X505106544Y-188568490D01*
X505213120Y-188565847D01*
X505224426Y-188565833D01*
X505364522Y-188571913D01*
G36*
X505364522Y-188571913D02*
G01*
X505474059Y-188592703D01*
X505563389Y-188632030D01*
X505642865Y-188693720D01*
X505683321Y-188735449D01*
X505782861Y-188874244D01*
X505853332Y-189038753D01*
X505894889Y-189230132D01*
X505907686Y-189449538D01*
X505891877Y-189698126D01*
X505848215Y-189974023D01*
X505789520Y-190270963D01*
X505970385Y-190252644D01*
X506094177Y-190244286D01*
X506223603Y-190242769D01*
X506352064Y-190247340D01*
X506472959Y-190257242D01*
X506579690Y-190271723D01*
X506665658Y-190290026D01*
X506724261Y-190311398D01*
X506748902Y-190335085D01*
X506748904Y-190341655D01*
X506728083Y-190367655D01*
X506712388Y-190369020D01*
X506581182Y-190346611D01*
X506422745Y-190330747D01*
X506251756Y-190322003D01*
X506082894Y-190320954D01*
X505930839Y-190328174D01*
X505860963Y-190335703D01*
X505807349Y-190344805D01*
X505775213Y-190360627D01*
X505753837Y-190393873D01*
X505732503Y-190455248D01*
X505728503Y-190467994D01*
X505624342Y-190763073D01*
X505495252Y-191067326D01*
X505346581Y-191370570D01*
X505183677Y-191662619D01*
X505011890Y-191933290D01*
X504836567Y-192172398D01*
X504827376Y-192183874D01*
X504669147Y-192363170D01*
X504488626Y-192537894D01*
X504292528Y-192703296D01*
X504087566Y-192854630D01*
X503880454Y-192987146D01*
X503677907Y-193096097D01*
X503486637Y-193176734D01*
X503375361Y-193210757D01*
X503281606Y-193227717D01*
X503169639Y-193237892D01*
X503052816Y-193241109D01*
X502944493Y-193237194D01*
X502858025Y-193225972D01*
X502828083Y-193217896D01*
X502701676Y-193152972D01*
X502592454Y-193057820D01*
X502535351Y-192981909D01*
X502499209Y-192913102D01*
X502474568Y-192838164D01*
X502457045Y-192742094D01*
X502450861Y-192692775D01*
X502441302Y-192597699D01*
X502440941Y-192583807D01*
X502511415Y-192583807D01*
X502511434Y-192619250D01*
X502517250Y-192755461D01*
X502535845Y-192860759D01*
X502570811Y-192945552D01*
X502625736Y-193020252D01*
X502662733Y-193057952D01*
X502746452Y-193120912D01*
X502842843Y-193159271D01*
X502958977Y-193174370D01*
X503101925Y-193167545D01*
X503183862Y-193156609D01*
X503390524Y-193106322D01*
X503608893Y-193018668D01*
X503835444Y-192895777D01*
X504066649Y-192739780D01*
X504298983Y-192552808D01*
X504511298Y-192354666D01*
X504707649Y-192136941D01*
X504898575Y-191882457D01*
X505080851Y-191596732D01*
X505251251Y-191285285D01*
X505406546Y-190953634D01*
X505543511Y-190607297D01*
X505559682Y-190561825D01*
X505585590Y-190482325D01*
X505602644Y-190418524D01*
X505608344Y-190380359D01*
X505606830Y-190374440D01*
X505579646Y-190371931D01*
X505518788Y-190379318D01*
X505431322Y-190395009D01*
X505324318Y-190417407D01*
X505204843Y-190444919D01*
X505079967Y-190475951D01*
X504956757Y-190508908D01*
X504842283Y-190542197D01*
X504789587Y-190558773D01*
X504602490Y-190627435D01*
X504394309Y-190717349D01*
X504175780Y-190822886D01*
X503957639Y-190938419D01*
X503750624Y-191058320D01*
X503565471Y-191176961D01*
X503445089Y-191263507D01*
X503420623Y-191288531D01*
X503421633Y-191311975D01*
X503452259Y-191338754D01*
X503516639Y-191373784D01*
X503552560Y-191391108D01*
X503676399Y-191434053D01*
X503791114Y-191438214D01*
X503905270Y-191403026D01*
X503976577Y-191363099D01*
X504041442Y-191326356D01*
X504098832Y-191302106D01*
X504126395Y-191296333D01*
X504163919Y-191304677D01*
X504168860Y-191326921D01*
X504146910Y-191358883D01*
X504103762Y-191396379D01*
X504045110Y-191435227D01*
X503976646Y-191471244D01*
X503904065Y-191500247D01*
X503833058Y-191518054D01*
X503822587Y-191519540D01*
X503756064Y-191525206D01*
X503702875Y-191520047D01*
X503646089Y-191500375D01*
X503574663Y-191465541D01*
X503502505Y-191426596D01*
X503441924Y-191390749D01*
X503406636Y-191366222D01*
X503385794Y-191351986D01*
X503362959Y-191348705D01*
X503333841Y-191359566D01*
X503294150Y-191387754D01*
X503239594Y-191436455D01*
X503165885Y-191508855D01*
X503068731Y-191608140D01*
X503037774Y-191640123D01*
X502899580Y-191787322D01*
X502789557Y-191914894D01*
X502702738Y-192029554D01*
X502634157Y-192138018D01*
X502578845Y-192247004D01*
X502564265Y-192280406D01*
X502538129Y-192348978D01*
X502522087Y-192412921D01*
X502513921Y-192486457D01*
X502511415Y-192583807D01*
X502440941Y-192583807D01*
X502439497Y-192528349D01*
X502446735Y-192468616D01*
X502464305Y-192402388D01*
X502477347Y-192361865D01*
X502514595Y-192265215D01*
X502563673Y-192158513D01*
X502607090Y-192077075D01*
X502669190Y-191983542D01*
X502755243Y-191871365D01*
X502857285Y-191749709D01*
X502967355Y-191627741D01*
X503077488Y-191514628D01*
X503173808Y-191424696D01*
X503234156Y-191369794D01*
X503279718Y-191324543D01*
X503302886Y-191296632D01*
X503304333Y-191292765D01*
X503292858Y-191267327D01*
X503263164Y-191219578D01*
X503232176Y-191174673D01*
X503145076Y-191019575D01*
X503090076Y-190840794D01*
X503072653Y-190690024D01*
X503119919Y-190690024D01*
X503153688Y-190878515D01*
X503221015Y-191052952D01*
X503263004Y-191125986D01*
X503305376Y-191188621D01*
X503339837Y-191234241D01*
X503359521Y-191253821D01*
X503360413Y-191254000D01*
X503386627Y-191241656D01*
X503408500Y-191224999D01*
X503483828Y-191166574D01*
X503589380Y-191094454D01*
X503717293Y-191013423D01*
X503859704Y-190928263D01*
X504008751Y-190843760D01*
X504156569Y-190764696D01*
X504209178Y-190737879D01*
X504378589Y-190659410D01*
X504570889Y-190581460D01*
X504776084Y-190507254D01*
X504984180Y-190440015D01*
X505185185Y-190382968D01*
X505369106Y-190339336D01*
X505525948Y-190312343D01*
X505529670Y-190311880D01*
X505648923Y-190297235D01*
X505693464Y-190088054D01*
X505729101Y-189913079D01*
X505754193Y-189769410D01*
X505769793Y-189647638D01*
X505776952Y-189538355D01*
X505776724Y-189432153D01*
X505773740Y-189370166D01*
X505750462Y-189175076D01*
X505705919Y-189012823D01*
X505638551Y-188878776D01*
X505584341Y-188807466D01*
X505483508Y-188713571D01*
X505374513Y-188656660D01*
X505246522Y-188631835D01*
X505191222Y-188629798D01*
X505072339Y-188635015D01*
X504959156Y-188653370D01*
X504844256Y-188687630D01*
X504720224Y-188740562D01*
X504579642Y-188814932D01*
X504415097Y-188913508D01*
X504391890Y-188928037D01*
X504104742Y-189123984D01*
X503849974Y-189329889D01*
X503629414Y-189543703D01*
X503444893Y-189763378D01*
X503298242Y-189986864D01*
X503191290Y-190212114D01*
X503157958Y-190309021D01*
X503120934Y-190497014D01*
X503119919Y-190690024D01*
X503072653Y-190690024D01*
X503066361Y-190635578D01*
X503065653Y-190612378D01*
X503066944Y-190495156D01*
X503078849Y-190392022D01*
X503104503Y-190290795D01*
X503147042Y-190179292D01*
X503209602Y-190045330D01*
X503213762Y-190036916D01*
X503339287Y-189822164D01*
X503501346Y-189607424D01*
X503694528Y-189398429D01*
X503913421Y-189200912D01*
X504152615Y-189020606D01*
X504208280Y-188983257D01*
X504346887Y-188892845D01*
X504457462Y-188822373D01*
X504546978Y-188767974D01*
X504622407Y-188725783D01*
X504690723Y-188691932D01*
X504758899Y-188662557D01*
X504833909Y-188633790D01*
X504847700Y-188628734D01*
X504942080Y-188596887D01*
X505022280Y-188577822D01*
X505106544Y-188568490D01*
X505213120Y-188565847D01*
X505224426Y-188565833D01*
X505364522Y-188571913D01*
G37*
X501945274Y-189034507D02*
X501986708Y-189058315D01*
X502010740Y-189102834D01*
X502010683Y-189175303D01*
X501988335Y-189270176D01*
X501945493Y-189381907D01*
X501883955Y-189504949D01*
X501805518Y-189633755D01*
X501795260Y-189649034D01*
X501609528Y-189914651D01*
X501413894Y-190179214D01*
X501212606Y-190437695D01*
X501009911Y-190685064D01*
X500810057Y-190916293D01*
X500617291Y-191126354D01*
X500435861Y-191310217D01*
X500270013Y-191462854D01*
X500245750Y-191483585D01*
X500189825Y-191532022D01*
X500162268Y-191561920D01*
X500158655Y-191581506D01*
X500174560Y-191599011D01*
X500181004Y-191603978D01*
X500250672Y-191631401D01*
X500338637Y-191627335D01*
X500420543Y-191599240D01*
X500460467Y-191572088D01*
X500525224Y-191518176D01*
X500610683Y-191441622D01*
X500712715Y-191346540D01*
X500827190Y-191237047D01*
X500949978Y-191117259D01*
X501076951Y-190991293D01*
X501203977Y-190863265D01*
X501326928Y-190737291D01*
X501441673Y-190617486D01*
X501544084Y-190507968D01*
X501630029Y-190412852D01*
X501695380Y-190336256D01*
X501722544Y-190301500D01*
X501813501Y-190185221D01*
X501917610Y-190063336D01*
X502030527Y-189939908D01*
X502147906Y-189819001D01*
X502265402Y-189704677D01*
X502378671Y-189601001D01*
X502483367Y-189512036D01*
X502575145Y-189441845D01*
X502649660Y-189394493D01*
X502702567Y-189374041D01*
X502714442Y-189373873D01*
X502743193Y-189379422D01*
X502761874Y-189388263D01*
X502768170Y-189403236D01*
X502759763Y-189427178D01*
X502734339Y-189462928D01*
X502689580Y-189513325D01*
X502623172Y-189581205D01*
X502532796Y-189669408D01*
X502416138Y-189780773D01*
X502270882Y-189918136D01*
X502268377Y-189920500D01*
X502066564Y-190118007D01*
X501899478Y-190297575D01*
X501765070Y-190462228D01*
X501661292Y-190614991D01*
X501586093Y-190758891D01*
X501537425Y-190896953D01*
X501513238Y-191032202D01*
X501512913Y-191035750D01*
X501506754Y-191115555D01*
X501507825Y-191166161D01*
X501519010Y-191200478D01*
X501543194Y-191231415D01*
X501560600Y-191249189D01*
X501644314Y-191303499D01*
X501754664Y-191327752D01*
X501888099Y-191321569D01*
X502002876Y-191296249D01*
X502080636Y-191277176D01*
X502139040Y-191268965D01*
X502167631Y-191272998D01*
X502176704Y-191286475D01*
X502169531Y-191298859D01*
X502139791Y-191313345D01*
X502081163Y-191333128D01*
X502000301Y-191357559D01*
X501836846Y-191393623D01*
X501691359Y-191400674D01*
X501567891Y-191379186D01*
X501470489Y-191329632D01*
X501429781Y-191290925D01*
X501402175Y-191255457D01*
X501386070Y-191222243D01*
X501379265Y-191179538D01*
X501379561Y-191115591D01*
X501383342Y-191042836D01*
X501392580Y-190947177D01*
X501407568Y-190856753D01*
X501425393Y-190788336D01*
X501429257Y-190778256D01*
X501435079Y-190758742D01*
X501428922Y-190753836D01*
X501408279Y-190765741D01*
X501370644Y-190796662D01*
X501313511Y-190848802D01*
X501234373Y-190924366D01*
X501130723Y-191025556D01*
X501000054Y-191154578D01*
X500990555Y-191163992D01*
X500842058Y-191310231D01*
X500719028Y-191428731D01*
X500617650Y-191522325D01*
X500534111Y-191593849D01*
X500464598Y-191646137D01*
X500405296Y-191682023D01*
X500352392Y-191704342D01*
X500302073Y-191715929D01*
X500250524Y-191719619D01*
X500242944Y-191719666D01*
X500170452Y-191709500D01*
X500105680Y-191686631D01*
X500066831Y-191669145D01*
X500035120Y-191667405D01*
X499995930Y-191684123D01*
X499942690Y-191716868D01*
X499796868Y-191796081D01*
X499655439Y-191846658D01*
X499523587Y-191868202D01*
X499406496Y-191860312D01*
X499309350Y-191822589D01*
X499249171Y-191770290D01*
X499231311Y-191762416D01*
X499201967Y-191775471D01*
X499155309Y-191813205D01*
X499097197Y-191867951D01*
X499018797Y-191939162D01*
X498932958Y-192009389D01*
X498857143Y-192064409D01*
X498851251Y-192068229D01*
X498775470Y-192112227D01*
X498712495Y-192134966D01*
X498642940Y-192142682D01*
X498618815Y-192143000D01*
X498548037Y-192140189D01*
X498502911Y-192127543D01*
X498466899Y-192098739D01*
X498448459Y-192077868D01*
X498407221Y-192020458D01*
X498383191Y-191960746D01*
X498373787Y-191886742D01*
X498376426Y-191786455D01*
X498378783Y-191754379D01*
X498401565Y-191591600D01*
X498444711Y-191403402D01*
X498505489Y-191199848D01*
X498581169Y-190990998D01*
X498596263Y-190953374D01*
X498646133Y-190830932D01*
X498681942Y-190742491D01*
X498705537Y-190682821D01*
X498718771Y-190646695D01*
X498723494Y-190628884D01*
X498721556Y-190624159D01*
X498714808Y-190627293D01*
X498710778Y-190629823D01*
X498681400Y-190658266D01*
X498631796Y-190718323D01*
X498564755Y-190806076D01*
X498483068Y-190917609D01*
X498389523Y-191049006D01*
X498286910Y-191196349D01*
X498178020Y-191355722D01*
X498065642Y-191523208D01*
X497957117Y-191687916D01*
X497869072Y-191815179D01*
X497785112Y-191922125D01*
X497709114Y-192004586D01*
X497644953Y-192058389D01*
X497596505Y-192079364D01*
X497593224Y-192079500D01*
X497544897Y-192065025D01*
X497501885Y-192034385D01*
X497478418Y-192006239D01*
X497466524Y-191973508D01*
X497464234Y-191924018D01*
X497469576Y-191845597D01*
X497470196Y-191838593D01*
X497483620Y-191687916D01*
X497369493Y-191899583D01*
X497296276Y-192024138D01*
X497217317Y-192139192D01*
X497137773Y-192238668D01*
X497062800Y-192316487D01*
X496997553Y-192366570D01*
X496960361Y-192381884D01*
X496875742Y-192378217D01*
X496795500Y-192340724D01*
X496734221Y-192276663D01*
X496728197Y-192266375D01*
X496710616Y-192226186D01*
X496699592Y-192176982D01*
X496694047Y-192109145D01*
X496692902Y-192013060D01*
X496693544Y-191957416D01*
X496697339Y-191718916D01*
X496638748Y-191760636D01*
X496589060Y-191800090D01*
X496552098Y-191836165D01*
X496517348Y-191868568D01*
X496456204Y-191916949D01*
X496378050Y-191974665D01*
X496292274Y-192035072D01*
X496208262Y-192091526D01*
X496135401Y-192137383D01*
X496092635Y-192161377D01*
X495988620Y-192200401D01*
X495904185Y-192203670D01*
X495841512Y-192172246D01*
X495802787Y-192107191D01*
X495790167Y-192014353D01*
X495790167Y-191906872D01*
X495697431Y-191987894D01*
X495650256Y-192029700D01*
X495579387Y-192093249D01*
X495492380Y-192171729D01*
X495396796Y-192258328D01*
X495332306Y-192316964D01*
X495221862Y-192417510D01*
X495102287Y-192526322D01*
X494985437Y-192632613D01*
X494883170Y-192725597D01*
X494848250Y-192757331D01*
X494752960Y-192846471D01*
X494688730Y-192912908D01*
X494652958Y-192959608D01*
X494643041Y-192989533D01*
X494643205Y-192990825D01*
X494637679Y-193026241D01*
X494612527Y-193029014D01*
X494597778Y-193017888D01*
X494584737Y-192992062D01*
X494592692Y-192957164D01*
X494624458Y-192909265D01*
X494682852Y-192844440D01*
X494770690Y-192758761D01*
X494809688Y-192722402D01*
X494896875Y-192641775D01*
X494978863Y-192565936D01*
X495047758Y-192502189D01*
X495095664Y-192457838D01*
X495104213Y-192449916D01*
X495141555Y-192415799D01*
X495204142Y-192359166D01*
X495285655Y-192285712D01*
X495379774Y-192201132D01*
X495480034Y-192111250D01*
X495589134Y-192012736D01*
X495670750Y-191936524D01*
X495729584Y-191877415D01*
X495770340Y-191830213D01*
X495797721Y-191789723D01*
X495816430Y-191750748D01*
X495823439Y-191731838D01*
X495847525Y-191665905D01*
X495882150Y-191575646D01*
X495921604Y-191475822D01*
X495942179Y-191424921D01*
X495979387Y-191330321D01*
X496011865Y-191241642D01*
X496035042Y-191171672D01*
X496042456Y-191144546D01*
X496051486Y-191094655D01*
X496045882Y-191076097D01*
X496025666Y-191078850D01*
X495961064Y-191112015D01*
X495875425Y-191174109D01*
X495767880Y-191265936D01*
X495637563Y-191388298D01*
X495483607Y-191541998D01*
X495305145Y-191727840D01*
X495176906Y-191864838D01*
X495042482Y-192006817D01*
X494930709Y-192118121D01*
X494838218Y-192201469D01*
X494761638Y-192259579D01*
X494697600Y-192295168D01*
X494642734Y-192310954D01*
X494622065Y-192312333D01*
X494552855Y-192299633D01*
X494512864Y-192273624D01*
X494487258Y-192218871D01*
X494478528Y-192138046D01*
X494487343Y-192044185D01*
X494498638Y-191996095D01*
X494510122Y-191945846D01*
X494511400Y-191916304D01*
X494510399Y-191914510D01*
X494492481Y-191925699D01*
X494448269Y-191965594D01*
X494380179Y-192031793D01*
X494290629Y-192121891D01*
X494182033Y-192233487D01*
X494056809Y-192364175D01*
X494031401Y-192390898D01*
X493974135Y-192448796D01*
X493923789Y-192495506D01*
X493891055Y-192521120D01*
X493890572Y-192521395D01*
X493842015Y-192531294D01*
X493805135Y-192510895D01*
X493793087Y-192469012D01*
X493795160Y-192457467D01*
X493797510Y-192426753D01*
X493787959Y-192423590D01*
X493762281Y-192440438D01*
X493711339Y-192474360D01*
X493644986Y-192518791D01*
X493627376Y-192530616D01*
X493507419Y-192602289D01*
X493377314Y-192665052D01*
X493248216Y-192714579D01*
X493131283Y-192746541D01*
X493044474Y-192756715D01*
X492898245Y-192742722D01*
X492779532Y-192699480D01*
X492685406Y-192624532D01*
X492612937Y-192515421D01*
X492559195Y-192369689D01*
X492552458Y-192344083D01*
X492539516Y-192262946D01*
X492531735Y-192150322D01*
X492528979Y-192016720D01*
X492531109Y-191872653D01*
X492537988Y-191728633D01*
X492549478Y-191595171D01*
X492563593Y-191493085D01*
X492611174Y-191260992D01*
X492676901Y-191001298D01*
X492757846Y-190723117D01*
X492851083Y-190435566D01*
X492953685Y-190147760D01*
X493062725Y-189868812D01*
X493153154Y-189656971D01*
X493180137Y-189594758D01*
X493196858Y-189552935D01*
X493199705Y-189540572D01*
X493185047Y-189560722D01*
X493151434Y-189609402D01*
X493103424Y-189679940D01*
X493045578Y-189765663D01*
X493026871Y-189793517D01*
X492945464Y-189912079D01*
X492849950Y-190046617D01*
X492744822Y-190191207D01*
X492634569Y-190339928D01*
X492523683Y-190486859D01*
X492416655Y-190626078D01*
X492317977Y-190751663D01*
X492232139Y-190857692D01*
X492163632Y-190938244D01*
X492134899Y-190969614D01*
X492025658Y-191080005D01*
X491937471Y-191160203D01*
X491865673Y-191213637D01*
X491805599Y-191243739D01*
X491752584Y-191253940D01*
X491748233Y-191254000D01*
X491660990Y-191238920D01*
X491595061Y-191192587D01*
X491549640Y-191113358D01*
X491523924Y-190999592D01*
X491517105Y-190849647D01*
X491519097Y-190786997D01*
X491523314Y-190687987D01*
X491522481Y-190629519D01*
X491513630Y-190610997D01*
X491493792Y-190631823D01*
X491460000Y-190691400D01*
X491420611Y-190767166D01*
X491311878Y-190968756D01*
X491188445Y-191181617D01*
X491054862Y-191398944D01*
X490915680Y-191613928D01*
X490775449Y-191819763D01*
X490638719Y-192009641D01*
X490510040Y-192176754D01*
X490393962Y-192314297D01*
X490366306Y-192344482D01*
X490235441Y-192477678D01*
X490119665Y-192581927D01*
X490020676Y-192656218D01*
X489940170Y-192699538D01*
X489879845Y-192710876D01*
X489841397Y-192689219D01*
X489830473Y-192664032D01*
X489831615Y-192603193D01*
X489856391Y-192535473D01*
X489896823Y-192473667D01*
X489944932Y-192430572D01*
X489983779Y-192418166D01*
X489988819Y-192437009D01*
X489988958Y-192484703D01*
X489987187Y-192513416D01*
X489985094Y-192570112D01*
X489988498Y-192604212D01*
X489991829Y-192608666D01*
X490014931Y-192595405D01*
X490060530Y-192560362D01*
X490120178Y-192510648D01*
X490185432Y-192453371D01*
X490247844Y-192395643D01*
X490267590Y-192376513D01*
X490373374Y-192262389D01*
X490493645Y-192115057D01*
X490624976Y-191939663D01*
X490763937Y-191741354D01*
X490907101Y-191525278D01*
X491051039Y-191296580D01*
X491192322Y-191060408D01*
X491327522Y-190821909D01*
X491428797Y-190633279D01*
X491481751Y-190530133D01*
X491523373Y-190442910D01*
X491557316Y-190361473D01*
X491587234Y-190275681D01*
X491616780Y-190175396D01*
X491649609Y-190050480D01*
X491674195Y-189952250D01*
X491726453Y-189750838D01*
X491774256Y-189587749D01*
X491819006Y-189459378D01*
X491862104Y-189362122D01*
X491904949Y-189292376D01*
X491948263Y-189247069D01*
X492002063Y-189219725D01*
X492043310Y-189226440D01*
X492063876Y-189264958D01*
X492064833Y-189279408D01*
X492057663Y-189315652D01*
X492038353Y-189381750D01*
X492010206Y-189468140D01*
X491976521Y-189565258D01*
X491940600Y-189663541D01*
X491905746Y-189753428D01*
X491880052Y-189814666D01*
X491841550Y-189918821D01*
X491802584Y-190054342D01*
X491765348Y-190210349D01*
X491732032Y-190375956D01*
X491704829Y-190540283D01*
X491685930Y-190692446D01*
X491677560Y-190820083D01*
X491679346Y-190948389D01*
X491692652Y-191040259D01*
X491719350Y-191100476D01*
X491761310Y-191133822D01*
X491804268Y-191144110D01*
X491839800Y-191143500D01*
X491874792Y-191130634D01*
X491917501Y-191100183D01*
X491976184Y-191046820D01*
X492017497Y-191006526D01*
X492139219Y-190877351D01*
X492279375Y-190712173D01*
X492436808Y-190512514D01*
X492610363Y-190279899D01*
X492798882Y-190015853D01*
X493001211Y-189721899D01*
X493074169Y-189613583D01*
X493153616Y-189494250D01*
X493228587Y-189380233D01*
X493294555Y-189278524D01*
X493346995Y-189196116D01*
X493381380Y-189140000D01*
X493386690Y-189130783D01*
X493425637Y-189069268D01*
X493457726Y-189040026D01*
X493489921Y-189035533D01*
X493516102Y-189045694D01*
X493528381Y-189069882D01*
X493525779Y-189112668D01*
X493507314Y-189178627D01*
X493472008Y-189272328D01*
X493418880Y-189398346D01*
X493405658Y-189428680D01*
X493219090Y-189871175D01*
X493060272Y-190282848D01*
X492928930Y-190664603D01*
X492824788Y-191017346D01*
X492747571Y-191341983D01*
X492697005Y-191639420D01*
X492677787Y-191825453D01*
X492669353Y-192018452D01*
X492675720Y-192179876D01*
X492697787Y-192318136D01*
X492736452Y-192441641D01*
X492746024Y-192464775D01*
X492794392Y-192554178D01*
X492853853Y-192613149D01*
X492933158Y-192646789D01*
X493041057Y-192660199D01*
X493082680Y-192661050D01*
X493163136Y-192659710D01*
X493225590Y-192652474D01*
X493284736Y-192635447D01*
X493355265Y-192604735D01*
X493424129Y-192570551D01*
X493523852Y-192514759D01*
X493627551Y-192448285D01*
X493716184Y-192383519D01*
X493733260Y-192369468D01*
X493770779Y-192336822D01*
X493803281Y-192305362D01*
X493833701Y-192270304D01*
X493864974Y-192226861D01*
X493900035Y-192170248D01*
X493941819Y-192095679D01*
X493993260Y-191998369D01*
X494057293Y-191873532D01*
X494065536Y-191857250D01*
X494202667Y-191857250D01*
X494213250Y-191867833D01*
X494223833Y-191857250D01*
X494213250Y-191846666D01*
X494202667Y-191857250D01*
X494065536Y-191857250D01*
X494086934Y-191814984D01*
X494240200Y-191814984D01*
X494242520Y-191816449D01*
X494259813Y-191794493D01*
X494293924Y-191742303D01*
X494340757Y-191666452D01*
X494396219Y-191573515D01*
X494431592Y-191512879D01*
X494511066Y-191373449D01*
X494581182Y-191246534D01*
X494640917Y-191134572D01*
X494689250Y-191039999D01*
X494725159Y-190965252D01*
X494747622Y-190912768D01*
X494755615Y-190884984D01*
X494748118Y-190884336D01*
X494724109Y-190913261D01*
X494682564Y-190974197D01*
X494622463Y-191069579D01*
X494606758Y-191095250D01*
X494563790Y-191168690D01*
X494513947Y-191258482D01*
X494460416Y-191358319D01*
X494406383Y-191461891D01*
X494355034Y-191562890D01*
X494309555Y-191655007D01*
X494273133Y-191731934D01*
X494248952Y-191787363D01*
X494240200Y-191814984D01*
X494086934Y-191814984D01*
X494136854Y-191716382D01*
X494151222Y-191687916D01*
X494276774Y-191442806D01*
X494387404Y-191235128D01*
X494484357Y-191063188D01*
X494568878Y-190925295D01*
X494642215Y-190819757D01*
X494705612Y-190744880D01*
X494760316Y-190698972D01*
X494807573Y-190680341D01*
X494848627Y-190687294D01*
X494873968Y-190706101D01*
X494884265Y-190730807D01*
X494879560Y-190772981D01*
X494858347Y-190836598D01*
X494819118Y-190925634D01*
X494760366Y-191044061D01*
X494707365Y-191145544D01*
X494568419Y-191401422D01*
X494440572Y-191623522D01*
X494324729Y-191810388D01*
X494221792Y-191960566D01*
X494132667Y-192072600D01*
X494128317Y-192077478D01*
X494078039Y-192142531D01*
X494026957Y-192222452D01*
X494004995Y-192262684D01*
X493988767Y-192296538D01*
X493982718Y-192315797D01*
X493989784Y-192318056D01*
X494012905Y-192300911D01*
X494055017Y-192261957D01*
X494119059Y-192198790D01*
X494207969Y-192109005D01*
X494270645Y-192045256D01*
X494392655Y-191919212D01*
X494488006Y-191816209D01*
X494561315Y-191730762D01*
X494617199Y-191657385D01*
X494660277Y-191590591D01*
X494674279Y-191565738D01*
X494750305Y-191432057D01*
X494827698Y-191306916D01*
X494964667Y-191306916D01*
X494975250Y-191317500D01*
X494985833Y-191306916D01*
X494975250Y-191296333D01*
X494964667Y-191306916D01*
X494827698Y-191306916D01*
X494830404Y-191302542D01*
X494862856Y-191254000D01*
X495015549Y-191254000D01*
X495032364Y-191238054D01*
X495064458Y-191196994D01*
X495091667Y-191158750D01*
X495125761Y-191106675D01*
X495145092Y-191072078D01*
X495146617Y-191063500D01*
X495129802Y-191079445D01*
X495097708Y-191120505D01*
X495070500Y-191158750D01*
X495036405Y-191210824D01*
X495017075Y-191245421D01*
X495015549Y-191254000D01*
X494862856Y-191254000D01*
X494910771Y-191182331D01*
X494987601Y-191076563D01*
X495057091Y-190990377D01*
X495115434Y-190928910D01*
X495158826Y-190897302D01*
X495171544Y-190894166D01*
X495213683Y-190912332D01*
X495243984Y-190954835D01*
X495250129Y-191003681D01*
X495249150Y-191007522D01*
X495219914Y-191072308D01*
X495165202Y-191160194D01*
X495089701Y-191264572D01*
X494998096Y-191378834D01*
X494929620Y-191458107D01*
X494804987Y-191617455D01*
X494707684Y-191782388D01*
X494640956Y-191945923D01*
X494608048Y-192101076D01*
X494605084Y-192156610D01*
X494612179Y-192210148D01*
X494635045Y-192235717D01*
X494675292Y-192232382D01*
X494734530Y-192199210D01*
X494814369Y-192135268D01*
X494916420Y-192039621D01*
X495042291Y-191911336D01*
X495059917Y-191892815D01*
X495243845Y-191700299D01*
X495402568Y-191537227D01*
X495538748Y-191401175D01*
X495655050Y-191289724D01*
X495754139Y-191200451D01*
X495838678Y-191130934D01*
X495911331Y-191078752D01*
X495974763Y-191041484D01*
X496018248Y-191021721D01*
X496069203Y-191005931D01*
X496103000Y-191012023D01*
X496129373Y-191032238D01*
X496157813Y-191070898D01*
X496167993Y-191123237D01*
X496159263Y-191195204D01*
X496130971Y-191292746D01*
X496088296Y-191407184D01*
X496057351Y-191489913D01*
X496037121Y-191553651D01*
X496029637Y-191591244D01*
X496034194Y-191597684D01*
X496063253Y-191575765D01*
X496111840Y-191533953D01*
X496164118Y-191486227D01*
X496306491Y-191356744D01*
X496461026Y-191223013D01*
X496619659Y-191091544D01*
X496774325Y-190968843D01*
X496916961Y-190861421D01*
X497039502Y-190775784D01*
X497064441Y-190759570D01*
X497135597Y-190714908D01*
X497178466Y-190691188D01*
X497200035Y-190685943D01*
X497207287Y-190696704D01*
X497207696Y-190708958D01*
X497190698Y-190731440D01*
X497145690Y-190769531D01*
X497080749Y-190816705D01*
X497043960Y-190841250D01*
X496929462Y-190918678D01*
X496811351Y-191005273D01*
X496684617Y-191105126D01*
X496544252Y-191222328D01*
X496385248Y-191360969D01*
X496202594Y-191525140D01*
X496168005Y-191556636D01*
X496069681Y-191648304D01*
X495999651Y-191720943D01*
X495953676Y-191782613D01*
X495927518Y-191841372D01*
X495916939Y-191905281D01*
X495917699Y-191982398D01*
X495920857Y-192026583D01*
X495928585Y-192081537D01*
X495946677Y-192107255D01*
X495985551Y-192116836D01*
X495993283Y-192117639D01*
X496054345Y-192106427D01*
X496141452Y-192064228D01*
X496252978Y-191992091D01*
X496387295Y-191891065D01*
X496537098Y-191767079D01*
X496714836Y-191614499D01*
X496736684Y-191434320D01*
X496753530Y-191323816D01*
X496774028Y-191250133D01*
X496800680Y-191207776D01*
X496835989Y-191191248D01*
X496847694Y-191190500D01*
X496881541Y-191208784D01*
X496912625Y-191253228D01*
X496931316Y-191308219D01*
X496933167Y-191329079D01*
X496921156Y-191356715D01*
X496897091Y-191352927D01*
X496883685Y-191333375D01*
X496876709Y-191334549D01*
X496872057Y-191369273D01*
X496871338Y-191388081D01*
X496869667Y-191469246D01*
X497001958Y-191355137D01*
X497103587Y-191270104D01*
X497210012Y-191185609D01*
X497315669Y-191105586D01*
X497414989Y-191033970D01*
X497502408Y-190974695D01*
X497572357Y-190931695D01*
X497619272Y-190908905D01*
X497635682Y-190907231D01*
X497651774Y-190928797D01*
X497634728Y-190956796D01*
X497581720Y-190994987D01*
X497559926Y-191008091D01*
X497493423Y-191051305D01*
X497404245Y-191115090D01*
X497301525Y-191192297D01*
X497194393Y-191275777D01*
X497091981Y-191358382D01*
X497003420Y-191432963D01*
X496937840Y-191492371D01*
X496924903Y-191505247D01*
X496842556Y-191589955D01*
X496832138Y-191842907D01*
X496829182Y-191950274D01*
X496829074Y-192049472D01*
X496831673Y-192128672D01*
X496836099Y-192172506D01*
X496864395Y-192244753D01*
X496912274Y-192290865D01*
X496971059Y-192304592D01*
X497006549Y-192295337D01*
X497062518Y-192253283D01*
X497129449Y-192175214D01*
X497205033Y-192065314D01*
X497286956Y-191927767D01*
X497372907Y-191766755D01*
X497426680Y-191656166D01*
X497483500Y-191656166D01*
X497491244Y-191673589D01*
X497497611Y-191670277D01*
X497500144Y-191645157D01*
X497497611Y-191642055D01*
X497485027Y-191644961D01*
X497483500Y-191656166D01*
X497426680Y-191656166D01*
X497460574Y-191586463D01*
X497547646Y-191391073D01*
X497631811Y-191184770D01*
X497658021Y-191116416D01*
X497696132Y-191018584D01*
X497725253Y-190954176D01*
X497749792Y-190916459D01*
X497774160Y-190898701D01*
X497802767Y-190894168D01*
X497803592Y-190894166D01*
X497832451Y-190906853D01*
X497841922Y-190946777D01*
X497831753Y-191016737D01*
X497801690Y-191119529D01*
X497776793Y-191190500D01*
X497740271Y-191295081D01*
X497703780Y-191407101D01*
X497674326Y-191504929D01*
X497670525Y-191518583D01*
X497649624Y-191607770D01*
X497632640Y-191704406D01*
X497620381Y-191799666D01*
X497613653Y-191884721D01*
X497613263Y-191950746D01*
X497620018Y-191988913D01*
X497626993Y-191994833D01*
X497657109Y-191977568D01*
X497704965Y-191929166D01*
X497766392Y-191854713D01*
X497837224Y-191759296D01*
X497913292Y-191648001D01*
X497921806Y-191635000D01*
X498042753Y-191451074D01*
X498150278Y-191291356D01*
X498252733Y-191143746D01*
X498358469Y-190996144D01*
X498433141Y-190894166D01*
X498540692Y-190749686D01*
X498627335Y-190636785D01*
X498667547Y-190587250D01*
X498732333Y-190587250D01*
X498742917Y-190597833D01*
X498753500Y-190587250D01*
X498742917Y-190576666D01*
X498732333Y-190587250D01*
X498667547Y-190587250D01*
X498696075Y-190552108D01*
X498749915Y-190492300D01*
X498791857Y-190454006D01*
X498824906Y-190433870D01*
X498849983Y-190428500D01*
X498894473Y-190445372D01*
X498915675Y-190489453D01*
X498910842Y-190550935D01*
X498895257Y-190590261D01*
X498855596Y-190674527D01*
X498807243Y-190787775D01*
X498754575Y-190918723D01*
X498701971Y-191056087D01*
X498653808Y-191188586D01*
X498614465Y-191304937D01*
X498600736Y-191349250D01*
X498564491Y-191490269D01*
X498538916Y-191629791D01*
X498524632Y-191759784D01*
X498522261Y-191872213D01*
X498532423Y-191959048D01*
X498550054Y-192004781D01*
X498582055Y-192040260D01*
X498626508Y-192055692D01*
X498677576Y-192058333D01*
X498735571Y-192053387D01*
X498789223Y-192034569D01*
X498852507Y-191995908D01*
X498894046Y-191965841D01*
X498969429Y-191906285D01*
X499042636Y-191842980D01*
X499092167Y-191795332D01*
X499166250Y-191717316D01*
X499167803Y-191539750D01*
X499297085Y-191539750D01*
X499427484Y-191370416D01*
X499499747Y-191274896D01*
X499582401Y-191163065D01*
X499661803Y-191053462D01*
X499692291Y-191010583D01*
X499813588Y-190833916D01*
X499932306Y-190652048D01*
X500046274Y-190469033D01*
X500153315Y-190288922D01*
X500251257Y-190115769D01*
X500337925Y-189953624D01*
X500411145Y-189806542D01*
X500468742Y-189678574D01*
X500508543Y-189573773D01*
X500528374Y-189496190D01*
X500527588Y-189453680D01*
X500509470Y-189453134D01*
X500469045Y-189480172D01*
X500411270Y-189529992D01*
X500341099Y-189597792D01*
X500263486Y-189678770D01*
X500183388Y-189768122D01*
X500105759Y-189861048D01*
X500100529Y-189867583D01*
X500001800Y-189995845D01*
X499898124Y-190138456D01*
X499794651Y-190287634D01*
X499696529Y-190435598D01*
X499608905Y-190574568D01*
X499536930Y-190696763D01*
X499485751Y-190794403D01*
X499482187Y-190802055D01*
X499387242Y-191041152D01*
X499328318Y-191265760D01*
X499310957Y-191388796D01*
X499297085Y-191539750D01*
X499167803Y-191539750D01*
X499168138Y-191501533D01*
X499179820Y-191317036D01*
X499213100Y-191136545D01*
X499270281Y-190953886D01*
X499353664Y-190762886D01*
X499465552Y-190557371D01*
X499599836Y-190343833D01*
X499734377Y-190147107D01*
X499868337Y-189963321D01*
X499998287Y-189796575D01*
X500120797Y-189650972D01*
X500232437Y-189530612D01*
X500329778Y-189439596D01*
X500399048Y-189388161D01*
X500472493Y-189357878D01*
X500533705Y-189361587D01*
X500575781Y-189397876D01*
X500587209Y-189426671D01*
X500588059Y-189497855D01*
X500564001Y-189599076D01*
X500516667Y-189727394D01*
X500447695Y-189879869D01*
X500358719Y-190053561D01*
X500251374Y-190245530D01*
X500127296Y-190452836D01*
X499988119Y-190672539D01*
X499835479Y-190901698D01*
X499671012Y-191137375D01*
X499521257Y-191343162D01*
X499440604Y-191453419D01*
X499384331Y-191536228D01*
X499350695Y-191597452D01*
X499337953Y-191642956D01*
X499344361Y-191678602D01*
X499368176Y-191710254D01*
X499403189Y-191740281D01*
X499473559Y-191773982D01*
X499559310Y-191783166D01*
X499642445Y-191778191D01*
X499717615Y-191760116D01*
X499799068Y-191724223D01*
X499885917Y-191674956D01*
X499991750Y-191611268D01*
X499993819Y-191495870D01*
X500122414Y-191495870D01*
X500215832Y-191423018D01*
X500270350Y-191377024D01*
X500343397Y-191310671D01*
X500424071Y-191234032D01*
X500479510Y-191179391D01*
X500617655Y-191035012D01*
X500772272Y-190863291D01*
X500936573Y-190672254D01*
X501103770Y-190469930D01*
X501267074Y-190264346D01*
X501394408Y-190097506D01*
X501531066Y-189913201D01*
X501643392Y-189757857D01*
X501733743Y-189627575D01*
X501804472Y-189518456D01*
X501857936Y-189426598D01*
X501896489Y-189348101D01*
X501922488Y-189279066D01*
X501938286Y-189215593D01*
X501942383Y-189190119D01*
X501948308Y-189131429D01*
X501942765Y-189103458D01*
X501922700Y-189095434D01*
X501915502Y-189095279D01*
X501859349Y-189109515D01*
X501779170Y-189148778D01*
X501681480Y-189208781D01*
X501572795Y-189285239D01*
X501459633Y-189373866D01*
X501357000Y-189462621D01*
X501107936Y-189703263D01*
X500886442Y-189949081D01*
X500684740Y-190209948D01*
X500495050Y-190495741D01*
X500354230Y-190735515D01*
X500271307Y-190891633D01*
X500211404Y-191025296D01*
X500170802Y-191146868D01*
X500145783Y-191266716D01*
X500136725Y-191341894D01*
X500122414Y-191495870D01*
X499993819Y-191495870D01*
X499995249Y-191416120D01*
X500004743Y-191284164D01*
X500029881Y-191151543D01*
X500072824Y-191013077D01*
X500135731Y-190863588D01*
X500220762Y-190697896D01*
X500330078Y-190510820D01*
X500454725Y-190314186D01*
X500562110Y-190155861D01*
X500669943Y-190011313D01*
X500785888Y-189871457D01*
X500917610Y-189727208D01*
X501072773Y-189569482D01*
X501131813Y-189511577D01*
X501317040Y-189339899D01*
X501482130Y-189205234D01*
X501627291Y-189107472D01*
X501752730Y-189046504D01*
X501858655Y-189022219D01*
X501945274Y-189034507D01*
G36*
X501945274Y-189034507D02*
G01*
X501986708Y-189058315D01*
X502010740Y-189102834D01*
X502010683Y-189175303D01*
X501988335Y-189270176D01*
X501945493Y-189381907D01*
X501883955Y-189504949D01*
X501805518Y-189633755D01*
X501795260Y-189649034D01*
X501609528Y-189914651D01*
X501413894Y-190179214D01*
X501212606Y-190437695D01*
X501009911Y-190685064D01*
X500810057Y-190916293D01*
X500617291Y-191126354D01*
X500435861Y-191310217D01*
X500270013Y-191462854D01*
X500245750Y-191483585D01*
X500189825Y-191532022D01*
X500162268Y-191561920D01*
X500158655Y-191581506D01*
X500174560Y-191599011D01*
X500181004Y-191603978D01*
X500250672Y-191631401D01*
X500338637Y-191627335D01*
X500420543Y-191599240D01*
X500460467Y-191572088D01*
X500525224Y-191518176D01*
X500610683Y-191441622D01*
X500712715Y-191346540D01*
X500827190Y-191237047D01*
X500949978Y-191117259D01*
X501076951Y-190991293D01*
X501203977Y-190863265D01*
X501326928Y-190737291D01*
X501441673Y-190617486D01*
X501544084Y-190507968D01*
X501630029Y-190412852D01*
X501695380Y-190336256D01*
X501722544Y-190301500D01*
X501813501Y-190185221D01*
X501917610Y-190063336D01*
X502030527Y-189939908D01*
X502147906Y-189819001D01*
X502265402Y-189704677D01*
X502378671Y-189601001D01*
X502483367Y-189512036D01*
X502575145Y-189441845D01*
X502649660Y-189394493D01*
X502702567Y-189374041D01*
X502714442Y-189373873D01*
X502743193Y-189379422D01*
X502761874Y-189388263D01*
X502768170Y-189403236D01*
X502759763Y-189427178D01*
X502734339Y-189462928D01*
X502689580Y-189513325D01*
X502623172Y-189581205D01*
X502532796Y-189669408D01*
X502416138Y-189780773D01*
X502270882Y-189918136D01*
X502268377Y-189920500D01*
X502066564Y-190118007D01*
X501899478Y-190297575D01*
X501765070Y-190462228D01*
X501661292Y-190614991D01*
X501586093Y-190758891D01*
X501537425Y-190896953D01*
X501513238Y-191032202D01*
X501512913Y-191035750D01*
X501506754Y-191115555D01*
X501507825Y-191166161D01*
X501519010Y-191200478D01*
X501543194Y-191231415D01*
X501560600Y-191249189D01*
X501644314Y-191303499D01*
X501754664Y-191327752D01*
X501888099Y-191321569D01*
X502002876Y-191296249D01*
X502080636Y-191277176D01*
X502139040Y-191268965D01*
X502167631Y-191272998D01*
X502176704Y-191286475D01*
X502169531Y-191298859D01*
X502139791Y-191313345D01*
X502081163Y-191333128D01*
X502000301Y-191357559D01*
X501836846Y-191393623D01*
X501691359Y-191400674D01*
X501567891Y-191379186D01*
X501470489Y-191329632D01*
X501429781Y-191290925D01*
X501402175Y-191255457D01*
X501386070Y-191222243D01*
X501379265Y-191179538D01*
X501379561Y-191115591D01*
X501383342Y-191042836D01*
X501392580Y-190947177D01*
X501407568Y-190856753D01*
X501425393Y-190788336D01*
X501429257Y-190778256D01*
X501435079Y-190758742D01*
X501428922Y-190753836D01*
X501408279Y-190765741D01*
X501370644Y-190796662D01*
X501313511Y-190848802D01*
X501234373Y-190924366D01*
X501130723Y-191025556D01*
X501000054Y-191154578D01*
X500990555Y-191163992D01*
X500842058Y-191310231D01*
X500719028Y-191428731D01*
X500617650Y-191522325D01*
X500534111Y-191593849D01*
X500464598Y-191646137D01*
X500405296Y-191682023D01*
X500352392Y-191704342D01*
X500302073Y-191715929D01*
X500250524Y-191719619D01*
X500242944Y-191719666D01*
X500170452Y-191709500D01*
X500105680Y-191686631D01*
X500066831Y-191669145D01*
X500035120Y-191667405D01*
X499995930Y-191684123D01*
X499942690Y-191716868D01*
X499796868Y-191796081D01*
X499655439Y-191846658D01*
X499523587Y-191868202D01*
X499406496Y-191860312D01*
X499309350Y-191822589D01*
X499249171Y-191770290D01*
X499231311Y-191762416D01*
X499201967Y-191775471D01*
X499155309Y-191813205D01*
X499097197Y-191867951D01*
X499018797Y-191939162D01*
X498932958Y-192009389D01*
X498857143Y-192064409D01*
X498851251Y-192068229D01*
X498775470Y-192112227D01*
X498712495Y-192134966D01*
X498642940Y-192142682D01*
X498618815Y-192143000D01*
X498548037Y-192140189D01*
X498502911Y-192127543D01*
X498466899Y-192098739D01*
X498448459Y-192077868D01*
X498407221Y-192020458D01*
X498383191Y-191960746D01*
X498373787Y-191886742D01*
X498376426Y-191786455D01*
X498378783Y-191754379D01*
X498401565Y-191591600D01*
X498444711Y-191403402D01*
X498505489Y-191199848D01*
X498581169Y-190990998D01*
X498596263Y-190953374D01*
X498646133Y-190830932D01*
X498681942Y-190742491D01*
X498705537Y-190682821D01*
X498718771Y-190646695D01*
X498723494Y-190628884D01*
X498721556Y-190624159D01*
X498714808Y-190627293D01*
X498710778Y-190629823D01*
X498681400Y-190658266D01*
X498631796Y-190718323D01*
X498564755Y-190806076D01*
X498483068Y-190917609D01*
X498389523Y-191049006D01*
X498286910Y-191196349D01*
X498178020Y-191355722D01*
X498065642Y-191523208D01*
X497957117Y-191687916D01*
X497869072Y-191815179D01*
X497785112Y-191922125D01*
X497709114Y-192004586D01*
X497644953Y-192058389D01*
X497596505Y-192079364D01*
X497593224Y-192079500D01*
X497544897Y-192065025D01*
X497501885Y-192034385D01*
X497478418Y-192006239D01*
X497466524Y-191973508D01*
X497464234Y-191924018D01*
X497469576Y-191845597D01*
X497470196Y-191838593D01*
X497483620Y-191687916D01*
X497369493Y-191899583D01*
X497296276Y-192024138D01*
X497217317Y-192139192D01*
X497137773Y-192238668D01*
X497062800Y-192316487D01*
X496997553Y-192366570D01*
X496960361Y-192381884D01*
X496875742Y-192378217D01*
X496795500Y-192340724D01*
X496734221Y-192276663D01*
X496728197Y-192266375D01*
X496710616Y-192226186D01*
X496699592Y-192176982D01*
X496694047Y-192109145D01*
X496692902Y-192013060D01*
X496693544Y-191957416D01*
X496697339Y-191718916D01*
X496638748Y-191760636D01*
X496589060Y-191800090D01*
X496552098Y-191836165D01*
X496517348Y-191868568D01*
X496456204Y-191916949D01*
X496378050Y-191974665D01*
X496292274Y-192035072D01*
X496208262Y-192091526D01*
X496135401Y-192137383D01*
X496092635Y-192161377D01*
X495988620Y-192200401D01*
X495904185Y-192203670D01*
X495841512Y-192172246D01*
X495802787Y-192107191D01*
X495790167Y-192014353D01*
X495790167Y-191906872D01*
X495697431Y-191987894D01*
X495650256Y-192029700D01*
X495579387Y-192093249D01*
X495492380Y-192171729D01*
X495396796Y-192258328D01*
X495332306Y-192316964D01*
X495221862Y-192417510D01*
X495102287Y-192526322D01*
X494985437Y-192632613D01*
X494883170Y-192725597D01*
X494848250Y-192757331D01*
X494752960Y-192846471D01*
X494688730Y-192912908D01*
X494652958Y-192959608D01*
X494643041Y-192989533D01*
X494643205Y-192990825D01*
X494637679Y-193026241D01*
X494612527Y-193029014D01*
X494597778Y-193017888D01*
X494584737Y-192992062D01*
X494592692Y-192957164D01*
X494624458Y-192909265D01*
X494682852Y-192844440D01*
X494770690Y-192758761D01*
X494809688Y-192722402D01*
X494896875Y-192641775D01*
X494978863Y-192565936D01*
X495047758Y-192502189D01*
X495095664Y-192457838D01*
X495104213Y-192449916D01*
X495141555Y-192415799D01*
X495204142Y-192359166D01*
X495285655Y-192285712D01*
X495379774Y-192201132D01*
X495480034Y-192111250D01*
X495589134Y-192012736D01*
X495670750Y-191936524D01*
X495729584Y-191877415D01*
X495770340Y-191830213D01*
X495797721Y-191789723D01*
X495816430Y-191750748D01*
X495823439Y-191731838D01*
X495847525Y-191665905D01*
X495882150Y-191575646D01*
X495921604Y-191475822D01*
X495942179Y-191424921D01*
X495979387Y-191330321D01*
X496011865Y-191241642D01*
X496035042Y-191171672D01*
X496042456Y-191144546D01*
X496051486Y-191094655D01*
X496045882Y-191076097D01*
X496025666Y-191078850D01*
X495961064Y-191112015D01*
X495875425Y-191174109D01*
X495767880Y-191265936D01*
X495637563Y-191388298D01*
X495483607Y-191541998D01*
X495305145Y-191727840D01*
X495176906Y-191864838D01*
X495042482Y-192006817D01*
X494930709Y-192118121D01*
X494838218Y-192201469D01*
X494761638Y-192259579D01*
X494697600Y-192295168D01*
X494642734Y-192310954D01*
X494622065Y-192312333D01*
X494552855Y-192299633D01*
X494512864Y-192273624D01*
X494487258Y-192218871D01*
X494478528Y-192138046D01*
X494487343Y-192044185D01*
X494498638Y-191996095D01*
X494510122Y-191945846D01*
X494511400Y-191916304D01*
X494510399Y-191914510D01*
X494492481Y-191925699D01*
X494448269Y-191965594D01*
X494380179Y-192031793D01*
X494290629Y-192121891D01*
X494182033Y-192233487D01*
X494056809Y-192364175D01*
X494031401Y-192390898D01*
X493974135Y-192448796D01*
X493923789Y-192495506D01*
X493891055Y-192521120D01*
X493890572Y-192521395D01*
X493842015Y-192531294D01*
X493805135Y-192510895D01*
X493793087Y-192469012D01*
X493795160Y-192457467D01*
X493797510Y-192426753D01*
X493787959Y-192423590D01*
X493762281Y-192440438D01*
X493711339Y-192474360D01*
X493644986Y-192518791D01*
X493627376Y-192530616D01*
X493507419Y-192602289D01*
X493377314Y-192665052D01*
X493248216Y-192714579D01*
X493131283Y-192746541D01*
X493044474Y-192756715D01*
X492898245Y-192742722D01*
X492779532Y-192699480D01*
X492685406Y-192624532D01*
X492612937Y-192515421D01*
X492559195Y-192369689D01*
X492552458Y-192344083D01*
X492539516Y-192262946D01*
X492531735Y-192150322D01*
X492528979Y-192016720D01*
X492531109Y-191872653D01*
X492537988Y-191728633D01*
X492549478Y-191595171D01*
X492563593Y-191493085D01*
X492611174Y-191260992D01*
X492676901Y-191001298D01*
X492757846Y-190723117D01*
X492851083Y-190435566D01*
X492953685Y-190147760D01*
X493062725Y-189868812D01*
X493153154Y-189656971D01*
X493180137Y-189594758D01*
X493196858Y-189552935D01*
X493199705Y-189540572D01*
X493185047Y-189560722D01*
X493151434Y-189609402D01*
X493103424Y-189679940D01*
X493045578Y-189765663D01*
X493026871Y-189793517D01*
X492945464Y-189912079D01*
X492849950Y-190046617D01*
X492744822Y-190191207D01*
X492634569Y-190339928D01*
X492523683Y-190486859D01*
X492416655Y-190626078D01*
X492317977Y-190751663D01*
X492232139Y-190857692D01*
X492163632Y-190938244D01*
X492134899Y-190969614D01*
X492025658Y-191080005D01*
X491937471Y-191160203D01*
X491865673Y-191213637D01*
X491805599Y-191243739D01*
X491752584Y-191253940D01*
X491748233Y-191254000D01*
X491660990Y-191238920D01*
X491595061Y-191192587D01*
X491549640Y-191113358D01*
X491523924Y-190999592D01*
X491517105Y-190849647D01*
X491519097Y-190786997D01*
X491523314Y-190687987D01*
X491522481Y-190629519D01*
X491513630Y-190610997D01*
X491493792Y-190631823D01*
X491460000Y-190691400D01*
X491420611Y-190767166D01*
X491311878Y-190968756D01*
X491188445Y-191181617D01*
X491054862Y-191398944D01*
X490915680Y-191613928D01*
X490775449Y-191819763D01*
X490638719Y-192009641D01*
X490510040Y-192176754D01*
X490393962Y-192314297D01*
X490366306Y-192344482D01*
X490235441Y-192477678D01*
X490119665Y-192581927D01*
X490020676Y-192656218D01*
X489940170Y-192699538D01*
X489879845Y-192710876D01*
X489841397Y-192689219D01*
X489830473Y-192664032D01*
X489831615Y-192603193D01*
X489856391Y-192535473D01*
X489896823Y-192473667D01*
X489944932Y-192430572D01*
X489983779Y-192418166D01*
X489988819Y-192437009D01*
X489988958Y-192484703D01*
X489987187Y-192513416D01*
X489985094Y-192570112D01*
X489988498Y-192604212D01*
X489991829Y-192608666D01*
X490014931Y-192595405D01*
X490060530Y-192560362D01*
X490120178Y-192510648D01*
X490185432Y-192453371D01*
X490247844Y-192395643D01*
X490267590Y-192376513D01*
X490373374Y-192262389D01*
X490493645Y-192115057D01*
X490624976Y-191939663D01*
X490763937Y-191741354D01*
X490907101Y-191525278D01*
X491051039Y-191296580D01*
X491192322Y-191060408D01*
X491327522Y-190821909D01*
X491428797Y-190633279D01*
X491481751Y-190530133D01*
X491523373Y-190442910D01*
X491557316Y-190361473D01*
X491587234Y-190275681D01*
X491616780Y-190175396D01*
X491649609Y-190050480D01*
X491674195Y-189952250D01*
X491726453Y-189750838D01*
X491774256Y-189587749D01*
X491819006Y-189459378D01*
X491862104Y-189362122D01*
X491904949Y-189292376D01*
X491948263Y-189247069D01*
X492002063Y-189219725D01*
X492043310Y-189226440D01*
X492063876Y-189264958D01*
X492064833Y-189279408D01*
X492057663Y-189315652D01*
X492038353Y-189381750D01*
X492010206Y-189468140D01*
X491976521Y-189565258D01*
X491940600Y-189663541D01*
X491905746Y-189753428D01*
X491880052Y-189814666D01*
X491841550Y-189918821D01*
X491802584Y-190054342D01*
X491765348Y-190210349D01*
X491732032Y-190375956D01*
X491704829Y-190540283D01*
X491685930Y-190692446D01*
X491677560Y-190820083D01*
X491679346Y-190948389D01*
X491692652Y-191040259D01*
X491719350Y-191100476D01*
X491761310Y-191133822D01*
X491804268Y-191144110D01*
X491839800Y-191143500D01*
X491874792Y-191130634D01*
X491917501Y-191100183D01*
X491976184Y-191046820D01*
X492017497Y-191006526D01*
X492139219Y-190877351D01*
X492279375Y-190712173D01*
X492436808Y-190512514D01*
X492610363Y-190279899D01*
X492798882Y-190015853D01*
X493001211Y-189721899D01*
X493074169Y-189613583D01*
X493153616Y-189494250D01*
X493228587Y-189380233D01*
X493294555Y-189278524D01*
X493346995Y-189196116D01*
X493381380Y-189140000D01*
X493386690Y-189130783D01*
X493425637Y-189069268D01*
X493457726Y-189040026D01*
X493489921Y-189035533D01*
X493516102Y-189045694D01*
X493528381Y-189069882D01*
X493525779Y-189112668D01*
X493507314Y-189178627D01*
X493472008Y-189272328D01*
X493418880Y-189398346D01*
X493405658Y-189428680D01*
X493219090Y-189871175D01*
X493060272Y-190282848D01*
X492928930Y-190664603D01*
X492824788Y-191017346D01*
X492747571Y-191341983D01*
X492697005Y-191639420D01*
X492677787Y-191825453D01*
X492669353Y-192018452D01*
X492675720Y-192179876D01*
X492697787Y-192318136D01*
X492736452Y-192441641D01*
X492746024Y-192464775D01*
X492794392Y-192554178D01*
X492853853Y-192613149D01*
X492933158Y-192646789D01*
X493041057Y-192660199D01*
X493082680Y-192661050D01*
X493163136Y-192659710D01*
X493225590Y-192652474D01*
X493284736Y-192635447D01*
X493355265Y-192604735D01*
X493424129Y-192570551D01*
X493523852Y-192514759D01*
X493627551Y-192448285D01*
X493716184Y-192383519D01*
X493733260Y-192369468D01*
X493770779Y-192336822D01*
X493803281Y-192305362D01*
X493833701Y-192270304D01*
X493864974Y-192226861D01*
X493900035Y-192170248D01*
X493941819Y-192095679D01*
X493993260Y-191998369D01*
X494057293Y-191873532D01*
X494065536Y-191857250D01*
X494202667Y-191857250D01*
X494213250Y-191867833D01*
X494223833Y-191857250D01*
X494213250Y-191846666D01*
X494202667Y-191857250D01*
X494065536Y-191857250D01*
X494086934Y-191814984D01*
X494240200Y-191814984D01*
X494242520Y-191816449D01*
X494259813Y-191794493D01*
X494293924Y-191742303D01*
X494340757Y-191666452D01*
X494396219Y-191573515D01*
X494431592Y-191512879D01*
X494511066Y-191373449D01*
X494581182Y-191246534D01*
X494640917Y-191134572D01*
X494689250Y-191039999D01*
X494725159Y-190965252D01*
X494747622Y-190912768D01*
X494755615Y-190884984D01*
X494748118Y-190884336D01*
X494724109Y-190913261D01*
X494682564Y-190974197D01*
X494622463Y-191069579D01*
X494606758Y-191095250D01*
X494563790Y-191168690D01*
X494513947Y-191258482D01*
X494460416Y-191358319D01*
X494406383Y-191461891D01*
X494355034Y-191562890D01*
X494309555Y-191655007D01*
X494273133Y-191731934D01*
X494248952Y-191787363D01*
X494240200Y-191814984D01*
X494086934Y-191814984D01*
X494136854Y-191716382D01*
X494151222Y-191687916D01*
X494276774Y-191442806D01*
X494387404Y-191235128D01*
X494484357Y-191063188D01*
X494568878Y-190925295D01*
X494642215Y-190819757D01*
X494705612Y-190744880D01*
X494760316Y-190698972D01*
X494807573Y-190680341D01*
X494848627Y-190687294D01*
X494873968Y-190706101D01*
X494884265Y-190730807D01*
X494879560Y-190772981D01*
X494858347Y-190836598D01*
X494819118Y-190925634D01*
X494760366Y-191044061D01*
X494707365Y-191145544D01*
X494568419Y-191401422D01*
X494440572Y-191623522D01*
X494324729Y-191810388D01*
X494221792Y-191960566D01*
X494132667Y-192072600D01*
X494128317Y-192077478D01*
X494078039Y-192142531D01*
X494026957Y-192222452D01*
X494004995Y-192262684D01*
X493988767Y-192296538D01*
X493982718Y-192315797D01*
X493989784Y-192318056D01*
X494012905Y-192300911D01*
X494055017Y-192261957D01*
X494119059Y-192198790D01*
X494207969Y-192109005D01*
X494270645Y-192045256D01*
X494392655Y-191919212D01*
X494488006Y-191816209D01*
X494561315Y-191730762D01*
X494617199Y-191657385D01*
X494660277Y-191590591D01*
X494674279Y-191565738D01*
X494750305Y-191432057D01*
X494827698Y-191306916D01*
X494964667Y-191306916D01*
X494975250Y-191317500D01*
X494985833Y-191306916D01*
X494975250Y-191296333D01*
X494964667Y-191306916D01*
X494827698Y-191306916D01*
X494830404Y-191302542D01*
X494862856Y-191254000D01*
X495015549Y-191254000D01*
X495032364Y-191238054D01*
X495064458Y-191196994D01*
X495091667Y-191158750D01*
X495125761Y-191106675D01*
X495145092Y-191072078D01*
X495146617Y-191063500D01*
X495129802Y-191079445D01*
X495097708Y-191120505D01*
X495070500Y-191158750D01*
X495036405Y-191210824D01*
X495017075Y-191245421D01*
X495015549Y-191254000D01*
X494862856Y-191254000D01*
X494910771Y-191182331D01*
X494987601Y-191076563D01*
X495057091Y-190990377D01*
X495115434Y-190928910D01*
X495158826Y-190897302D01*
X495171544Y-190894166D01*
X495213683Y-190912332D01*
X495243984Y-190954835D01*
X495250129Y-191003681D01*
X495249150Y-191007522D01*
X495219914Y-191072308D01*
X495165202Y-191160194D01*
X495089701Y-191264572D01*
X494998096Y-191378834D01*
X494929620Y-191458107D01*
X494804987Y-191617455D01*
X494707684Y-191782388D01*
X494640956Y-191945923D01*
X494608048Y-192101076D01*
X494605084Y-192156610D01*
X494612179Y-192210148D01*
X494635045Y-192235717D01*
X494675292Y-192232382D01*
X494734530Y-192199210D01*
X494814369Y-192135268D01*
X494916420Y-192039621D01*
X495042291Y-191911336D01*
X495059917Y-191892815D01*
X495243845Y-191700299D01*
X495402568Y-191537227D01*
X495538748Y-191401175D01*
X495655050Y-191289724D01*
X495754139Y-191200451D01*
X495838678Y-191130934D01*
X495911331Y-191078752D01*
X495974763Y-191041484D01*
X496018248Y-191021721D01*
X496069203Y-191005931D01*
X496103000Y-191012023D01*
X496129373Y-191032238D01*
X496157813Y-191070898D01*
X496167993Y-191123237D01*
X496159263Y-191195204D01*
X496130971Y-191292746D01*
X496088296Y-191407184D01*
X496057351Y-191489913D01*
X496037121Y-191553651D01*
X496029637Y-191591244D01*
X496034194Y-191597684D01*
X496063253Y-191575765D01*
X496111840Y-191533953D01*
X496164118Y-191486227D01*
X496306491Y-191356744D01*
X496461026Y-191223013D01*
X496619659Y-191091544D01*
X496774325Y-190968843D01*
X496916961Y-190861421D01*
X497039502Y-190775784D01*
X497064441Y-190759570D01*
X497135597Y-190714908D01*
X497178466Y-190691188D01*
X497200035Y-190685943D01*
X497207287Y-190696704D01*
X497207696Y-190708958D01*
X497190698Y-190731440D01*
X497145690Y-190769531D01*
X497080749Y-190816705D01*
X497043960Y-190841250D01*
X496929462Y-190918678D01*
X496811351Y-191005273D01*
X496684617Y-191105126D01*
X496544252Y-191222328D01*
X496385248Y-191360969D01*
X496202594Y-191525140D01*
X496168005Y-191556636D01*
X496069681Y-191648304D01*
X495999651Y-191720943D01*
X495953676Y-191782613D01*
X495927518Y-191841372D01*
X495916939Y-191905281D01*
X495917699Y-191982398D01*
X495920857Y-192026583D01*
X495928585Y-192081537D01*
X495946677Y-192107255D01*
X495985551Y-192116836D01*
X495993283Y-192117639D01*
X496054345Y-192106427D01*
X496141452Y-192064228D01*
X496252978Y-191992091D01*
X496387295Y-191891065D01*
X496537098Y-191767079D01*
X496714836Y-191614499D01*
X496736684Y-191434320D01*
X496753530Y-191323816D01*
X496774028Y-191250133D01*
X496800680Y-191207776D01*
X496835989Y-191191248D01*
X496847694Y-191190500D01*
X496881541Y-191208784D01*
X496912625Y-191253228D01*
X496931316Y-191308219D01*
X496933167Y-191329079D01*
X496921156Y-191356715D01*
X496897091Y-191352927D01*
X496883685Y-191333375D01*
X496876709Y-191334549D01*
X496872057Y-191369273D01*
X496871338Y-191388081D01*
X496869667Y-191469246D01*
X497001958Y-191355137D01*
X497103587Y-191270104D01*
X497210012Y-191185609D01*
X497315669Y-191105586D01*
X497414989Y-191033970D01*
X497502408Y-190974695D01*
X497572357Y-190931695D01*
X497619272Y-190908905D01*
X497635682Y-190907231D01*
X497651774Y-190928797D01*
X497634728Y-190956796D01*
X497581720Y-190994987D01*
X497559926Y-191008091D01*
X497493423Y-191051305D01*
X497404245Y-191115090D01*
X497301525Y-191192297D01*
X497194393Y-191275777D01*
X497091981Y-191358382D01*
X497003420Y-191432963D01*
X496937840Y-191492371D01*
X496924903Y-191505247D01*
X496842556Y-191589955D01*
X496832138Y-191842907D01*
X496829182Y-191950274D01*
X496829074Y-192049472D01*
X496831673Y-192128672D01*
X496836099Y-192172506D01*
X496864395Y-192244753D01*
X496912274Y-192290865D01*
X496971059Y-192304592D01*
X497006549Y-192295337D01*
X497062518Y-192253283D01*
X497129449Y-192175214D01*
X497205033Y-192065314D01*
X497286956Y-191927767D01*
X497372907Y-191766755D01*
X497426680Y-191656166D01*
X497483500Y-191656166D01*
X497491244Y-191673589D01*
X497497611Y-191670277D01*
X497500144Y-191645157D01*
X497497611Y-191642055D01*
X497485027Y-191644961D01*
X497483500Y-191656166D01*
X497426680Y-191656166D01*
X497460574Y-191586463D01*
X497547646Y-191391073D01*
X497631811Y-191184770D01*
X497658021Y-191116416D01*
X497696132Y-191018584D01*
X497725253Y-190954176D01*
X497749792Y-190916459D01*
X497774160Y-190898701D01*
X497802767Y-190894168D01*
X497803592Y-190894166D01*
X497832451Y-190906853D01*
X497841922Y-190946777D01*
X497831753Y-191016737D01*
X497801690Y-191119529D01*
X497776793Y-191190500D01*
X497740271Y-191295081D01*
X497703780Y-191407101D01*
X497674326Y-191504929D01*
X497670525Y-191518583D01*
X497649624Y-191607770D01*
X497632640Y-191704406D01*
X497620381Y-191799666D01*
X497613653Y-191884721D01*
X497613263Y-191950746D01*
X497620018Y-191988913D01*
X497626993Y-191994833D01*
X497657109Y-191977568D01*
X497704965Y-191929166D01*
X497766392Y-191854713D01*
X497837224Y-191759296D01*
X497913292Y-191648001D01*
X497921806Y-191635000D01*
X498042753Y-191451074D01*
X498150278Y-191291356D01*
X498252733Y-191143746D01*
X498358469Y-190996144D01*
X498433141Y-190894166D01*
X498540692Y-190749686D01*
X498627335Y-190636785D01*
X498667547Y-190587250D01*
X498732333Y-190587250D01*
X498742917Y-190597833D01*
X498753500Y-190587250D01*
X498742917Y-190576666D01*
X498732333Y-190587250D01*
X498667547Y-190587250D01*
X498696075Y-190552108D01*
X498749915Y-190492300D01*
X498791857Y-190454006D01*
X498824906Y-190433870D01*
X498849983Y-190428500D01*
X498894473Y-190445372D01*
X498915675Y-190489453D01*
X498910842Y-190550935D01*
X498895257Y-190590261D01*
X498855596Y-190674527D01*
X498807243Y-190787775D01*
X498754575Y-190918723D01*
X498701971Y-191056087D01*
X498653808Y-191188586D01*
X498614465Y-191304937D01*
X498600736Y-191349250D01*
X498564491Y-191490269D01*
X498538916Y-191629791D01*
X498524632Y-191759784D01*
X498522261Y-191872213D01*
X498532423Y-191959048D01*
X498550054Y-192004781D01*
X498582055Y-192040260D01*
X498626508Y-192055692D01*
X498677576Y-192058333D01*
X498735571Y-192053387D01*
X498789223Y-192034569D01*
X498852507Y-191995908D01*
X498894046Y-191965841D01*
X498969429Y-191906285D01*
X499042636Y-191842980D01*
X499092167Y-191795332D01*
X499166250Y-191717316D01*
X499167803Y-191539750D01*
X499297085Y-191539750D01*
X499427484Y-191370416D01*
X499499747Y-191274896D01*
X499582401Y-191163065D01*
X499661803Y-191053462D01*
X499692291Y-191010583D01*
X499813588Y-190833916D01*
X499932306Y-190652048D01*
X500046274Y-190469033D01*
X500153315Y-190288922D01*
X500251257Y-190115769D01*
X500337925Y-189953624D01*
X500411145Y-189806542D01*
X500468742Y-189678574D01*
X500508543Y-189573773D01*
X500528374Y-189496190D01*
X500527588Y-189453680D01*
X500509470Y-189453134D01*
X500469045Y-189480172D01*
X500411270Y-189529992D01*
X500341099Y-189597792D01*
X500263486Y-189678770D01*
X500183388Y-189768122D01*
X500105759Y-189861048D01*
X500100529Y-189867583D01*
X500001800Y-189995845D01*
X499898124Y-190138456D01*
X499794651Y-190287634D01*
X499696529Y-190435598D01*
X499608905Y-190574568D01*
X499536930Y-190696763D01*
X499485751Y-190794403D01*
X499482187Y-190802055D01*
X499387242Y-191041152D01*
X499328318Y-191265760D01*
X499310957Y-191388796D01*
X499297085Y-191539750D01*
X499167803Y-191539750D01*
X499168138Y-191501533D01*
X499179820Y-191317036D01*
X499213100Y-191136545D01*
X499270281Y-190953886D01*
X499353664Y-190762886D01*
X499465552Y-190557371D01*
X499599836Y-190343833D01*
X499734377Y-190147107D01*
X499868337Y-189963321D01*
X499998287Y-189796575D01*
X500120797Y-189650972D01*
X500232437Y-189530612D01*
X500329778Y-189439596D01*
X500399048Y-189388161D01*
X500472493Y-189357878D01*
X500533705Y-189361587D01*
X500575781Y-189397876D01*
X500587209Y-189426671D01*
X500588059Y-189497855D01*
X500564001Y-189599076D01*
X500516667Y-189727394D01*
X500447695Y-189879869D01*
X500358719Y-190053561D01*
X500251374Y-190245530D01*
X500127296Y-190452836D01*
X499988119Y-190672539D01*
X499835479Y-190901698D01*
X499671012Y-191137375D01*
X499521257Y-191343162D01*
X499440604Y-191453419D01*
X499384331Y-191536228D01*
X499350695Y-191597452D01*
X499337953Y-191642956D01*
X499344361Y-191678602D01*
X499368176Y-191710254D01*
X499403189Y-191740281D01*
X499473559Y-191773982D01*
X499559310Y-191783166D01*
X499642445Y-191778191D01*
X499717615Y-191760116D01*
X499799068Y-191724223D01*
X499885917Y-191674956D01*
X499991750Y-191611268D01*
X499993819Y-191495870D01*
X500122414Y-191495870D01*
X500215832Y-191423018D01*
X500270350Y-191377024D01*
X500343397Y-191310671D01*
X500424071Y-191234032D01*
X500479510Y-191179391D01*
X500617655Y-191035012D01*
X500772272Y-190863291D01*
X500936573Y-190672254D01*
X501103770Y-190469930D01*
X501267074Y-190264346D01*
X501394408Y-190097506D01*
X501531066Y-189913201D01*
X501643392Y-189757857D01*
X501733743Y-189627575D01*
X501804472Y-189518456D01*
X501857936Y-189426598D01*
X501896489Y-189348101D01*
X501922488Y-189279066D01*
X501938286Y-189215593D01*
X501942383Y-189190119D01*
X501948308Y-189131429D01*
X501942765Y-189103458D01*
X501922700Y-189095434D01*
X501915502Y-189095279D01*
X501859349Y-189109515D01*
X501779170Y-189148778D01*
X501681480Y-189208781D01*
X501572795Y-189285239D01*
X501459633Y-189373866D01*
X501357000Y-189462621D01*
X501107936Y-189703263D01*
X500886442Y-189949081D01*
X500684740Y-190209948D01*
X500495050Y-190495741D01*
X500354230Y-190735515D01*
X500271307Y-190891633D01*
X500211404Y-191025296D01*
X500170802Y-191146868D01*
X500145783Y-191266716D01*
X500136725Y-191341894D01*
X500122414Y-191495870D01*
X499993819Y-191495870D01*
X499995249Y-191416120D01*
X500004743Y-191284164D01*
X500029881Y-191151543D01*
X500072824Y-191013077D01*
X500135731Y-190863588D01*
X500220762Y-190697896D01*
X500330078Y-190510820D01*
X500454725Y-190314186D01*
X500562110Y-190155861D01*
X500669943Y-190011313D01*
X500785888Y-189871457D01*
X500917610Y-189727208D01*
X501072773Y-189569482D01*
X501131813Y-189511577D01*
X501317040Y-189339899D01*
X501482130Y-189205234D01*
X501627291Y-189107472D01*
X501752730Y-189046504D01*
X501858655Y-189022219D01*
X501945274Y-189034507D01*
G37*
D15*
X126610000Y-191715000D02*
X135500000Y-180285000D01*
D16*
X134103000Y-187016000D02*
X135500000Y-187016000D01*
X134103000Y-189810000D02*
X134865000Y-189175000D01*
X134230000Y-188794000D02*
X134103000Y-189810000D01*
X134357000Y-189302000D02*
X134230000Y-188794000D01*
X134357000Y-189429000D02*
X136135000Y-186635000D01*
X134484000Y-186889000D02*
X135754000Y-186889000D01*
X134865000Y-186635000D02*
X136643000Y-184603000D01*
X134865000Y-189175000D02*
X134357000Y-189429000D01*
D15*
X135500000Y-180285000D02*
X144390000Y-191715000D01*
D16*
X135500000Y-187016000D02*
X134357000Y-189302000D01*
X135627000Y-184730000D02*
X134103000Y-187016000D01*
X135881000Y-184984000D02*
X134484000Y-186889000D01*
X135881000Y-185111000D02*
X135754000Y-184603000D01*
X136135000Y-186635000D02*
X134865000Y-186635000D01*
X136643000Y-184603000D02*
X135881000Y-185111000D01*
D15*
X144390000Y-191715000D02*
X126610000Y-191715000D01*
D17*
X217706198Y-190298709D02*
X216436198Y-190298709D01*
X217071198Y-190933709D02*
X217071198Y-189663709D01*
X237619798Y-168925709D02*
G75*
G03*
X237619798Y-168925709I-20624800J0D01*
G01*
X282283798Y-109372409D02*
X283553798Y-109372409D01*
X282918798Y-108737409D02*
X282918798Y-110007409D01*
X303619798Y-130745409D02*
G75*
G03*
X303619798Y-130745409I-20624800J0D01*
G01*
X173706198Y-190298709D02*
X172436198Y-190298709D01*
X173071198Y-190933709D02*
X173071198Y-189663709D01*
X193619798Y-168925709D02*
G75*
G03*
X193619798Y-168925709I-20624800J0D01*
G01*
X437706198Y-190298709D02*
X436436198Y-190298709D01*
X437071198Y-190933709D02*
X437071198Y-189663709D01*
X457619798Y-168925709D02*
G75*
G03*
X457619798Y-168925709I-20624800J0D01*
G01*
X458283798Y-109462559D02*
X459553798Y-109462559D01*
X458918798Y-108827559D02*
X458918798Y-110097559D01*
X479619798Y-130835559D02*
G75*
G03*
X479619798Y-130835559I-20624800J0D01*
G01*
D15*
X518215000Y-158890000D02*
X506785000Y-150000000D01*
D16*
X513516000Y-151397000D02*
X513516000Y-150000000D01*
X516310000Y-151397000D02*
X515675000Y-150635000D01*
X515294000Y-151270000D02*
X516310000Y-151397000D01*
X515802000Y-151143000D02*
X515294000Y-151270000D01*
X515929000Y-151143000D02*
X513135000Y-149365000D01*
X513389000Y-151016000D02*
X513389000Y-149746000D01*
X513135000Y-150635000D02*
X511103000Y-148857000D01*
X515675000Y-150635000D02*
X515929000Y-151143000D01*
D15*
X506785000Y-150000000D02*
X518215000Y-141110000D01*
D16*
X513516000Y-150000000D02*
X515802000Y-151143000D01*
X511230000Y-149873000D02*
X513516000Y-151397000D01*
X511484000Y-149619000D02*
X513389000Y-151016000D01*
X511611000Y-149619000D02*
X511103000Y-149746000D01*
X513135000Y-149365000D02*
X513135000Y-150635000D01*
X511103000Y-148857000D02*
X511611000Y-149619000D01*
D15*
X518215000Y-141110000D02*
X518215000Y-158890000D01*
D17*
X150283798Y-109372409D02*
X151553798Y-109372409D01*
X150918798Y-108737409D02*
X150918798Y-110007409D01*
X171619798Y-130745409D02*
G75*
G03*
X171619798Y-130745409I-20624800J0D01*
G01*
X326283798Y-109372409D02*
X327553798Y-109372409D01*
X326918798Y-108737409D02*
X326918798Y-110007409D01*
X347619798Y-130745409D02*
G75*
G03*
X347619798Y-130745409I-20624800J0D01*
G01*
X393706198Y-190208559D02*
X392436198Y-190208559D01*
X393071198Y-190843559D02*
X393071198Y-189573559D01*
X413619798Y-168835559D02*
G75*
G03*
X413619798Y-168835559I-20624800J0D01*
G01*
X370283798Y-109462559D02*
X371553798Y-109462559D01*
X370918798Y-108827559D02*
X370918798Y-110097559D01*
X391619798Y-130835559D02*
G75*
G03*
X391619798Y-130835559I-20624800J0D01*
G01*
X238283798Y-109372409D02*
X239553798Y-109372409D01*
X238918798Y-108737409D02*
X238918798Y-110007409D01*
X259619798Y-130745409D02*
G75*
G03*
X259619798Y-130745409I-20624800J0D01*
G01*
X481706198Y-190298709D02*
X480436198Y-190298709D01*
X481071198Y-190933709D02*
X481071198Y-189663709D01*
X501619798Y-168925709D02*
G75*
G03*
X501619798Y-168925709I-20624800J0D01*
G01*
X305706198Y-190298709D02*
X304436198Y-190298709D01*
X305071198Y-190933709D02*
X305071198Y-189663709D01*
X325619798Y-168925709D02*
G75*
G03*
X325619798Y-168925709I-20624800J0D01*
G01*
X261706198Y-190298709D02*
X260436198Y-190298709D01*
X261071198Y-190933709D02*
X261071198Y-189663709D01*
X281619798Y-168925709D02*
G75*
G03*
X281619798Y-168925709I-20624800J0D01*
G01*
X194283798Y-109372409D02*
X195553798Y-109372409D01*
X194918798Y-108737409D02*
X194918798Y-110007409D01*
X215619798Y-130745409D02*
G75*
G03*
X215619798Y-130745409I-20624800J0D01*
G01*
X349706198Y-190298709D02*
X348436198Y-190298709D01*
X349071198Y-190933709D02*
X349071198Y-189663709D01*
X369619798Y-168925709D02*
G75*
G03*
X369619798Y-168925709I-20624800J0D01*
G01*
X414283798Y-109462559D02*
X415553798Y-109462559D01*
X414918798Y-108827559D02*
X414918798Y-110097559D01*
X435619798Y-130835559D02*
G75*
G03*
X435619798Y-130835559I-20624800J0D01*
G01*
%LPC*%
D18*
X135585000Y-168965000D03*
D19*
X216994998Y-180175709D03*
D20*
X216994998Y-157675709D03*
X226737784Y-174550709D03*
X207252212Y-174550709D03*
D19*
X282994998Y-119495409D03*
D20*
X282994998Y-141995409D03*
X273252212Y-125120409D03*
X292737784Y-125120409D03*
D19*
X172994998Y-180175709D03*
D20*
X172994998Y-157675709D03*
X182737784Y-174550709D03*
X163252212Y-174550709D03*
D19*
X436994998Y-180175709D03*
D20*
X436994998Y-157675709D03*
X446737784Y-174550709D03*
X427252212Y-174550709D03*
D19*
X458994998Y-119585559D03*
D20*
X458994998Y-142085559D03*
X449252212Y-125210559D03*
X468737784Y-125210559D03*
D19*
X150994998Y-119495409D03*
D20*
X150994998Y-141995409D03*
X141252212Y-125120409D03*
X160737784Y-125120409D03*
D19*
X326994998Y-119495409D03*
D20*
X326994998Y-141995409D03*
X317252212Y-125120409D03*
X336737784Y-125120409D03*
D19*
X392994998Y-180085559D03*
D20*
X392994998Y-157585559D03*
X402737784Y-174460559D03*
X383252212Y-174460559D03*
D19*
X370994998Y-119585559D03*
D20*
X370994998Y-142085559D03*
X361252212Y-125210559D03*
X380737784Y-125210559D03*
D19*
X238994998Y-119495409D03*
D20*
X238994998Y-141995409D03*
X229252212Y-125120409D03*
X248737784Y-125120409D03*
D19*
X480994998Y-180175709D03*
D20*
X480994998Y-157675709D03*
X490737784Y-174550709D03*
X471252212Y-174550709D03*
D19*
X304994998Y-180175709D03*
D20*
X304994998Y-157675709D03*
X314737784Y-174550709D03*
X295252212Y-174550709D03*
D19*
X260994998Y-180175709D03*
D20*
X260994998Y-157675709D03*
X270737784Y-174550709D03*
X251252212Y-174550709D03*
D19*
X194994998Y-119495409D03*
D20*
X194994998Y-141995409D03*
X185252212Y-125120409D03*
X204737784Y-125120409D03*
D19*
X348994998Y-180175709D03*
D20*
X348994998Y-157675709D03*
X358737784Y-174550709D03*
X339252212Y-174550709D03*
D18*
X496265000Y-130865000D03*
D19*
X414994998Y-119585559D03*
D20*
X414994998Y-142085559D03*
X405252212Y-125210559D03*
X424737784Y-125210559D03*
%LPD*%
M02*
